ISO-10303-21;
HEADER;
FILE_DESCRIPTION(('Open CASCADE Model'),'2;1');
FILE_NAME('Open CASCADE Shape Model','2026-10-06T13:00:52',('Author'),(
    'Open CASCADE'),'Open CASCADE STEP processor 7.9','Open CASCADE 7.9'
  ,'Unknown');
FILE_SCHEMA(('AUTOMOTIVE_DESIGN { 1 0 10303 214 1 1 1 1 }'));
ENDSEC;
DATA;
#1 = APPLICATION_PROTOCOL_DEFINITION('international standard',
  'automotive_design',2000,#2);
#2 = APPLICATION_CONTEXT(
  'core data for automotive mechanical design processes');
#3 = SHAPE_DEFINITION_REPRESENTATION(#4,#10);
#4 = PRODUCT_DEFINITION_SHAPE('','',#5);
#5 = PRODUCT_DEFINITION('design','',#6,#9);
#6 = PRODUCT_DEFINITION_FORMATION('','',#7);
#7 = PRODUCT('Open CASCADE STEP translator 7.9 3',
  'Open CASCADE STEP translator 7.9 3','',(#8));
#8 = PRODUCT_CONTEXT('',#2,'mechanical');
#9 = PRODUCT_DEFINITION_CONTEXT('part definition',#2,'design');
#10 = ADVANCED_BREP_SHAPE_REPRESENTATION('',(#11,#15),#761);
#11 = AXIS2_PLACEMENT_3D('',#12,#13,#14);
#12 = CARTESIAN_POINT('',(0.,0.,0.));
#13 = DIRECTION('',(0.,0.,1.));
#14 = DIRECTION('',(1.,0.,-0.));
#15 = MANIFOLD_SOLID_BREP('',#16);
#16 = CLOSED_SHELL('',(#17,#269,#273,#608,#643,#700,#730,#757));
#17 = ADVANCED_FACE('',(#18),#31,.T.);
#18 = FACE_BOUND('',#19,.F.);
#19 = EDGE_LOOP('',(#20,#54,#77,#268));
#20 = ORIENTED_EDGE('',*,*,#21,.F.);
#21 = EDGE_CURVE('',#22,#22,#24,.T.);
#22 = VERTEX_POINT('',#23);
#23 = CARTESIAN_POINT('',(-40.,2.5,0.));
#24 = SURFACE_CURVE('',#25,(#30,#42),.PCURVE_S1.);
#25 = CIRCLE('',#26,2.5);
#26 = AXIS2_PLACEMENT_3D('',#27,#28,#29);
#27 = CARTESIAN_POINT('',(-40.,0.,0.));
#28 = DIRECTION('',(1.,0.,0.));
#29 = DIRECTION('',(0.,1.,0.));
#30 = PCURVE('',#31,#36);
#31 = CYLINDRICAL_SURFACE('',#32,2.5);
#32 = AXIS2_PLACEMENT_3D('',#33,#34,#35);
#33 = CARTESIAN_POINT('',(-40.,0.,0.));
#34 = DIRECTION('',(-1.,-0.,-0.));
#35 = DIRECTION('',(0.,1.,0.));
#36 = DEFINITIONAL_REPRESENTATION('',(#37),#41);
#37 = LINE('',#38,#39);
#38 = CARTESIAN_POINT('',(-0.,0.));
#39 = VECTOR('',#40,1.);
#40 = DIRECTION('',(-1.,0.));
#41 = ( GEOMETRIC_REPRESENTATION_CONTEXT(2) 
PARAMETRIC_REPRESENTATION_CONTEXT() REPRESENTATION_CONTEXT('2D SPACE',''
  ) );
#42 = PCURVE('',#43,#48);
#43 = PLANE('',#44);
#44 = AXIS2_PLACEMENT_3D('',#45,#46,#47);
#45 = CARTESIAN_POINT('',(-40.,-1.367440132539E-16,1.714341265789E-16));
#46 = DIRECTION('',(1.,0.,0.));
#47 = DIRECTION('',(-0.,0.,1.));
#48 = DEFINITIONAL_REPRESENTATION('',(#49),#53);
#49 = CIRCLE('',#50,2.5);
#50 = AXIS2_PLACEMENT_2D('',#51,#52);
#51 = CARTESIAN_POINT('',(-1.714341265789E-16,-1.367440132539E-16));
#52 = DIRECTION('',(0.,-1.));
#53 = ( GEOMETRIC_REPRESENTATION_CONTEXT(2) 
PARAMETRIC_REPRESENTATION_CONTEXT() REPRESENTATION_CONTEXT('2D SPACE',''
  ) );
#54 = ORIENTED_EDGE('',*,*,#55,.T.);
#55 = EDGE_CURVE('',#22,#56,#58,.T.);
#56 = VERTEX_POINT('',#57);
#57 = CARTESIAN_POINT('',(-33.90796366637,2.5,0.));
#58 = SEAM_CURVE('',#59,(#63,#70),.PCURVE_S1.);
#59 = LINE('',#60,#61);
#60 = CARTESIAN_POINT('',(-40.,2.5,0.));
#61 = VECTOR('',#62,1.);
#62 = DIRECTION('',(1.,0.,0.));
#63 = PCURVE('',#31,#64);
#64 = DEFINITIONAL_REPRESENTATION('',(#65),#69);
#65 = LINE('',#66,#67);
#66 = CARTESIAN_POINT('',(-6.28318530718,0.));
#67 = VECTOR('',#68,1.);
#68 = DIRECTION('',(-0.,-1.));
#69 = ( GEOMETRIC_REPRESENTATION_CONTEXT(2) 
PARAMETRIC_REPRESENTATION_CONTEXT() REPRESENTATION_CONTEXT('2D SPACE',''
  ) );
#70 = PCURVE('',#31,#71);
#71 = DEFINITIONAL_REPRESENTATION('',(#72),#76);
#72 = LINE('',#73,#74);
#73 = CARTESIAN_POINT('',(-0.,0.));
#74 = VECTOR('',#75,1.);
#75 = DIRECTION('',(-0.,-1.));
#76 = ( GEOMETRIC_REPRESENTATION_CONTEXT(2) 
PARAMETRIC_REPRESENTATION_CONTEXT() REPRESENTATION_CONTEXT('2D SPACE',''
  ) );
#77 = ORIENTED_EDGE('',*,*,#78,.T.);
#78 = EDGE_CURVE('',#56,#56,#79,.T.);
#79 = SURFACE_CURVE('',#80,(#139,#201),.PCURVE_S1.);
#80 = B_SPLINE_CURVE_WITH_KNOTS('',8,(#81,#82,#83,#84,#85,#86,#87,#88,
    #89,#90,#91,#92,#93,#94,#95,#96,#97,#98,#99,#100,#101,#102,#103,#104
    ,#105,#106,#107,#108,#109,#110,#111,#112,#113,#114,#115,#116,#117,
    #118,#119,#120,#121,#122,#123,#124,#125,#126,#127,#128,#129,#130,
    #131,#132,#133,#134,#135,#136,#137,#138),.UNSPECIFIED.,.T.,.F.,(9,7,
    7,7,7,7,7,7,9),(0.,0.127063934016,0.215903326122,0.300631785783,
    0.431385434736,0.595711283271,0.726622051977,0.83255578794,1.),
  .UNSPECIFIED.);
#81 = CARTESIAN_POINT('',(-33.90796366637,2.5,-8.881784197001E-16));
#82 = CARTESIAN_POINT('',(-33.90796366637,2.5,0.217498656452));
#83 = CARTESIAN_POINT('',(-33.90955803706,2.478375057264,0.434820932261)
  );
#84 = CARTESIAN_POINT('',(-33.91274256363,2.435183518583,0.650787902485)
  );
#85 = CARTESIAN_POINT('',(-33.91746310485,2.370103518561,0.86411974448)
  );
#86 = CARTESIAN_POINT('',(-33.92361231797,2.282502459123,1.073293681505)
  );
#87 = CARTESIAN_POINT('',(-33.93100768594,2.171510781522,1.276381520251)
  );
#88 = CARTESIAN_POINT('',(-33.93936043453,2.036114088477,1.470846561518)
  );
#89 = CARTESIAN_POINT('',(-33.95445670522,1.76282554992,1.780831560615)
  );
#90 = CARTESIAN_POINT('',(-33.96096397277,1.63729414801,1.903230346838)
  );
#91 = CARTESIAN_POINT('',(-33.96759705548,1.498613437685,2.018590131797)
  );
#92 = CARTESIAN_POINT('',(-33.97414455189,1.346936273742,2.124996729872)
  );
#93 = CARTESIAN_POINT('',(-33.9803593663,1.182646108286,2.22050254859));
#94 = CARTESIAN_POINT('',(-33.98597142209,1.006370834203,2.30311886798)
  );
#95 = CARTESIAN_POINT('',(-33.99070705534,0.819002760275,2.370805510684)
  );
#96 = CARTESIAN_POINT('',(-33.99775616552,0.433575471745,2.469766418473)
  );
#97 = CARTESIAN_POINT('',(-34.00014990463,0.23760197501,2.502274468237)
  );
#98 = CARTESIAN_POINT('',(-34.00126690031,3.688389281118E-02,
    2.517020668751));
#99 = CARTESIAN_POINT('',(-34.00097175171,-0.165209524691,2.513032935649
    ));
#100 = CARTESIAN_POINT('',(-33.99926300241,-0.365208231129,
    2.490318588993));
#101 = CARTESIAN_POINT('',(-33.99627928524,-0.559727427726,
    2.449856918207));
#102 = CARTESIAN_POINT('',(-33.99227167249,-0.745650862049,
    2.393594206486));
#103 = CARTESIAN_POINT('',(-33.98024372049,-1.189848918037,
    2.217723754667));
#104 = CARTESIAN_POINT('',(-33.97121777215,-1.432890192106,
    2.080177672754));
#105 = CARTESIAN_POINT('',(-33.96133636252,-1.64826074732,1.918894167083
    ));
#106 = CARTESIAN_POINT('',(-33.95138057073,-1.835936158462,
    1.739495080141));
#107 = CARTESIAN_POINT('',(-33.94195322526,-1.996475136451,
    1.546553848253));
#108 = CARTESIAN_POINT('',(-33.93348128237,-2.130739522328,
    1.343801667145));
#109 = CARTESIAN_POINT('',(-33.9262549614,-2.239739357183,1.134243853413
    ));
#110 = CARTESIAN_POINT('',(-33.91315605298,-2.430891051676,
    0.651449784174));
#111 = CARTESIAN_POINT('',(-33.90807978445,-2.499371919823,
    0.374648616852));
#112 = CARTESIAN_POINT('',(-33.90557838165,-2.531659650664,
    9.371076065897E-02));
#113 = CARTESIAN_POINT('',(-33.90579907811,-2.52860419996,
    -0.188574402134));
#114 = CARTESIAN_POINT('',(-33.90875347837,-2.490216124799,
    -0.469619081238));
#115 = CARTESIAN_POINT('',(-33.91432379591,-2.415721678862,
    -0.746594969413));
#116 = CARTESIAN_POINT('',(-33.92221127114,-2.303629900411,
    -1.015966312468));
#117 = CARTESIAN_POINT('',(-33.93950424774,-2.03094310982,-1.47705449431
    ));
#118 = CARTESIAN_POINT('',(-33.94837552538,-1.883258385932,
    -1.676109385236));
#119 = CARTESIAN_POINT('',(-33.95813980142,-1.707666723761,
    -1.864971236965));
#120 = CARTESIAN_POINT('',(-33.96829124056,-1.503824082609,
    -2.038491439682));
#121 = CARTESIAN_POINT('',(-33.97813573185,-1.272187239325,
    -2.191175355399));
#122 = CARTESIAN_POINT('',(-33.98682666583,-1.014091285825,
    -2.317147190027));
#123 = CARTESIAN_POINT('',(-33.99346296726,-0.731973449833,
    -2.410039576631));
#124 = CARTESIAN_POINT('',(-34.0003742193,-0.185320692545,
    -2.505445755652));
#125 = CARTESIAN_POINT('',(-34.0015354567,6.552349048377E-02,
    -2.520638728935));
#126 = CARTESIAN_POINT('',(-34.00051764011,0.317276220795,
    -2.506788102997));
#127 = CARTESIAN_POINT('',(-33.99730614429,0.564241387,-2.464106719708)
  );
#128 = CARTESIAN_POINT('',(-33.99218888236,0.800910106595,
    -2.394508466616));
#129 = CARTESIAN_POINT('',(-33.98568683141,1.022376059034,
    -2.301547937528));
#130 = CARTESIAN_POINT('',(-33.97841592065,1.224700172119,
    -2.190374731009));
#131 = CARTESIAN_POINT('',(-33.95914691208,1.69052893471,-1.873797830859
    ));
#132 = CARTESIAN_POINT('',(-33.9465067098,1.929781666714,-1.645425701386
    ));
#133 = CARTESIAN_POINT('',(-33.93452136991,2.124283288844,
    -1.394180148805));
#134 = CARTESIAN_POINT('',(-33.9242165153,2.276465323219,-1.127774660132
    ));
#135 = CARTESIAN_POINT('',(-33.91616982051,2.388692773224,
    -0.851688270702));
#136 = CARTESIAN_POINT('',(-33.91070315146,2.462845017995,
    -0.569837479292));
#137 = CARTESIAN_POINT('',(-33.90796366637,2.5,-0.28508909487));
#138 = CARTESIAN_POINT('',(-33.90796366637,2.5,-8.881784197001E-16));
#139 = PCURVE('',#31,#140);
#140 = DEFINITIONAL_REPRESENTATION('',(#141),#200);
#141 = B_SPLINE_CURVE_WITH_KNOTS('',8,(#142,#143,#144,#145,#146,#147,
    #148,#149,#150,#151,#152,#153,#154,#155,#156,#157,#158,#159,#160,
    #161,#162,#163,#164,#165,#166,#167,#168,#169,#170,#171,#172,#173,
    #174,#175,#176,#177,#178,#179,#180,#181,#182,#183,#184,#185,#186,
    #187,#188,#189,#190,#191,#192,#193,#194,#195,#196,#197,#198,#199),
  .UNSPECIFIED.,.F.,.F.,(9,7,7,7,7,7,7,7,9),(0.,0.127063934016,
    0.215903326122,0.300631785783,0.431385434736,0.595711283271,
    0.726622051977,0.83255578794,1.),.UNSPECIFIED.);
#142 = CARTESIAN_POINT('',(0.,-6.092036333628));
#143 = CARTESIAN_POINT('',(-8.69994625807E-02,-6.092036333628));
#144 = CARTESIAN_POINT('',(-0.173928226283,-6.090441962938));
#145 = CARTESIAN_POINT('',(-0.261318942703,-6.087257436369));
#146 = CARTESIAN_POINT('',(-0.349654549113,-6.082536895148));
#147 = CARTESIAN_POINT('',(-0.439421196904,-6.076387682021));
#148 = CARTESIAN_POINT('',(-0.531119033515,-6.068992314059));
#149 = CARTESIAN_POINT('',(-0.62528306299,-6.060639565467));
#150 = CARTESIAN_POINT('',(-0.790583915968,-6.045543294776));
#151 = CARTESIAN_POINT('',(-0.86051540633,-6.039036027229));
#152 = CARTESIAN_POINT('',(-0.932291874509,-6.032402944514));
#153 = CARTESIAN_POINT('',(-1.00589292788,-6.025855448107));
#154 = CARTESIAN_POINT('',(-1.081335518511,-6.019640633691));
#155 = CARTESIAN_POINT('',(-1.15867210468,-6.014028577906));
#156 = CARTESIAN_POINT('',(-1.237998143477,-6.009292944651));
#157 = CARTESIAN_POINT('',(-1.397169726877,-6.00224383448));
#158 = CARTESIAN_POINT('',(-1.476329943979,-5.999850095366));
#159 = CARTESIAN_POINT('',(-1.556277129284,-5.998733099682));
#160 = CARTESIAN_POINT('',(-1.636435057524,-5.999028248286));
#161 = CARTESIAN_POINT('',(-1.716266539925,-6.000736997581));
#162 = CARTESIAN_POINT('',(-1.795215254571,-6.003720714759));
#163 = CARTESIAN_POINT('',(-1.872646581883,-6.007728327506));
#164 = CARTESIAN_POINT('',(-2.06374543746,-6.019756279508));
#165 = CARTESIAN_POINT('',(-2.174389294957,-6.028782227849));
#166 = CARTESIAN_POINT('',(-2.280610049724,-6.03866363748));
#167 = CARTESIAN_POINT('',(-2.383044121695,-6.048619429264));
#168 = CARTESIAN_POINT('',(-2.482213164871,-6.058046774738));
#169 = CARTESIAN_POINT('',(-2.578578905424,-6.066518717626));
#170 = CARTESIAN_POINT('',(-2.67256544909,-6.073745038592));
#171 = CARTESIAN_POINT('',(-2.880268731144,-6.086843947017));
#172 = CARTESIAN_POINT('',(-2.993297869893,-6.091920215542));
#173 = CARTESIAN_POINT('',(-3.104893554777,-6.09442161835));
#174 = CARTESIAN_POINT('',(-3.216053293317,-6.094200921881));
#175 = CARTESIAN_POINT('',(-3.327718815151,-6.091246521623));
#176 = CARTESIAN_POINT('',(-3.44083242789,-6.085676204084));
#177 = CARTESIAN_POINT('',(-3.556400155616,-6.077788728851));
#178 = CARTESIAN_POINT('',(-3.770674894098,-6.060495752259));
#179 = CARTESIAN_POINT('',(-3.869279339942,-6.051624474612));
#180 = CARTESIAN_POINT('',(-3.971366334232,-6.04186019858));
#181 = CARTESIAN_POINT('',(-4.076947640541,-6.031708759437));
#182 = CARTESIAN_POINT('',(-4.186182731813,-6.021864268146));
#183 = CARTESIAN_POINT('',(-4.299358549522,-6.01317333417));
#184 = CARTESIAN_POINT('',(-4.416914210085,-6.00653703274));
#185 = CARTESIAN_POINT('',(-4.638880541242,-5.999625780693));
#186 = CARTESIAN_POINT('',(-4.738768700421,-5.998464543296));
#187 = CARTESIAN_POINT('',(-4.838509840585,-5.999482359884));
#188 = CARTESIAN_POINT('',(-4.937438426476,-6.002693855704));
#189 = CARTESIAN_POINT('',(-5.034880242276,-6.007811117637));
#190 = CARTESIAN_POINT('',(-5.130061542632,-6.014313168581));
#191 = CARTESIAN_POINT('',(-5.221992582208,-6.021584079348));
#192 = CARTESIAN_POINT('',(-5.447280795753,-6.040853087911));
#193 = CARTESIAN_POINT('',(-5.577779363186,-6.053493290193));
#194 = CARTESIAN_POINT('',(-5.702616350254,-6.065478630087));
#195 = CARTESIAN_POINT('',(-5.823054856007,-6.075783484695));
#196 = CARTESIAN_POINT('',(-5.940252182254,-6.083830179487));
#197 = CARTESIAN_POINT('',(-6.055249896037,-6.089296848538));
#198 = CARTESIAN_POINT('',(-6.169149669232,-6.092036333628));
#199 = CARTESIAN_POINT('',(-6.28318530718,-6.092036333628));
#200 = ( GEOMETRIC_REPRESENTATION_CONTEXT(2) 
PARAMETRIC_REPRESENTATION_CONTEXT() REPRESENTATION_CONTEXT('2D SPACE',''
  ) );
#201 = PCURVE('',#202,#207);
#202 = CYLINDRICAL_SURFACE('',#203,34.);
#203 = AXIS2_PLACEMENT_3D('',#204,#205,#206);
#204 = CARTESIAN_POINT('',(0.,0.,-6.));
#205 = DIRECTION('',(-0.,-0.,-1.));
#206 = DIRECTION('',(1.,0.,0.));
#207 = DEFINITIONAL_REPRESENTATION('',(#208),#267);
#208 = B_SPLINE_CURVE_WITH_KNOTS('',8,(#209,#210,#211,#212,#213,#214,
    #215,#216,#217,#218,#219,#220,#221,#222,#223,#224,#225,#226,#227,
    #228,#229,#230,#231,#232,#233,#234,#235,#236,#237,#238,#239,#240,
    #241,#242,#243,#244,#245,#246,#247,#248,#249,#250,#251,#252,#253,
    #254,#255,#256,#257,#258,#259,#260,#261,#262,#263,#264,#265,#266),
  .UNSPECIFIED.,.T.,.F.,(9,7,7,7,7,7,7,7,9),(0.,0.127063934016,
    0.215903326122,0.300631785783,0.431385434736,0.595711283271,
    0.726622051977,0.83255578794,1.),.UNSPECIFIED.);
#209 = CARTESIAN_POINT('',(-3.067996823065,-6.));
#210 = CARTESIAN_POINT('',(-3.067996823065,-6.217498656452));
#211 = CARTESIAN_POINT('',(-3.068634577054,-6.434820932261));
#212 = CARTESIAN_POINT('',(-3.069908364967,-6.650787902485));
#213 = CARTESIAN_POINT('',(-3.071827509291,-6.86411974448));
#214 = CARTESIAN_POINT('',(-3.074410335949,-7.073293681505));
#215 = CARTESIAN_POINT('',(-3.077681986538,-7.276381520251));
#216 = CARTESIAN_POINT('',(-3.081671730388,-7.470846561518));
#217 = CARTESIAN_POINT('',(-3.089721882587,-7.780831560615));
#218 = CARTESIAN_POINT('',(-3.093418917873,-7.903230346838));
#219 = CARTESIAN_POINT('',(-3.097502371103,-8.018590131797));
#220 = CARTESIAN_POINT('',(-3.101967513996,-8.124996729872));
#221 = CARTESIAN_POINT('',(-3.106802878857,-8.22050254859));
#222 = CARTESIAN_POINT('',(-3.111989897162,-8.30311886798));
#223 = CARTESIAN_POINT('',(-3.117502347557,-8.370805510684));
#224 = CARTESIAN_POINT('',(-3.128840340028,-8.469766418473));
#225 = CARTESIAN_POINT('',(-3.134604593003,-8.502274468237));
#226 = CARTESIAN_POINT('',(-3.140507929801,-8.517020668751));
#227 = CARTESIAN_POINT('',(-3.146451571954,-8.513032935648));
#228 = CARTESIAN_POINT('',(-3.152333827791,-8.490318588993));
#229 = CARTESIAN_POINT('',(-3.158055458134,-8.449856918207));
#230 = CARTESIAN_POINT('',(-3.16352498479,-8.393594206486));
#231 = CARTESIAN_POINT('',(-3.176594422202,-8.217723754667));
#232 = CARTESIAN_POINT('',(-3.183747260585,-8.080177672754));
#233 = CARTESIAN_POINT('',(-3.190087998709,-7.918894167083));
#234 = CARTESIAN_POINT('',(-3.195615412395,-7.739495080141));
#235 = CARTESIAN_POINT('',(-3.200345190031,-7.546553848253));
#236 = CARTESIAN_POINT('',(-3.204301958309,-7.343801667145));
#237 = CARTESIAN_POINT('',(-3.207514866417,-7.134243853413));
#238 = CARTESIAN_POINT('',(-3.213150159898,-6.651449784174));
#239 = CARTESIAN_POINT('',(-3.215169798761,-6.374648616852));
#240 = CARTESIAN_POINT('',(-3.216122288712,-6.093710760659));
#241 = CARTESIAN_POINT('',(-3.216032197159,-5.811425597866));
#242 = CARTESIAN_POINT('',(-3.214899782908,-5.530380918762));
#243 = CARTESIAN_POINT('',(-3.212702661026,-5.253405030587));
#244 = CARTESIAN_POINT('',(-3.209397770293,-4.984033687532));
#245 = CARTESIAN_POINT('',(-3.201361459273,-4.52294550569));
#246 = CARTESIAN_POINT('',(-3.197009984538,-4.323890614764));
#247 = CARTESIAN_POINT('',(-3.191837637128,-4.135028763035));
#248 = CARTESIAN_POINT('',(-3.185835045885,-3.961508560318));
#249 = CARTESIAN_POINT('',(-3.179016474306,-3.808824644601));
#250 = CARTESIAN_POINT('',(-3.171421718348,-3.682852809973));
#251 = CARTESIAN_POINT('',(-3.163122331432,-3.589960423369));
#252 = CARTESIAN_POINT('',(-3.14704302424,-3.494554244348));
#253 = CARTESIAN_POINT('',(-3.13966541051,-3.479361271065));
#254 = CARTESIAN_POINT('',(-3.132261327563,-3.493211897003));
#255 = CARTESIAN_POINT('',(-3.124997587866,-3.535893280292));
#256 = CARTESIAN_POINT('',(-3.118035564165,-3.605491533384));
#257 = CARTESIAN_POINT('',(-3.111519286905,-3.698452062472));
#258 = CARTESIAN_POINT('',(-3.105564825226,-3.809625268991));
#259 = CARTESIAN_POINT('',(-3.091852262769,-4.126202169141));
#260 = CARTESIAN_POINT('',(-3.084806065455,-4.354574298615));
#261 = CARTESIAN_POINT('',(-3.079074843083,-4.605819851192));
#262 = CARTESIAN_POINT('',(-3.074588720259,-4.872225339872));
#263 = CARTESIAN_POINT('',(-3.071279451698,-5.148311729296));
#264 = CARTESIAN_POINT('',(-3.069092582649,-5.430162520708));
#265 = CARTESIAN_POINT('',(-3.067996823065,-5.71491090513));
#266 = CARTESIAN_POINT('',(-3.067996823065,-6.));
#267 = ( GEOMETRIC_REPRESENTATION_CONTEXT(2) 
PARAMETRIC_REPRESENTATION_CONTEXT() REPRESENTATION_CONTEXT('2D SPACE',''
  ) );
#268 = ORIENTED_EDGE('',*,*,#55,.F.);
#269 = ADVANCED_FACE('',(#270),#43,.F.);
#270 = FACE_BOUND('',#271,.F.);
#271 = EDGE_LOOP('',(#272));
#272 = ORIENTED_EDGE('',*,*,#21,.T.);
#273 = ADVANCED_FACE('',(#274,#605),#202,.T.);
#274 = FACE_BOUND('',#275,.F.);
#275 = EDGE_LOOP('',(#276,#305,#328,#389,#463,#486,#513,#514,#604));
#276 = ORIENTED_EDGE('',*,*,#277,.F.);
#277 = EDGE_CURVE('',#278,#278,#280,.T.);
#278 = VERTEX_POINT('',#279);
#279 = CARTESIAN_POINT('',(34.,0.,-6.));
#280 = SURFACE_CURVE('',#281,(#286,#293),.PCURVE_S1.);
#281 = CIRCLE('',#282,34.);
#282 = AXIS2_PLACEMENT_3D('',#283,#284,#285);
#283 = CARTESIAN_POINT('',(0.,0.,-6.));
#284 = DIRECTION('',(0.,0.,1.));
#285 = DIRECTION('',(1.,0.,0.));
#286 = PCURVE('',#202,#287);
#287 = DEFINITIONAL_REPRESENTATION('',(#288),#292);
#288 = LINE('',#289,#290);
#289 = CARTESIAN_POINT('',(-0.,0.));
#290 = VECTOR('',#291,1.);
#291 = DIRECTION('',(-1.,0.));
#292 = ( GEOMETRIC_REPRESENTATION_CONTEXT(2) 
PARAMETRIC_REPRESENTATION_CONTEXT() REPRESENTATION_CONTEXT('2D SPACE',''
  ) );
#293 = PCURVE('',#294,#299);
#294 = PLANE('',#295);
#295 = AXIS2_PLACEMENT_3D('',#296,#297,#298);
#296 = CARTESIAN_POINT('',(-2.574004955368E-15,2.473074394019E-15,-6.));
#297 = DIRECTION('',(0.,0.,1.));
#298 = DIRECTION('',(1.,0.,-0.));
#299 = DEFINITIONAL_REPRESENTATION('',(#300),#304);
#300 = CIRCLE('',#301,34.);
#301 = AXIS2_PLACEMENT_2D('',#302,#303);
#302 = CARTESIAN_POINT('',(2.574004955368E-15,-2.473074394019E-15));
#303 = DIRECTION('',(1.,0.));
#304 = ( GEOMETRIC_REPRESENTATION_CONTEXT(2) 
PARAMETRIC_REPRESENTATION_CONTEXT() REPRESENTATION_CONTEXT('2D SPACE',''
  ) );
#305 = ORIENTED_EDGE('',*,*,#306,.T.);
#306 = EDGE_CURVE('',#278,#307,#309,.T.);
#307 = VERTEX_POINT('',#308);
#308 = CARTESIAN_POINT('',(34.,0.,-2.5));
#309 = SEAM_CURVE('',#310,(#314,#321),.PCURVE_S1.);
#310 = LINE('',#311,#312);
#311 = CARTESIAN_POINT('',(34.,0.,-6.));
#312 = VECTOR('',#313,1.);
#313 = DIRECTION('',(0.,0.,1.));
#314 = PCURVE('',#202,#315);
#315 = DEFINITIONAL_REPRESENTATION('',(#316),#320);
#316 = LINE('',#317,#318);
#317 = CARTESIAN_POINT('',(-6.28318530718,0.));
#318 = VECTOR('',#319,1.);
#319 = DIRECTION('',(-0.,-1.));
#320 = ( GEOMETRIC_REPRESENTATION_CONTEXT(2) 
PARAMETRIC_REPRESENTATION_CONTEXT() REPRESENTATION_CONTEXT('2D SPACE',''
  ) );
#321 = PCURVE('',#202,#322);
#322 = DEFINITIONAL_REPRESENTATION('',(#323),#327);
#323 = LINE('',#324,#325);
#324 = CARTESIAN_POINT('',(-0.,0.));
#325 = VECTOR('',#326,1.);
#326 = DIRECTION('',(-0.,-1.));
#327 = ( GEOMETRIC_REPRESENTATION_CONTEXT(2) 
PARAMETRIC_REPRESENTATION_CONTEXT() REPRESENTATION_CONTEXT('2D SPACE',''
  ) );
#328 = ORIENTED_EDGE('',*,*,#329,.T.);
#329 = EDGE_CURVE('',#307,#330,#332,.T.);
#330 = VERTEX_POINT('',#331);
#331 = CARTESIAN_POINT('',(33.907963666372,2.5,0.));
#332 = SURFACE_CURVE('',#333,(#348,#366),.PCURVE_S1.);
#333 = B_SPLINE_CURVE_WITH_KNOTS('',7,(#334,#335,#336,#337,#338,#339,
    #340,#341,#342,#343,#344,#345,#346,#347),.UNSPECIFIED.,.F.,.F.,(8,6,
    8),(0.,0.448422839126,1.),.UNSPECIFIED.);
#334 = CARTESIAN_POINT('',(34.,1.99082477441E-15,-2.5));
#335 = CARTESIAN_POINT('',(34.,0.30506461553,-2.5));
#336 = CARTESIAN_POINT('',(33.996806583652,0.603256146801,
    -2.456570252026));
#337 = CARTESIAN_POINT('',(33.990678995056,0.88690468957,-2.37323109454)
  );
#338 = CARTESIAN_POINT('',(33.982346342056,1.149388166444,
    -2.255191285758));
#339 = CARTESIAN_POINT('',(33.972849870764,1.385508873569,
    -2.109230313006));
#340 = CARTESIAN_POINT('',(33.963166038208,1.591962229371,
    -1.943571676562));
#341 = CARTESIAN_POINT('',(33.942754453873,1.984013454813,-1.55152045112
    ));
#342 = CARTESIAN_POINT('',(33.931981757696,2.159980617672,-1.31383008204
    ));
#343 = CARTESIAN_POINT('',(33.922669989476,2.29766157432,-1.062377674282
    ));
#344 = CARTESIAN_POINT('',(33.915393361135,2.399233342222,
    -0.802127167716));
#345 = CARTESIAN_POINT('',(33.910443569794,2.466363675047,-0.53663238449
    ));
#346 = CARTESIAN_POINT('',(33.907963666372,2.5,-0.268472545798));
#347 = CARTESIAN_POINT('',(33.907963666372,2.5,-8.881784197001E-16));
#348 = PCURVE('',#202,#349);
#349 = DEFINITIONAL_REPRESENTATION('',(#350),#365);
#350 = B_SPLINE_CURVE_WITH_KNOTS('',7,(#351,#352,#353,#354,#355,#356,
    #357,#358,#359,#360,#361,#362,#363,#364),.UNSPECIFIED.,.F.,.F.,(8,6,
    8),(0.,0.448422839126,1.),.UNSPECIFIED.);
#351 = CARTESIAN_POINT('',(0.,-3.5));
#352 = CARTESIAN_POINT('',(-8.97248869207E-03,-3.5));
#353 = CARTESIAN_POINT('',(-1.774282907652E-02,-3.543429747974));
#354 = CARTESIAN_POINT('',(-2.608660622924E-02,-3.62676890546));
#355 = CARTESIAN_POINT('',(-3.381002909738E-02,-3.744808714242));
#356 = CARTESIAN_POINT('',(-4.076011718038E-02,-3.890769686994));
#357 = CARTESIAN_POINT('',(-4.683886927201E-02,-4.056428323438));
#358 = CARTESIAN_POINT('',(-5.838540503021E-02,-4.44847954888));
#359 = CARTESIAN_POINT('',(-6.357038345617E-02,-4.68616991796));
#360 = CARTESIAN_POINT('',(-6.762900745748E-02,-4.937622325718));
#361 = CARTESIAN_POINT('',(-7.062405961255E-02,-5.197872832284));
#362 = CARTESIAN_POINT('',(-7.260384186771E-02,-5.46336761551));
#363 = CARTESIAN_POINT('',(-7.359583052517E-02,-5.731527454202));
#364 = CARTESIAN_POINT('',(-7.359583052517E-02,-6.));
#365 = ( GEOMETRIC_REPRESENTATION_CONTEXT(2) 
PARAMETRIC_REPRESENTATION_CONTEXT() REPRESENTATION_CONTEXT('2D SPACE',''
  ) );
#366 = PCURVE('',#367,#372);
#367 = CYLINDRICAL_SURFACE('',#368,2.5);
#368 = AXIS2_PLACEMENT_3D('',#369,#370,#371);
#369 = CARTESIAN_POINT('',(33.5,0.,0.));
#370 = DIRECTION('',(-1.,-0.,-0.));
#371 = DIRECTION('',(0.,1.,0.));
#372 = DEFINITIONAL_REPRESENTATION('',(#373),#388);
#373 = B_SPLINE_CURVE_WITH_KNOTS('',7,(#374,#375,#376,#377,#378,#379,
    #380,#381,#382,#383,#384,#385,#386,#387),.UNSPECIFIED.,.F.,.F.,(8,6,
    8),(0.,0.448422839126,1.),.UNSPECIFIED.);
#374 = CARTESIAN_POINT('',(-4.712388980385,-0.5));
#375 = CARTESIAN_POINT('',(-4.834414826597,-0.5));
#376 = CARTESIAN_POINT('',(-4.953691310126,-0.496806583652));
#377 = CARTESIAN_POINT('',(-5.070119093214,-0.490678995056));
#378 = CARTESIAN_POINT('',(-5.183412861686,-0.482346342056));
#379 = CARTESIAN_POINT('',(-5.293087698582,-0.472849870764));
#380 = CARTESIAN_POINT('',(-5.398336974007,-0.463166038208));
#381 = CARTESIAN_POINT('',(-5.620114638073,-0.442754453873));
#382 = CARTESIAN_POINT('',(-5.737115062705,-0.431981757696));
#383 = CARTESIAN_POINT('',(-5.850166011896,-0.422669989476));
#384 = CARTESIAN_POINT('',(-5.960310661888,-0.415393361135));
#385 = CARTESIAN_POINT('',(-6.068532609186,-0.410443569794));
#386 = CARTESIAN_POINT('',(-6.17579628886,-0.407963666372));
#387 = CARTESIAN_POINT('',(-6.28318530718,-0.407963666372));
#388 = ( GEOMETRIC_REPRESENTATION_CONTEXT(2) 
PARAMETRIC_REPRESENTATION_CONTEXT() REPRESENTATION_CONTEXT('2D SPACE',''
  ) );
#389 = ORIENTED_EDGE('',*,*,#390,.T.);
#390 = EDGE_CURVE('',#330,#391,#393,.T.);
#391 = VERTEX_POINT('',#392);
#392 = CARTESIAN_POINT('',(34.,0.,2.5));
#393 = SURFACE_CURVE('',#394,(#415,#439),.PCURVE_S1.);
#394 = B_SPLINE_CURVE_WITH_KNOTS('',7,(#395,#396,#397,#398,#399,#400,
    #401,#402,#403,#404,#405,#406,#407,#408,#409,#410,#411,#412,#413,
    #414),.UNSPECIFIED.,.F.,.F.,(8,6,6,8),(0.,0.508579913019,
    0.794961854479,1.),.UNSPECIFIED.);
#395 = CARTESIAN_POINT('',(33.907963666372,2.5,-7.502509096369E-16));
#396 = CARTESIAN_POINT('',(33.907963666372,2.5,0.248569893088));
#397 = CARTESIAN_POINT('',(33.910089493958,2.471166743018,0.496904611985
    ));
#398 = CARTESIAN_POINT('',(33.914334405434,2.413593583922,0.743117876785
    ));
#399 = CARTESIAN_POINT('',(33.920591804269,2.326613453201,0.985121612174
    ));
#400 = CARTESIAN_POINT('',(33.928646507495,2.208984135661,1.220247130391
    ));
#401 = CARTESIAN_POINT('',(33.938091221278,2.059090719106,1.444784689834
    ));
#402 = CARTESIAN_POINT('',(33.953962491016,1.771772334298,1.770683425747
    ));
#403 = CARTESIAN_POINT('',(33.959919623552,1.657244959802,1.883302203652
    ));
#404 = CARTESIAN_POINT('',(33.96598118751,1.531581937863,1.989795258848)
  );
#405 = CARTESIAN_POINT('',(33.971980474608,1.394798137218,2.088738140112
    ));
#406 = CARTESIAN_POINT('',(33.977720415814,1.247059313191,2.178608200319
    ));
#407 = CARTESIAN_POINT('',(33.982982332959,1.088710641637,2.257767231056
    ));
#408 = CARTESIAN_POINT('',(33.990806939114,0.799744170714,2.372177150497
    ));
#409 = CARTESIAN_POINT('',(33.993712478429,0.674012936941,2.413517953017
    ));
#410 = CARTESIAN_POINT('',(33.996158403709,0.543944055056,2.447562813292
    ));
#411 = CARTESIAN_POINT('',(33.998059578703,0.4104735735,2.47361485802));
#412 = CARTESIAN_POINT('',(33.999352229993,0.274615875353,2.491185701908
    ));
#413 = CARTESIAN_POINT('',(34.,0.137432339201,2.5));
#414 = CARTESIAN_POINT('',(34.,1.492925149359E-15,2.5));
#415 = PCURVE('',#202,#416);
#416 = DEFINITIONAL_REPRESENTATION('',(#417),#438);
#417 = B_SPLINE_CURVE_WITH_KNOTS('',7,(#418,#419,#420,#421,#422,#423,
    #424,#425,#426,#427,#428,#429,#430,#431,#432,#433,#434,#435,#436,
    #437),.UNSPECIFIED.,.F.,.F.,(8,6,6,8),(0.,0.508579913019,
    0.794961854479,1.),.UNSPECIFIED.);
#418 = CARTESIAN_POINT('',(-7.359583052517E-02,-6.));
#419 = CARTESIAN_POINT('',(-7.359583052517E-02,-6.248569893088));
#420 = CARTESIAN_POINT('',(-7.274549187244E-02,-6.496904611985));
#421 = CARTESIAN_POINT('',(-7.104756667243E-02,-6.743117876785));
#422 = CARTESIAN_POINT('',(-6.848272192483E-02,-6.985121612174));
#423 = CARTESIAN_POINT('',(-6.501497716653E-02,-7.220247130391));
#424 = CARTESIAN_POINT('',(-6.059773670623E-02,-7.444784689834));
#425 = CARTESIAN_POINT('',(-5.213431288495E-02,-7.770683425747));
#426 = CARTESIAN_POINT('',(-4.876132463754E-02,-7.883302203652));
#427 = CARTESIAN_POINT('',(-4.506109934878E-02,-7.989795258848));
#428 = CARTESIAN_POINT('',(-4.103425587103E-02,-8.088738140112));
#429 = CARTESIAN_POINT('',(-3.668581940789E-02,-8.178608200319));
#430 = CARTESIAN_POINT('',(-3.202602309604E-02,-8.257767231056));
#431 = CARTESIAN_POINT('',(-2.352389402322E-02,-8.372177150497));
#432 = CARTESIAN_POINT('',(-1.982495761903E-02,-8.413517953017));
#433 = CARTESIAN_POINT('',(-1.599878523745E-02,-8.447562813292));
#434 = CARTESIAN_POINT('',(-1.20728606115E-02,-8.47361485802));
#435 = CARTESIAN_POINT('',(-8.076936740029E-03,-8.491185701908));
#436 = CARTESIAN_POINT('',(-4.042127623563E-03,-8.5));
#437 = CARTESIAN_POINT('',(0.,-8.5));
#438 = ( GEOMETRIC_REPRESENTATION_CONTEXT(2) 
PARAMETRIC_REPRESENTATION_CONTEXT() REPRESENTATION_CONTEXT('2D SPACE',''
  ) );
#439 = PCURVE('',#367,#440);
#440 = DEFINITIONAL_REPRESENTATION('',(#441),#462);
#441 = B_SPLINE_CURVE_WITH_KNOTS('',7,(#442,#443,#444,#445,#446,#447,
    #448,#449,#450,#451,#452,#453,#454,#455,#456,#457,#458,#459,#460,
    #461),.UNSPECIFIED.,.F.,.F.,(8,6,6,8),(0.,0.508579913019,
    0.794961854479,1.),.UNSPECIFIED.);
#442 = CARTESIAN_POINT('',(0.,-0.407963666372));
#443 = CARTESIAN_POINT('',(-9.942795723507E-02,-0.407963666372));
#444 = CARTESIAN_POINT('',(-0.198761649298,-0.410089493958));
#445 = CARTESIAN_POINT('',(-0.298853318745,-0.414334405434));
#446 = CARTESIAN_POINT('',(-0.40045577948,-0.420591804269));
#447 = CARTESIAN_POINT('',(-0.504363559278,-0.428646507495));
#448 = CARTESIAN_POINT('',(-0.611385456227,-0.438091221278));
#449 = CARTESIAN_POINT('',(-0.785172378782,-0.453962491016));
#450 = CARTESIAN_POINT('',(-0.849258430075,-0.459919623552));
#451 = CARTESIAN_POINT('',(-0.91485256766,-0.46598118751));
#452 = CARTESIAN_POINT('',(-0.982010488056,-0.471980474608));
#453 = CARTESIAN_POINT('',(-1.050810226066,-0.477720415814));
#454 = CARTESIAN_POINT('',(-1.121358007351,-0.482982332959));
#455 = CARTESIAN_POINT('',(-1.245674539468,-0.490806939114));
#456 = CARTESIAN_POINT('',(-1.298522746741,-0.493712478429));
#457 = CARTESIAN_POINT('',(-1.352137775954,-0.496158403709));
#458 = CARTESIAN_POINT('',(-1.406335526275,-0.498059578703));
#459 = CARTESIAN_POINT('',(-1.460949989803,-0.499352229993));
#460 = CARTESIAN_POINT('',(-1.515823391114,-0.5));
#461 = CARTESIAN_POINT('',(-1.570796326795,-0.5));
#462 = ( GEOMETRIC_REPRESENTATION_CONTEXT(2) 
PARAMETRIC_REPRESENTATION_CONTEXT() REPRESENTATION_CONTEXT('2D SPACE',''
  ) );
#463 = ORIENTED_EDGE('',*,*,#464,.T.);
#464 = EDGE_CURVE('',#391,#465,#467,.T.);
#465 = VERTEX_POINT('',#466);
#466 = CARTESIAN_POINT('',(34.,0.,6.));
#467 = SEAM_CURVE('',#468,(#472,#479),.PCURVE_S1.);
#468 = LINE('',#469,#470);
#469 = CARTESIAN_POINT('',(34.,0.,-6.));
#470 = VECTOR('',#471,1.);
#471 = DIRECTION('',(0.,0.,1.));
#472 = PCURVE('',#202,#473);
#473 = DEFINITIONAL_REPRESENTATION('',(#474),#478);
#474 = LINE('',#475,#476);
#475 = CARTESIAN_POINT('',(-6.28318530718,0.));
#476 = VECTOR('',#477,1.);
#477 = DIRECTION('',(-0.,-1.));
#478 = ( GEOMETRIC_REPRESENTATION_CONTEXT(2) 
PARAMETRIC_REPRESENTATION_CONTEXT() REPRESENTATION_CONTEXT('2D SPACE',''
  ) );
#479 = PCURVE('',#202,#480);
#480 = DEFINITIONAL_REPRESENTATION('',(#481),#485);
#481 = LINE('',#482,#483);
#482 = CARTESIAN_POINT('',(-0.,0.));
#483 = VECTOR('',#484,1.);
#484 = DIRECTION('',(-0.,-1.));
#485 = ( GEOMETRIC_REPRESENTATION_CONTEXT(2) 
PARAMETRIC_REPRESENTATION_CONTEXT() REPRESENTATION_CONTEXT('2D SPACE',''
  ) );
#486 = ORIENTED_EDGE('',*,*,#487,.T.);
#487 = EDGE_CURVE('',#465,#465,#488,.T.);
#488 = SURFACE_CURVE('',#489,(#494,#501),.PCURVE_S1.);
#489 = CIRCLE('',#490,34.);
#490 = AXIS2_PLACEMENT_3D('',#491,#492,#493);
#491 = CARTESIAN_POINT('',(0.,0.,6.));
#492 = DIRECTION('',(0.,0.,1.));
#493 = DIRECTION('',(1.,0.,0.));
#494 = PCURVE('',#202,#495);
#495 = DEFINITIONAL_REPRESENTATION('',(#496),#500);
#496 = LINE('',#497,#498);
#497 = CARTESIAN_POINT('',(-0.,-12.));
#498 = VECTOR('',#499,1.);
#499 = DIRECTION('',(-1.,0.));
#500 = ( GEOMETRIC_REPRESENTATION_CONTEXT(2) 
PARAMETRIC_REPRESENTATION_CONTEXT() REPRESENTATION_CONTEXT('2D SPACE',''
  ) );
#501 = PCURVE('',#502,#507);
#502 = PLANE('',#503);
#503 = AXIS2_PLACEMENT_3D('',#504,#505,#506);
#504 = CARTESIAN_POINT('',(-2.574004955368E-15,2.473074394019E-15,6.));
#505 = DIRECTION('',(0.,0.,1.));
#506 = DIRECTION('',(1.,0.,-0.));
#507 = DEFINITIONAL_REPRESENTATION('',(#508),#512);
#508 = CIRCLE('',#509,34.);
#509 = AXIS2_PLACEMENT_2D('',#510,#511);
#510 = CARTESIAN_POINT('',(2.574004955368E-15,-2.473074394019E-15));
#511 = DIRECTION('',(1.,0.));
#512 = ( GEOMETRIC_REPRESENTATION_CONTEXT(2) 
PARAMETRIC_REPRESENTATION_CONTEXT() REPRESENTATION_CONTEXT('2D SPACE',''
  ) );
#513 = ORIENTED_EDGE('',*,*,#464,.F.);
#514 = ORIENTED_EDGE('',*,*,#515,.T.);
#515 = EDGE_CURVE('',#391,#307,#516,.T.);
#516 = SURFACE_CURVE('',#517,(#544,#574),.PCURVE_S1.);
#517 = B_SPLINE_CURVE_WITH_KNOTS('',7,(#518,#519,#520,#521,#522,#523,
    #524,#525,#526,#527,#528,#529,#530,#531,#532,#533,#534,#535,#536,
    #537,#538,#539,#540,#541,#542,#543),.UNSPECIFIED.,.F.,.F.,(8,6,6,6,8
    ),(0.,0.244289017354,0.500056901604,0.755823656095,1.),
  .UNSPECIFIED.);
#518 = CARTESIAN_POINT('',(34.,-2.6645352591E-15,2.5));
#519 = CARTESIAN_POINT('',(34.,-0.333481651297,2.5));
#520 = CARTESIAN_POINT('',(33.996183950427,-0.657568618848,
    2.448102575173));
#521 = CARTESIAN_POINT('',(33.988939028282,-0.962896030044,
    2.349566886953));
#522 = CARTESIAN_POINT('',(33.979275436482,-1.241778316304,
    2.211405762575));
#523 = CARTESIAN_POINT('',(33.968549314548,-1.488473931982,
    2.042293240177));
#524 = CARTESIAN_POINT('',(33.957942562935,-1.699720894554,
    1.852409741829));
#525 = CARTESIAN_POINT('',(33.93809161068,-2.059083669738,1.444792685772
    ));
#526 = CARTESIAN_POINT('',(33.928646587652,-2.20898428438,1.220251159776
    ));
#527 = CARTESIAN_POINT('',(33.920591486493,-2.326617702822,0.98511603762
    ));
#528 = CARTESIAN_POINT('',(33.914334214493,-2.413596167433,
    0.743108049026));
#529 = CARTESIAN_POINT('',(33.910089515505,-2.471166458539,
    0.496898925064));
#530 = CARTESIAN_POINT('',(33.907963666372,-2.5,0.248570991057));
#531 = CARTESIAN_POINT('',(33.907963666372,-2.5,-0.248569893088));
#532 = CARTESIAN_POINT('',(33.910089493958,-2.471166743018,
    -0.496904611985));
#533 = CARTESIAN_POINT('',(33.914334405434,-2.413593583922,
    -0.743117876785));
#534 = CARTESIAN_POINT('',(33.920591804269,-2.326613453201,
    -0.985121612174));
#535 = CARTESIAN_POINT('',(33.928646507495,-2.208984135661,
    -1.220247130391));
#536 = CARTESIAN_POINT('',(33.938091221278,-2.059090719106,
    -1.444784689834));
#537 = CARTESIAN_POINT('',(33.957938504665,-1.699794361608,
    -1.852326409814));
#538 = CARTESIAN_POINT('',(33.968546432321,-1.488542199013,
    -2.042257486697));
#539 = CARTESIAN_POINT('',(33.979277118279,-1.241770993116,
    -2.211442027035));
#540 = CARTESIAN_POINT('',(33.988944253503,-0.962784037051,
    -2.349637786757));
#541 = CARTESIAN_POINT('',(33.996187616116,-0.657384073478,
    -2.448152460389));
#542 = CARTESIAN_POINT('',(34.,-0.333321358451,-2.5));
#543 = CARTESIAN_POINT('',(34.,-2.22044604925E-15,-2.5));
#544 = PCURVE('',#202,#545);
#545 = DEFINITIONAL_REPRESENTATION('',(#546),#573);
#546 = B_SPLINE_CURVE_WITH_KNOTS('',7,(#547,#548,#549,#550,#551,#552,
    #553,#554,#555,#556,#557,#558,#559,#560,#561,#562,#563,#564,#565,
    #566,#567,#568,#569,#570,#571,#572),.UNSPECIFIED.,.F.,.F.,(8,6,6,6,8
    ),(0.,0.244289017354,0.500056901604,0.755823656095,1.),
  .UNSPECIFIED.);
#547 = CARTESIAN_POINT('',(-6.28318530718,-8.5));
#548 = CARTESIAN_POINT('',(-6.273377023318,-8.5));
#549 = CARTESIAN_POINT('',(-6.263845051984,-8.448102575173));
#550 = CARTESIAN_POINT('',(-6.254863302446,-8.349566886953));
#551 = CARTESIAN_POINT('',(-6.246656620176,-8.211405762575));
#552 = CARTESIAN_POINT('',(-6.239394278225,-8.042293240177));
#553 = CARTESIAN_POINT('',(-6.233173385007,-7.852409741829));
#554 = CARTESIAN_POINT('',(-6.222587778124,-7.444792685772));
#555 = CARTESIAN_POINT('',(-6.218170325778,-7.220251159775));
#556 = CARTESIAN_POINT('',(-6.214702459954,-6.985116037621));
#557 = CARTESIAN_POINT('',(-6.212137664291,-6.743108049025));
#558 = CARTESIAN_POINT('',(-6.210439823706,-6.496898925064));
#559 = CARTESIAN_POINT('',(-6.209589476654,-6.248570991057));
#560 = CARTESIAN_POINT('',(-6.209589476654,-5.751430106912));
#561 = CARTESIAN_POINT('',(-6.210439815307,-5.503095388015));
#562 = CARTESIAN_POINT('',(-6.212137740507,-5.256882123215));
#563 = CARTESIAN_POINT('',(-6.214702585255,-5.014878387826));
#564 = CARTESIAN_POINT('',(-6.218170330013,-4.779752869609));
#565 = CARTESIAN_POINT('',(-6.222587570473,-4.555215310166));
#566 = CARTESIAN_POINT('',(-6.233171220917,-4.147673590186));
#567 = CARTESIAN_POINT('',(-6.239392268701,-3.957742513303));
#568 = CARTESIAN_POINT('',(-6.246656837891,-3.788557972965));
#569 = CARTESIAN_POINT('',(-6.254866598775,-3.650362213243));
#570 = CARTESIAN_POINT('',(-6.263850479754,-3.551847539611));
#571 = CARTESIAN_POINT('',(-6.273381737813,-3.5));
#572 = CARTESIAN_POINT('',(-6.28318530718,-3.5));
#573 = ( GEOMETRIC_REPRESENTATION_CONTEXT(2) 
PARAMETRIC_REPRESENTATION_CONTEXT() REPRESENTATION_CONTEXT('2D SPACE',''
  ) );
#574 = PCURVE('',#367,#575);
#575 = DEFINITIONAL_REPRESENTATION('',(#576),#603);
#576 = B_SPLINE_CURVE_WITH_KNOTS('',7,(#577,#578,#579,#580,#581,#582,
    #583,#584,#585,#586,#587,#588,#589,#590,#591,#592,#593,#594,#595,
    #596,#597,#598,#599,#600,#601,#602),.UNSPECIFIED.,.F.,.F.,(8,6,6,6,8
    ),(0.,0.244289017354,0.500056901604,0.755823656095,1.),
  .UNSPECIFIED.);
#577 = CARTESIAN_POINT('',(-1.570796326795,-0.5));
#578 = CARTESIAN_POINT('',(-1.704188987314,-0.5));
#579 = CARTESIAN_POINT('',(-1.833823682597,-0.496183950427));
#580 = CARTESIAN_POINT('',(-1.959831710303,-0.488939028282));
#581 = CARTESIAN_POINT('',(-2.082032331763,-0.479275436482));
#582 = CARTESIAN_POINT('',(-2.199985761933,-0.468549314548));
#583 = CARTESIAN_POINT('',(-2.312839360252,-0.457942562935));
#584 = CARTESIAN_POINT('',(-2.530202933493,-0.43809161068));
#585 = CARTESIAN_POINT('',(-2.637227921292,-0.428646587652));
#586 = CARTESIAN_POINT('',(-2.741139429412,-0.420591486493));
#587 = CARTESIAN_POINT('',(-2.842743276901,-0.414334214493));
#588 = CARTESIAN_POINT('',(-2.942833266636,-0.410089515505));
#589 = CARTESIAN_POINT('',(-3.042164257167,-0.407963666372));
#590 = CARTESIAN_POINT('',(-3.241020610825,-0.407963666372));
#591 = CARTESIAN_POINT('',(-3.340354302888,-0.410089493958));
#592 = CARTESIAN_POINT('',(-3.440445972335,-0.414334405434));
#593 = CARTESIAN_POINT('',(-3.54204843307,-0.420591804269));
#594 = CARTESIAN_POINT('',(-3.645956212867,-0.428646507495));
#595 = CARTESIAN_POINT('',(-3.752978109817,-0.438091221278));
#596 = CARTESIAN_POINT('',(-3.970301509767,-0.457938504665));
#597 = CARTESIAN_POINT('',(-4.083170773897,-0.468546432321));
#598 = CARTESIAN_POINT('',(-4.201163269719,-0.479277118279));
#599 = CARTESIAN_POINT('',(-4.323403911706,-0.488944253503));
#600 = CARTESIAN_POINT('',(-4.449435456582,-0.496187616116));
#601 = CARTESIAN_POINT('',(-4.579060437004,-0.5));
#602 = CARTESIAN_POINT('',(-4.712388980385,-0.5));
#603 = ( GEOMETRIC_REPRESENTATION_CONTEXT(2) 
PARAMETRIC_REPRESENTATION_CONTEXT() REPRESENTATION_CONTEXT('2D SPACE',''
  ) );
#604 = ORIENTED_EDGE('',*,*,#306,.F.);
#605 = FACE_BOUND('',#606,.F.);
#606 = EDGE_LOOP('',(#607));
#607 = ORIENTED_EDGE('',*,*,#78,.F.);
#608 = ADVANCED_FACE('',(#609,#612),#294,.F.);
#609 = FACE_BOUND('',#610,.F.);
#610 = EDGE_LOOP('',(#611));
#611 = ORIENTED_EDGE('',*,*,#277,.T.);
#612 = FACE_BOUND('',#613,.F.);
#613 = EDGE_LOOP('',(#614));
#614 = ORIENTED_EDGE('',*,*,#615,.F.);
#615 = EDGE_CURVE('',#616,#616,#618,.T.);
#616 = VERTEX_POINT('',#617);
#617 = CARTESIAN_POINT('',(31.,1.671865260612E-15,-6.));
#618 = SURFACE_CURVE('',#619,(#624,#631),.PCURVE_S1.);
#619 = CIRCLE('',#620,31.);
#620 = AXIS2_PLACEMENT_3D('',#621,#622,#623);
#621 = CARTESIAN_POINT('',(1.621709302794E-13,1.671865260612E-15,-6.));
#622 = DIRECTION('',(0.,0.,1.));
#623 = DIRECTION('',(1.,0.,0.));
#624 = PCURVE('',#294,#625);
#625 = DEFINITIONAL_REPRESENTATION('',(#626),#630);
#626 = CIRCLE('',#627,31.);
#627 = AXIS2_PLACEMENT_2D('',#628,#629);
#628 = CARTESIAN_POINT('',(1.647449352347E-13,-8.012091334068E-16));
#629 = DIRECTION('',(1.,0.));
#630 = ( GEOMETRIC_REPRESENTATION_CONTEXT(2) 
PARAMETRIC_REPRESENTATION_CONTEXT() REPRESENTATION_CONTEXT('2D SPACE',''
  ) );
#631 = PCURVE('',#632,#637);
#632 = CYLINDRICAL_SURFACE('',#633,31.);
#633 = AXIS2_PLACEMENT_3D('',#634,#635,#636);
#634 = CARTESIAN_POINT('',(1.621709302794E-13,1.671865260612E-15,-6.));
#635 = DIRECTION('',(-0.,-0.,-1.));
#636 = DIRECTION('',(1.,0.,0.));
#637 = DEFINITIONAL_REPRESENTATION('',(#638),#642);
#638 = LINE('',#639,#640);
#639 = CARTESIAN_POINT('',(-0.,0.));
#640 = VECTOR('',#641,1.);
#641 = DIRECTION('',(-1.,0.));
#642 = ( GEOMETRIC_REPRESENTATION_CONTEXT(2) 
PARAMETRIC_REPRESENTATION_CONTEXT() REPRESENTATION_CONTEXT('2D SPACE',''
  ) );
#643 = ADVANCED_FACE('',(#644),#367,.T.);
#644 = FACE_BOUND('',#645,.F.);
#645 = EDGE_LOOP('',(#646,#647,#670,#697,#698,#699));
#646 = ORIENTED_EDGE('',*,*,#390,.F.);
#647 = ORIENTED_EDGE('',*,*,#648,.T.);
#648 = EDGE_CURVE('',#330,#649,#651,.T.);
#649 = VERTEX_POINT('',#650);
#650 = CARTESIAN_POINT('',(40.,2.5,0.));
#651 = SEAM_CURVE('',#652,(#656,#663),.PCURVE_S1.);
#652 = LINE('',#653,#654);
#653 = CARTESIAN_POINT('',(33.5,2.5,0.));
#654 = VECTOR('',#655,1.);
#655 = DIRECTION('',(1.,0.,0.));
#656 = PCURVE('',#367,#657);
#657 = DEFINITIONAL_REPRESENTATION('',(#658),#662);
#658 = LINE('',#659,#660);
#659 = CARTESIAN_POINT('',(-6.28318530718,0.));
#660 = VECTOR('',#661,1.);
#661 = DIRECTION('',(-0.,-1.));
#662 = ( GEOMETRIC_REPRESENTATION_CONTEXT(2) 
PARAMETRIC_REPRESENTATION_CONTEXT() REPRESENTATION_CONTEXT('2D SPACE',''
  ) );
#663 = PCURVE('',#367,#664);
#664 = DEFINITIONAL_REPRESENTATION('',(#665),#669);
#665 = LINE('',#666,#667);
#666 = CARTESIAN_POINT('',(-0.,0.));
#667 = VECTOR('',#668,1.);
#668 = DIRECTION('',(-0.,-1.));
#669 = ( GEOMETRIC_REPRESENTATION_CONTEXT(2) 
PARAMETRIC_REPRESENTATION_CONTEXT() REPRESENTATION_CONTEXT('2D SPACE',''
  ) );
#670 = ORIENTED_EDGE('',*,*,#671,.T.);
#671 = EDGE_CURVE('',#649,#649,#672,.T.);
#672 = SURFACE_CURVE('',#673,(#678,#685),.PCURVE_S1.);
#673 = CIRCLE('',#674,2.5);
#674 = AXIS2_PLACEMENT_3D('',#675,#676,#677);
#675 = CARTESIAN_POINT('',(40.,0.,0.));
#676 = DIRECTION('',(1.,0.,0.));
#677 = DIRECTION('',(0.,1.,0.));
#678 = PCURVE('',#367,#679);
#679 = DEFINITIONAL_REPRESENTATION('',(#680),#684);
#680 = LINE('',#681,#682);
#681 = CARTESIAN_POINT('',(-0.,-6.5));
#682 = VECTOR('',#683,1.);
#683 = DIRECTION('',(-1.,0.));
#684 = ( GEOMETRIC_REPRESENTATION_CONTEXT(2) 
PARAMETRIC_REPRESENTATION_CONTEXT() REPRESENTATION_CONTEXT('2D SPACE',''
  ) );
#685 = PCURVE('',#686,#691);
#686 = PLANE('',#687);
#687 = AXIS2_PLACEMENT_3D('',#688,#689,#690);
#688 = CARTESIAN_POINT('',(40.,-1.367440132539E-16,1.714341265789E-16));
#689 = DIRECTION('',(1.,0.,0.));
#690 = DIRECTION('',(-0.,0.,1.));
#691 = DEFINITIONAL_REPRESENTATION('',(#692),#696);
#692 = CIRCLE('',#693,2.5);
#693 = AXIS2_PLACEMENT_2D('',#694,#695);
#694 = CARTESIAN_POINT('',(-1.714341265789E-16,-1.367440132539E-16));
#695 = DIRECTION('',(0.,-1.));
#696 = ( GEOMETRIC_REPRESENTATION_CONTEXT(2) 
PARAMETRIC_REPRESENTATION_CONTEXT() REPRESENTATION_CONTEXT('2D SPACE',''
  ) );
#697 = ORIENTED_EDGE('',*,*,#648,.F.);
#698 = ORIENTED_EDGE('',*,*,#329,.F.);
#699 = ORIENTED_EDGE('',*,*,#515,.F.);
#700 = ADVANCED_FACE('',(#701,#704),#502,.T.);
#701 = FACE_BOUND('',#702,.T.);
#702 = EDGE_LOOP('',(#703));
#703 = ORIENTED_EDGE('',*,*,#487,.T.);
#704 = FACE_BOUND('',#705,.T.);
#705 = EDGE_LOOP('',(#706));
#706 = ORIENTED_EDGE('',*,*,#707,.F.);
#707 = EDGE_CURVE('',#708,#708,#710,.T.);
#708 = VERTEX_POINT('',#709);
#709 = CARTESIAN_POINT('',(31.,1.671865260612E-15,6.));
#710 = SURFACE_CURVE('',#711,(#716,#723),.PCURVE_S1.);
#711 = CIRCLE('',#712,31.);
#712 = AXIS2_PLACEMENT_3D('',#713,#714,#715);
#713 = CARTESIAN_POINT('',(1.621709302794E-13,1.671865260612E-15,6.));
#714 = DIRECTION('',(0.,0.,1.));
#715 = DIRECTION('',(1.,0.,0.));
#716 = PCURVE('',#502,#717);
#717 = DEFINITIONAL_REPRESENTATION('',(#718),#722);
#718 = CIRCLE('',#719,31.);
#719 = AXIS2_PLACEMENT_2D('',#720,#721);
#720 = CARTESIAN_POINT('',(1.647449352347E-13,-8.012091334068E-16));
#721 = DIRECTION('',(1.,0.));
#722 = ( GEOMETRIC_REPRESENTATION_CONTEXT(2) 
PARAMETRIC_REPRESENTATION_CONTEXT() REPRESENTATION_CONTEXT('2D SPACE',''
  ) );
#723 = PCURVE('',#632,#724);
#724 = DEFINITIONAL_REPRESENTATION('',(#725),#729);
#725 = LINE('',#726,#727);
#726 = CARTESIAN_POINT('',(-0.,-12.));
#727 = VECTOR('',#728,1.);
#728 = DIRECTION('',(-1.,0.));
#729 = ( GEOMETRIC_REPRESENTATION_CONTEXT(2) 
PARAMETRIC_REPRESENTATION_CONTEXT() REPRESENTATION_CONTEXT('2D SPACE',''
  ) );
#730 = ADVANCED_FACE('',(#731),#632,.F.);
#731 = FACE_BOUND('',#732,.T.);
#732 = EDGE_LOOP('',(#733,#754,#755,#756));
#733 = ORIENTED_EDGE('',*,*,#734,.T.);
#734 = EDGE_CURVE('',#616,#708,#735,.T.);
#735 = SEAM_CURVE('',#736,(#740,#747),.PCURVE_S1.);
#736 = LINE('',#737,#738);
#737 = CARTESIAN_POINT('',(31.,1.671865260612E-15,-6.));
#738 = VECTOR('',#739,1.);
#739 = DIRECTION('',(0.,0.,1.));
#740 = PCURVE('',#632,#741);
#741 = DEFINITIONAL_REPRESENTATION('',(#742),#746);
#742 = LINE('',#743,#744);
#743 = CARTESIAN_POINT('',(-0.,0.));
#744 = VECTOR('',#745,1.);
#745 = DIRECTION('',(-0.,-1.));
#746 = ( GEOMETRIC_REPRESENTATION_CONTEXT(2) 
PARAMETRIC_REPRESENTATION_CONTEXT() REPRESENTATION_CONTEXT('2D SPACE',''
  ) );
#747 = PCURVE('',#632,#748);
#748 = DEFINITIONAL_REPRESENTATION('',(#749),#753);
#749 = LINE('',#750,#751);
#750 = CARTESIAN_POINT('',(-6.28318530718,0.));
#751 = VECTOR('',#752,1.);
#752 = DIRECTION('',(-0.,-1.));
#753 = ( GEOMETRIC_REPRESENTATION_CONTEXT(2) 
PARAMETRIC_REPRESENTATION_CONTEXT() REPRESENTATION_CONTEXT('2D SPACE',''
  ) );
#754 = ORIENTED_EDGE('',*,*,#707,.T.);
#755 = ORIENTED_EDGE('',*,*,#734,.F.);
#756 = ORIENTED_EDGE('',*,*,#615,.F.);
#757 = ADVANCED_FACE('',(#758),#686,.T.);
#758 = FACE_BOUND('',#759,.T.);
#759 = EDGE_LOOP('',(#760));
#760 = ORIENTED_EDGE('',*,*,#671,.T.);
#761 = ( GEOMETRIC_REPRESENTATION_CONTEXT(3) 
GLOBAL_UNCERTAINTY_ASSIGNED_CONTEXT((#765)) GLOBAL_UNIT_ASSIGNED_CONTEXT
((#762,#763,#764)) REPRESENTATION_CONTEXT('Context #1',
  '3D Context with UNIT and UNCERTAINTY') );
#762 = ( LENGTH_UNIT() NAMED_UNIT(*) SI_UNIT(.MILLI.,.METRE.) );
#763 = ( NAMED_UNIT(*) PLANE_ANGLE_UNIT() SI_UNIT($,.RADIAN.) );
#764 = ( NAMED_UNIT(*) SI_UNIT($,.STERADIAN.) SOLID_ANGLE_UNIT() );
#765 = UNCERTAINTY_MEASURE_WITH_UNIT(LENGTH_MEASURE(1.E-07),#762,
  'distance_accuracy_value','confusion accuracy');
#766 = PRODUCT_RELATED_PRODUCT_CATEGORY('part',$,(#7));
ENDSEC;
END-ISO-10303-21;
