ISO-10303-21;
HEADER;
FILE_DESCRIPTION(('Open CASCADE Model'),'2;1');
FILE_NAME('Open CASCADE Shape Model','2026-10-06T19:56:09',('Author'),(
    'Open CASCADE'),'Open CASCADE STEP processor 7.9','Open CASCADE 7.9'
  ,'Unknown');
FILE_SCHEMA(('AUTOMOTIVE_DESIGN { 1 0 10303 214 1 1 1 1 }'));
ENDSEC;
DATA;
#1 = APPLICATION_PROTOCOL_DEFINITION('international standard',
  'automotive_design',2000,#2);
#2 = APPLICATION_CONTEXT(
  'core data for automotive mechanical design processes');
#3 = SHAPE_DEFINITION_REPRESENTATION(#4,#10);
#4 = PRODUCT_DEFINITION_SHAPE('','',#5);
#5 = PRODUCT_DEFINITION('design','',#6,#9);
#6 = PRODUCT_DEFINITION_FORMATION('','',#7);
#7 = PRODUCT('Open CASCADE STEP translator 7.9 16',
  'Open CASCADE STEP translator 7.9 16','',(#8));
#8 = PRODUCT_CONTEXT('',#2,'mechanical');
#9 = PRODUCT_DEFINITION_CONTEXT('part definition',#2,'design');
#10 = ADVANCED_BREP_SHAPE_REPRESENTATION('',(#11,#15),#855);
#11 = AXIS2_PLACEMENT_3D('',#12,#13,#14);
#12 = CARTESIAN_POINT('',(0.,0.,0.));
#13 = DIRECTION('',(0.,0.,1.));
#14 = DIRECTION('',(1.,0.,-0.));
#15 = MANIFOLD_SOLID_BREP('',#16);
#16 = CLOSED_SHELL('',(#17,#334,#541,#692,#773,#821,#848));
#17 = ADVANCED_FACE('',(#18,#22,#162,#248),#35,.T.);
#18 = FACE_BOUND('',#19,.T.);
#19 = VERTEX_LOOP('',#20);
#20 = VERTEX_POINT('',#21);
#21 = CARTESIAN_POINT('',(-6.73555739531E-16,1.649735760928E-31,11.));
#22 = FACE_BOUND('',#23,.T.);
#23 = EDGE_LOOP('',(#24));
#24 = ORIENTED_EDGE('',*,*,#25,.T.);
#25 = EDGE_CURVE('',#26,#26,#28,.T.);
#26 = VERTEX_POINT('',#27);
#27 = CARTESIAN_POINT('',(0.494178280829,6.4711049933,-8.881474426718));
#28 = SURFACE_CURVE('',#29,(#34,#150),.PCURVE_S1.);
#29 = CIRCLE('',#30,4.1);
#30 = AXIS2_PLACEMENT_3D('',#31,#32,#33);
#31 = CARTESIAN_POINT('',(3.465941239695,3.646459012596,-8.881474426718)
  );
#32 = DIRECTION('',(-0.339553472769,-0.357238549476,0.870105773971));
#33 = DIRECTION('',(-0.,0.92506700906,0.379803934614));
#34 = PCURVE('',#35,#40);
#35 = SPHERICAL_SURFACE('',#36,11.);
#36 = AXIS2_PLACEMENT_3D('',#37,#38,#39);
#37 = CARTESIAN_POINT('',(0.,0.,0.));
#38 = DIRECTION('',(0.,0.,1.));
#39 = DIRECTION('',(-1.,0.,0.));
#40 = DEFINITIONAL_REPRESENTATION('',(#41),#149);
#41 = B_SPLINE_CURVE_WITH_KNOTS('',8,(#42,#43,#44,#45,#46,#47,#48,#49,
    #50,#51,#52,#53,#54,#55,#56,#57,#58,#59,#60,#61,#62,#63,#64,#65,#66,
    #67,#68,#69,#70,#71,#72,#73,#74,#75,#76,#77,#78,#79,#80,#81,#82,#83,
    #84,#85,#86,#87,#88,#89,#90,#91,#92,#93,#94,#95,#96,#97,#98,#99,#100
    ,#101,#102,#103,#104,#105,#106,#107,#108,#109,#110,#111,#112,#113,
    #114,#115,#116,#117,#118,#119,#120,#121,#122,#123,#124,#125,#126,
    #127,#128,#129,#130,#131,#132,#133,#134,#135,#136,#137,#138,#139,
    #140,#141,#142,#143,#144,#145,#146,#147,#148),.UNSPECIFIED.,.F.,.F.,
  (9,7,7,7,7,7,7,7,7,7,7,7,7,7,7,9),(0.879788870307,1.272487952006,
    1.640643341098,1.985789018373,2.147576054595,2.304307245935,
    2.456140587546,2.603229137232,2.74572116974,3.021799482724,
    3.539446319569,3.992387301809,4.785034020728,5.974004099107,
    6.568489138297,7.162974177486),.UNSPECIFIED.);
#42 = CARTESIAN_POINT('',(4.63617000974,-0.939743453987));
#43 = CARTESIAN_POINT('',(4.653216201237,-0.955027580166));
#44 = CARTESIAN_POINT('',(4.669728720274,-0.970677058689));
#45 = CARTESIAN_POINT('',(4.685660436524,-0.98667179929));
#46 = CARTESIAN_POINT('',(4.700955163125,-1.002990898727));
#47 = CARTESIAN_POINT('',(4.715546239964,-1.019612616285));
#48 = CARTESIAN_POINT('',(4.729352305102,-1.036514122518));
#49 = CARTESIAN_POINT('',(4.742270254331,-1.05367102123));
#50 = CARTESIAN_POINT('',(4.765317077477,-1.087355666679));
#51 = CARTESIAN_POINT('',(4.775569772023,-1.103855714299));
#52 = CARTESIAN_POINT('',(4.784812063491,-1.120534774575));
#53 = CARTESIAN_POINT('',(4.792907941448,-1.137369085051));
#54 = CARTESIAN_POINT('',(4.799686520364,-1.154332312802));
#55 = CARTESIAN_POINT('',(4.804930903936,-1.171394781144));
#56 = CARTESIAN_POINT('',(4.808355301882,-1.188521649727));
#57 = CARTESIAN_POINT('',(4.810688462358,-1.221744551127));
#58 = CARTESIAN_POINT('',(4.809866109548,-1.23783810682));
#59 = CARTESIAN_POINT('',(4.806762073908,-1.253913374464));
#60 = CARTESIAN_POINT('',(4.80095948025,-1.269926994189));
#61 = CARTESIAN_POINT('',(4.791911181586,-1.285825400128));
#62 = CARTESIAN_POINT('',(4.778906762025,-1.301539662964));
#63 = CARTESIAN_POINT('',(4.760945844144,-1.316976610994));
#64 = CARTESIAN_POINT('',(4.725267563454,-1.33903586097));
#65 = CARTESIAN_POINT('',(4.712489863784,-1.345984226177));
#66 = CARTESIAN_POINT('',(4.698179781025,-1.352826299211));
#67 = CARTESIAN_POINT('',(4.682177752605,-1.359545301127));
#68 = CARTESIAN_POINT('',(4.664305586643,-1.366121691753));
#69 = CARTESIAN_POINT('',(4.644364914886,-1.372532442425));
#70 = CARTESIAN_POINT('',(4.622141867847,-1.378750278261));
#71 = CARTESIAN_POINT('',(4.57348113653,-1.390548711585));
#72 = CARTESIAN_POINT('',(4.547196971901,-1.396143151869));
#73 = CARTESIAN_POINT('',(4.51838030347,-1.401497307898));
#74 = CARTESIAN_POINT('',(4.486843732671,-1.406577837842));
#75 = CARTESIAN_POINT('',(4.452414886912,-1.411346851248));
#76 = CARTESIAN_POINT('',(4.414973807836,-1.415761821181));
#77 = CARTESIAN_POINT('',(4.374504598823,-1.419777010754));
#78 = CARTESIAN_POINT('',(4.289146528474,-1.426806732799));
#79 = CARTESIAN_POINT('',(4.244435215948,-1.429848615371));
#80 = CARTESIAN_POINT('',(4.197141277018,-1.432432595393));
#81 = CARTESIAN_POINT('',(4.147528213431,-1.434518859751));
#82 = CARTESIAN_POINT('',(4.096026533151,-1.436071598358));
#83 = CARTESIAN_POINT('',(4.043264742163,-1.437064898982));
#84 = CARTESIAN_POINT('',(3.989957312888,-1.437487502597));
#85 = CARTESIAN_POINT('',(3.885310991094,-1.437200915721));
#86 = CARTESIAN_POINT('',(3.833962668359,-1.436526681618));
#87 = CARTESIAN_POINT('',(3.783394437141,-1.435321558225));
#88 = CARTESIAN_POINT('',(3.734229769496,-1.433600030119));
#89 = CARTESIAN_POINT('',(3.686991856759,-1.431388647329));
#90 = CARTESIAN_POINT('',(3.642028293386,-1.428721423456));
#91 = CARTESIAN_POINT('',(3.599544133981,-1.425635188037));
#92 = CARTESIAN_POINT('',(3.520962690171,-1.418807303453));
#93 = CARTESIAN_POINT('',(3.484707271448,-1.415089149341));
#94 = CARTESIAN_POINT('',(3.450946235117,-1.41104632346));
#95 = CARTESIAN_POINT('',(3.419660808418,-1.406712783235));
#96 = CARTESIAN_POINT('',(3.390763596887,-1.402120308781));
#97 = CARTESIAN_POINT('',(3.364130112903,-1.397297611117));
#98 = CARTESIAN_POINT('',(3.339622119271,-1.392270303611));
#99 = CARTESIAN_POINT('',(3.273451546562,-1.376968228597));
#100 = CARTESIAN_POINT('',(3.237247005016,-1.366192491697));
#101 = CARTESIAN_POINT('',(3.207439263244,-1.354899045562));
#102 = CARTESIAN_POINT('',(3.182927652078,-1.343211647278));
#103 = CARTESIAN_POINT('',(3.16285946367,-1.331219625496));
#104 = CARTESIAN_POINT('',(3.146532311059,-1.318992714522));
#105 = CARTESIAN_POINT('',(3.13338959189,-1.306585181643));
#106 = CARTESIAN_POINT('',(3.103456232483,-1.270520595992));
#107 = CARTESIAN_POINT('',(3.093536429071,-1.246519727883));
#108 = CARTESIAN_POINT('',(3.090232650415,-1.222327597912));
#109 = CARTESIAN_POINT('',(3.091882848636,-1.198103629003));
#110 = CARTESIAN_POINT('',(3.097398029931,-1.17397024388));
#111 = CARTESIAN_POINT('',(3.106017357882,-1.150020015675));
#112 = CARTESIAN_POINT('',(3.117193833806,-1.126332060858));
#113 = CARTESIAN_POINT('',(3.142174260482,-1.082537023856));
#114 = CARTESIAN_POINT('',(3.155475166708,-1.062352470679));
#115 = CARTESIAN_POINT('',(3.170144801158,-1.042466896459));
#116 = CARTESIAN_POINT('',(3.185988963083,-1.022920293198));
#117 = CARTESIAN_POINT('',(3.202860155042,-1.00374933877));
#118 = CARTESIAN_POINT('',(3.220641505045,-0.98498850858));
#119 = CARTESIAN_POINT('',(3.239239426426,-0.96667048232));
#120 = CARTESIAN_POINT('',(3.292415250108,-0.917599727236));
#121 = CARTESIAN_POINT('',(3.328516749334,-0.88782486349));
#122 = CARTESIAN_POINT('',(3.366465092118,-0.859669668736));
#123 = CARTESIAN_POINT('',(3.405993807611,-0.833288815812));
#124 = CARTESIAN_POINT('',(3.446898480618,-0.808828077274));
#125 = CARTESIAN_POINT('',(3.489003811367,-0.786423410286));
#126 = CARTESIAN_POINT('',(3.532154619676,-0.766197777781));
#127 = CARTESIAN_POINT('',(3.642269844211,-0.721349515344));
#128 = CARTESIAN_POINT('',(3.710353550981,-0.69958483961));
#129 = CARTESIAN_POINT('',(3.779947190864,-0.683326054292));
#130 = CARTESIAN_POINT('',(3.850582090833,-0.672856209615));
#131 = CARTESIAN_POINT('',(3.921762347547,-0.66835263102));
#132 = CARTESIAN_POINT('',(3.992975332904,-0.669865943316));
#133 = CARTESIAN_POINT('',(4.063721457229,-0.677315551899));
#134 = CARTESIAN_POINT('',(4.168402390349,-0.697109995498));
#135 = CARTESIAN_POINT('',(4.203056312865,-0.70514479447));
#136 = CARTESIAN_POINT('',(4.23740909939,-0.714592511423));
#137 = CARTESIAN_POINT('',(4.271399624785,-0.725422427963));
#138 = CARTESIAN_POINT('',(4.30496728089,-0.737597491226));
#139 = CARTESIAN_POINT('',(4.338051139875,-0.751075002455));
#140 = CARTESIAN_POINT('',(4.370588052948,-0.765807343345));
#141 = CARTESIAN_POINT('',(4.434431315905,-0.797678136955));
#142 = CARTESIAN_POINT('',(4.465737660717,-0.814816585602));
#143 = CARTESIAN_POINT('',(4.496360211024,-0.833106283117));
#144 = CARTESIAN_POINT('',(4.526225328461,-0.852491223925));
#145 = CARTESIAN_POINT('',(4.555249843468,-0.872911774201));
#146 = CARTESIAN_POINT('',(4.583336582514,-0.89430519443));
#147 = CARTESIAN_POINT('',(4.610364739769,-0.916605675535));
#148 = CARTESIAN_POINT('',(4.63617000974,-0.939743453987));
#149 = ( GEOMETRIC_REPRESENTATION_CONTEXT(2) 
PARAMETRIC_REPRESENTATION_CONTEXT() REPRESENTATION_CONTEXT('2D SPACE',''
  ) );
#150 = PCURVE('',#151,#156);
#151 = CYLINDRICAL_SURFACE('',#152,4.1);
#152 = AXIS2_PLACEMENT_3D('',#153,#154,#155);
#153 = CARTESIAN_POINT('',(0.,0.,0.));
#154 = DIRECTION('',(-0.339553472769,-0.357238549476,0.870105773971));
#155 = DIRECTION('',(-0.72482023387,0.688938044074,-2.775557561563E-17)
  );
#156 = DEFINITIONAL_REPRESENTATION('',(#157),#161);
#157 = LINE('',#158,#159);
#158 = CARTESIAN_POINT('',(-7.162974177486,-10.2073502928));
#159 = VECTOR('',#160,1.);
#160 = DIRECTION('',(1.,-0.));
#161 = ( GEOMETRIC_REPRESENTATION_CONTEXT(2) 
PARAMETRIC_REPRESENTATION_CONTEXT() REPRESENTATION_CONTEXT('2D SPACE',''
  ) );
#162 = FACE_BOUND('',#163,.T.);
#163 = EDGE_LOOP('',(#164));
#164 = ORIENTED_EDGE('',*,*,#165,.F.);
#165 = EDGE_CURVE('',#166,#166,#168,.T.);
#166 = VERTEX_POINT('',#167);
#167 = CARTESIAN_POINT('',(10.207350292804,-4.1,0.));
#168 = SURFACE_CURVE('',#169,(#174,#236),.PCURVE_S1.);
#169 = CIRCLE('',#170,4.1);
#170 = AXIS2_PLACEMENT_3D('',#171,#172,#173);
#171 = CARTESIAN_POINT('',(10.207350292804,0.,0.));
#172 = DIRECTION('',(1.,0.,0.));
#173 = DIRECTION('',(-0.,0.,-1.));
#174 = PCURVE('',#35,#175);
#175 = DEFINITIONAL_REPRESENTATION('',(#176),#235);
#176 = B_SPLINE_CURVE_WITH_KNOTS('',8,(#177,#178,#179,#180,#181,#182,
    #183,#184,#185,#186,#187,#188,#189,#190,#191,#192,#193,#194,#195,
    #196,#197,#198,#199,#200,#201,#202,#203,#204,#205,#206,#207,#208,
    #209,#210,#211,#212,#213,#214,#215,#216,#217,#218,#219,#220,#221,
    #222,#223,#224,#225,#226,#227,#228,#229,#230,#231,#232,#233,#234),
  .UNSPECIFIED.,.F.,.F.,(9,7,7,7,7,7,7,7,9),(4.712388980385,
    5.497787143782,6.185010536755,6.786331005606,7.838641826096,
    8.627874941463,9.219799777988,10.107687032776,10.995574287564),
  .UNSPECIFIED.);
#177 = CARTESIAN_POINT('',(2.759646302925,6.846888922506E-17));
#178 = CARTESIAN_POINT('',(2.759646302925,-3.659241443102E-02));
#179 = CARTESIAN_POINT('',(2.763456054332,-7.318483729777E-02));
#180 = CARTESIAN_POINT('',(2.771075937079,-0.109314449136));
#181 = CARTESIAN_POINT('',(2.782491868056,-0.144518614908));
#182 = CARTESIAN_POINT('',(2.797679229462,-0.178330851083));
#183 = CARTESIAN_POINT('',(2.816578007529,-0.210277640749));
#184 = CARTESIAN_POINT('',(2.839053371642,-0.239885630788));
#185 = CARTESIAN_POINT('',(2.887433157206,-0.290178970146));
#186 = CARTESIAN_POINT('',(2.912557897253,-0.31151702988));
#187 = CARTESIAN_POINT('',(2.940062903322,-0.330423906413));
#188 = CARTESIAN_POINT('',(2.969716754189,-0.346616786961));
#189 = CARTESIAN_POINT('',(3.001201710215,-0.359840626459));
#190 = CARTESIAN_POINT('',(3.034108796447,-0.369890715339));
#191 = CARTESIAN_POINT('',(3.06795685331,-0.376633504931));
#192 = CARTESIAN_POINT('',(3.132242068549,-0.382969951198));
#193 = CARTESIAN_POINT('',(3.162576613983,-0.383351875406));
#194 = CARTESIAN_POINT('',(3.192908361593,-0.381121211311));
#195 = CARTESIAN_POINT('',(3.222884365714,-0.376285471651));
#196 = CARTESIAN_POINT('',(3.252159917645,-0.368901386782));
#197 = CARTESIAN_POINT('',(3.280422904141,-0.359070139581));
#198 = CARTESIAN_POINT('',(3.307409701769,-0.346927849854));
#199 = CARTESIAN_POINT('',(3.37751734702,-0.307623952349));
#200 = CARTESIAN_POINT('',(3.41755876873,-0.276027984444));
#201 = CARTESIAN_POINT('',(3.451866418509,-0.238710217917));
#202 = CARTESIAN_POINT('',(3.479725215839,-0.196771629206));
#203 = CARTESIAN_POINT('',(3.500890531264,-0.151381978852));
#204 = CARTESIAN_POINT('',(3.515263337273,-0.103666262321));
#205 = CARTESIAN_POINT('',(3.522800428202,-5.474052240335E-02));
#206 = CARTESIAN_POINT('',(3.524021723507,3.104999137491E-02));
#207 = CARTESIAN_POINT('',(3.520698163292,6.787212407002E-02));
#208 = CARTESIAN_POINT('',(3.513525960631,0.10427938573));
#209 = CARTESIAN_POINT('',(3.502518196432,0.13980258744));
#210 = CARTESIAN_POINT('',(3.487697613705,0.173968929131));
#211 = CARTESIAN_POINT('',(3.469120771854,0.20629826805));
#212 = CARTESIAN_POINT('',(3.446917672551,0.236309740404));
#213 = CARTESIAN_POINT('',(3.402144645605,0.283978021189));
#214 = CARTESIAN_POINT('',(3.381054062215,0.302847777937));
#215 = CARTESIAN_POINT('',(3.358164503592,0.319966161662));
#216 = CARTESIAN_POINT('',(3.333614411681,0.335149673302));
#217 = CARTESIAN_POINT('',(3.307586914544,0.348228653175));
#218 = CARTESIAN_POINT('',(3.280314469942,0.359057045827));
#219 = CARTESIAN_POINT('',(3.252074243294,0.367522342623));
#220 = CARTESIAN_POINT('',(3.17981294262,0.382595453214));
#221 = CARTESIAN_POINT('',(3.134961489172,0.386158146296));
#222 = CARTESIAN_POINT('',(3.089640769489,0.38399370017));
#223 = CARTESIAN_POINT('',(3.045009095213,0.376053825299));
#224 = CARTESIAN_POINT('',(3.002249793592,0.362538554509));
#225 = CARTESIAN_POINT('',(2.962299381197,0.34387224879));
#226 = CARTESIAN_POINT('',(2.925840088943,0.320597681771));
#227 = CARTESIAN_POINT('',(2.860850863448,0.266058042134));
#228 = CARTESIAN_POINT('',(2.832320893485,0.234792934209));
#229 = CARTESIAN_POINT('',(2.808229095132,0.200145018701));
#230 = CARTESIAN_POINT('',(2.788839270859,0.162795360798));
#231 = CARTESIAN_POINT('',(2.774253177209,0.12343387601));
#232 = CARTESIAN_POINT('',(2.764515312555,8.273493960152E-02));
#233 = CARTESIAN_POINT('',(2.759646302925,4.136747437081E-02));
#234 = CARTESIAN_POINT('',(2.759646302925,1.597607415251E-16));
#235 = ( GEOMETRIC_REPRESENTATION_CONTEXT(2) 
PARAMETRIC_REPRESENTATION_CONTEXT() REPRESENTATION_CONTEXT('2D SPACE',''
  ) );
#236 = PCURVE('',#237,#242);
#237 = CYLINDRICAL_SURFACE('',#238,4.1);
#238 = AXIS2_PLACEMENT_3D('',#239,#240,#241);
#239 = CARTESIAN_POINT('',(12.,0.,0.));
#240 = DIRECTION('',(1.,-0.,-0.));
#241 = DIRECTION('',(-0.,-1.,-0.));
#242 = DEFINITIONAL_REPRESENTATION('',(#243),#247);
#243 = LINE('',#244,#245);
#244 = CARTESIAN_POINT('',(-10.99557428756,-1.792649707196));
#245 = VECTOR('',#246,1.);
#246 = DIRECTION('',(1.,-0.));
#247 = ( GEOMETRIC_REPRESENTATION_CONTEXT(2) 
PARAMETRIC_REPRESENTATION_CONTEXT() REPRESENTATION_CONTEXT('2D SPACE',''
  ) );
#248 = FACE_BOUND('',#249,.T.);
#249 = EDGE_LOOP('',(#250));
#250 = ORIENTED_EDGE('',*,*,#251,.T.);
#251 = EDGE_CURVE('',#252,#252,#254,.T.);
#252 = VERTEX_POINT('',#253);
#253 = CARTESIAN_POINT('',(-4.1,10.207350292804,0.));
#254 = SURFACE_CURVE('',#255,(#260,#322),.PCURVE_S1.);
#255 = CIRCLE('',#256,4.1);
#256 = AXIS2_PLACEMENT_3D('',#257,#258,#259);
#257 = CARTESIAN_POINT('',(0.,10.207350292804,0.));
#258 = DIRECTION('',(0.,-1.,-0.));
#259 = DIRECTION('',(-0.,-0.,1.));
#260 = PCURVE('',#35,#261);
#261 = DEFINITIONAL_REPRESENTATION('',(#262),#321);
#262 = B_SPLINE_CURVE_WITH_KNOTS('',8,(#263,#264,#265,#266,#267,#268,
    #269,#270,#271,#272,#273,#274,#275,#276,#277,#278,#279,#280,#281,
    #282,#283,#284,#285,#286,#287,#288,#289,#290,#291,#292,#293,#294,
    #295,#296,#297,#298,#299,#300,#301,#302,#303,#304,#305,#306,#307,
    #308,#309,#310,#311,#312,#313,#314,#315,#316,#317,#318,#319,#320),
  .UNSPECIFIED.,.F.,.F.,(9,7,7,7,7,7,7,7,9),(1.570796326795,
    2.356194490192,3.043417883165,3.644738352016,4.697049172506,
    5.486282287873,6.078207124398,6.966094379186,7.853981633974),
  .UNSPECIFIED.);
#263 = CARTESIAN_POINT('',(5.094335331049,2.282296307502E-17));
#264 = CARTESIAN_POINT('',(5.094335331049,-3.659241443102E-02));
#265 = CARTESIAN_POINT('',(5.090525579643,-7.318483729774E-02));
#266 = CARTESIAN_POINT('',(5.082905696896,-0.109314449136));
#267 = CARTESIAN_POINT('',(5.07148976592,-0.144518614908));
#268 = CARTESIAN_POINT('',(5.056302404513,-0.178330851083));
#269 = CARTESIAN_POINT('',(5.037403626445,-0.210277640749));
#270 = CARTESIAN_POINT('',(5.014928262333,-0.239885630788));
#271 = CARTESIAN_POINT('',(4.966548476769,-0.290178970146));
#272 = CARTESIAN_POINT('',(4.941423736721,-0.31151702988));
#273 = CARTESIAN_POINT('',(4.913918730652,-0.330423906413));
#274 = CARTESIAN_POINT('',(4.884264879786,-0.346616786961));
#275 = CARTESIAN_POINT('',(4.852779923759,-0.359840626459));
#276 = CARTESIAN_POINT('',(4.819872837527,-0.369890715339));
#277 = CARTESIAN_POINT('',(4.786024780664,-0.376633504931));
#278 = CARTESIAN_POINT('',(4.721739565426,-0.382969951198));
#279 = CARTESIAN_POINT('',(4.691405019992,-0.383351875406));
#280 = CARTESIAN_POINT('',(4.661073272382,-0.381121211311));
#281 = CARTESIAN_POINT('',(4.631097268262,-0.376285471651));
#282 = CARTESIAN_POINT('',(4.601821716332,-0.368901386783));
#283 = CARTESIAN_POINT('',(4.573558729833,-0.359070139581));
#284 = CARTESIAN_POINT('',(4.546571932206,-0.346927849854));
#285 = CARTESIAN_POINT('',(4.476464286954,-0.307623952349));
#286 = CARTESIAN_POINT('',(4.436422865235,-0.276027984444));
#287 = CARTESIAN_POINT('',(4.402115215476,-0.238710217917));
#288 = CARTESIAN_POINT('',(4.374256418076,-0.196771629206));
#289 = CARTESIAN_POINT('',(4.353091102714,-0.151381978852));
#290 = CARTESIAN_POINT('',(4.338718296694,-0.103666262321));
#291 = CARTESIAN_POINT('',(4.331181205773,-5.474052240335E-02));
#292 = CARTESIAN_POINT('',(4.329959910467,3.104999137491E-02));
#293 = CARTESIAN_POINT('',(4.333283470682,6.787212406998E-02));
#294 = CARTESIAN_POINT('',(4.340455673342,0.10427938573));
#295 = CARTESIAN_POINT('',(4.351463437543,0.13980258744));
#296 = CARTESIAN_POINT('',(4.366284020272,0.173968929131));
#297 = CARTESIAN_POINT('',(4.38486086212,0.20629826805));
#298 = CARTESIAN_POINT('',(4.407063961423,0.236309740404));
#299 = CARTESIAN_POINT('',(4.45183698837,0.283978021189));
#300 = CARTESIAN_POINT('',(4.47292757176,0.302847777937));
#301 = CARTESIAN_POINT('',(4.495817130382,0.319966161662));
#302 = CARTESIAN_POINT('',(4.520367222294,0.335149673302));
#303 = CARTESIAN_POINT('',(4.546394719432,0.348228653175));
#304 = CARTESIAN_POINT('',(4.573667164032,0.359057045827));
#305 = CARTESIAN_POINT('',(4.60190739068,0.367522342623));
#306 = CARTESIAN_POINT('',(4.674168691355,0.382595453214));
#307 = CARTESIAN_POINT('',(4.719020144802,0.386158146296));
#308 = CARTESIAN_POINT('',(4.764340864465,0.383993700169));
#309 = CARTESIAN_POINT('',(4.808972538769,0.3760538253));
#310 = CARTESIAN_POINT('',(4.851731840361,0.362538554508));
#311 = CARTESIAN_POINT('',(4.891682252779,0.34387224879));
#312 = CARTESIAN_POINT('',(4.928141545032,0.320597681771));
#313 = CARTESIAN_POINT('',(4.993130770526,0.266058042134));
#314 = CARTESIAN_POINT('',(5.021660740477,0.234792934209));
#315 = CARTESIAN_POINT('',(5.045752538861,0.2001450187));
#316 = CARTESIAN_POINT('',(5.065142363037,0.162795360799));
#317 = CARTESIAN_POINT('',(5.079728456778,0.12343387601));
#318 = CARTESIAN_POINT('',(5.089466321405,8.273493960161E-02));
#319 = CARTESIAN_POINT('',(5.094335331049,4.136747437081E-02));
#320 = CARTESIAN_POINT('',(5.094335331049,1.141148153751E-16));
#321 = ( GEOMETRIC_REPRESENTATION_CONTEXT(2) 
PARAMETRIC_REPRESENTATION_CONTEXT() REPRESENTATION_CONTEXT('2D SPACE',''
  ) );
#322 = PCURVE('',#323,#328);
#323 = CYLINDRICAL_SURFACE('',#324,4.1);
#324 = AXIS2_PLACEMENT_3D('',#325,#326,#327);
#325 = CARTESIAN_POINT('',(0.,0.,0.));
#326 = DIRECTION('',(-0.,-1.,-0.));
#327 = DIRECTION('',(-1.,0.,-0.));
#328 = DEFINITIONAL_REPRESENTATION('',(#329),#333);
#329 = LINE('',#330,#331);
#330 = CARTESIAN_POINT('',(-7.853981633974,-10.2073502928));
#331 = VECTOR('',#332,1.);
#332 = DIRECTION('',(1.,-0.));
#333 = ( GEOMETRIC_REPRESENTATION_CONTEXT(2) 
PARAMETRIC_REPRESENTATION_CONTEXT() REPRESENTATION_CONTEXT('2D SPACE',''
  ) );
#334 = ADVANCED_FACE('',(#335),#151,.F.);
#335 = FACE_BOUND('',#336,.T.);
#336 = EDGE_LOOP('',(#337,#385,#406,#407,#408,#442,#471,#507));
#337 = ORIENTED_EDGE('',*,*,#338,.F.);
#338 = EDGE_CURVE('',#339,#341,#343,.T.);
#339 = VERTEX_POINT('',#340);
#340 = CARTESIAN_POINT('',(-1.479578959172,4.39454789705,-3.823721499217
    ));
#341 = VERTEX_POINT('',#342);
#342 = CARTESIAN_POINT('',(3.871659611087,3.871659611087,-1.349167097092
    ));
#343 = SURFACE_CURVE('',#344,(#349,#367),.PCURVE_S1.);
#344 = ELLIPSE('',#345,7.232258548261,4.1);
#345 = AXIS2_PLACEMENT_3D('',#346,#347,#348);
#346 = CARTESIAN_POINT('',(0.,0.,0.));
#347 = DIRECTION('',(0.299480305613,-0.566904511591,-0.767418283134));
#348 = DIRECTION('',(-0.206093875271,-0.823783512058,0.528115555383));
#349 = PCURVE('',#151,#350);
#350 = DEFINITIONAL_REPRESENTATION('',(#351),#366);
#351 = B_SPLINE_CURVE_WITH_KNOTS('',7,(#352,#353,#354,#355,#356,#357,
    #358,#359,#360,#361,#362,#363,#364,#365),.UNSPECIFIED.,.F.,.F.,(8,6,
    8),(2.400321182141,3.556355081181,4.712388980221),.UNSPECIFIED.);
#352 = CARTESIAN_POINT('',(-5.415722071342E-17,-4.39454789705));
#353 = CARTESIAN_POINT('',(-0.165147699863,-5.058916228942));
#354 = CARTESIAN_POINT('',(-0.330295399726,-5.583452031918));
#355 = CARTESIAN_POINT('',(-0.495443099589,-5.938565247327));
#356 = CARTESIAN_POINT('',(-0.660590799451,-6.103981781405));
#357 = CARTESIAN_POINT('',(-0.825738499314,-6.072148445095));
#358 = CARTESIAN_POINT('',(-0.990886199177,-5.849157098188));
#359 = CARTESIAN_POINT('',(-1.321181598903,-5.056172071309));
#360 = CARTESIAN_POINT('',(-1.486329298766,-4.486178683072));
#361 = CARTESIAN_POINT('',(-1.651476998628,-3.760350478767));
#362 = CARTESIAN_POINT('',(-1.816624698492,-2.90792948644));
#363 = CARTESIAN_POINT('',(-1.981772398354,-1.967838640495));
#364 = CARTESIAN_POINT('',(-2.146920098217,-0.98391950174));
#365 = CARTESIAN_POINT('',(-2.31206779808,-9.766776276621E-10));
#366 = ( GEOMETRIC_REPRESENTATION_CONTEXT(2) 
PARAMETRIC_REPRESENTATION_CONTEXT() REPRESENTATION_CONTEXT('2D SPACE',''
  ) );
#367 = PCURVE('',#323,#368);
#368 = DEFINITIONAL_REPRESENTATION('',(#369),#384);
#369 = B_SPLINE_CURVE_WITH_KNOTS('',7,(#370,#371,#372,#373,#374,#375,
    #376,#377,#378,#379,#380,#381,#382,#383),.UNSPECIFIED.,.F.,.F.,(8,6,
    8),(2.400321182141,3.556355081181,4.712388980221),.UNSPECIFIED.);
#370 = CARTESIAN_POINT('',(-5.081592692975,-4.39454789705));
#371 = CARTESIAN_POINT('',(-4.916444993112,-5.058916228942));
#372 = CARTESIAN_POINT('',(-4.751297293249,-5.583452031917));
#373 = CARTESIAN_POINT('',(-4.586149593388,-5.938565247329));
#374 = CARTESIAN_POINT('',(-4.421001893525,-6.103981781403));
#375 = CARTESIAN_POINT('',(-4.255854193661,-6.072148445096));
#376 = CARTESIAN_POINT('',(-4.090706493798,-5.849157098188));
#377 = CARTESIAN_POINT('',(-3.760411094073,-5.056172071309));
#378 = CARTESIAN_POINT('',(-3.59526339421,-4.486178683071));
#379 = CARTESIAN_POINT('',(-3.430115694347,-3.760350478769));
#380 = CARTESIAN_POINT('',(-3.264967994484,-2.907929486439));
#381 = CARTESIAN_POINT('',(-3.099820294621,-1.967838640495));
#382 = CARTESIAN_POINT('',(-2.934672594758,-0.98391950174));
#383 = CARTESIAN_POINT('',(-2.769524894896,-9.766777829887E-10));
#384 = ( GEOMETRIC_REPRESENTATION_CONTEXT(2) 
PARAMETRIC_REPRESENTATION_CONTEXT() REPRESENTATION_CONTEXT('2D SPACE',''
  ) );
#385 = ORIENTED_EDGE('',*,*,#386,.T.);
#386 = EDGE_CURVE('',#339,#26,#387,.T.);
#387 = SEAM_CURVE('',#388,(#392,#399),.PCURVE_S1.);
#388 = LINE('',#389,#390);
#389 = CARTESIAN_POINT('',(-2.971762958866,2.824645980705,
    -1.137978600241E-16));
#390 = VECTOR('',#391,1.);
#391 = DIRECTION('',(0.339553472769,0.357238549476,-0.870105773971));
#392 = PCURVE('',#151,#393);
#393 = DEFINITIONAL_REPRESENTATION('',(#394),#398);
#394 = LINE('',#395,#396);
#395 = CARTESIAN_POINT('',(-6.28318530718,0.));
#396 = VECTOR('',#397,1.);
#397 = DIRECTION('',(-0.,-1.));
#398 = ( GEOMETRIC_REPRESENTATION_CONTEXT(2) 
PARAMETRIC_REPRESENTATION_CONTEXT() REPRESENTATION_CONTEXT('2D SPACE',''
  ) );
#399 = PCURVE('',#151,#400);
#400 = DEFINITIONAL_REPRESENTATION('',(#401),#405);
#401 = LINE('',#402,#403);
#402 = CARTESIAN_POINT('',(-0.,0.));
#403 = VECTOR('',#404,1.);
#404 = DIRECTION('',(-0.,-1.));
#405 = ( GEOMETRIC_REPRESENTATION_CONTEXT(2) 
PARAMETRIC_REPRESENTATION_CONTEXT() REPRESENTATION_CONTEXT('2D SPACE',''
  ) );
#406 = ORIENTED_EDGE('',*,*,#25,.F.);
#407 = ORIENTED_EDGE('',*,*,#386,.F.);
#408 = ORIENTED_EDGE('',*,*,#409,.F.);
#409 = EDGE_CURVE('',#410,#339,#412,.T.);
#410 = VERTEX_POINT('',#411);
#411 = CARTESIAN_POINT('',(-3.819468239889,1.014743844507E-13,
    -1.490524191176));
#412 = SURFACE_CURVE('',#413,(#418,#430),.PCURVE_S1.);
#413 = ELLIPSE('',#414,7.232258548261,4.1);
#414 = AXIS2_PLACEMENT_3D('',#415,#416,#417);
#415 = CARTESIAN_POINT('',(0.,0.,0.));
#416 = DIRECTION('',(0.299480305613,-0.566904511591,-0.767418283134));
#417 = DIRECTION('',(-0.206093875271,-0.823783512058,0.528115555383));
#418 = PCURVE('',#151,#419);
#419 = DEFINITIONAL_REPRESENTATION('',(#420),#429);
#420 = B_SPLINE_CURVE_WITH_KNOTS('',7,(#421,#422,#423,#424,#425,#426,
    #427,#428),.UNSPECIFIED.,.F.,.F.,(8,8),(1.57079622585,2.400321182141
    ),.PIECEWISE_BEZIER_KNOTS.);
#421 = CARTESIAN_POINT('',(-5.453660350889,6.014080982109E-07));
#422 = CARTESIAN_POINT('',(-5.572163916073,-0.706021757921));
#423 = CARTESIAN_POINT('',(-5.690667481258,-1.412044108308));
#424 = CARTESIAN_POINT('',(-5.809171046442,-2.101872525101));
#425 = CARTESIAN_POINT('',(-5.927674611626,-2.759312377304));
#426 = CARTESIAN_POINT('',(-6.046178176811,-3.36909957087));
#427 = CARTESIAN_POINT('',(-6.164681741995,-3.917823025978));
#428 = CARTESIAN_POINT('',(-6.28318530718,-4.39454789705));
#429 = ( GEOMETRIC_REPRESENTATION_CONTEXT(2) 
PARAMETRIC_REPRESENTATION_CONTEXT() REPRESENTATION_CONTEXT('2D SPACE',''
  ) );
#430 = PCURVE('',#323,#431);
#431 = DEFINITIONAL_REPRESENTATION('',(#432),#441);
#432 = B_SPLINE_CURVE_WITH_KNOTS('',7,(#433,#434,#435,#436,#437,#438,
    #439,#440),.UNSPECIFIED.,.F.,.F.,(8,8),(1.57079622585,2.400321182141
    ),.PIECEWISE_BEZIER_KNOTS.);
#433 = CARTESIAN_POINT('',(-5.911117649266,6.014080984536E-07));
#434 = CARTESIAN_POINT('',(-5.792614084081,-0.706021757921));
#435 = CARTESIAN_POINT('',(-5.674110518898,-1.412044108307));
#436 = CARTESIAN_POINT('',(-5.555606953712,-2.101872525102));
#437 = CARTESIAN_POINT('',(-5.437103388528,-2.759312377302));
#438 = CARTESIAN_POINT('',(-5.318599823344,-3.36909957087));
#439 = CARTESIAN_POINT('',(-5.20009625816,-3.917823025978));
#440 = CARTESIAN_POINT('',(-5.081592692975,-4.39454789705));
#441 = ( GEOMETRIC_REPRESENTATION_CONTEXT(2) 
PARAMETRIC_REPRESENTATION_CONTEXT() REPRESENTATION_CONTEXT('2D SPACE',''
  ) );
#442 = ORIENTED_EDGE('',*,*,#443,.F.);
#443 = EDGE_CURVE('',#444,#410,#446,.T.);
#444 = VERTEX_POINT('',#445);
#445 = CARTESIAN_POINT('',(-3.508304757815E-14,-3.792774737147,
    -1.557196131918));
#446 = SURFACE_CURVE('',#447,(#452,#459),.PCURVE_S1.);
#447 = CIRCLE('',#448,4.1);
#448 = AXIS2_PLACEMENT_3D('',#449,#450,#451);
#449 = CARTESIAN_POINT('',(0.,0.,0.));
#450 = DIRECTION('',(0.339553472769,0.357238549476,-0.870105773971));
#451 = DIRECTION('',(-0.72482023387,0.688938044074,-2.775557561563E-17)
  );
#452 = PCURVE('',#151,#453);
#453 = DEFINITIONAL_REPRESENTATION('',(#454),#458);
#454 = LINE('',#455,#456);
#455 = CARTESIAN_POINT('',(-0.,0.));
#456 = VECTOR('',#457,1.);
#457 = DIRECTION('',(-1.,0.));
#458 = ( GEOMETRIC_REPRESENTATION_CONTEXT(2) 
PARAMETRIC_REPRESENTATION_CONTEXT() REPRESENTATION_CONTEXT('2D SPACE',''
  ) );
#459 = PCURVE('',#460,#465);
#460 = PLANE('',#461);
#461 = AXIS2_PLACEMENT_3D('',#462,#463,#464);
#462 = CARTESIAN_POINT('',(1.667609917731E-16,8.338049588655E-17,
    6.530465158004E-17));
#463 = DIRECTION('',(0.339553472769,0.357238549476,-0.870105773971));
#464 = DIRECTION('',(-1.387778780781E-17,0.92506700906,0.379803934614));
#465 = DEFINITIONAL_REPRESENTATION('',(#466),#470);
#466 = CIRCLE('',#467,4.1);
#467 = AXIS2_PLACEMENT_2D('',#468,#469);
#468 = CARTESIAN_POINT('',(-1.019355095624E-16,-1.666129442288E-16));
#469 = DIRECTION('',(0.63731385586,-0.770604340196));
#470 = ( GEOMETRIC_REPRESENTATION_CONTEXT(2) 
PARAMETRIC_REPRESENTATION_CONTEXT() REPRESENTATION_CONTEXT('2D SPACE',''
  ) );
#471 = ORIENTED_EDGE('',*,*,#472,.T.);
#472 = EDGE_CURVE('',#444,#473,#475,.T.);
#473 = VERTEX_POINT('',#474);
#474 = CARTESIAN_POINT('',(5.83908844483,1.557196131918,-3.792774737147)
  );
#475 = SURFACE_CURVE('',#476,(#481,#494),.PCURVE_S1.);
#476 = ELLIPSE('',#477,7.134770764821,4.1);
#477 = AXIS2_PLACEMENT_3D('',#478,#479,#480);
#478 = CARTESIAN_POINT('',(1.7763568394E-15,0.,0.));
#479 = DIRECTION('',(0.574650557831,-0.310831116935,0.757073809565));
#480 = DIRECTION('',(0.818398885865,0.218254542892,-0.531590272787));
#481 = PCURVE('',#151,#482);
#482 = DEFINITIONAL_REPRESENTATION('',(#483),#493);
#483 = B_SPLINE_CURVE_WITH_KNOTS('',8,(#484,#485,#486,#487,#488,#489,
    #490,#491,#492),.UNSPECIFIED.,.F.,.F.,(9,9),(4.712388877465,
    6.28318530718),.PIECEWISE_BEZIER_KNOTS.);
#484 = CARTESIAN_POINT('',(-4.021381626816,6.009558328746E-07));
#485 = CARTESIAN_POINT('',(-3.825032073102,-1.146501809285));
#486 = CARTESIAN_POINT('',(-3.628682519382,-2.293004518217));
#487 = CARTESIAN_POINT('',(-3.432332965678,-3.372150700869));
#488 = CARTESIAN_POINT('',(-3.235983411938,-4.31659703148));
#489 = CARTESIAN_POINT('',(-3.03963385825,-5.067266225466));
#490 = CARTESIAN_POINT('',(-2.843284304527,-5.581813643179));
#491 = CARTESIAN_POINT('',(-2.646934750816,-5.83908844483));
#492 = CARTESIAN_POINT('',(-2.450585197102,-5.83908844483));
#493 = ( GEOMETRIC_REPRESENTATION_CONTEXT(2) 
PARAMETRIC_REPRESENTATION_CONTEXT() REPRESENTATION_CONTEXT('2D SPACE',''
  ) );
#494 = PCURVE('',#237,#495);
#495 = DEFINITIONAL_REPRESENTATION('',(#496),#506);
#496 = B_SPLINE_CURVE_WITH_KNOTS('',8,(#497,#498,#499,#500,#501,#502,
    #503,#504,#505),.UNSPECIFIED.,.F.,.F.,(9,9),(4.712388877465,
    6.28318530718),.PIECEWISE_BEZIER_KNOTS.);
#497 = CARTESIAN_POINT('',(-5.893601070074,-12.00000060095));
#498 = CARTESIAN_POINT('',(-5.69725151636,-10.85349819071));
#499 = CARTESIAN_POINT('',(-5.50090196264,-9.706995481776));
#500 = CARTESIAN_POINT('',(-5.304552408916,-8.627849299104));
#501 = CARTESIAN_POINT('',(-5.108202855201,-7.683402968512));
#502 = CARTESIAN_POINT('',(-4.911853301495,-6.93273377452));
#503 = CARTESIAN_POINT('',(-4.715503747781,-6.418186356814));
#504 = CARTESIAN_POINT('',(-4.519154194074,-6.16091155517));
#505 = CARTESIAN_POINT('',(-4.32280464036,-6.16091155517));
#506 = ( GEOMETRIC_REPRESENTATION_CONTEXT(2) 
PARAMETRIC_REPRESENTATION_CONTEXT() REPRESENTATION_CONTEXT('2D SPACE',''
  ) );
#507 = ORIENTED_EDGE('',*,*,#508,.T.);
#508 = EDGE_CURVE('',#473,#341,#509,.T.);
#509 = SURFACE_CURVE('',#510,(#515,#528),.PCURVE_S1.);
#510 = ELLIPSE('',#511,7.134770764821,4.1);
#511 = AXIS2_PLACEMENT_3D('',#512,#513,#514);
#512 = CARTESIAN_POINT('',(1.7763568394E-15,0.,0.));
#513 = DIRECTION('',(0.574650557831,-0.310831116935,0.757073809565));
#514 = DIRECTION('',(0.818398885865,0.218254542892,-0.531590272787));
#515 = PCURVE('',#151,#516);
#516 = DEFINITIONAL_REPRESENTATION('',(#517),#527);
#517 = B_SPLINE_CURVE_WITH_KNOTS('',8,(#518,#519,#520,#521,#522,#523,
    #524,#525,#526),.UNSPECIFIED.,.F.,.F.,(9,9),(0.,1.570796326711),
  .PIECEWISE_BEZIER_KNOTS.);
#518 = CARTESIAN_POINT('',(-2.450585197102,-5.83908844483));
#519 = CARTESIAN_POINT('',(-2.254235656263,-5.83908844483));
#520 = CARTESIAN_POINT('',(-2.057886115424,-5.581813676929));
#521 = CARTESIAN_POINT('',(-1.861536574581,-5.067266326656));
#522 = CARTESIAN_POINT('',(-1.665187033744,-4.316597228408));
#523 = CARTESIAN_POINT('',(-1.468837492907,-3.372151010515));
#524 = CARTESIAN_POINT('',(-1.272487952068,-2.293004942807));
#525 = CARTESIAN_POINT('',(-1.07613841123,-1.146502335551));
#526 = CARTESIAN_POINT('',(-0.879788870391,-4.916467233329E-10));
#527 = ( GEOMETRIC_REPRESENTATION_CONTEXT(2) 
PARAMETRIC_REPRESENTATION_CONTEXT() REPRESENTATION_CONTEXT('2D SPACE',''
  ) );
#528 = PCURVE('',#237,#529);
#529 = DEFINITIONAL_REPRESENTATION('',(#530),#540);
#530 = B_SPLINE_CURVE_WITH_KNOTS('',8,(#531,#532,#533,#534,#535,#536,
    #537,#538,#539),.UNSPECIFIED.,.F.,.F.,(9,9),(0.,1.570796326711),
  .PIECEWISE_BEZIER_KNOTS.);
#531 = CARTESIAN_POINT('',(-4.32280464036,-6.16091155517));
#532 = CARTESIAN_POINT('',(-4.126455099521,-6.16091155517));
#533 = CARTESIAN_POINT('',(-3.930105558682,-6.418186323078));
#534 = CARTESIAN_POINT('',(-3.733756017833,-6.932733673282));
#535 = CARTESIAN_POINT('',(-3.537406476984,-7.68340277164));
#536 = CARTESIAN_POINT('',(-3.341056936162,-8.627848989443));
#537 = CARTESIAN_POINT('',(-3.144707395325,-9.706995057199));
#538 = CARTESIAN_POINT('',(-2.948357854488,-10.85349766444));
#539 = CARTESIAN_POINT('',(-2.752008313649,-11.9999999995));
#540 = ( GEOMETRIC_REPRESENTATION_CONTEXT(2) 
PARAMETRIC_REPRESENTATION_CONTEXT() REPRESENTATION_CONTEXT('2D SPACE',''
  ) );
#541 = ADVANCED_FACE('',(#542),#237,.F.);
#542 = FACE_BOUND('',#543,.T.);
#543 = EDGE_LOOP('',(#544,#545,#568,#597,#633,#667,#668,#669,#691));
#544 = ORIENTED_EDGE('',*,*,#165,.T.);
#545 = ORIENTED_EDGE('',*,*,#546,.T.);
#546 = EDGE_CURVE('',#166,#547,#549,.T.);
#547 = VERTEX_POINT('',#548);
#548 = CARTESIAN_POINT('',(0.,-4.1,0.));
#549 = SEAM_CURVE('',#550,(#554,#561),.PCURVE_S1.);
#550 = LINE('',#551,#552);
#551 = CARTESIAN_POINT('',(12.,-4.1,0.));
#552 = VECTOR('',#553,1.);
#553 = DIRECTION('',(-1.,0.,-0.));
#554 = PCURVE('',#237,#555);
#555 = DEFINITIONAL_REPRESENTATION('',(#556),#560);
#556 = LINE('',#557,#558);
#557 = CARTESIAN_POINT('',(-6.28318530718,0.));
#558 = VECTOR('',#559,1.);
#559 = DIRECTION('',(-0.,-1.));
#560 = ( GEOMETRIC_REPRESENTATION_CONTEXT(2) 
PARAMETRIC_REPRESENTATION_CONTEXT() REPRESENTATION_CONTEXT('2D SPACE',''
  ) );
#561 = PCURVE('',#237,#562);
#562 = DEFINITIONAL_REPRESENTATION('',(#563),#567);
#563 = LINE('',#564,#565);
#564 = CARTESIAN_POINT('',(-0.,0.));
#565 = VECTOR('',#566,1.);
#566 = DIRECTION('',(-0.,-1.));
#567 = ( GEOMETRIC_REPRESENTATION_CONTEXT(2) 
PARAMETRIC_REPRESENTATION_CONTEXT() REPRESENTATION_CONTEXT('2D SPACE',''
  ) );
#568 = ORIENTED_EDGE('',*,*,#569,.T.);
#569 = EDGE_CURVE('',#547,#570,#572,.T.);
#570 = VERTEX_POINT('',#571);
#571 = CARTESIAN_POINT('',(-1.255262969126E-16,-9.070862287608E-14,4.1)
  );
#572 = SURFACE_CURVE('',#573,(#578,#585),.PCURVE_S1.);
#573 = CIRCLE('',#574,4.1);
#574 = AXIS2_PLACEMENT_3D('',#575,#576,#577);
#575 = CARTESIAN_POINT('',(0.,0.,0.));
#576 = DIRECTION('',(-1.,0.,0.));
#577 = DIRECTION('',(-0.,-1.,-0.));
#578 = PCURVE('',#237,#579);
#579 = DEFINITIONAL_REPRESENTATION('',(#580),#584);
#580 = LINE('',#581,#582);
#581 = CARTESIAN_POINT('',(-0.,-12.));
#582 = VECTOR('',#583,1.);
#583 = DIRECTION('',(-1.,0.));
#584 = ( GEOMETRIC_REPRESENTATION_CONTEXT(2) 
PARAMETRIC_REPRESENTATION_CONTEXT() REPRESENTATION_CONTEXT('2D SPACE',''
  ) );
#585 = PCURVE('',#586,#591);
#586 = PLANE('',#587);
#587 = AXIS2_PLACEMENT_3D('',#588,#589,#590);
#588 = CARTESIAN_POINT('',(1.7763568394E-15,1.667609917731E-16,
    1.661535876627E-16));
#589 = DIRECTION('',(-1.,0.,-0.));
#590 = DIRECTION('',(-0.,-0.,1.));
#591 = DEFINITIONAL_REPRESENTATION('',(#592),#596);
#592 = CIRCLE('',#593,4.1);
#593 = AXIS2_PLACEMENT_2D('',#594,#595);
#594 = CARTESIAN_POINT('',(-1.661535876627E-16,-1.667609917731E-16));
#595 = DIRECTION('',(0.,-1.));
#596 = ( GEOMETRIC_REPRESENTATION_CONTEXT(2) 
PARAMETRIC_REPRESENTATION_CONTEXT() REPRESENTATION_CONTEXT('2D SPACE',''
  ) );
#597 = ORIENTED_EDGE('',*,*,#598,.F.);
#598 = EDGE_CURVE('',#599,#570,#601,.T.);
#599 = VERTEX_POINT('',#600);
#600 = CARTESIAN_POINT('',(4.1,4.1,-5.021051876504E-16));
#601 = SURFACE_CURVE('',#602,(#607,#620),.PCURVE_S1.);
#602 = ELLIPSE('',#603,5.79827560573,4.1);
#603 = AXIS2_PLACEMENT_3D('',#604,#605,#606);
#604 = CARTESIAN_POINT('',(0.,0.,0.));
#605 = DIRECTION('',(0.707106781187,-0.707106781187,0.));
#606 = DIRECTION('',(0.707106781187,0.707106781187,-0.));
#607 = PCURVE('',#237,#608);
#608 = DEFINITIONAL_REPRESENTATION('',(#609),#619);
#609 = B_SPLINE_CURVE_WITH_KNOTS('',8,(#610,#611,#612,#613,#614,#615,
    #616,#617,#618),.UNSPECIFIED.,.F.,.F.,(9,9),(0.,1.570796326914),
  .PIECEWISE_BEZIER_KNOTS.);
#610 = CARTESIAN_POINT('',(-3.14159265359,-7.9));
#611 = CARTESIAN_POINT('',(-2.945243112725,-7.9));
#612 = CARTESIAN_POINT('',(-2.748893571862,-8.080649181582));
#613 = CARTESIAN_POINT('',(-2.552544030988,-8.441946010036));
#614 = CARTESIAN_POINT('',(-2.356194490141,-8.969039122836));
#615 = CARTESIAN_POINT('',(-2.159844949265,-9.632195629245));
#616 = CARTESIAN_POINT('',(-1.963495408403,-10.38993357425));
#617 = CARTESIAN_POINT('',(-1.76714586754,-11.19496688294));
#618 = CARTESIAN_POINT('',(-1.570796326675,-12.00000000049));
#619 = ( GEOMETRIC_REPRESENTATION_CONTEXT(2) 
PARAMETRIC_REPRESENTATION_CONTEXT() REPRESENTATION_CONTEXT('2D SPACE',''
  ) );
#620 = PCURVE('',#323,#621);
#621 = DEFINITIONAL_REPRESENTATION('',(#622),#632);
#622 = B_SPLINE_CURVE_WITH_KNOTS('',8,(#623,#624,#625,#626,#627,#628,
    #629,#630,#631),.UNSPECIFIED.,.F.,.F.,(9,9),(0.,1.570796326914),
  .PIECEWISE_BEZIER_KNOTS.);
#623 = CARTESIAN_POINT('',(-3.14159265359,-4.1));
#624 = CARTESIAN_POINT('',(-2.945243112725,-4.1));
#625 = CARTESIAN_POINT('',(-2.748893571862,-3.919350818428));
#626 = CARTESIAN_POINT('',(-2.552544030988,-3.5580539899));
#627 = CARTESIAN_POINT('',(-2.356194490141,-3.030960877202));
#628 = CARTESIAN_POINT('',(-2.159844949265,-2.367804370706));
#629 = CARTESIAN_POINT('',(-1.963495408403,-1.610066425758));
#630 = CARTESIAN_POINT('',(-1.76714586754,-0.805033117053));
#631 = CARTESIAN_POINT('',(-1.570796326675,4.903665627686E-10));
#632 = ( GEOMETRIC_REPRESENTATION_CONTEXT(2) 
PARAMETRIC_REPRESENTATION_CONTEXT() REPRESENTATION_CONTEXT('2D SPACE',''
  ) );
#633 = ORIENTED_EDGE('',*,*,#634,.F.);
#634 = EDGE_CURVE('',#341,#599,#635,.T.);
#635 = SURFACE_CURVE('',#636,(#641,#654),.PCURVE_S1.);
#636 = ELLIPSE('',#637,5.79827560573,4.1);
#637 = AXIS2_PLACEMENT_3D('',#638,#639,#640);
#638 = CARTESIAN_POINT('',(0.,0.,0.));
#639 = DIRECTION('',(0.707106781187,-0.707106781187,0.));
#640 = DIRECTION('',(0.707106781187,0.707106781187,-0.));
#641 = PCURVE('',#237,#642);
#642 = DEFINITIONAL_REPRESENTATION('',(#643),#653);
#643 = B_SPLINE_CURVE_WITH_KNOTS('',8,(#644,#645,#646,#647,#648,#649,
    #650,#651,#652),.UNSPECIFIED.,.F.,.F.,(9,9),(4.712388834163,
    6.28318530718),.PIECEWISE_BEZIER_KNOTS.);
#644 = CARTESIAN_POINT('',(-4.712389126607,-12.00000059951));
#645 = CARTESIAN_POINT('',(-4.516039567479,-11.19496740708));
#646 = CARTESIAN_POINT('',(-4.319690008351,-10.38993399712));
#647 = CARTESIAN_POINT('',(-4.123340449221,-9.632195937655));
#648 = CARTESIAN_POINT('',(-3.92699089009,-8.969039318908));
#649 = CARTESIAN_POINT('',(-3.730641330974,-8.44194611087));
#650 = CARTESIAN_POINT('',(-3.534291771843,-8.080649215181));
#651 = CARTESIAN_POINT('',(-3.337942212717,-7.9));
#652 = CARTESIAN_POINT('',(-3.14159265359,-7.9));
#653 = ( GEOMETRIC_REPRESENTATION_CONTEXT(2) 
PARAMETRIC_REPRESENTATION_CONTEXT() REPRESENTATION_CONTEXT('2D SPACE',''
  ) );
#654 = PCURVE('',#323,#655);
#655 = DEFINITIONAL_REPRESENTATION('',(#656),#666);
#656 = B_SPLINE_CURVE_WITH_KNOTS('',8,(#657,#658,#659,#660,#661,#662,
    #663,#664,#665),.UNSPECIFIED.,.F.,.F.,(9,9),(4.712388834163,
    6.28318530718),.PIECEWISE_BEZIER_KNOTS.);
#657 = CARTESIAN_POINT('',(-4.712389126607,5.995096320248E-07));
#658 = CARTESIAN_POINT('',(-4.516039567479,-0.805032592911));
#659 = CARTESIAN_POINT('',(-4.319690008351,-1.610066002886));
#660 = CARTESIAN_POINT('',(-4.123340449221,-2.367804062294));
#661 = CARTESIAN_POINT('',(-3.92699089009,-3.030960681108));
#662 = CARTESIAN_POINT('',(-3.730641330974,-3.558053889092));
#663 = CARTESIAN_POINT('',(-3.534291771843,-3.919350784824));
#664 = CARTESIAN_POINT('',(-3.337942212717,-4.1));
#665 = CARTESIAN_POINT('',(-3.14159265359,-4.1));
#666 = ( GEOMETRIC_REPRESENTATION_CONTEXT(2) 
PARAMETRIC_REPRESENTATION_CONTEXT() REPRESENTATION_CONTEXT('2D SPACE',''
  ) );
#667 = ORIENTED_EDGE('',*,*,#508,.F.);
#668 = ORIENTED_EDGE('',*,*,#472,.F.);
#669 = ORIENTED_EDGE('',*,*,#670,.T.);
#670 = EDGE_CURVE('',#444,#547,#671,.T.);
#671 = SURFACE_CURVE('',#672,(#677,#684),.PCURVE_S1.);
#672 = CIRCLE('',#673,4.1);
#673 = AXIS2_PLACEMENT_3D('',#674,#675,#676);
#674 = CARTESIAN_POINT('',(0.,0.,0.));
#675 = DIRECTION('',(-1.,0.,0.));
#676 = DIRECTION('',(-0.,-1.,-0.));
#677 = PCURVE('',#237,#678);
#678 = DEFINITIONAL_REPRESENTATION('',(#679),#683);
#679 = LINE('',#680,#681);
#680 = CARTESIAN_POINT('',(-0.,-12.));
#681 = VECTOR('',#682,1.);
#682 = DIRECTION('',(-1.,0.));
#683 = ( GEOMETRIC_REPRESENTATION_CONTEXT(2) 
PARAMETRIC_REPRESENTATION_CONTEXT() REPRESENTATION_CONTEXT('2D SPACE',''
  ) );
#684 = PCURVE('',#586,#685);
#685 = DEFINITIONAL_REPRESENTATION('',(#686),#690);
#686 = CIRCLE('',#687,4.1);
#687 = AXIS2_PLACEMENT_2D('',#688,#689);
#688 = CARTESIAN_POINT('',(-1.661535876627E-16,-1.667609917731E-16));
#689 = DIRECTION('',(0.,-1.));
#690 = ( GEOMETRIC_REPRESENTATION_CONTEXT(2) 
PARAMETRIC_REPRESENTATION_CONTEXT() REPRESENTATION_CONTEXT('2D SPACE',''
  ) );
#691 = ORIENTED_EDGE('',*,*,#546,.F.);
#692 = ADVANCED_FACE('',(#693),#323,.F.);
#693 = FACE_BOUND('',#694,.T.);
#694 = EDGE_LOOP('',(#695,#718,#745,#746,#747,#748,#749,#771,#772));
#695 = ORIENTED_EDGE('',*,*,#696,.F.);
#696 = EDGE_CURVE('',#697,#252,#699,.T.);
#697 = VERTEX_POINT('',#698);
#698 = CARTESIAN_POINT('',(-4.1,0.,0.));
#699 = SEAM_CURVE('',#700,(#704,#711),.PCURVE_S1.);
#700 = LINE('',#701,#702);
#701 = CARTESIAN_POINT('',(-4.1,0.,0.));
#702 = VECTOR('',#703,1.);
#703 = DIRECTION('',(-0.,1.,-0.));
#704 = PCURVE('',#323,#705);
#705 = DEFINITIONAL_REPRESENTATION('',(#706),#710);
#706 = LINE('',#707,#708);
#707 = CARTESIAN_POINT('',(-6.28318530718,0.));
#708 = VECTOR('',#709,1.);
#709 = DIRECTION('',(-0.,-1.));
#710 = ( GEOMETRIC_REPRESENTATION_CONTEXT(2) 
PARAMETRIC_REPRESENTATION_CONTEXT() REPRESENTATION_CONTEXT('2D SPACE',''
  ) );
#711 = PCURVE('',#323,#712);
#712 = DEFINITIONAL_REPRESENTATION('',(#713),#717);
#713 = LINE('',#714,#715);
#714 = CARTESIAN_POINT('',(-0.,0.));
#715 = VECTOR('',#716,1.);
#716 = DIRECTION('',(-0.,-1.));
#717 = ( GEOMETRIC_REPRESENTATION_CONTEXT(2) 
PARAMETRIC_REPRESENTATION_CONTEXT() REPRESENTATION_CONTEXT('2D SPACE',''
  ) );
#718 = ORIENTED_EDGE('',*,*,#719,.F.);
#719 = EDGE_CURVE('',#410,#697,#720,.T.);
#720 = SURFACE_CURVE('',#721,(#726,#733),.PCURVE_S1.);
#721 = CIRCLE('',#722,4.1);
#722 = AXIS2_PLACEMENT_3D('',#723,#724,#725);
#723 = CARTESIAN_POINT('',(0.,0.,0.));
#724 = DIRECTION('',(0.,1.,0.));
#725 = DIRECTION('',(-1.,0.,-0.));
#726 = PCURVE('',#323,#727);
#727 = DEFINITIONAL_REPRESENTATION('',(#728),#732);
#728 = LINE('',#729,#730);
#729 = CARTESIAN_POINT('',(-0.,0.));
#730 = VECTOR('',#731,1.);
#731 = DIRECTION('',(-1.,0.));
#732 = ( GEOMETRIC_REPRESENTATION_CONTEXT(2) 
PARAMETRIC_REPRESENTATION_CONTEXT() REPRESENTATION_CONTEXT('2D SPACE',''
  ) );
#733 = PCURVE('',#734,#739);
#734 = PLANE('',#735);
#735 = AXIS2_PLACEMENT_3D('',#736,#737,#738);
#736 = CARTESIAN_POINT('',(1.667609917731E-16,0.,1.661535876627E-16));
#737 = DIRECTION('',(0.,1.,-0.));
#738 = DIRECTION('',(-0.,0.,-1.));
#739 = DEFINITIONAL_REPRESENTATION('',(#740),#744);
#740 = CIRCLE('',#741,4.1);
#741 = AXIS2_PLACEMENT_2D('',#742,#743);
#742 = CARTESIAN_POINT('',(1.661535876627E-16,1.667609917731E-16));
#743 = DIRECTION('',(0.,1.));
#744 = ( GEOMETRIC_REPRESENTATION_CONTEXT(2) 
PARAMETRIC_REPRESENTATION_CONTEXT() REPRESENTATION_CONTEXT('2D SPACE',''
  ) );
#745 = ORIENTED_EDGE('',*,*,#409,.T.);
#746 = ORIENTED_EDGE('',*,*,#338,.T.);
#747 = ORIENTED_EDGE('',*,*,#634,.T.);
#748 = ORIENTED_EDGE('',*,*,#598,.T.);
#749 = ORIENTED_EDGE('',*,*,#750,.F.);
#750 = EDGE_CURVE('',#697,#570,#751,.T.);
#751 = SURFACE_CURVE('',#752,(#757,#764),.PCURVE_S1.);
#752 = CIRCLE('',#753,4.1);
#753 = AXIS2_PLACEMENT_3D('',#754,#755,#756);
#754 = CARTESIAN_POINT('',(0.,0.,0.));
#755 = DIRECTION('',(0.,1.,0.));
#756 = DIRECTION('',(-1.,0.,-0.));
#757 = PCURVE('',#323,#758);
#758 = DEFINITIONAL_REPRESENTATION('',(#759),#763);
#759 = LINE('',#760,#761);
#760 = CARTESIAN_POINT('',(-0.,0.));
#761 = VECTOR('',#762,1.);
#762 = DIRECTION('',(-1.,0.));
#763 = ( GEOMETRIC_REPRESENTATION_CONTEXT(2) 
PARAMETRIC_REPRESENTATION_CONTEXT() REPRESENTATION_CONTEXT('2D SPACE',''
  ) );
#764 = PCURVE('',#734,#765);
#765 = DEFINITIONAL_REPRESENTATION('',(#766),#770);
#766 = CIRCLE('',#767,4.1);
#767 = AXIS2_PLACEMENT_2D('',#768,#769);
#768 = CARTESIAN_POINT('',(1.661535876627E-16,1.667609917731E-16));
#769 = DIRECTION('',(0.,1.));
#770 = ( GEOMETRIC_REPRESENTATION_CONTEXT(2) 
PARAMETRIC_REPRESENTATION_CONTEXT() REPRESENTATION_CONTEXT('2D SPACE',''
  ) );
#771 = ORIENTED_EDGE('',*,*,#696,.T.);
#772 = ORIENTED_EDGE('',*,*,#251,.F.);
#773 = ADVANCED_FACE('',(#774),#460,.T.);
#774 = FACE_BOUND('',#775,.T.);
#775 = EDGE_LOOP('',(#776,#799,#800));
#776 = ORIENTED_EDGE('',*,*,#777,.T.);
#777 = EDGE_CURVE('',#778,#444,#780,.T.);
#778 = VERTEX_POINT('',#779);
#779 = CARTESIAN_POINT('',(1.7763568394E-15,0.,6.592061723035E-16));
#780 = SURFACE_CURVE('',#781,(#785,#792),.PCURVE_S1.);
#781 = LINE('',#782,#783);
#782 = CARTESIAN_POINT('',(1.7763568394E-15,-8.391828603438E-17,
    6.247519052312E-16));
#783 = VECTOR('',#784,1.);
#784 = DIRECTION('',(-0.,-0.92506700906,-0.379803934614));
#785 = PCURVE('',#460,#786);
#786 = DEFINITIONAL_REPRESENTATION('',(#787),#791);
#787 = LINE('',#788,#789);
#788 = CARTESIAN_POINT('',(5.771768433479E-17,1.711267826398E-15));
#789 = VECTOR('',#790,1.);
#790 = DIRECTION('',(-1.,0.));
#791 = ( GEOMETRIC_REPRESENTATION_CONTEXT(2) 
PARAMETRIC_REPRESENTATION_CONTEXT() REPRESENTATION_CONTEXT('2D SPACE',''
  ) );
#792 = PCURVE('',#586,#793);
#793 = DEFINITIONAL_REPRESENTATION('',(#794),#798);
#794 = LINE('',#795,#796);
#795 = CARTESIAN_POINT('',(4.585983175685E-16,-2.506792778075E-16));
#796 = VECTOR('',#797,1.);
#797 = DIRECTION('',(-0.379803934614,-0.92506700906));
#798 = ( GEOMETRIC_REPRESENTATION_CONTEXT(2) 
PARAMETRIC_REPRESENTATION_CONTEXT() REPRESENTATION_CONTEXT('2D SPACE',''
  ) );
#799 = ORIENTED_EDGE('',*,*,#443,.T.);
#800 = ORIENTED_EDGE('',*,*,#801,.F.);
#801 = EDGE_CURVE('',#778,#410,#802,.T.);
#802 = SURFACE_CURVE('',#803,(#807,#814),.PCURVE_S1.);
#803 = LINE('',#804,#805);
#804 = CARTESIAN_POINT('',(1.954319251377E-16,-6.162975822039E-33,
    4.22598528746E-17));
#805 = VECTOR('',#806,1.);
#806 = DIRECTION('',(-0.931577619485,0.,-0.363542485653));
#807 = PCURVE('',#460,#808);
#808 = DEFINITIONAL_REPRESENTATION('',(#809),#813);
#809 = LINE('',#810,#811);
#810 = CARTESIAN_POINT('',(-8.588505116445E-17,3.048196594938E-17));
#811 = VECTOR('',#812,1.);
#812 = DIRECTION('',(-0.13807486645,-0.990421794618));
#813 = ( GEOMETRIC_REPRESENTATION_CONTEXT(2) 
PARAMETRIC_REPRESENTATION_CONTEXT() REPRESENTATION_CONTEXT('2D SPACE',''
  ) );
#814 = PCURVE('',#734,#815);
#815 = DEFINITIONAL_REPRESENTATION('',(#816),#820);
#816 = LINE('',#817,#818);
#817 = CARTESIAN_POINT('',(1.238937347881E-16,-2.86709333646E-17));
#818 = VECTOR('',#819,1.);
#819 = DIRECTION('',(0.363542485653,0.931577619485));
#820 = ( GEOMETRIC_REPRESENTATION_CONTEXT(2) 
PARAMETRIC_REPRESENTATION_CONTEXT() REPRESENTATION_CONTEXT('2D SPACE',''
  ) );
#821 = ADVANCED_FACE('',(#822),#586,.F.);
#822 = FACE_BOUND('',#823,.F.);
#823 = EDGE_LOOP('',(#824,#825,#826,#827));
#824 = ORIENTED_EDGE('',*,*,#777,.T.);
#825 = ORIENTED_EDGE('',*,*,#670,.T.);
#826 = ORIENTED_EDGE('',*,*,#569,.T.);
#827 = ORIENTED_EDGE('',*,*,#828,.T.);
#828 = EDGE_CURVE('',#570,#778,#829,.T.);
#829 = SURFACE_CURVE('',#830,(#834,#841),.PCURVE_S1.);
#830 = LINE('',#831,#832);
#831 = CARTESIAN_POINT('',(1.7763568394E-15,0.,1.661535876627E-16));
#832 = VECTOR('',#833,1.);
#833 = DIRECTION('',(-0.,0.,-1.));
#834 = PCURVE('',#586,#835);
#835 = DEFINITIONAL_REPRESENTATION('',(#836),#840);
#836 = LINE('',#837,#838);
#837 = CARTESIAN_POINT('',(0.,-1.667609917731E-16));
#838 = VECTOR('',#839,1.);
#839 = DIRECTION('',(-1.,0.));
#840 = ( GEOMETRIC_REPRESENTATION_CONTEXT(2) 
PARAMETRIC_REPRESENTATION_CONTEXT() REPRESENTATION_CONTEXT('2D SPACE',''
  ) );
#841 = PCURVE('',#734,#842);
#842 = DEFINITIONAL_REPRESENTATION('',(#843),#847);
#843 = LINE('',#844,#845);
#844 = CARTESIAN_POINT('',(0.,-1.609595847627E-15));
#845 = VECTOR('',#846,1.);
#846 = DIRECTION('',(1.,0.));
#847 = ( GEOMETRIC_REPRESENTATION_CONTEXT(2) 
PARAMETRIC_REPRESENTATION_CONTEXT() REPRESENTATION_CONTEXT('2D SPACE',''
  ) );
#848 = ADVANCED_FACE('',(#849),#734,.T.);
#849 = FACE_BOUND('',#850,.T.);
#850 = EDGE_LOOP('',(#851,#852,#853,#854));
#851 = ORIENTED_EDGE('',*,*,#801,.T.);
#852 = ORIENTED_EDGE('',*,*,#719,.T.);
#853 = ORIENTED_EDGE('',*,*,#750,.T.);
#854 = ORIENTED_EDGE('',*,*,#828,.T.);
#855 = ( GEOMETRIC_REPRESENTATION_CONTEXT(3) 
GLOBAL_UNCERTAINTY_ASSIGNED_CONTEXT((#859)) GLOBAL_UNIT_ASSIGNED_CONTEXT
((#856,#857,#858)) REPRESENTATION_CONTEXT('Context #1',
  '3D Context with UNIT and UNCERTAINTY') );
#856 = ( LENGTH_UNIT() NAMED_UNIT(*) SI_UNIT(.MILLI.,.METRE.) );
#857 = ( NAMED_UNIT(*) PLANE_ANGLE_UNIT() SI_UNIT($,.RADIAN.) );
#858 = ( NAMED_UNIT(*) SI_UNIT($,.STERADIAN.) SOLID_ANGLE_UNIT() );
#859 = UNCERTAINTY_MEASURE_WITH_UNIT(LENGTH_MEASURE(1.E-07),#856,
  'distance_accuracy_value','confusion accuracy');
#860 = PRODUCT_RELATED_PRODUCT_CATEGORY('part',$,(#7));
ENDSEC;
END-ISO-10303-21;
