ISO-10303-21;
HEADER;
FILE_DESCRIPTION(('Open CASCADE Model'),'2;1');
FILE_NAME('Open CASCADE Shape Model','2026-10-06T13:00:52',('Author'),(
    'Open CASCADE'),'Open CASCADE STEP processor 7.9','Open CASCADE 7.9'
  ,'Unknown');
FILE_SCHEMA(('AUTOMOTIVE_DESIGN { 1 0 10303 214 1 1 1 1 }'));
ENDSEC;
DATA;
#1 = APPLICATION_PROTOCOL_DEFINITION('international standard',
  'automotive_design',2000,#2);
#2 = APPLICATION_CONTEXT(
  'core data for automotive mechanical design processes');
#3 = SHAPE_DEFINITION_REPRESENTATION(#4,#10);
#4 = PRODUCT_DEFINITION_SHAPE('','',#5);
#5 = PRODUCT_DEFINITION('design','',#6,#9);
#6 = PRODUCT_DEFINITION_FORMATION('','',#7);
#7 = PRODUCT('Open CASCADE STEP translator 7.9 17',
  'Open CASCADE STEP translator 7.9 17','',(#8));
#8 = PRODUCT_CONTEXT('',#2,'mechanical');
#9 = PRODUCT_DEFINITION_CONTEXT('part definition',#2,'design');
#10 = ADVANCED_BREP_SHAPE_REPRESENTATION('',(#11,#15),#1062);
#11 = AXIS2_PLACEMENT_3D('',#12,#13,#14);
#12 = CARTESIAN_POINT('',(0.,0.,0.));
#13 = DIRECTION('',(0.,0.,1.));
#14 = DIRECTION('',(1.,0.,-0.));
#15 = MANIFOLD_SOLID_BREP('',#16);
#16 = CLOSED_SHELL('',(#17,#354,#417,#753,#867,#910,#920,#993,#998,#1003
    ,#1058));
#17 = ADVANCED_FACE('',(#18),#31,.T.);
#18 = FACE_BOUND('',#19,.F.);
#19 = EDGE_LOOP('',(#20,#54,#77,#138,#212,#235,#262,#263,#353));
#20 = ORIENTED_EDGE('',*,*,#21,.F.);
#21 = EDGE_CURVE('',#22,#22,#24,.T.);
#22 = VERTEX_POINT('',#23);
#23 = CARTESIAN_POINT('',(20.,0.,0.));
#24 = SURFACE_CURVE('',#25,(#30,#42),.PCURVE_S1.);
#25 = CIRCLE('',#26,20.);
#26 = AXIS2_PLACEMENT_3D('',#27,#28,#29);
#27 = CARTESIAN_POINT('',(0.,0.,0.));
#28 = DIRECTION('',(0.,0.,1.));
#29 = DIRECTION('',(1.,0.,0.));
#30 = PCURVE('',#31,#36);
#31 = CYLINDRICAL_SURFACE('',#32,20.);
#32 = AXIS2_PLACEMENT_3D('',#33,#34,#35);
#33 = CARTESIAN_POINT('',(0.,0.,0.));
#34 = DIRECTION('',(-0.,-0.,-1.));
#35 = DIRECTION('',(1.,0.,0.));
#36 = DEFINITIONAL_REPRESENTATION('',(#37),#41);
#37 = LINE('',#38,#39);
#38 = CARTESIAN_POINT('',(-0.,0.));
#39 = VECTOR('',#40,1.);
#40 = DIRECTION('',(-1.,0.));
#41 = ( GEOMETRIC_REPRESENTATION_CONTEXT(2) 
PARAMETRIC_REPRESENTATION_CONTEXT() REPRESENTATION_CONTEXT('2D SPACE',''
  ) );
#42 = PCURVE('',#43,#48);
#43 = PLANE('',#44);
#44 = AXIS2_PLACEMENT_3D('',#45,#46,#47);
#45 = CARTESIAN_POINT('',(-1.093952106032E-15,1.371473012632E-15,0.));
#46 = DIRECTION('',(0.,0.,1.));
#47 = DIRECTION('',(1.,0.,-0.));
#48 = DEFINITIONAL_REPRESENTATION('',(#49),#53);
#49 = CIRCLE('',#50,20.);
#50 = AXIS2_PLACEMENT_2D('',#51,#52);
#51 = CARTESIAN_POINT('',(1.093952106032E-15,-1.371473012632E-15));
#52 = DIRECTION('',(1.,0.));
#53 = ( GEOMETRIC_REPRESENTATION_CONTEXT(2) 
PARAMETRIC_REPRESENTATION_CONTEXT() REPRESENTATION_CONTEXT('2D SPACE',''
  ) );
#54 = ORIENTED_EDGE('',*,*,#55,.T.);
#55 = EDGE_CURVE('',#22,#56,#58,.T.);
#56 = VERTEX_POINT('',#57);
#57 = CARTESIAN_POINT('',(20.,0.,2.6));
#58 = SEAM_CURVE('',#59,(#63,#70),.PCURVE_S1.);
#59 = LINE('',#60,#61);
#60 = CARTESIAN_POINT('',(20.,0.,0.));
#61 = VECTOR('',#62,1.);
#62 = DIRECTION('',(0.,0.,1.));
#63 = PCURVE('',#31,#64);
#64 = DEFINITIONAL_REPRESENTATION('',(#65),#69);
#65 = LINE('',#66,#67);
#66 = CARTESIAN_POINT('',(-6.28318530718,0.));
#67 = VECTOR('',#68,1.);
#68 = DIRECTION('',(-0.,-1.));
#69 = ( GEOMETRIC_REPRESENTATION_CONTEXT(2) 
PARAMETRIC_REPRESENTATION_CONTEXT() REPRESENTATION_CONTEXT('2D SPACE',''
  ) );
#70 = PCURVE('',#31,#71);
#71 = DEFINITIONAL_REPRESENTATION('',(#72),#76);
#72 = LINE('',#73,#74);
#73 = CARTESIAN_POINT('',(-0.,0.));
#74 = VECTOR('',#75,1.);
#75 = DIRECTION('',(-0.,-1.));
#76 = ( GEOMETRIC_REPRESENTATION_CONTEXT(2) 
PARAMETRIC_REPRESENTATION_CONTEXT() REPRESENTATION_CONTEXT('2D SPACE',''
  ) );
#77 = ORIENTED_EDGE('',*,*,#78,.T.);
#78 = EDGE_CURVE('',#56,#79,#81,.T.);
#79 = VERTEX_POINT('',#80);
#80 = CARTESIAN_POINT('',(19.950939827487,1.4,4.));
#81 = SURFACE_CURVE('',#82,(#97,#115),.PCURVE_S1.);
#82 = B_SPLINE_CURVE_WITH_KNOTS('',7,(#83,#84,#85,#86,#87,#88,#89,#90,
    #91,#92,#93,#94,#95,#96),.UNSPECIFIED.,.F.,.F.,(8,6,8),(0.,
    0.457653278951,1.),.UNSPECIFIED.);
#83 = CARTESIAN_POINT('',(20.,1.11486187367E-15,2.6));
#84 = CARTESIAN_POINT('',(20.,0.167626423178,2.6));
#85 = CARTESIAN_POINT('',(19.998360885253,0.33254701958,2.623415421232)
  );
#86 = CARTESIAN_POINT('',(19.995178126604,0.490569021656,2.668886178565)
  );
#87 = CARTESIAN_POINT('',(19.990788936837,0.637914197679,2.734035940321)
  );
#88 = CARTESIAN_POINT('',(19.985716677964,0.771478910883,2.815544699823)
  );
#89 = CARTESIAN_POINT('',(19.980482135979,0.889115352209,2.909216364886)
  );
#90 = CARTESIAN_POINT('',(19.969563038773,1.109444029158,3.129545041835)
  );
#91 = CARTESIAN_POINT('',(19.963856940566,1.207713444438,3.261469609574)
  );
#92 = CARTESIAN_POINT('',(19.958874881532,1.285274008968,3.401886653624)
  );
#93 = CARTESIAN_POINT('',(19.954952438638,1.342819074576,3.547969608448)
  );
#94 = CARTESIAN_POINT('',(19.952277316944,1.380939519683,3.697530202746)
  );
#95 = CARTESIAN_POINT('',(19.950939827487,1.4,3.8487617992));
#96 = CARTESIAN_POINT('',(19.950939827487,1.4,4.));
#97 = PCURVE('',#31,#98);
#98 = DEFINITIONAL_REPRESENTATION('',(#99),#114);
#99 = B_SPLINE_CURVE_WITH_KNOTS('',7,(#100,#101,#102,#103,#104,#105,#106
    ,#107,#108,#109,#110,#111,#112,#113),.UNSPECIFIED.,.F.,.F.,(8,6,8),(
    0.,0.457653278951,1.),.UNSPECIFIED.);
#100 = CARTESIAN_POINT('',(0.,-2.6));
#101 = CARTESIAN_POINT('',(-8.381321158898E-03,-2.6));
#102 = CARTESIAN_POINT('',(-1.66273520735E-02,-2.623415421232));
#103 = CARTESIAN_POINT('',(-2.452940778971E-02,-2.668886178565));
#104 = CARTESIAN_POINT('',(-3.189942931215E-02,-2.734035940321));
#105 = CARTESIAN_POINT('',(-3.858224768464E-02,-2.815544699823));
#106 = CARTESIAN_POINT('',(-4.4469813932E-02,-2.909216364886));
#107 = CARTESIAN_POINT('',(-5.549976775896E-02,-3.129545041835));
#108 = CARTESIAN_POINT('',(-6.04213376528E-02,-3.261469609574));
#109 = CARTESIAN_POINT('',(-6.430729235117E-02,-3.401886653623));
#110 = CARTESIAN_POINT('',(-6.719121593482E-02,-3.547969608448));
#111 = CARTESIAN_POINT('',(-6.910192562259E-02,-3.697530202746));
#112 = CARTESIAN_POINT('',(-7.005729308805E-02,-3.8487617992));
#113 = CARTESIAN_POINT('',(-7.005729308805E-02,-4.));
#114 = ( GEOMETRIC_REPRESENTATION_CONTEXT(2) 
PARAMETRIC_REPRESENTATION_CONTEXT() REPRESENTATION_CONTEXT('2D SPACE',''
  ) );
#115 = PCURVE('',#116,#121);
#116 = CYLINDRICAL_SURFACE('',#117,1.4);
#117 = AXIS2_PLACEMENT_3D('',#118,#119,#120);
#118 = CARTESIAN_POINT('',(0.,0.,4.));
#119 = DIRECTION('',(-1.,-0.,-0.));
#120 = DIRECTION('',(0.,1.,0.));
#121 = DEFINITIONAL_REPRESENTATION('',(#122),#137);
#122 = B_SPLINE_CURVE_WITH_KNOTS('',7,(#123,#124,#125,#126,#127,#128,
    #129,#130,#131,#132,#133,#134,#135,#136),.UNSPECIFIED.,.F.,.F.,(8,6,
    8),(0.,0.457653278951,1.),.UNSPECIFIED.);
#123 = CARTESIAN_POINT('',(-4.712388980385,-20.));
#124 = CARTESIAN_POINT('',(-4.832122139798,-20.));
#125 = CARTESIAN_POINT('',(-4.949922468462,-19.99836088525));
#126 = CARTESIAN_POINT('',(-5.065599407507,-19.9951781266));
#127 = CARTESIAN_POINT('',(-5.17884846502,-19.99078893683));
#128 = CARTESIAN_POINT('',(-5.289202480205,-19.98571667796));
#129 = CARTESIAN_POINT('',(-5.395929279216,-19.98048213597));
#130 = CARTESIAN_POINT('',(-5.618494852874,-19.96956303877));
#131 = CARTESIAN_POINT('',(-5.7347605728,-19.96385694056));
#132 = CARTESIAN_POINT('',(-5.847727194995,-19.95887488153));
#133 = CARTESIAN_POINT('',(-5.958246519591,-19.95495243863));
#134 = CARTESIAN_POINT('',(-6.067135689404,-19.95227731694));
#135 = CARTESIAN_POINT('',(-6.175158020894,-19.95093982748));
#136 = CARTESIAN_POINT('',(-6.28318530718,-19.95093982748));
#137 = ( GEOMETRIC_REPRESENTATION_CONTEXT(2) 
PARAMETRIC_REPRESENTATION_CONTEXT() REPRESENTATION_CONTEXT('2D SPACE',''
  ) );
#138 = ORIENTED_EDGE('',*,*,#139,.T.);
#139 = EDGE_CURVE('',#79,#140,#142,.T.);
#140 = VERTEX_POINT('',#141);
#141 = CARTESIAN_POINT('',(20.,0.,5.4));
#142 = SURFACE_CURVE('',#143,(#164,#188),.PCURVE_S1.);
#143 = B_SPLINE_CURVE_WITH_KNOTS('',7,(#144,#145,#146,#147,#148,#149,
    #150,#151,#152,#153,#154,#155,#156,#157,#158,#159,#160,#161,#162,
    #163),.UNSPECIFIED.,.F.,.F.,(8,6,6,8),(0.,0.479554744657,
    0.770394424586,1.),.UNSPECIFIED.);
#144 = CARTESIAN_POINT('',(19.950939827487,1.4,4.));
#145 = CARTESIAN_POINT('',(19.950939827487,1.4,4.134173948054));
#146 = CARTESIAN_POINT('',(19.951992548012,1.38499792956,4.268337425182)
  );
#147 = CARTESIAN_POINT('',(19.954097811191,1.354997014662,4.4013179347)
  );
#148 = CARTESIAN_POINT('',(19.957199362844,1.309778772077,4.531870494145
    ));
#149 = CARTESIAN_POINT('',(19.961181124231,1.248968439834,4.658541123169
    ));
#150 = CARTESIAN_POINT('',(19.965844185779,1.172096790653,4.779518670427
    ));
#151 = CARTESIAN_POINT('',(19.973946917142,1.022086631084,4.960849803798
    ));
#152 = CARTESIAN_POINT('',(19.977151264922,0.959284140585,5.026445475701
    ));
#153 = CARTESIAN_POINT('',(19.980426790086,0.890322472755,5.088444090013
    ));
#154 = CARTESIAN_POINT('',(19.983683336371,0.815292560355,5.146086006222
    ));
#155 = CARTESIAN_POINT('',(19.986817208782,0.734368696061,5.198585643312
    ));
#156 = CARTESIAN_POINT('',(19.989716580183,0.647816789087,5.245126852774
    ));
#157 = CARTESIAN_POINT('',(19.994285655877,0.48352715456,5.316221326154)
  );
#158 = CARTESIAN_POINT('',(19.996086466236,0.407753041952,5.343348356062
    ));
#159 = CARTESIAN_POINT('',(19.99760680819,0.329208022692,5.365665058604)
  );
#160 = CARTESIAN_POINT('',(19.998790800396,0.248492169247,5.382729212083
    ));
#161 = CARTESIAN_POINT('',(19.99959646844,0.166259850487,5.394231811521)
  );
#162 = CARTESIAN_POINT('',(20.,8.31972692675E-02,5.4));
#163 = CARTESIAN_POINT('',(20.,8.360380836409E-16,5.4));
#164 = PCURVE('',#31,#165);
#165 = DEFINITIONAL_REPRESENTATION('',(#166),#187);
#166 = B_SPLINE_CURVE_WITH_KNOTS('',7,(#167,#168,#169,#170,#171,#172,
    #173,#174,#175,#176,#177,#178,#179,#180,#181,#182,#183,#184,#185,
    #186),.UNSPECIFIED.,.F.,.F.,(8,6,6,8),(0.,0.479554744657,
    0.770394424586,1.),.UNSPECIFIED.);
#167 = CARTESIAN_POINT('',(-7.005729308805E-02,-4.));
#168 = CARTESIAN_POINT('',(-7.005729308805E-02,-4.134173948054));
#169 = CARTESIAN_POINT('',(-6.930534507515E-02,-4.268337425182));
#170 = CARTESIAN_POINT('',(-6.780161040663E-02,-4.4013179347));
#171 = CARTESIAN_POINT('',(-6.553538933394E-02,-4.531870494145));
#172 = CARTESIAN_POINT('',(-6.248839357265E-02,-4.658541123169));
#173 = CARTESIAN_POINT('',(-5.863783050083E-02,-4.779518670427));
#174 = CARTESIAN_POINT('',(-5.112638885666E-02,-4.960849803798));
#175 = CARTESIAN_POINT('',(-4.798219377527E-02,-5.026445475701));
#176 = CARTESIAN_POINT('',(-4.453025824718E-02,-5.088444090013));
#177 = CARTESIAN_POINT('',(-4.077529353659E-02,-5.146086006222));
#178 = CARTESIAN_POINT('',(-3.672614933254E-02,-5.198585643312));
#179 = CARTESIAN_POINT('',(-3.23961965917E-02,-5.245126852774));
#180 = CARTESIAN_POINT('',(-2.417853870373E-02,-5.316221326154));
#181 = CARTESIAN_POINT('',(-2.038879336185E-02,-5.343348356062));
#182 = CARTESIAN_POINT('',(-1.646087090138E-02,-5.365665058604));
#183 = CARTESIAN_POINT('',(-1.242472675681E-02,-5.382729212083));
#184 = CARTESIAN_POINT('',(-8.312991590873E-03,-5.394231811521));
#185 = CARTESIAN_POINT('',(-4.159863463375E-03,-5.4));
#186 = CARTESIAN_POINT('',(0.,-5.4));
#187 = ( GEOMETRIC_REPRESENTATION_CONTEXT(2) 
PARAMETRIC_REPRESENTATION_CONTEXT() REPRESENTATION_CONTEXT('2D SPACE',''
  ) );
#188 = PCURVE('',#116,#189);
#189 = DEFINITIONAL_REPRESENTATION('',(#190),#211);
#190 = B_SPLINE_CURVE_WITH_KNOTS('',7,(#191,#192,#193,#194,#195,#196,
    #197,#198,#199,#200,#201,#202,#203,#204,#205,#206,#207,#208,#209,
    #210),.UNSPECIFIED.,.F.,.F.,(8,6,6,8),(0.,0.479554744657,
    0.770394424586,1.),.UNSPECIFIED.);
#191 = CARTESIAN_POINT('',(0.,-19.95093982748));
#192 = CARTESIAN_POINT('',(-9.583853432399E-02,-19.95093982748));
#193 = CARTESIAN_POINT('',(-0.191669509434,-19.95199254801));
#194 = CARTESIAN_POINT('',(-0.288093747526,-19.95409781119));
#195 = CARTESIAN_POINT('',(-0.385657205374,-19.95719936284));
#196 = CARTESIAN_POINT('',(-0.484930467518,-19.96118112423));
#197 = CARTESIAN_POINT('',(-0.586512416565,-19.96584418577));
#198 = CARTESIAN_POINT('',(-0.754611069426,-19.97394691714));
#199 = CARTESIAN_POINT('',(-0.819306936782,-19.97715126492));
#200 = CARTESIAN_POINT('',(-0.88524463071,-19.98042679008));
#201 = CARTESIAN_POINT('',(-0.952455740098,-19.98368333637));
#202 = CARTESIAN_POINT('',(-1.020993158649,-19.98681720878));
#203 = CARTESIAN_POINT('',(-1.090934030665,-19.98971658018));
#204 = CARTESIAN_POINT('',(-1.218800167935,-19.99428565587));
#205 = CARTESIAN_POINT('',(-1.276168302574,-19.99608646623));
#206 = CARTESIAN_POINT('',(-1.334281707439,-19.99760680819));
#207 = CARTESIAN_POINT('',(-1.392959143978,-19.99879080039));
#208 = CARTESIAN_POINT('',(-1.452039254935,-19.99959646844));
#209 = CARTESIAN_POINT('',(-1.51136970589,-20.));
#210 = CARTESIAN_POINT('',(-1.570796326795,-20.));
#211 = ( GEOMETRIC_REPRESENTATION_CONTEXT(2) 
PARAMETRIC_REPRESENTATION_CONTEXT() REPRESENTATION_CONTEXT('2D SPACE',''
  ) );
#212 = ORIENTED_EDGE('',*,*,#213,.T.);
#213 = EDGE_CURVE('',#140,#214,#216,.T.);
#214 = VERTEX_POINT('',#215);
#215 = CARTESIAN_POINT('',(20.,0.,8.));
#216 = SEAM_CURVE('',#217,(#221,#228),.PCURVE_S1.);
#217 = LINE('',#218,#219);
#218 = CARTESIAN_POINT('',(20.,0.,0.));
#219 = VECTOR('',#220,1.);
#220 = DIRECTION('',(0.,0.,1.));
#221 = PCURVE('',#31,#222);
#222 = DEFINITIONAL_REPRESENTATION('',(#223),#227);
#223 = LINE('',#224,#225);
#224 = CARTESIAN_POINT('',(-6.28318530718,0.));
#225 = VECTOR('',#226,1.);
#226 = DIRECTION('',(-0.,-1.));
#227 = ( GEOMETRIC_REPRESENTATION_CONTEXT(2) 
PARAMETRIC_REPRESENTATION_CONTEXT() REPRESENTATION_CONTEXT('2D SPACE',''
  ) );
#228 = PCURVE('',#31,#229);
#229 = DEFINITIONAL_REPRESENTATION('',(#230),#234);
#230 = LINE('',#231,#232);
#231 = CARTESIAN_POINT('',(-0.,0.));
#232 = VECTOR('',#233,1.);
#233 = DIRECTION('',(-0.,-1.));
#234 = ( GEOMETRIC_REPRESENTATION_CONTEXT(2) 
PARAMETRIC_REPRESENTATION_CONTEXT() REPRESENTATION_CONTEXT('2D SPACE',''
  ) );
#235 = ORIENTED_EDGE('',*,*,#236,.T.);
#236 = EDGE_CURVE('',#214,#214,#237,.T.);
#237 = SURFACE_CURVE('',#238,(#243,#250),.PCURVE_S1.);
#238 = CIRCLE('',#239,20.);
#239 = AXIS2_PLACEMENT_3D('',#240,#241,#242);
#240 = CARTESIAN_POINT('',(0.,0.,8.));
#241 = DIRECTION('',(0.,0.,1.));
#242 = DIRECTION('',(1.,0.,0.));
#243 = PCURVE('',#31,#244);
#244 = DEFINITIONAL_REPRESENTATION('',(#245),#249);
#245 = LINE('',#246,#247);
#246 = CARTESIAN_POINT('',(-0.,-8.));
#247 = VECTOR('',#248,1.);
#248 = DIRECTION('',(-1.,0.));
#249 = ( GEOMETRIC_REPRESENTATION_CONTEXT(2) 
PARAMETRIC_REPRESENTATION_CONTEXT() REPRESENTATION_CONTEXT('2D SPACE',''
  ) );
#250 = PCURVE('',#251,#256);
#251 = PLANE('',#252);
#252 = AXIS2_PLACEMENT_3D('',#253,#254,#255);
#253 = CARTESIAN_POINT('',(-1.093952106032E-15,1.371473012632E-15,8.));
#254 = DIRECTION('',(0.,0.,1.));
#255 = DIRECTION('',(1.,0.,-0.));
#256 = DEFINITIONAL_REPRESENTATION('',(#257),#261);
#257 = CIRCLE('',#258,20.);
#258 = AXIS2_PLACEMENT_2D('',#259,#260);
#259 = CARTESIAN_POINT('',(1.093952106032E-15,-1.371473012632E-15));
#260 = DIRECTION('',(1.,0.));
#261 = ( GEOMETRIC_REPRESENTATION_CONTEXT(2) 
PARAMETRIC_REPRESENTATION_CONTEXT() REPRESENTATION_CONTEXT('2D SPACE',''
  ) );
#262 = ORIENTED_EDGE('',*,*,#213,.F.);
#263 = ORIENTED_EDGE('',*,*,#264,.T.);
#264 = EDGE_CURVE('',#140,#56,#265,.T.);
#265 = SURFACE_CURVE('',#266,(#293,#323),.PCURVE_S1.);
#266 = B_SPLINE_CURVE_WITH_KNOTS('',7,(#267,#268,#269,#270,#271,#272,
    #273,#274,#275,#276,#277,#278,#279,#280,#281,#282,#283,#284,#285,
    #286,#287,#288,#289,#290,#291,#292),.UNSPECIFIED.,.F.,.F.,(8,6,6,6,8
    ),(0.,0.259006355398,0.500041909694,0.741081363894,1.),
  .UNSPECIFIED.);
#267 = CARTESIAN_POINT('',(20.,-1.554312234475E-15,5.4));
#268 = CARTESIAN_POINT('',(20.,-0.19049403268,5.4));
#269 = CARTESIAN_POINT('',(19.997883165145,-0.376652388922,5.36976022181
    ));
#270 = CARTESIAN_POINT('',(19.993823220535,-0.552794502982,
    5.311757010619));
#271 = CARTESIAN_POINT('',(19.988363898181,-0.714069021951,
    5.229683746874));
#272 = CARTESIAN_POINT('',(19.982290163092,-0.856702910816,
    5.128370559998));
#273 = CARTESIAN_POINT('',(19.976307719322,-0.978379849273,
    5.013682227311));
#274 = CARTESIAN_POINT('',(19.965844262627,-1.172095367926,
    4.779520390208));
#275 = CARTESIAN_POINT('',(19.96118116662,-1.248967935687,4.658542591134
    ));
#276 = CARTESIAN_POINT('',(19.95719934011,-1.309779141187,4.531870485174
    ));
#277 = CARTESIAN_POINT('',(19.954097762523,-1.354997709974,
    4.401316426696));
#278 = CARTESIAN_POINT('',(19.95199251466,-1.38499840708,4.268335014563)
  );
#279 = CARTESIAN_POINT('',(19.950939827487,-1.4,4.134171779318));
#280 = CARTESIAN_POINT('',(19.950939827487,-1.4,3.865826049811));
#281 = CARTESIAN_POINT('',(19.951992548035,-1.384997929052,3.73166258011
    ));
#282 = CARTESIAN_POINT('',(19.954097811064,-1.354997017117,
    3.598682061417));
#283 = CARTESIAN_POINT('',(19.957199363097,-1.30977876739,3.468129503917
    ));
#284 = CARTESIAN_POINT('',(19.961181123999,-1.248968444097,
    3.341458881212));
#285 = CARTESIAN_POINT('',(19.965844185868,-1.172096789011,
    3.220481327588));
#286 = CARTESIAN_POINT('',(19.976305878576,-0.97841392799,2.98635896678)
  );
#287 = CARTESIAN_POINT('',(19.982288770349,-0.856736097866,
    2.871647522582));
#288 = CARTESIAN_POINT('',(19.988364636506,-0.714066780678,
    2.770298760174));
#289 = CARTESIAN_POINT('',(19.993825662982,-0.55274173933,2.688208204645
    ));
#290 = CARTESIAN_POINT('',(19.997884882662,-0.37656396002,2.630215224473
    ));
#291 = CARTESIAN_POINT('',(20.,-0.190416685849,2.6));
#292 = CARTESIAN_POINT('',(20.,-1.33226762955E-15,2.6));
#293 = PCURVE('',#31,#294);
#294 = DEFINITIONAL_REPRESENTATION('',(#295),#322);
#295 = B_SPLINE_CURVE_WITH_KNOTS('',7,(#296,#297,#298,#299,#300,#301,
    #302,#303,#304,#305,#306,#307,#308,#309,#310,#311,#312,#313,#314,
    #315,#316,#317,#318,#319,#320,#321),.UNSPECIFIED.,.F.,.F.,(8,6,6,6,8
    ),(0.,0.259006355398,0.500041909694,0.741081363894,1.),
  .UNSPECIFIED.);
#296 = CARTESIAN_POINT('',(-6.28318530718,-5.4));
#297 = CARTESIAN_POINT('',(-6.273660605546,-5.4));
#298 = CARTESIAN_POINT('',(-6.264352685703,-5.36976022181));
#299 = CARTESIAN_POINT('',(-6.25554418001,-5.31175701062));
#300 = CARTESIAN_POINT('',(-6.247476475397,-5.229683746874));
#301 = CARTESIAN_POINT('',(-6.240338565976,-5.128370559998));
#302 = CARTESIAN_POINT('',(-6.234247443033,-5.013682227311));
#303 = CARTESIAN_POINT('',(-6.224547547919,-4.779520390208));
#304 = CARTESIAN_POINT('',(-6.220696938892,-4.658542591135));
#305 = CARTESIAN_POINT('',(-6.217649899362,-4.531870485174));
#306 = CARTESIAN_POINT('',(-6.215383661918,-4.401316426696));
#307 = CARTESIAN_POINT('',(-6.213879938172,-4.268335014563));
#308 = CARTESIAN_POINT('',(-6.213128014092,-4.134171779318));
#309 = CARTESIAN_POINT('',(-6.213128014092,-3.865826049811));
#310 = CARTESIAN_POINT('',(-6.21387996213,-3.73166258011));
#311 = CARTESIAN_POINT('',(-6.21538369665,-3.598682061417));
#312 = CARTESIAN_POINT('',(-6.21764991808,-3.468129503917));
#313 = CARTESIAN_POINT('',(-6.220696913393,-3.341458881212));
#314 = CARTESIAN_POINT('',(-6.224547476761,-3.220481327588));
#315 = CARTESIAN_POINT('',(-6.234245736614,-2.98635896678));
#316 = CARTESIAN_POINT('',(-6.240336905236,-2.871647522582));
#317 = CARTESIAN_POINT('',(-6.247476589269,-2.770298760174));
#318 = CARTESIAN_POINT('',(-6.25554682005,-2.688208204645));
#319 = CARTESIAN_POINT('',(-6.264357107133,-2.630215224473));
#320 = CARTESIAN_POINT('',(-6.273664472887,-2.6));
#321 = CARTESIAN_POINT('',(-6.28318530718,-2.6));
#322 = ( GEOMETRIC_REPRESENTATION_CONTEXT(2) 
PARAMETRIC_REPRESENTATION_CONTEXT() REPRESENTATION_CONTEXT('2D SPACE',''
  ) );
#323 = PCURVE('',#116,#324);
#324 = DEFINITIONAL_REPRESENTATION('',(#325),#352);
#325 = B_SPLINE_CURVE_WITH_KNOTS('',7,(#326,#327,#328,#329,#330,#331,
    #332,#333,#334,#335,#336,#337,#338,#339,#340,#341,#342,#343,#344,
    #345,#346,#347,#348,#349,#350,#351),.UNSPECIFIED.,.F.,.F.,(8,6,6,6,8
    ),(0.,0.259006355398,0.500041909694,0.741081363894,1.),
  .UNSPECIFIED.);
#326 = CARTESIAN_POINT('',(-1.570796326795,-20.));
#327 = CARTESIAN_POINT('',(-1.706863492995,-20.));
#328 = CARTESIAN_POINT('',(-1.839833679919,-19.99788316514));
#329 = CARTESIAN_POINT('',(-1.969764350921,-19.99382322053));
#330 = CARTESIAN_POINT('',(-2.096461816963,-19.98836389818));
#331 = CARTESIAN_POINT('',(-2.219484012239,-19.98229016309));
#332 = CARTESIAN_POINT('',(-2.338004560446,-19.97630771932));
#333 = CARTESIAN_POINT('',(-2.555078642743,-19.96584426262));
#334 = CARTESIAN_POINT('',(-2.656661148559,-19.96118116662));
#335 = CARTESIAN_POINT('',(-2.755935537101,-19.95719934011));
#336 = CARTESIAN_POINT('',(-2.853500063424,-19.95409776252));
#337 = CARTESIAN_POINT('',(-2.949924861266,-19.95199251466));
#338 = CARTESIAN_POINT('',(-3.045755668363,-19.95093982748));
#339 = CARTESIAN_POINT('',(-3.237431189439,-19.95093982748));
#340 = CARTESIAN_POINT('',(-3.333262159421,-19.95199254803));
#341 = CARTESIAN_POINT('',(-3.429686403197,-19.95409781106));
#342 = CARTESIAN_POINT('',(-3.527249861551,-19.95719936309));
#343 = CARTESIAN_POINT('',(-3.626523116909,-19.96118112399));
#344 = CARTESIAN_POINT('',(-3.728105071995,-19.96584418586));
#345 = CARTESIAN_POINT('',(-3.945142558745,-19.97630587857));
#346 = CARTESIAN_POINT('',(-4.063676244375,-19.98228877034));
#347 = CARTESIAN_POINT('',(-4.186731716835,-19.9883646365));
#348 = CARTESIAN_POINT('',(-4.313463599459,-19.99382566298));
#349 = CARTESIAN_POINT('',(-4.44341480146,-19.99788488266));
#350 = CARTESIAN_POINT('',(-4.576377061921,-20.));
#351 = CARTESIAN_POINT('',(-4.712388980385,-20.));
#352 = ( GEOMETRIC_REPRESENTATION_CONTEXT(2) 
PARAMETRIC_REPRESENTATION_CONTEXT() REPRESENTATION_CONTEXT('2D SPACE',''
  ) );
#353 = ORIENTED_EDGE('',*,*,#55,.F.);
#354 = ADVANCED_FACE('',(#355,#358),#43,.F.);
#355 = FACE_BOUND('',#356,.F.);
#356 = EDGE_LOOP('',(#357));
#357 = ORIENTED_EDGE('',*,*,#21,.T.);
#358 = FACE_BOUND('',#359,.F.);
#359 = EDGE_LOOP('',(#360,#391));
#360 = ORIENTED_EDGE('',*,*,#361,.F.);
#361 = EDGE_CURVE('',#362,#364,#366,.T.);
#362 = VERTEX_POINT('',#363);
#363 = CARTESIAN_POINT('',(5.05,3.331666249791,0.));
#364 = VERTEX_POINT('',#365);
#365 = CARTESIAN_POINT('',(5.05,-3.331666249791,0.));
#366 = SURFACE_CURVE('',#367,(#372,#379),.PCURVE_S1.);
#367 = CIRCLE('',#368,6.05);
#368 = AXIS2_PLACEMENT_3D('',#369,#370,#371);
#369 = CARTESIAN_POINT('',(0.,0.,0.));
#370 = DIRECTION('',(0.,-0.,1.));
#371 = DIRECTION('',(0.834710743802,0.550688636329,0.));
#372 = PCURVE('',#43,#373);
#373 = DEFINITIONAL_REPRESENTATION('',(#374),#378);
#374 = CIRCLE('',#375,6.05);
#375 = AXIS2_PLACEMENT_2D('',#376,#377);
#376 = CARTESIAN_POINT('',(1.093952106032E-15,-1.371473012632E-15));
#377 = DIRECTION('',(0.834710743802,0.550688636329));
#378 = ( GEOMETRIC_REPRESENTATION_CONTEXT(2) 
PARAMETRIC_REPRESENTATION_CONTEXT() REPRESENTATION_CONTEXT('2D SPACE',''
  ) );
#379 = PCURVE('',#380,#385);
#380 = CYLINDRICAL_SURFACE('',#381,6.05);
#381 = AXIS2_PLACEMENT_3D('',#382,#383,#384);
#382 = CARTESIAN_POINT('',(0.,0.,0.));
#383 = DIRECTION('',(-0.,-0.,-1.));
#384 = DIRECTION('',(1.,0.,0.));
#385 = DEFINITIONAL_REPRESENTATION('',(#386),#390);
#386 = LINE('',#387,#388);
#387 = CARTESIAN_POINT('',(-0.583189013527,0.));
#388 = VECTOR('',#389,1.);
#389 = DIRECTION('',(-1.,0.));
#390 = ( GEOMETRIC_REPRESENTATION_CONTEXT(2) 
PARAMETRIC_REPRESENTATION_CONTEXT() REPRESENTATION_CONTEXT('2D SPACE',''
  ) );
#391 = ORIENTED_EDGE('',*,*,#392,.F.);
#392 = EDGE_CURVE('',#364,#362,#393,.T.);
#393 = SURFACE_CURVE('',#394,(#398,#405),.PCURVE_S1.);
#394 = LINE('',#395,#396);
#395 = CARTESIAN_POINT('',(5.05,-6.5,0.));
#396 = VECTOR('',#397,1.);
#397 = DIRECTION('',(0.,1.,0.));
#398 = PCURVE('',#43,#399);
#399 = DEFINITIONAL_REPRESENTATION('',(#400),#404);
#400 = LINE('',#401,#402);
#401 = CARTESIAN_POINT('',(5.05,-6.5));
#402 = VECTOR('',#403,1.);
#403 = DIRECTION('',(0.,1.));
#404 = ( GEOMETRIC_REPRESENTATION_CONTEXT(2) 
PARAMETRIC_REPRESENTATION_CONTEXT() REPRESENTATION_CONTEXT('2D SPACE',''
  ) );
#405 = PCURVE('',#406,#411);
#406 = PLANE('',#407);
#407 = AXIS2_PLACEMENT_3D('',#408,#409,#410);
#408 = CARTESIAN_POINT('',(5.05,-6.5,0.));
#409 = DIRECTION('',(-1.,0.,0.));
#410 = DIRECTION('',(0.,1.,0.));
#411 = DEFINITIONAL_REPRESENTATION('',(#412),#416);
#412 = LINE('',#413,#414);
#413 = CARTESIAN_POINT('',(0.,0.));
#414 = VECTOR('',#415,1.);
#415 = DIRECTION('',(1.,0.));
#416 = ( GEOMETRIC_REPRESENTATION_CONTEXT(2) 
PARAMETRIC_REPRESENTATION_CONTEXT() REPRESENTATION_CONTEXT('2D SPACE',''
  ) );
#417 = ADVANCED_FACE('',(#418,#469),#116,.F.);
#418 = FACE_BOUND('',#419,.T.);
#419 = EDGE_LOOP('',(#420,#444,#465,#466,#467,#468));
#420 = ORIENTED_EDGE('',*,*,#421,.T.);
#421 = EDGE_CURVE('',#422,#422,#424,.T.);
#422 = VERTEX_POINT('',#423);
#423 = CARTESIAN_POINT('',(5.05,1.4,4.));
#424 = SURFACE_CURVE('',#425,(#430,#437),.PCURVE_S1.);
#425 = CIRCLE('',#426,1.4);
#426 = AXIS2_PLACEMENT_3D('',#427,#428,#429);
#427 = CARTESIAN_POINT('',(5.05,0.,4.));
#428 = DIRECTION('',(-1.,0.,0.));
#429 = DIRECTION('',(0.,1.,0.));
#430 = PCURVE('',#116,#431);
#431 = DEFINITIONAL_REPRESENTATION('',(#432),#436);
#432 = LINE('',#433,#434);
#433 = CARTESIAN_POINT('',(-6.28318530718,-5.05));
#434 = VECTOR('',#435,1.);
#435 = DIRECTION('',(1.,-0.));
#436 = ( GEOMETRIC_REPRESENTATION_CONTEXT(2) 
PARAMETRIC_REPRESENTATION_CONTEXT() REPRESENTATION_CONTEXT('2D SPACE',''
  ) );
#437 = PCURVE('',#406,#438);
#438 = DEFINITIONAL_REPRESENTATION('',(#439),#443);
#439 = CIRCLE('',#440,1.4);
#440 = AXIS2_PLACEMENT_2D('',#441,#442);
#441 = CARTESIAN_POINT('',(6.5,-4.));
#442 = DIRECTION('',(1.,0.));
#443 = ( GEOMETRIC_REPRESENTATION_CONTEXT(2) 
PARAMETRIC_REPRESENTATION_CONTEXT() REPRESENTATION_CONTEXT('2D SPACE',''
  ) );
#444 = ORIENTED_EDGE('',*,*,#445,.T.);
#445 = EDGE_CURVE('',#422,#79,#446,.T.);
#446 = SEAM_CURVE('',#447,(#451,#458),.PCURVE_S1.);
#447 = LINE('',#448,#449);
#448 = CARTESIAN_POINT('',(0.,1.4,4.));
#449 = VECTOR('',#450,1.);
#450 = DIRECTION('',(1.,0.,0.));
#451 = PCURVE('',#116,#452);
#452 = DEFINITIONAL_REPRESENTATION('',(#453),#457);
#453 = LINE('',#454,#455);
#454 = CARTESIAN_POINT('',(-6.28318530718,0.));
#455 = VECTOR('',#456,1.);
#456 = DIRECTION('',(-0.,-1.));
#457 = ( GEOMETRIC_REPRESENTATION_CONTEXT(2) 
PARAMETRIC_REPRESENTATION_CONTEXT() REPRESENTATION_CONTEXT('2D SPACE',''
  ) );
#458 = PCURVE('',#116,#459);
#459 = DEFINITIONAL_REPRESENTATION('',(#460),#464);
#460 = LINE('',#461,#462);
#461 = CARTESIAN_POINT('',(-0.,0.));
#462 = VECTOR('',#463,1.);
#463 = DIRECTION('',(-0.,-1.));
#464 = ( GEOMETRIC_REPRESENTATION_CONTEXT(2) 
PARAMETRIC_REPRESENTATION_CONTEXT() REPRESENTATION_CONTEXT('2D SPACE',''
  ) );
#465 = ORIENTED_EDGE('',*,*,#139,.T.);
#466 = ORIENTED_EDGE('',*,*,#264,.T.);
#467 = ORIENTED_EDGE('',*,*,#78,.T.);
#468 = ORIENTED_EDGE('',*,*,#445,.F.);
#469 = FACE_BOUND('',#470,.T.);
#470 = EDGE_LOOP('',(#471,#528,#554,#679,#705));
#471 = ORIENTED_EDGE('',*,*,#472,.F.);
#472 = EDGE_CURVE('',#473,#475,#477,.T.);
#473 = VERTEX_POINT('',#474);
#474 = CARTESIAN_POINT('',(17.879236009778,1.148912529308,4.8));
#475 = VERTEX_POINT('',#476);
#476 = CARTESIAN_POINT('',(18.1,0.,5.4));
#477 = SURFACE_CURVE('',#478,(#491,#507),.PCURVE_S1.);
#478 = B_SPLINE_CURVE_WITH_KNOTS('',6,(#479,#480,#481,#482,#483,#484,
    #485,#486,#487,#488,#489,#490),.UNSPECIFIED.,.F.,.F.,(7,5,7),(0.,
    0.548646358016,1.),.UNSPECIFIED.);
#479 = CARTESIAN_POINT('',(17.879235843067,1.148912947094,4.7999994));
#480 = CARTESIAN_POINT('',(17.904603847649,1.085339402863,4.89130005355)
  );
#481 = CARTESIAN_POINT('',(17.931885056591,1.012078063418,4.977947523613
    ));
#482 = CARTESIAN_POINT('',(17.960053262465,0.929096558836,5.058914339481
    ));
#483 = CARTESIAN_POINT('',(17.987887499291,0.836388540928,5.132967918111
    ));
#484 = CARTESIAN_POINT('',(18.013988993609,0.734060909915,5.198613644099
    ));
#485 = CARTESIAN_POINT('',(18.0556779517,0.530672736667,5.299573070176)
  );
#486 = CARTESIAN_POINT('',(18.072378565686,0.432267028446,5.338369107855
    ));
#487 = CARTESIAN_POINT('',(18.085876014838,0.32846271817,5.368724886386)
  );
#488 = CARTESIAN_POINT('',(18.095257104495,0.220731545044,5.389498043635
    ));
#489 = CARTESIAN_POINT('',(18.1,0.110690002642,5.4));
#490 = CARTESIAN_POINT('',(18.1,2.143131898508E-16,5.4));
#491 = PCURVE('',#116,#492);
#492 = DEFINITIONAL_REPRESENTATION('',(#493),#506);
#493 = B_SPLINE_CURVE_WITH_KNOTS('',6,(#494,#495,#496,#497,#498,#499,
    #500,#501,#502,#503,#504,#505),.UNSPECIFIED.,.F.,.F.,(7,5,7),(0.,
    0.548646358016,1.),.UNSPECIFIED.);
#494 = CARTESIAN_POINT('',(-0.608245056677,-17.87923584306));
#495 = CARTESIAN_POINT('',(-0.687712046566,-17.90460384764));
#496 = CARTESIAN_POINT('',(-0.768405816156,-17.93188505659));
#497 = CARTESIAN_POINT('',(-0.850639358189,-17.96005326246));
#498 = CARTESIAN_POINT('',(-0.934739560058,-17.98788749929));
#499 = CARTESIAN_POINT('',(-1.021057120457,-18.0139889936));
#500 = CARTESIAN_POINT('',(-1.183248042739,-18.0556779517));
#501 = CARTESIAN_POINT('',(-1.258528925992,-18.07237856568));
#502 = CARTESIAN_POINT('',(-1.335289959428,-18.08587601483));
#503 = CARTESIAN_POINT('',(-1.413131078008,-18.09525710449));
#504 = CARTESIAN_POINT('',(-1.491732039193,-18.1));
#505 = CARTESIAN_POINT('',(-1.570796326795,-18.1));
#506 = ( GEOMETRIC_REPRESENTATION_CONTEXT(2) 
PARAMETRIC_REPRESENTATION_CONTEXT() REPRESENTATION_CONTEXT('2D SPACE',''
  ) );
#507 = PCURVE('',#508,#513);
#508 = CYLINDRICAL_SURFACE('',#509,3.1);
#509 = AXIS2_PLACEMENT_3D('',#510,#511,#512);
#510 = CARTESIAN_POINT('',(15.,0.,4.8));
#511 = DIRECTION('',(-0.,-0.,-1.));
#512 = DIRECTION('',(1.,0.,0.));
#513 = DEFINITIONAL_REPRESENTATION('',(#514),#527);
#514 = B_SPLINE_CURVE_WITH_KNOTS('',6,(#515,#516,#517,#518,#519,#520,
    #521,#522,#523,#524,#525,#526),.UNSPECIFIED.,.F.,.F.,(7,5,7),(0.,
    0.548646358016,1.),.UNSPECIFIED.);
#515 = CARTESIAN_POINT('',(-0.379673326724,6.000000000173E-07));
#516 = CARTESIAN_POINT('',(-0.357593320883,-9.130005355007E-02));
#517 = CARTESIAN_POINT('',(-0.33238206616,-0.177947523613));
#518 = CARTESIAN_POINT('',(-0.304132996411,-0.258914339481));
#519 = CARTESIAN_POINT('',(-0.272943934518,-0.332967918111));
#520 = CARTESIAN_POINT('',(-0.238916665008,-0.398613644099));
#521 = CARTESIAN_POINT('',(-0.171943517234,-0.499573070176));
#522 = CARTESIAN_POINT('',(-0.139764479097,-0.538369107855));
#523 = CARTESIAN_POINT('',(-0.106037427372,-0.568724886386));
#524 = CARTESIAN_POINT('',(-7.120379051135E-02,-0.589498043635));
#525 = CARTESIAN_POINT('',(-3.570645246532E-02,-0.6));
#526 = CARTESIAN_POINT('',(0.,-0.6));
#527 = ( GEOMETRIC_REPRESENTATION_CONTEXT(2) 
PARAMETRIC_REPRESENTATION_CONTEXT() REPRESENTATION_CONTEXT('2D SPACE',''
  ) );
#528 = ORIENTED_EDGE('',*,*,#529,.T.);
#529 = EDGE_CURVE('',#473,#530,#532,.T.);
#530 = VERTEX_POINT('',#531);
#531 = CARTESIAN_POINT('',(12.120763990222,1.148912529308,4.8));
#532 = SURFACE_CURVE('',#533,(#537,#543),.PCURVE_S1.);
#533 = LINE('',#534,#535);
#534 = CARTESIAN_POINT('',(0.,1.148912529308,4.8));
#535 = VECTOR('',#536,1.);
#536 = DIRECTION('',(-1.,-0.,-0.));
#537 = PCURVE('',#116,#538);
#538 = DEFINITIONAL_REPRESENTATION('',(#539),#542);
#539 = B_SPLINE_CURVE_WITH_KNOTS('',1,(#540,#541),.UNSPECIFIED.,.F.,.F.,
  (2,2),(-18.72,-11.28),.PIECEWISE_BEZIER_KNOTS.);
#540 = CARTESIAN_POINT('',(-0.60824557891,-18.72));
#541 = CARTESIAN_POINT('',(-0.60824557891,-11.28));
#542 = ( GEOMETRIC_REPRESENTATION_CONTEXT(2) 
PARAMETRIC_REPRESENTATION_CONTEXT() REPRESENTATION_CONTEXT('2D SPACE',''
  ) );
#543 = PCURVE('',#544,#549);
#544 = PLANE('',#545);
#545 = AXIS2_PLACEMENT_3D('',#546,#547,#548);
#546 = CARTESIAN_POINT('',(15.,-1.626940586839E-17,4.8));
#547 = DIRECTION('',(0.,0.,1.));
#548 = DIRECTION('',(1.,0.,-0.));
#549 = DEFINITIONAL_REPRESENTATION('',(#550),#553);
#550 = B_SPLINE_CURVE_WITH_KNOTS('',1,(#551,#552),.UNSPECIFIED.,.F.,.F.,
  (2,2),(-18.72,-11.28),.PIECEWISE_BEZIER_KNOTS.);
#551 = CARTESIAN_POINT('',(3.72,1.148912529308));
#552 = CARTESIAN_POINT('',(-3.72,1.148912529308));
#553 = ( GEOMETRIC_REPRESENTATION_CONTEXT(2) 
PARAMETRIC_REPRESENTATION_CONTEXT() REPRESENTATION_CONTEXT('2D SPACE',''
  ) );
#554 = ORIENTED_EDGE('',*,*,#555,.T.);
#555 = EDGE_CURVE('',#530,#556,#558,.T.);
#556 = VERTEX_POINT('',#557);
#557 = CARTESIAN_POINT('',(12.120763990222,-1.148912529308,4.8));
#558 = SURFACE_CURVE('',#559,(#597,#638),.PCURVE_S1.);
#559 = B_SPLINE_CURVE_WITH_KNOTS('',6,(#560,#561,#562,#563,#564,#565,
    #566,#567,#568,#569,#570,#571,#572,#573,#574,#575,#576,#577,#578,
    #579,#580,#581,#582,#583,#584,#585,#586,#587,#588,#589,#590,#591,
    #592,#593,#594,#595,#596),.UNSPECIFIED.,.F.,.F.,(7,5,5,5,5,5,5,7),(
    0.,0.273952428238,0.354756981814,0.402492610641,0.499800579989,
    0.644209835354,0.7263263911,1.),.UNSPECIFIED.);
#560 = CARTESIAN_POINT('',(12.120764156933,1.148912947094,4.7999994));
#561 = CARTESIAN_POINT('',(12.095396152351,1.085339402863,4.89130005355)
  );
#562 = CARTESIAN_POINT('',(12.068114943409,1.012078063418,4.977947523613
    ));
#563 = CARTESIAN_POINT('',(12.039946737535,0.929096558836,5.058914339481
    ));
#564 = CARTESIAN_POINT('',(12.012112500709,0.836388540928,5.132967918111
    ));
#565 = CARTESIAN_POINT('',(11.986011006391,0.734060909915,5.198613644099
    ));
#566 = CARTESIAN_POINT('',(11.956392078192,0.589558864868,5.270342709275
    ));
#567 = CARTESIAN_POINT('',(11.949930623696,0.555859798297,5.285778353557
    ));
#568 = CARTESIAN_POINT('',(11.943797260577,0.521411002845,5.300254342282
    ));
#569 = CARTESIAN_POINT('',(11.938032923314,0.48625088694,5.313716487576)
  );
#570 = CARTESIAN_POINT('',(11.932676368168,0.450420794282,5.326113669779
    ));
#571 = CARTESIAN_POINT('',(11.924862273395,0.392428592783,5.344064006802
    ));
#572 = CARTESIAN_POINT('',(11.922115843071,0.370677329555,5.350340693138
    ));
#573 = CARTESIAN_POINT('',(11.919532698725,0.348723061355,5.356217237739
    ));
#574 = CARTESIAN_POINT('',(11.917120130934,0.326579103884,5.361683629721
    ));
#575 = CARTESIAN_POINT('',(11.914884904341,0.304260241349,5.366730506024
    ));
#576 = CARTESIAN_POINT('',(11.908651023579,0.235962835031,5.380764152628
    ));
#577 = CARTESIAN_POINT('',(11.905229958668,0.189467188983,5.388403282581
    ));
#578 = CARTESIAN_POINT('',(11.902625337733,0.142456453687,5.394186898186
    ));
#579 = CARTESIAN_POINT('',(11.900875350564,9.509602732319E-02,
    5.398061632625));
#580 = CARTESIAN_POINT('',(11.9,4.755414785362E-02,5.4));
#581 = CARTESIAN_POINT('',(11.9,-7.057242204407E-02,5.4));
#582 = CARTESIAN_POINT('',(11.901927648662,-0.141060628558,
    5.395730760841));
#583 = CARTESIAN_POINT('',(11.905775551784,-0.210950217014,
    5.387212597218));
#584 = CARTESIAN_POINT('',(11.911448165211,-0.279733945041,
    5.374572161281));
#585 = CARTESIAN_POINT('',(11.918772432483,-0.346923705689,
    5.358046187375));
#586 = CARTESIAN_POINT('',(11.932476036293,-0.449102882425,
    5.326577822754));
#587 = CARTESIAN_POINT('',(11.937903011237,-0.485500005875,
    5.314021361568));
#588 = CARTESIAN_POINT('',(11.943751132297,-0.521207417449,
    5.300366055698));
#589 = CARTESIAN_POINT('',(11.949979867666,-0.556181788311,
    5.285665369621));
#590 = CARTESIAN_POINT('',(11.95654636876,-0.590382916382,5.269976029823
    ));
#591 = CARTESIAN_POINT('',(11.986265111993,-0.735056809051,
    5.197974437821));
#592 = CARTESIAN_POINT('',(12.01232943983,-0.837110866275,5.132390667759
    ));
#593 = CARTESIAN_POINT('',(12.040111334514,-0.929581268314,
    5.058441081263));
#594 = CARTESIAN_POINT('',(12.068221047327,-1.012362928093,4.97761037768
    ));
#595 = CARTESIAN_POINT('',(12.095445360615,-1.085462721341,
    4.891122950671));
#596 = CARTESIAN_POINT('',(12.120764156933,-1.148912947094,4.7999994));
#597 = PCURVE('',#116,#598);
#598 = DEFINITIONAL_REPRESENTATION('',(#599),#637);
#599 = B_SPLINE_CURVE_WITH_KNOTS('',6,(#600,#601,#602,#603,#604,#605,
    #606,#607,#608,#609,#610,#611,#612,#613,#614,#615,#616,#617,#618,
    #619,#620,#621,#622,#623,#624,#625,#626,#627,#628,#629,#630,#631,
    #632,#633,#634,#635,#636),.UNSPECIFIED.,.F.,.F.,(7,5,5,5,5,5,5,7),(
    0.,0.273952428238,0.354756981814,0.402492610641,0.499800579989,
    0.644209835354,0.7263263911,1.),.UNSPECIFIED.);
#600 = CARTESIAN_POINT('',(-0.608245056677,-12.12076415693));
#601 = CARTESIAN_POINT('',(-0.687712046566,-12.09539615235));
#602 = CARTESIAN_POINT('',(-0.768405816156,-12.0681149434));
#603 = CARTESIAN_POINT('',(-0.850639358189,-12.03994673753));
#604 = CARTESIAN_POINT('',(-0.934739560058,-12.0121125007));
#605 = CARTESIAN_POINT('',(-1.021057120457,-11.98601100639));
#606 = CARTESIAN_POINT('',(-1.13628958252,-11.95639207819));
#607 = CARTESIAN_POINT('',(-1.162752310816,-11.94993062369));
#608 = CARTESIAN_POINT('',(-1.189422600514,-11.94379726057));
#609 = CARTESIAN_POINT('',(-1.21629376355,-11.93803292331));
#610 = CARTESIAN_POINT('',(-1.243360587446,-11.93267636816));
#611 = CARTESIAN_POINT('',(-1.2867225549,-11.92486227339));
#612 = CARTESIAN_POINT('',(-1.302890102804,-11.92211584307));
#613 = CARTESIAN_POINT('',(-1.31911920056,-11.91953269872));
#614 = CARTESIAN_POINT('',(-1.335406442435,-11.91712013093));
#615 = CARTESIAN_POINT('',(-1.351747795419,-11.91488490434));
#616 = CARTESIAN_POINT('',(-1.401550871643,-11.90865102357));
#617 = CARTESIAN_POINT('',(-1.435180634861,-11.90522995866));
#618 = CARTESIAN_POINT('',(-1.468971178958,-11.90262533773));
#619 = CARTESIAN_POINT('',(-1.50287058867,-11.90087535056));
#620 = CARTESIAN_POINT('',(-1.536829078328,-11.9));
#621 = CARTESIAN_POINT('',(-1.621205199684,-11.9));
#622 = CARTESIAN_POINT('',(-1.671553985923,-11.90192764866));
#623 = CARTESIAN_POINT('',(-1.721705546162,-11.90577555178));
#624 = CARTESIAN_POINT('',(-1.771525734073,-11.91144816521));
#625 = CARTESIAN_POINT('',(-1.82086684947,-11.91877243248));
#626 = CARTESIAN_POINT('',(-1.897234789808,-11.93247603629));
#627 = CARTESIAN_POINT('',(-1.924720880738,-11.93790301123));
#628 = CARTESIAN_POINT('',(-1.952005468022,-11.94375113229));
#629 = CARTESIAN_POINT('',(-1.979083093434,-11.94997986766));
#630 = CARTESIAN_POINT('',(-2.005946736709,-11.95654636876));
#631 = CARTESIAN_POINT('',(-2.121375760025,-11.98626511199));
#632 = CARTESIAN_POINT('',(-2.207508472357,-12.01232943983));
#633 = CARTESIAN_POINT('',(-2.291433787412,-12.04011133451));
#634 = CARTESIAN_POINT('',(-2.373500739472,-12.06822104732));
#635 = CARTESIAN_POINT('',(-2.454034755237,-12.09544536061));
#636 = CARTESIAN_POINT('',(-2.533347596912,-12.12076415693));
#637 = ( GEOMETRIC_REPRESENTATION_CONTEXT(2) 
PARAMETRIC_REPRESENTATION_CONTEXT() REPRESENTATION_CONTEXT('2D SPACE',''
  ) );
#638 = PCURVE('',#508,#639);
#639 = DEFINITIONAL_REPRESENTATION('',(#640),#678);
#640 = B_SPLINE_CURVE_WITH_KNOTS('',6,(#641,#642,#643,#644,#645,#646,
    #647,#648,#649,#650,#651,#652,#653,#654,#655,#656,#657,#658,#659,
    #660,#661,#662,#663,#664,#665,#666,#667,#668,#669,#670,#671,#672,
    #673,#674,#675,#676,#677),.UNSPECIFIED.,.F.,.F.,(7,5,5,5,5,5,5,7),(
    0.,0.273952428238,0.354756981814,0.402492610641,0.499800579989,
    0.644209835354,0.7263263911,1.),.UNSPECIFIED.);
#641 = CARTESIAN_POINT('',(-2.761919326866,6.000000000173E-07));
#642 = CARTESIAN_POINT('',(-2.783999332707,-9.130005355002E-02));
#643 = CARTESIAN_POINT('',(-2.80921058743,-0.177947523613));
#644 = CARTESIAN_POINT('',(-2.837459657179,-0.258914339481));
#645 = CARTESIAN_POINT('',(-2.868648719071,-0.332967918111));
#646 = CARTESIAN_POINT('',(-2.902675988581,-0.398613644099));
#647 = CARTESIAN_POINT('',(-2.950258680643,-0.470342709275));
#648 = CARTESIAN_POINT('',(-2.961326463335,-0.485778353557));
#649 = CARTESIAN_POINT('',(-2.972612224535,-0.500254342282));
#650 = CARTESIAN_POINT('',(-2.984103941114,-0.513716487576));
#651 = CARTESIAN_POINT('',(-2.995789252544,-0.526113669779));
#652 = CARTESIAN_POINT('',(-3.01466547324,-0.544064006802));
#653 = CARTESIAN_POINT('',(-3.021737472768,-0.550340693138));
#654 = CARTESIAN_POINT('',(-3.028867961682,-0.556217237739));
#655 = CARTESIAN_POINT('',(-3.036053040421,-0.561683629721));
#656 = CARTESIAN_POINT('',(-3.04328840766,-0.566730506024));
#657 = CARTESIAN_POINT('',(-3.065411412997,-0.580764152628));
#658 = CARTESIAN_POINT('',(-3.080448231698,-0.588403282581));
#659 = CARTESIAN_POINT('',(-3.095632457607,-0.594186898186));
#660 = CARTESIAN_POINT('',(-3.110916518408,-0.598061632625));
#661 = CARTESIAN_POINT('',(-3.126252605895,-0.6));
#662 = CARTESIAN_POINT('',(-3.164357951023,-0.6));
#663 = CARTESIAN_POINT('',(-3.187096043162,-0.595730760841));
#664 = CARTESIAN_POINT('',(-3.209662398546,-0.587212597218));
#665 = CARTESIAN_POINT('',(-3.231914106494,-0.574572161281));
#666 = CARTESIAN_POINT('',(-3.253709972869,-0.558046187375));
#667 = CARTESIAN_POINT('',(-3.286966102027,-0.526577822754));
#668 = CARTESIAN_POINT('',(-3.298835615441,-0.514021361568));
#669 = CARTESIAN_POINT('',(-3.310505846483,-0.500366055698));
#670 = CARTESIAN_POINT('',(-3.321963846629,-0.485665369621));
#671 = CARTESIAN_POINT('',(-3.333197028452,-0.469976029823));
#672 = CARTESIAN_POINT('',(-3.380840495912,-0.397974437821));
#673 = CARTESIAN_POINT('',(-3.414779599808,-0.332390667759));
#674 = CARTESIAN_POINT('',(-3.44589066537,-0.258441081263));
#675 = CARTESIAN_POINT('',(-3.47407275228,-0.17761037768));
#676 = CARTESIAN_POINT('',(-3.499228804753,-9.112295067149E-02));
#677 = CARTESIAN_POINT('',(-3.521265980313,6.000000000173E-07));
#678 = ( GEOMETRIC_REPRESENTATION_CONTEXT(2) 
PARAMETRIC_REPRESENTATION_CONTEXT() REPRESENTATION_CONTEXT('2D SPACE',''
  ) );
#679 = ORIENTED_EDGE('',*,*,#680,.F.);
#680 = EDGE_CURVE('',#681,#556,#683,.T.);
#681 = VERTEX_POINT('',#682);
#682 = CARTESIAN_POINT('',(17.879236009778,-1.148912529308,4.8));
#683 = SURFACE_CURVE('',#684,(#688,#694),.PCURVE_S1.);
#684 = LINE('',#685,#686);
#685 = CARTESIAN_POINT('',(0.,-1.148912529308,4.8));
#686 = VECTOR('',#687,1.);
#687 = DIRECTION('',(-1.,-0.,-0.));
#688 = PCURVE('',#116,#689);
#689 = DEFINITIONAL_REPRESENTATION('',(#690),#693);
#690 = B_SPLINE_CURVE_WITH_KNOTS('',1,(#691,#692),.UNSPECIFIED.,.F.,.F.,
  (2,2),(-18.72,-11.28),.PIECEWISE_BEZIER_KNOTS.);
#691 = CARTESIAN_POINT('',(-2.53334707468,-18.72));
#692 = CARTESIAN_POINT('',(-2.53334707468,-11.28));
#693 = ( GEOMETRIC_REPRESENTATION_CONTEXT(2) 
PARAMETRIC_REPRESENTATION_CONTEXT() REPRESENTATION_CONTEXT('2D SPACE',''
  ) );
#694 = PCURVE('',#695,#700);
#695 = PLANE('',#696);
#696 = AXIS2_PLACEMENT_3D('',#697,#698,#699);
#697 = CARTESIAN_POINT('',(15.,-1.626940586839E-17,4.8));
#698 = DIRECTION('',(0.,0.,1.));
#699 = DIRECTION('',(1.,0.,-0.));
#700 = DEFINITIONAL_REPRESENTATION('',(#701),#704);
#701 = B_SPLINE_CURVE_WITH_KNOTS('',1,(#702,#703),.UNSPECIFIED.,.F.,.F.,
  (2,2),(-18.72,-11.28),.PIECEWISE_BEZIER_KNOTS.);
#702 = CARTESIAN_POINT('',(3.72,-1.148912529308));
#703 = CARTESIAN_POINT('',(-3.72,-1.148912529308));
#704 = ( GEOMETRIC_REPRESENTATION_CONTEXT(2) 
PARAMETRIC_REPRESENTATION_CONTEXT() REPRESENTATION_CONTEXT('2D SPACE',''
  ) );
#705 = ORIENTED_EDGE('',*,*,#706,.F.);
#706 = EDGE_CURVE('',#475,#681,#707,.T.);
#707 = SURFACE_CURVE('',#708,(#721,#737),.PCURVE_S1.);
#708 = B_SPLINE_CURVE_WITH_KNOTS('',6,(#709,#710,#711,#712,#713,#714,
    #715,#716,#717,#718,#719,#720),.UNSPECIFIED.,.F.,.F.,(7,5,7),(0.,
    0.452431499489,1.),.UNSPECIFIED.);
#709 = CARTESIAN_POINT('',(18.1,-2.22044604925E-16,5.4));
#710 = CARTESIAN_POINT('',(18.1,-0.110963442351,5.4));
#711 = CARTESIAN_POINT('',(18.095233639085,-0.221261837537,
    5.389446094289));
#712 = CARTESIAN_POINT('',(18.085808568215,-0.329227867246,
    5.368575517576));
#713 = CARTESIAN_POINT('',(18.07225162795,-0.433240703781,5.338083404495
    ));
#714 = CARTESIAN_POINT('',(18.055482435133,-0.531825464283,
    5.299119019598));
#715 = CARTESIAN_POINT('',(18.013734888007,-0.735056809051,
    5.197974437821));
#716 = CARTESIAN_POINT('',(17.98767056017,-0.837110866275,5.132390667759
    ));
#717 = CARTESIAN_POINT('',(17.959888665486,-0.929581268315,
    5.058441081263));
#718 = CARTESIAN_POINT('',(17.931778952673,-1.012362928093,4.97761037768
    ));
#719 = CARTESIAN_POINT('',(17.904554639385,-1.085462721341,
    4.891122950671));
#720 = CARTESIAN_POINT('',(17.879235843067,-1.148912947094,4.7999994));
#721 = PCURVE('',#116,#722);
#722 = DEFINITIONAL_REPRESENTATION('',(#723),#736);
#723 = B_SPLINE_CURVE_WITH_KNOTS('',6,(#724,#725,#726,#727,#728,#729,
    #730,#731,#732,#733,#734,#735),.UNSPECIFIED.,.F.,.F.,(7,5,7),(0.,
    0.452431499489,1.),.UNSPECIFIED.);
#724 = CARTESIAN_POINT('',(-1.570796326795,-18.1));
#725 = CARTESIAN_POINT('',(-1.650055928474,-18.1));
#726 = CARTESIAN_POINT('',(-1.728840350974,-18.09523363908));
#727 = CARTESIAN_POINT('',(-1.806855847189,-18.08580856821));
#728 = CARTESIAN_POINT('',(-1.88378404014,-18.07225162795));
#729 = CARTESIAN_POINT('',(-1.959226285775,-18.05548243513));
#730 = CARTESIAN_POINT('',(-2.121375760025,-18.013734888));
#731 = CARTESIAN_POINT('',(-2.207508472357,-17.98767056017));
#732 = CARTESIAN_POINT('',(-2.291433787412,-17.95988866548));
#733 = CARTESIAN_POINT('',(-2.373500739472,-17.93177895267));
#734 = CARTESIAN_POINT('',(-2.454034755237,-17.90455463938));
#735 = CARTESIAN_POINT('',(-2.533347596912,-17.87923584306));
#736 = ( GEOMETRIC_REPRESENTATION_CONTEXT(2) 
PARAMETRIC_REPRESENTATION_CONTEXT() REPRESENTATION_CONTEXT('2D SPACE',''
  ) );
#737 = PCURVE('',#508,#738);
#738 = DEFINITIONAL_REPRESENTATION('',(#739),#752);
#739 = B_SPLINE_CURVE_WITH_KNOTS('',6,(#740,#741,#742,#743,#744,#745,
    #746,#747,#748,#749,#750,#751),.UNSPECIFIED.,.F.,.F.,(7,5,7),(0.,
    0.452431499489,1.),.UNSPECIFIED.);
#740 = CARTESIAN_POINT('',(-6.28318530718,-0.6));
#741 = CARTESIAN_POINT('',(-6.247390648357,-0.6));
#742 = CARTESIAN_POINT('',(-6.211810452397,-0.589446094289));
#743 = CARTESIAN_POINT('',(-6.176900452205,-0.568575517576));
#744 = CARTESIAN_POINT('',(-6.143104447818,-0.538083404495));
#745 = CARTESIAN_POINT('',(-6.110864854331,-0.499119019598));
#746 = CARTESIAN_POINT('',(-6.043937464857,-0.397974437821));
#747 = CARTESIAN_POINT('',(-6.009998360961,-0.332390667759));
#748 = CARTESIAN_POINT('',(-5.978887295399,-0.258441081263));
#749 = CARTESIAN_POINT('',(-5.950705208489,-0.17761037768));
#750 = CARTESIAN_POINT('',(-5.925549156016,-9.112295067148E-02));
#751 = CARTESIAN_POINT('',(-5.903511980456,6.000000000173E-07));
#752 = ( GEOMETRIC_REPRESENTATION_CONTEXT(2) 
PARAMETRIC_REPRESENTATION_CONTEXT() REPRESENTATION_CONTEXT('2D SPACE',''
  ) );
#753 = ADVANCED_FACE('',(#754,#757,#788,#841),#251,.T.);
#754 = FACE_BOUND('',#755,.T.);
#755 = EDGE_LOOP('',(#756));
#756 = ORIENTED_EDGE('',*,*,#236,.T.);
#757 = FACE_BOUND('',#758,.T.);
#758 = EDGE_LOOP('',(#759));
#759 = ORIENTED_EDGE('',*,*,#760,.F.);
#760 = EDGE_CURVE('',#761,#761,#763,.T.);
#761 = VERTEX_POINT('',#762);
#762 = CARTESIAN_POINT('',(-11.9,0.,8.));
#763 = SURFACE_CURVE('',#764,(#769,#776),.PCURVE_S1.);
#764 = CIRCLE('',#765,3.1);
#765 = AXIS2_PLACEMENT_3D('',#766,#767,#768);
#766 = CARTESIAN_POINT('',(-15.,0.,8.));
#767 = DIRECTION('',(0.,0.,1.));
#768 = DIRECTION('',(1.,0.,0.));
#769 = PCURVE('',#251,#770);
#770 = DEFINITIONAL_REPRESENTATION('',(#771),#775);
#771 = CIRCLE('',#772,3.1);
#772 = AXIS2_PLACEMENT_2D('',#773,#774);
#773 = CARTESIAN_POINT('',(-15.,-1.371473012632E-15));
#774 = DIRECTION('',(1.,0.));
#775 = ( GEOMETRIC_REPRESENTATION_CONTEXT(2) 
PARAMETRIC_REPRESENTATION_CONTEXT() REPRESENTATION_CONTEXT('2D SPACE',''
  ) );
#776 = PCURVE('',#777,#782);
#777 = CYLINDRICAL_SURFACE('',#778,3.1);
#778 = AXIS2_PLACEMENT_3D('',#779,#780,#781);
#779 = CARTESIAN_POINT('',(-15.,0.,4.8));
#780 = DIRECTION('',(-0.,-0.,-1.));
#781 = DIRECTION('',(1.,0.,0.));
#782 = DEFINITIONAL_REPRESENTATION('',(#783),#787);
#783 = LINE('',#784,#785);
#784 = CARTESIAN_POINT('',(-0.,-3.2));
#785 = VECTOR('',#786,1.);
#786 = DIRECTION('',(-1.,0.));
#787 = ( GEOMETRIC_REPRESENTATION_CONTEXT(2) 
PARAMETRIC_REPRESENTATION_CONTEXT() REPRESENTATION_CONTEXT('2D SPACE',''
  ) );
#788 = FACE_BOUND('',#789,.T.);
#789 = EDGE_LOOP('',(#790,#815));
#790 = ORIENTED_EDGE('',*,*,#791,.F.);
#791 = EDGE_CURVE('',#792,#794,#796,.T.);
#792 = VERTEX_POINT('',#793);
#793 = CARTESIAN_POINT('',(5.05,-3.331666249791,8.));
#794 = VERTEX_POINT('',#795);
#795 = CARTESIAN_POINT('',(5.05,3.331666249791,8.));
#796 = SURFACE_CURVE('',#797,(#801,#808),.PCURVE_S1.);
#797 = LINE('',#798,#799);
#798 = CARTESIAN_POINT('',(5.05,-6.5,8.));
#799 = VECTOR('',#800,1.);
#800 = DIRECTION('',(0.,1.,0.));
#801 = PCURVE('',#251,#802);
#802 = DEFINITIONAL_REPRESENTATION('',(#803),#807);
#803 = LINE('',#804,#805);
#804 = CARTESIAN_POINT('',(5.05,-6.5));
#805 = VECTOR('',#806,1.);
#806 = DIRECTION('',(0.,1.));
#807 = ( GEOMETRIC_REPRESENTATION_CONTEXT(2) 
PARAMETRIC_REPRESENTATION_CONTEXT() REPRESENTATION_CONTEXT('2D SPACE',''
  ) );
#808 = PCURVE('',#406,#809);
#809 = DEFINITIONAL_REPRESENTATION('',(#810),#814);
#810 = LINE('',#811,#812);
#811 = CARTESIAN_POINT('',(0.,-8.));
#812 = VECTOR('',#813,1.);
#813 = DIRECTION('',(1.,0.));
#814 = ( GEOMETRIC_REPRESENTATION_CONTEXT(2) 
PARAMETRIC_REPRESENTATION_CONTEXT() REPRESENTATION_CONTEXT('2D SPACE',''
  ) );
#815 = ORIENTED_EDGE('',*,*,#816,.T.);
#816 = EDGE_CURVE('',#792,#794,#817,.T.);
#817 = SURFACE_CURVE('',#818,(#823,#834),.PCURVE_S1.);
#818 = CIRCLE('',#819,6.05);
#819 = AXIS2_PLACEMENT_3D('',#820,#821,#822);
#820 = CARTESIAN_POINT('',(0.,0.,8.));
#821 = DIRECTION('',(0.,-0.,-1.));
#822 = DIRECTION('',(0.834710743802,-0.550688636329,0.));
#823 = PCURVE('',#251,#824);
#824 = DEFINITIONAL_REPRESENTATION('',(#825),#833);
#825 = ( BOUNDED_CURVE() B_SPLINE_CURVE(2,(#826,#827,#828,#829,#830,#831
,#832),.UNSPECIFIED.,.T.,.F.) B_SPLINE_CURVE_WITH_KNOTS((1,2,2,2,2,1),(
    -2.094395102393,0.,2.094395102393,4.188790204786,6.28318530718,
8.377580409573),.UNSPECIFIED.) CURVE() GEOMETRIC_REPRESENTATION_ITEM() 
RATIONAL_B_SPLINE_CURVE((1.,0.5,1.,0.5,1.,0.5,1.)) REPRESENTATION_ITEM(
  '') );
#826 = CARTESIAN_POINT('',(5.05,-3.331666249791));
#827 = CARTESIAN_POINT('',(-0.720615218501,-12.07852282801));
#828 = CARTESIAN_POINT('',(-5.410307609251,-2.707595164216));
#829 = CARTESIAN_POINT('',(-10.1,6.663332499583));
#830 = CARTESIAN_POINT('',(0.360307609251,6.039261414007));
#831 = CARTESIAN_POINT('',(10.820615218501,5.415190328431));
#832 = CARTESIAN_POINT('',(5.05,-3.331666249791));
#833 = ( GEOMETRIC_REPRESENTATION_CONTEXT(2) 
PARAMETRIC_REPRESENTATION_CONTEXT() REPRESENTATION_CONTEXT('2D SPACE',''
  ) );
#834 = PCURVE('',#380,#835);
#835 = DEFINITIONAL_REPRESENTATION('',(#836),#840);
#836 = LINE('',#837,#838);
#837 = CARTESIAN_POINT('',(-5.699996293653,-8.));
#838 = VECTOR('',#839,1.);
#839 = DIRECTION('',(1.,-0.));
#840 = ( GEOMETRIC_REPRESENTATION_CONTEXT(2) 
PARAMETRIC_REPRESENTATION_CONTEXT() REPRESENTATION_CONTEXT('2D SPACE',''
  ) );
#841 = FACE_BOUND('',#842,.T.);
#842 = EDGE_LOOP('',(#843));
#843 = ORIENTED_EDGE('',*,*,#844,.F.);
#844 = EDGE_CURVE('',#845,#845,#847,.T.);
#845 = VERTEX_POINT('',#846);
#846 = CARTESIAN_POINT('',(18.1,0.,8.));
#847 = SURFACE_CURVE('',#848,(#853,#860),.PCURVE_S1.);
#848 = CIRCLE('',#849,3.1);
#849 = AXIS2_PLACEMENT_3D('',#850,#851,#852);
#850 = CARTESIAN_POINT('',(15.,0.,8.));
#851 = DIRECTION('',(0.,0.,1.));
#852 = DIRECTION('',(1.,0.,0.));
#853 = PCURVE('',#251,#854);
#854 = DEFINITIONAL_REPRESENTATION('',(#855),#859);
#855 = CIRCLE('',#856,3.1);
#856 = AXIS2_PLACEMENT_2D('',#857,#858);
#857 = CARTESIAN_POINT('',(15.,-1.371473012632E-15));
#858 = DIRECTION('',(1.,0.));
#859 = ( GEOMETRIC_REPRESENTATION_CONTEXT(2) 
PARAMETRIC_REPRESENTATION_CONTEXT() REPRESENTATION_CONTEXT('2D SPACE',''
  ) );
#860 = PCURVE('',#508,#861);
#861 = DEFINITIONAL_REPRESENTATION('',(#862),#866);
#862 = LINE('',#863,#864);
#863 = CARTESIAN_POINT('',(-0.,-3.2));
#864 = VECTOR('',#865,1.);
#865 = DIRECTION('',(-1.,0.));
#866 = ( GEOMETRIC_REPRESENTATION_CONTEXT(2) 
PARAMETRIC_REPRESENTATION_CONTEXT() REPRESENTATION_CONTEXT('2D SPACE',''
  ) );
#867 = ADVANCED_FACE('',(#868),#380,.F.);
#868 = FACE_BOUND('',#869,.T.);
#869 = EDGE_LOOP('',(#870,#871,#890,#891));
#870 = ORIENTED_EDGE('',*,*,#361,.F.);
#871 = ORIENTED_EDGE('',*,*,#872,.F.);
#872 = EDGE_CURVE('',#794,#362,#873,.T.);
#873 = SURFACE_CURVE('',#874,(#878,#884),.PCURVE_S1.);
#874 = LINE('',#875,#876);
#875 = CARTESIAN_POINT('',(5.05,3.331666249792,0.));
#876 = VECTOR('',#877,1.);
#877 = DIRECTION('',(-0.,-0.,-1.));
#878 = PCURVE('',#380,#879);
#879 = DEFINITIONAL_REPRESENTATION('',(#880),#883);
#880 = B_SPLINE_CURVE_WITH_KNOTS('',1,(#881,#882),.UNSPECIFIED.,.F.,.F.,
  (2,2),(-8.0000006,6.E-07),.PIECEWISE_BEZIER_KNOTS.);
#881 = CARTESIAN_POINT('',(-0.583189013527,-8.0000006));
#882 = CARTESIAN_POINT('',(-0.583189013527,6.E-07));
#883 = ( GEOMETRIC_REPRESENTATION_CONTEXT(2) 
PARAMETRIC_REPRESENTATION_CONTEXT() REPRESENTATION_CONTEXT('2D SPACE',''
  ) );
#884 = PCURVE('',#406,#885);
#885 = DEFINITIONAL_REPRESENTATION('',(#886),#889);
#886 = B_SPLINE_CURVE_WITH_KNOTS('',1,(#887,#888),.UNSPECIFIED.,.F.,.F.,
  (2,2),(-8.0000006,6.E-07),.PIECEWISE_BEZIER_KNOTS.);
#887 = CARTESIAN_POINT('',(9.831666249792,-8.0000006));
#888 = CARTESIAN_POINT('',(9.831666249792,6.E-07));
#889 = ( GEOMETRIC_REPRESENTATION_CONTEXT(2) 
PARAMETRIC_REPRESENTATION_CONTEXT() REPRESENTATION_CONTEXT('2D SPACE',''
  ) );
#890 = ORIENTED_EDGE('',*,*,#816,.F.);
#891 = ORIENTED_EDGE('',*,*,#892,.T.);
#892 = EDGE_CURVE('',#792,#364,#893,.T.);
#893 = SURFACE_CURVE('',#894,(#898,#904),.PCURVE_S1.);
#894 = LINE('',#895,#896);
#895 = CARTESIAN_POINT('',(5.05,-3.331666249792,0.));
#896 = VECTOR('',#897,1.);
#897 = DIRECTION('',(-0.,-0.,-1.));
#898 = PCURVE('',#380,#899);
#899 = DEFINITIONAL_REPRESENTATION('',(#900),#903);
#900 = B_SPLINE_CURVE_WITH_KNOTS('',1,(#901,#902),.UNSPECIFIED.,.F.,.F.,
  (2,2),(-8.0000006,6.E-07),.PIECEWISE_BEZIER_KNOTS.);
#901 = CARTESIAN_POINT('',(-5.699996293653,-8.0000006));
#902 = CARTESIAN_POINT('',(-5.699996293653,6.E-07));
#903 = ( GEOMETRIC_REPRESENTATION_CONTEXT(2) 
PARAMETRIC_REPRESENTATION_CONTEXT() REPRESENTATION_CONTEXT('2D SPACE',''
  ) );
#904 = PCURVE('',#406,#905);
#905 = DEFINITIONAL_REPRESENTATION('',(#906),#909);
#906 = B_SPLINE_CURVE_WITH_KNOTS('',1,(#907,#908),.UNSPECIFIED.,.F.,.F.,
  (2,2),(-8.0000006,6.E-07),.PIECEWISE_BEZIER_KNOTS.);
#907 = CARTESIAN_POINT('',(3.168333750208,-8.0000006));
#908 = CARTESIAN_POINT('',(3.168333750208,6.E-07));
#909 = ( GEOMETRIC_REPRESENTATION_CONTEXT(2) 
PARAMETRIC_REPRESENTATION_CONTEXT() REPRESENTATION_CONTEXT('2D SPACE',''
  ) );
#910 = ADVANCED_FACE('',(#911,#917),#406,.T.);
#911 = FACE_BOUND('',#912,.T.);
#912 = EDGE_LOOP('',(#913,#914,#915,#916));
#913 = ORIENTED_EDGE('',*,*,#392,.F.);
#914 = ORIENTED_EDGE('',*,*,#892,.F.);
#915 = ORIENTED_EDGE('',*,*,#791,.T.);
#916 = ORIENTED_EDGE('',*,*,#872,.T.);
#917 = FACE_BOUND('',#918,.T.);
#918 = EDGE_LOOP('',(#919));
#919 = ORIENTED_EDGE('',*,*,#421,.F.);
#920 = ADVANCED_FACE('',(#921),#508,.F.);
#921 = FACE_BOUND('',#922,.T.);
#922 = EDGE_LOOP('',(#923,#924,#945,#946,#947,#948,#970,#971));
#923 = ORIENTED_EDGE('',*,*,#472,.T.);
#924 = ORIENTED_EDGE('',*,*,#925,.T.);
#925 = EDGE_CURVE('',#475,#845,#926,.T.);
#926 = SEAM_CURVE('',#927,(#931,#938),.PCURVE_S1.);
#927 = LINE('',#928,#929);
#928 = CARTESIAN_POINT('',(18.1,0.,4.8));
#929 = VECTOR('',#930,1.);
#930 = DIRECTION('',(0.,0.,1.));
#931 = PCURVE('',#508,#932);
#932 = DEFINITIONAL_REPRESENTATION('',(#933),#937);
#933 = LINE('',#934,#935);
#934 = CARTESIAN_POINT('',(-6.28318530718,0.));
#935 = VECTOR('',#936,1.);
#936 = DIRECTION('',(-0.,-1.));
#937 = ( GEOMETRIC_REPRESENTATION_CONTEXT(2) 
PARAMETRIC_REPRESENTATION_CONTEXT() REPRESENTATION_CONTEXT('2D SPACE',''
  ) );
#938 = PCURVE('',#508,#939);
#939 = DEFINITIONAL_REPRESENTATION('',(#940),#944);
#940 = LINE('',#941,#942);
#941 = CARTESIAN_POINT('',(-0.,0.));
#942 = VECTOR('',#943,1.);
#943 = DIRECTION('',(-0.,-1.));
#944 = ( GEOMETRIC_REPRESENTATION_CONTEXT(2) 
PARAMETRIC_REPRESENTATION_CONTEXT() REPRESENTATION_CONTEXT('2D SPACE',''
  ) );
#945 = ORIENTED_EDGE('',*,*,#844,.T.);
#946 = ORIENTED_EDGE('',*,*,#925,.F.);
#947 = ORIENTED_EDGE('',*,*,#706,.T.);
#948 = ORIENTED_EDGE('',*,*,#949,.F.);
#949 = EDGE_CURVE('',#556,#681,#950,.T.);
#950 = SURFACE_CURVE('',#951,(#956,#963),.PCURVE_S1.);
#951 = CIRCLE('',#952,3.1);
#952 = AXIS2_PLACEMENT_3D('',#953,#954,#955);
#953 = CARTESIAN_POINT('',(15.,0.,4.8));
#954 = DIRECTION('',(0.,0.,1.));
#955 = DIRECTION('',(1.,0.,0.));
#956 = PCURVE('',#508,#957);
#957 = DEFINITIONAL_REPRESENTATION('',(#958),#962);
#958 = LINE('',#959,#960);
#959 = CARTESIAN_POINT('',(-0.,0.));
#960 = VECTOR('',#961,1.);
#961 = DIRECTION('',(-1.,0.));
#962 = ( GEOMETRIC_REPRESENTATION_CONTEXT(2) 
PARAMETRIC_REPRESENTATION_CONTEXT() REPRESENTATION_CONTEXT('2D SPACE',''
  ) );
#963 = PCURVE('',#695,#964);
#964 = DEFINITIONAL_REPRESENTATION('',(#965),#969);
#965 = CIRCLE('',#966,3.1);
#966 = AXIS2_PLACEMENT_2D('',#967,#968);
#967 = CARTESIAN_POINT('',(-1.7763568394E-15,1.626940586839E-17));
#968 = DIRECTION('',(1.,0.));
#969 = ( GEOMETRIC_REPRESENTATION_CONTEXT(2) 
PARAMETRIC_REPRESENTATION_CONTEXT() REPRESENTATION_CONTEXT('2D SPACE',''
  ) );
#970 = ORIENTED_EDGE('',*,*,#555,.F.);
#971 = ORIENTED_EDGE('',*,*,#972,.F.);
#972 = EDGE_CURVE('',#473,#530,#973,.T.);
#973 = SURFACE_CURVE('',#974,(#979,#986),.PCURVE_S1.);
#974 = CIRCLE('',#975,3.1);
#975 = AXIS2_PLACEMENT_3D('',#976,#977,#978);
#976 = CARTESIAN_POINT('',(15.,0.,4.8));
#977 = DIRECTION('',(0.,0.,1.));
#978 = DIRECTION('',(1.,0.,0.));
#979 = PCURVE('',#508,#980);
#980 = DEFINITIONAL_REPRESENTATION('',(#981),#985);
#981 = LINE('',#982,#983);
#982 = CARTESIAN_POINT('',(-0.,0.));
#983 = VECTOR('',#984,1.);
#984 = DIRECTION('',(-1.,0.));
#985 = ( GEOMETRIC_REPRESENTATION_CONTEXT(2) 
PARAMETRIC_REPRESENTATION_CONTEXT() REPRESENTATION_CONTEXT('2D SPACE',''
  ) );
#986 = PCURVE('',#544,#987);
#987 = DEFINITIONAL_REPRESENTATION('',(#988),#992);
#988 = CIRCLE('',#989,3.1);
#989 = AXIS2_PLACEMENT_2D('',#990,#991);
#990 = CARTESIAN_POINT('',(-1.7763568394E-15,1.626940586839E-17));
#991 = DIRECTION('',(1.,0.));
#992 = ( GEOMETRIC_REPRESENTATION_CONTEXT(2) 
PARAMETRIC_REPRESENTATION_CONTEXT() REPRESENTATION_CONTEXT('2D SPACE',''
  ) );
#993 = ADVANCED_FACE('',(#994),#695,.T.);
#994 = FACE_BOUND('',#995,.T.);
#995 = EDGE_LOOP('',(#996,#997));
#996 = ORIENTED_EDGE('',*,*,#949,.T.);
#997 = ORIENTED_EDGE('',*,*,#680,.T.);
#998 = ADVANCED_FACE('',(#999),#544,.T.);
#999 = FACE_BOUND('',#1000,.T.);
#1000 = EDGE_LOOP('',(#1001,#1002));
#1001 = ORIENTED_EDGE('',*,*,#529,.F.);
#1002 = ORIENTED_EDGE('',*,*,#972,.T.);
#1003 = ADVANCED_FACE('',(#1004),#777,.F.);
#1004 = FACE_BOUND('',#1005,.T.);
#1005 = EDGE_LOOP('',(#1006,#1029,#1030,#1031));
#1006 = ORIENTED_EDGE('',*,*,#1007,.T.);
#1007 = EDGE_CURVE('',#1008,#761,#1010,.T.);
#1008 = VERTEX_POINT('',#1009);
#1009 = CARTESIAN_POINT('',(-11.9,0.,4.8));
#1010 = SEAM_CURVE('',#1011,(#1015,#1022),.PCURVE_S1.);
#1011 = LINE('',#1012,#1013);
#1012 = CARTESIAN_POINT('',(-11.9,0.,4.8));
#1013 = VECTOR('',#1014,1.);
#1014 = DIRECTION('',(0.,0.,1.));
#1015 = PCURVE('',#777,#1016);
#1016 = DEFINITIONAL_REPRESENTATION('',(#1017),#1021);
#1017 = LINE('',#1018,#1019);
#1018 = CARTESIAN_POINT('',(-0.,0.));
#1019 = VECTOR('',#1020,1.);
#1020 = DIRECTION('',(-0.,-1.));
#1021 = ( GEOMETRIC_REPRESENTATION_CONTEXT(2) 
PARAMETRIC_REPRESENTATION_CONTEXT() REPRESENTATION_CONTEXT('2D SPACE',''
  ) );
#1022 = PCURVE('',#777,#1023);
#1023 = DEFINITIONAL_REPRESENTATION('',(#1024),#1028);
#1024 = LINE('',#1025,#1026);
#1025 = CARTESIAN_POINT('',(-6.28318530718,0.));
#1026 = VECTOR('',#1027,1.);
#1027 = DIRECTION('',(-0.,-1.));
#1028 = ( GEOMETRIC_REPRESENTATION_CONTEXT(2) 
PARAMETRIC_REPRESENTATION_CONTEXT() REPRESENTATION_CONTEXT('2D SPACE',''
  ) );
#1029 = ORIENTED_EDGE('',*,*,#760,.T.);
#1030 = ORIENTED_EDGE('',*,*,#1007,.F.);
#1031 = ORIENTED_EDGE('',*,*,#1032,.F.);
#1032 = EDGE_CURVE('',#1008,#1008,#1033,.T.);
#1033 = SURFACE_CURVE('',#1034,(#1039,#1046),.PCURVE_S1.);
#1034 = CIRCLE('',#1035,3.1);
#1035 = AXIS2_PLACEMENT_3D('',#1036,#1037,#1038);
#1036 = CARTESIAN_POINT('',(-15.,0.,4.8));
#1037 = DIRECTION('',(0.,0.,1.));
#1038 = DIRECTION('',(1.,0.,0.));
#1039 = PCURVE('',#777,#1040);
#1040 = DEFINITIONAL_REPRESENTATION('',(#1041),#1045);
#1041 = LINE('',#1042,#1043);
#1042 = CARTESIAN_POINT('',(-0.,0.));
#1043 = VECTOR('',#1044,1.);
#1044 = DIRECTION('',(-1.,0.));
#1045 = ( GEOMETRIC_REPRESENTATION_CONTEXT(2) 
PARAMETRIC_REPRESENTATION_CONTEXT() REPRESENTATION_CONTEXT('2D SPACE',''
  ) );
#1046 = PCURVE('',#1047,#1052);
#1047 = PLANE('',#1048);
#1048 = AXIS2_PLACEMENT_3D('',#1049,#1050,#1051);
#1049 = CARTESIAN_POINT('',(15.,-1.626940586839E-17,4.8));
#1050 = DIRECTION('',(0.,0.,1.));
#1051 = DIRECTION('',(1.,0.,-0.));
#1052 = DEFINITIONAL_REPRESENTATION('',(#1053),#1057);
#1053 = CIRCLE('',#1054,3.1);
#1054 = AXIS2_PLACEMENT_2D('',#1055,#1056);
#1055 = CARTESIAN_POINT('',(-30.,1.626940586839E-17));
#1056 = DIRECTION('',(1.,0.));
#1057 = ( GEOMETRIC_REPRESENTATION_CONTEXT(2) 
PARAMETRIC_REPRESENTATION_CONTEXT() REPRESENTATION_CONTEXT('2D SPACE',''
  ) );
#1058 = ADVANCED_FACE('',(#1059),#1047,.T.);
#1059 = FACE_BOUND('',#1060,.T.);
#1060 = EDGE_LOOP('',(#1061));
#1061 = ORIENTED_EDGE('',*,*,#1032,.T.);
#1062 = ( GEOMETRIC_REPRESENTATION_CONTEXT(3) 
GLOBAL_UNCERTAINTY_ASSIGNED_CONTEXT((#1066)) 
GLOBAL_UNIT_ASSIGNED_CONTEXT((#1063,#1064,#1065)) REPRESENTATION_CONTEXT
('Context #1','3D Context with UNIT and UNCERTAINTY') );
#1063 = ( LENGTH_UNIT() NAMED_UNIT(*) SI_UNIT(.MILLI.,.METRE.) );
#1064 = ( NAMED_UNIT(*) PLANE_ANGLE_UNIT() SI_UNIT($,.RADIAN.) );
#1065 = ( NAMED_UNIT(*) SI_UNIT($,.STERADIAN.) SOLID_ANGLE_UNIT() );
#1066 = UNCERTAINTY_MEASURE_WITH_UNIT(LENGTH_MEASURE(1.E-07),#1063,
  'distance_accuracy_value','confusion accuracy');
#1067 = PRODUCT_RELATED_PRODUCT_CATEGORY('part',$,(#7));
ENDSEC;
END-ISO-10303-21;
