ISO-10303-21;
HEADER;
FILE_DESCRIPTION(('Open CASCADE Model'),'2;1');
FILE_NAME('Open CASCADE Shape Model','2026-10-06T13:00:52',('Author'),(
    'Open CASCADE'),'Open CASCADE STEP processor 7.9','Open CASCADE 7.9'
  ,'Unknown');
FILE_SCHEMA(('AUTOMOTIVE_DESIGN { 1 0 10303 214 1 1 1 1 }'));
ENDSEC;
DATA;
#1 = APPLICATION_PROTOCOL_DEFINITION('international standard',
  'automotive_design',2000,#2);
#2 = APPLICATION_CONTEXT(
  'core data for automotive mechanical design processes');
#3 = SHAPE_DEFINITION_REPRESENTATION(#4,#10);
#4 = PRODUCT_DEFINITION_SHAPE('','',#5);
#5 = PRODUCT_DEFINITION('design','',#6,#9);
#6 = PRODUCT_DEFINITION_FORMATION('','',#7);
#7 = PRODUCT('Open CASCADE STEP translator 7.9 25',
  'Open CASCADE STEP translator 7.9 25','',(#8));
#8 = PRODUCT_CONTEXT('',#2,'mechanical');
#9 = PRODUCT_DEFINITION_CONTEXT('part definition',#2,'design');
#10 = ADVANCED_BREP_SHAPE_REPRESENTATION('',(#11,#15),#604);
#11 = AXIS2_PLACEMENT_3D('',#12,#13,#14);
#12 = CARTESIAN_POINT('',(0.,0.,0.));
#13 = DIRECTION('',(0.,0.,1.));
#14 = DIRECTION('',(1.,0.,-0.));
#15 = MANIFOLD_SOLID_BREP('',#16);
#16 = CLOSED_SHELL('',(#17,#154,#232,#380,#425,#522,#547,#572,#597));
#17 = ADVANCED_FACE('',(#18),#32,.F.);
#18 = FACE_BOUND('',#19,.F.);
#19 = EDGE_LOOP('',(#20,#53,#81,#107));
#20 = ORIENTED_EDGE('',*,*,#21,.F.);
#21 = EDGE_CURVE('',#22,#24,#26,.T.);
#22 = VERTEX_POINT('',#23);
#23 = CARTESIAN_POINT('',(-232.,-161.8,0.));
#24 = VERTEX_POINT('',#25);
#25 = CARTESIAN_POINT('',(-232.,-161.8,33.053036998613));
#26 = SURFACE_CURVE('',#27,(#31,#42),.PCURVE_S1.);
#27 = LINE('',#28,#29);
#28 = CARTESIAN_POINT('',(-232.,-161.8,-0.5));
#29 = VECTOR('',#30,1.);
#30 = DIRECTION('',(0.,0.,1.));
#31 = PCURVE('',#32,#37);
#32 = PLANE('',#33);
#33 = AXIS2_PLACEMENT_3D('',#34,#35,#36);
#34 = CARTESIAN_POINT('',(-232.,-182.,0.));
#35 = DIRECTION('',(1.,0.,0.));
#36 = DIRECTION('',(0.,0.,1.));
#37 = DEFINITIONAL_REPRESENTATION('',(#38),#41);
#38 = B_SPLINE_CURVE_WITH_KNOTS('',1,(#39,#40),.UNSPECIFIED.,.F.,.F.,(2,
    2),(0.5,37.769664059638),.PIECEWISE_BEZIER_KNOTS.);
#39 = CARTESIAN_POINT('',(0.,-20.2));
#40 = CARTESIAN_POINT('',(37.269664059638,-20.2));
#41 = ( GEOMETRIC_REPRESENTATION_CONTEXT(2) 
PARAMETRIC_REPRESENTATION_CONTEXT() REPRESENTATION_CONTEXT('2D SPACE',''
  ) );
#42 = PCURVE('',#43,#48);
#43 = PLANE('',#44);
#44 = AXIS2_PLACEMENT_3D('',#45,#46,#47);
#45 = CARTESIAN_POINT('',(-242.,-161.8,-1.));
#46 = DIRECTION('',(0.,1.,0.));
#47 = DIRECTION('',(0.,0.,1.));
#48 = DEFINITIONAL_REPRESENTATION('',(#49),#52);
#49 = B_SPLINE_CURVE_WITH_KNOTS('',1,(#50,#51),.UNSPECIFIED.,.F.,.F.,(2,
    2),(0.5,37.769664059638),.PIECEWISE_BEZIER_KNOTS.);
#50 = CARTESIAN_POINT('',(1.,10.));
#51 = CARTESIAN_POINT('',(38.269664059638,10.));
#52 = ( GEOMETRIC_REPRESENTATION_CONTEXT(2) 
PARAMETRIC_REPRESENTATION_CONTEXT() REPRESENTATION_CONTEXT('2D SPACE',''
  ) );
#53 = ORIENTED_EDGE('',*,*,#54,.T.);
#54 = EDGE_CURVE('',#22,#55,#57,.T.);
#55 = VERTEX_POINT('',#56);
#56 = CARTESIAN_POINT('',(-232.,22.,0.));
#57 = SURFACE_CURVE('',#58,(#62,#69),.PCURVE_S1.);
#58 = LINE('',#59,#60);
#59 = CARTESIAN_POINT('',(-232.,-182.,0.));
#60 = VECTOR('',#61,1.);
#61 = DIRECTION('',(0.,1.,0.));
#62 = PCURVE('',#32,#63);
#63 = DEFINITIONAL_REPRESENTATION('',(#64),#68);
#64 = LINE('',#65,#66);
#65 = CARTESIAN_POINT('',(0.,0.));
#66 = VECTOR('',#67,1.);
#67 = DIRECTION('',(0.,-1.));
#68 = ( GEOMETRIC_REPRESENTATION_CONTEXT(2) 
PARAMETRIC_REPRESENTATION_CONTEXT() REPRESENTATION_CONTEXT('2D SPACE',''
  ) );
#69 = PCURVE('',#70,#75);
#70 = PLANE('',#71);
#71 = AXIS2_PLACEMENT_3D('',#72,#73,#74);
#72 = CARTESIAN_POINT('',(-232.,-182.,0.));
#73 = DIRECTION('',(0.,0.,1.));
#74 = DIRECTION('',(1.,0.,0.));
#75 = DEFINITIONAL_REPRESENTATION('',(#76),#80);
#76 = LINE('',#77,#78);
#77 = CARTESIAN_POINT('',(0.,0.));
#78 = VECTOR('',#79,1.);
#79 = DIRECTION('',(0.,1.));
#80 = ( GEOMETRIC_REPRESENTATION_CONTEXT(2) 
PARAMETRIC_REPRESENTATION_CONTEXT() REPRESENTATION_CONTEXT('2D SPACE',''
  ) );
#81 = ORIENTED_EDGE('',*,*,#82,.T.);
#82 = EDGE_CURVE('',#55,#83,#85,.T.);
#83 = VERTEX_POINT('',#84);
#84 = CARTESIAN_POINT('',(-232.,22.,10.25203152348));
#85 = SURFACE_CURVE('',#86,(#90,#96),.PCURVE_S1.);
#86 = LINE('',#87,#88);
#87 = CARTESIAN_POINT('',(-232.,22.,-1.));
#88 = VECTOR('',#89,1.);
#89 = DIRECTION('',(0.,0.,1.));
#90 = PCURVE('',#32,#91);
#91 = DEFINITIONAL_REPRESENTATION('',(#92),#95);
#92 = B_SPLINE_CURVE_WITH_KNOTS('',1,(#93,#94),.UNSPECIFIED.,.F.,.F.,(2,
    2),(1.,34.053036998613),.PIECEWISE_BEZIER_KNOTS.);
#93 = CARTESIAN_POINT('',(0.,-204.));
#94 = CARTESIAN_POINT('',(33.053036998613,-204.));
#95 = ( GEOMETRIC_REPRESENTATION_CONTEXT(2) 
PARAMETRIC_REPRESENTATION_CONTEXT() REPRESENTATION_CONTEXT('2D SPACE',''
  ) );
#96 = PCURVE('',#97,#102);
#97 = PLANE('',#98);
#98 = AXIS2_PLACEMENT_3D('',#99,#100,#101);
#99 = CARTESIAN_POINT('',(-400.,22.,-2.));
#100 = DIRECTION('',(0.,1.,0.));
#101 = DIRECTION('',(0.,0.,1.));
#102 = DEFINITIONAL_REPRESENTATION('',(#103),#106);
#103 = B_SPLINE_CURVE_WITH_KNOTS('',1,(#104,#105),.UNSPECIFIED.,.F.,.F.,
  (2,2),(1.,34.053036998613),.PIECEWISE_BEZIER_KNOTS.);
#104 = CARTESIAN_POINT('',(2.,168.));
#105 = CARTESIAN_POINT('',(35.053036998613,168.));
#106 = ( GEOMETRIC_REPRESENTATION_CONTEXT(2) 
PARAMETRIC_REPRESENTATION_CONTEXT() REPRESENTATION_CONTEXT('2D SPACE',''
  ) );
#107 = ORIENTED_EDGE('',*,*,#108,.T.);
#108 = EDGE_CURVE('',#83,#24,#109,.T.);
#109 = SURFACE_CURVE('',#110,(#115,#122),.PCURVE_S1.);
#110 = HYPERBOLA('',#111,41.808351261635,156.);
#111 = AXIS2_PLACEMENT_3D('',#112,#113,#114);
#112 = CARTESIAN_POINT('',(-232.,22.,-31.55631973815));
#113 = DIRECTION('',(1.,0.,0.));
#114 = DIRECTION('',(-0.,0.,1.));
#115 = PCURVE('',#32,#116);
#116 = DEFINITIONAL_REPRESENTATION('',(#117),#121);
#117 = ( BOUNDED_CURVE() B_SPLINE_CURVE(2,(#118,#119,#120),
.UNSPECIFIED.,.F.,.F.) B_SPLINE_CURVE_WITH_KNOTS((3,3),(-1.053187003289,
1.217306800473),.PIECEWISE_BEZIER_KNOTS.) CURVE() 
GEOMETRIC_REPRESENTATION_ITEM() RATIONAL_B_SPLINE_CURVE((1.,
1.716642281874,1.)) REPRESENTATION_ITEM('') );
#118 = CARTESIAN_POINT('',(35.663090167889,-400.4));
#119 = CARTESIAN_POINT('',(-7.119548132127,-196.5344283082));
#120 = CARTESIAN_POINT('',(45.247795286019,36.4));
#121 = ( GEOMETRIC_REPRESENTATION_CONTEXT(2) 
PARAMETRIC_REPRESENTATION_CONTEXT() REPRESENTATION_CONTEXT('2D SPACE',''
  ) );
#122 = PCURVE('',#123,#128);
#123 = CONICAL_SURFACE('',#124,142.,1.308947434702);
#124 = AXIS2_PLACEMENT_3D('',#125,#126,#127);
#125 = CARTESIAN_POINT('',(-76.,22.,6.5));
#126 = DIRECTION('',(0.,0.,1.));
#127 = DIRECTION('',(1.,0.,0.));
#128 = DEFINITIONAL_REPRESENTATION('',(#129),#153);
#129 = B_SPLINE_CURVE_WITH_KNOTS('',8,(#130,#131,#132,#133,#134,#135,
    #136,#137,#138,#139,#140,#141,#142,#143,#144,#145,#146,#147,#148,
    #149,#150,#151,#152),.UNSPECIFIED.,.F.,.F.,(9,7,7,9),(
    -1.053187003289,-0.485563552349,0.365871624062,1.217306800473),
  .UNSPECIFIED.);
#130 = CARTESIAN_POINT('',(2.242050359116,29.163090167889));
#131 = CARTESIAN_POINT('',(2.286180842882,25.428437057299));
#132 = CARTESIAN_POINT('',(2.333113426687,22.080531263144));
#133 = CARTESIAN_POINT('',(2.382924841849,19.090723099081));
#134 = CARTESIAN_POINT('',(2.435651589202,16.434516035979));
#135 = CARTESIAN_POINT('',(2.49127425434,14.091106550803));
#136 = CARTESIAN_POINT('',(2.549694550481,12.04303196793));
#137 = CARTESIAN_POINT('',(2.610718171319,10.275909556237));
#138 = CARTESIAN_POINT('',(2.769064083592,6.53176102891));
#139 = CARTESIAN_POINT('',(2.869280089789,4.891563700601));
#140 = CARTESIAN_POINT('',(2.973728610605,3.818882598454));
#141 = CARTESIAN_POINT('',(3.080969179355,3.289592981075));
#142 = CARTESIAN_POINT('',(3.189071446539,3.292815690703));
#143 = CARTESIAN_POINT('',(3.295950485579,3.830395853546));
#144 = CARTESIAN_POINT('',(3.39988176544,4.917100921501));
#145 = CARTESIAN_POINT('',(3.599247302785,8.246223256528));
#146 = CARTESIAN_POINT('',(3.694681762686,10.488640532368));
#147 = CARTESIAN_POINT('',(3.784570611308,13.337645026995));
#148 = CARTESIAN_POINT('',(3.868049503857,16.835932013358));
#149 = CARTESIAN_POINT('',(3.944828269458,21.041200628521));
#150 = CARTESIAN_POINT('',(4.014993433279,26.028043205032));
#151 = CARTESIAN_POINT('',(4.07883955282,31.89078962574));
#152 = CARTESIAN_POINT('',(4.136774438406,38.747795286019));
#153 = ( GEOMETRIC_REPRESENTATION_CONTEXT(2) 
PARAMETRIC_REPRESENTATION_CONTEXT() REPRESENTATION_CONTEXT('2D SPACE',''
  ) );
#154 = ADVANCED_FACE('',(#155),#43,.F.);
#155 = FACE_BOUND('',#156,.F.);
#156 = EDGE_LOOP('',(#157,#187,#206,#207));
#157 = ORIENTED_EDGE('',*,*,#158,.F.);
#158 = EDGE_CURVE('',#159,#161,#163,.T.);
#159 = VERTEX_POINT('',#160);
#160 = CARTESIAN_POINT('',(-211.8,-161.8,0.));
#161 = VERTEX_POINT('',#162);
#162 = CARTESIAN_POINT('',(-211.8,-161.8,29.689131940906));
#163 = SURFACE_CURVE('',#164,(#168,#175),.PCURVE_S1.);
#164 = LINE('',#165,#166);
#165 = CARTESIAN_POINT('',(-211.8,-161.8,-1.));
#166 = VECTOR('',#167,1.);
#167 = DIRECTION('',(0.,0.,1.));
#168 = PCURVE('',#43,#169);
#169 = DEFINITIONAL_REPRESENTATION('',(#170),#174);
#170 = LINE('',#171,#172);
#171 = CARTESIAN_POINT('',(0.,30.2));
#172 = VECTOR('',#173,1.);
#173 = DIRECTION('',(1.,0.));
#174 = ( GEOMETRIC_REPRESENTATION_CONTEXT(2) 
PARAMETRIC_REPRESENTATION_CONTEXT() REPRESENTATION_CONTEXT('2D SPACE',''
  ) );
#175 = PCURVE('',#176,#181);
#176 = PLANE('',#177);
#177 = AXIS2_PLACEMENT_3D('',#178,#179,#180);
#178 = CARTESIAN_POINT('',(-211.8,-192.,-1.));
#179 = DIRECTION('',(1.,0.,0.));
#180 = DIRECTION('',(0.,0.,1.));
#181 = DEFINITIONAL_REPRESENTATION('',(#182),#186);
#182 = LINE('',#183,#184);
#183 = CARTESIAN_POINT('',(0.,-30.2));
#184 = VECTOR('',#185,1.);
#185 = DIRECTION('',(1.,0.));
#186 = ( GEOMETRIC_REPRESENTATION_CONTEXT(2) 
PARAMETRIC_REPRESENTATION_CONTEXT() REPRESENTATION_CONTEXT('2D SPACE',''
  ) );
#187 = ORIENTED_EDGE('',*,*,#188,.T.);
#188 = EDGE_CURVE('',#159,#22,#189,.T.);
#189 = SURFACE_CURVE('',#190,(#194,#200),.PCURVE_S1.);
#190 = LINE('',#191,#192);
#191 = CARTESIAN_POINT('',(-237.,-161.8,0.));
#192 = VECTOR('',#193,1.);
#193 = DIRECTION('',(-1.,0.,0.));
#194 = PCURVE('',#43,#195);
#195 = DEFINITIONAL_REPRESENTATION('',(#196),#199);
#196 = B_SPLINE_CURVE_WITH_KNOTS('',1,(#197,#198),.UNSPECIFIED.,.F.,.F.,
  (2,2),(-25.2,-5.),.PIECEWISE_BEZIER_KNOTS.);
#197 = CARTESIAN_POINT('',(1.,30.2));
#198 = CARTESIAN_POINT('',(1.,10.));
#199 = ( GEOMETRIC_REPRESENTATION_CONTEXT(2) 
PARAMETRIC_REPRESENTATION_CONTEXT() REPRESENTATION_CONTEXT('2D SPACE',''
  ) );
#200 = PCURVE('',#70,#201);
#201 = DEFINITIONAL_REPRESENTATION('',(#202),#205);
#202 = B_SPLINE_CURVE_WITH_KNOTS('',1,(#203,#204),.UNSPECIFIED.,.F.,.F.,
  (2,2),(-25.2,-5.),.PIECEWISE_BEZIER_KNOTS.);
#203 = CARTESIAN_POINT('',(20.2,20.2));
#204 = CARTESIAN_POINT('',(0.,20.2));
#205 = ( GEOMETRIC_REPRESENTATION_CONTEXT(2) 
PARAMETRIC_REPRESENTATION_CONTEXT() REPRESENTATION_CONTEXT('2D SPACE',''
  ) );
#206 = ORIENTED_EDGE('',*,*,#21,.T.);
#207 = ORIENTED_EDGE('',*,*,#208,.T.);
#208 = EDGE_CURVE('',#24,#161,#209,.T.);
#209 = SURFACE_CURVE('',#210,(#215,#222),.PCURVE_S1.);
#210 = HYPERBOLA('',#211,49.25881385826,183.8);
#211 = AXIS2_PLACEMENT_3D('',#212,#213,#214);
#212 = CARTESIAN_POINT('',(-76.,-161.8,-31.55631973815));
#213 = DIRECTION('',(0.,1.,0.));
#214 = DIRECTION('',(0.,-0.,1.));
#215 = PCURVE('',#43,#216);
#216 = DEFINITIONAL_REPRESENTATION('',(#217),#221);
#217 = ( BOUNDED_CURVE() B_SPLINE_CURVE(2,(#218,#219,#220),
.UNSPECIFIED.,.F.,.F.) B_SPLINE_CURVE_WITH_KNOTS((3,3),(-0.823354756815,
-0.670933502515),.PIECEWISE_BEZIER_KNOTS.) CURVE() 
GEOMETRIC_REPRESENTATION_ITEM() RATIONAL_B_SPLINE_CURVE((1.,
1.002905435682,1.)) REPRESENTATION_ITEM('') );
#218 = CARTESIAN_POINT('',(36.363901751595,-3.02));
#219 = CARTESIAN_POINT('',(32.918400511156,15.973053746852));
#220 = CARTESIAN_POINT('',(30.211657790145,33.22));
#221 = ( GEOMETRIC_REPRESENTATION_CONTEXT(2) 
PARAMETRIC_REPRESENTATION_CONTEXT() REPRESENTATION_CONTEXT('2D SPACE',''
  ) );
#222 = PCURVE('',#123,#223);
#223 = DEFINITIONAL_REPRESENTATION('',(#224),#231);
#224 = B_SPLINE_CURVE_WITH_KNOTS('',5,(#225,#226,#227,#228,#229,#230),
  .UNSPECIFIED.,.F.,.F.,(6,6),(-0.823354756815,-0.670933502515),
  .PIECEWISE_BEZIER_KNOTS.);
#225 = CARTESIAN_POINT('',(3.968857387707,28.863901751595));
#226 = CARTESIAN_POINT('',(3.991296315811,27.483034064413));
#227 = CARTESIAN_POINT('',(4.014314013568,26.179901681005));
#228 = CARTESIAN_POINT('',(4.037906856701,24.951831374814));
#229 = CARTESIAN_POINT('',(4.062066138439,23.796450190476));
#230 = CARTESIAN_POINT('',(4.086776818304,22.711657790145));
#231 = ( GEOMETRIC_REPRESENTATION_CONTEXT(2) 
PARAMETRIC_REPRESENTATION_CONTEXT() REPRESENTATION_CONTEXT('2D SPACE',''
  ) );
#232 = ADVANCED_FACE('',(#233),#123,.F.);
#233 = FACE_BOUND('',#234,.F.);
#234 = EDGE_LOOP('',(#235,#256,#285,#311,#353,#378,#379));
#235 = ORIENTED_EDGE('',*,*,#236,.F.);
#236 = EDGE_CURVE('',#237,#83,#239,.T.);
#237 = VERTEX_POINT('',#238);
#238 = CARTESIAN_POINT('',(-218.,22.,6.5));
#239 = SURFACE_CURVE('',#240,(#244,#250),.PCURVE_S1.);
#240 = LINE('',#241,#242);
#241 = CARTESIAN_POINT('',(-76.,22.,-31.55631973815));
#242 = VECTOR('',#243,1.);
#243 = DIRECTION('',(-0.965913012451,0.,0.258866862261));
#244 = PCURVE('',#123,#245);
#245 = DEFINITIONAL_REPRESENTATION('',(#246),#249);
#246 = B_SPLINE_CURVE_WITH_KNOTS('',1,(#247,#248),.UNSPECIFIED.,.F.,.F.,
  (2,2),(147.01116784793,342.09214329173),.PIECEWISE_BEZIER_KNOTS.);
#247 = CARTESIAN_POINT('',(3.14159265359,0.));
#248 = CARTESIAN_POINT('',(3.14159265359,50.5));
#249 = ( GEOMETRIC_REPRESENTATION_CONTEXT(2) 
PARAMETRIC_REPRESENTATION_CONTEXT() REPRESENTATION_CONTEXT('2D SPACE',''
  ) );
#250 = PCURVE('',#97,#251);
#251 = DEFINITIONAL_REPRESENTATION('',(#252),#255);
#252 = B_SPLINE_CURVE_WITH_KNOTS('',1,(#253,#254),.UNSPECIFIED.,.F.,.F.,
  (2,2),(147.01116784793,342.09214329173),.PIECEWISE_BEZIER_KNOTS.);
#253 = CARTESIAN_POINT('',(8.5,182.));
#254 = CARTESIAN_POINT('',(59.,-6.43125266289));
#255 = ( GEOMETRIC_REPRESENTATION_CONTEXT(2) 
PARAMETRIC_REPRESENTATION_CONTEXT() REPRESENTATION_CONTEXT('2D SPACE',''
  ) );
#256 = ORIENTED_EDGE('',*,*,#257,.T.);
#257 = EDGE_CURVE('',#237,#258,#260,.T.);
#258 = VERTEX_POINT('',#259);
#259 = CARTESIAN_POINT('',(-76.,-120.,6.5));
#260 = SURFACE_CURVE('',#261,(#266,#273),.PCURVE_S1.);
#261 = CIRCLE('',#262,142.);
#262 = AXIS2_PLACEMENT_3D('',#263,#264,#265);
#263 = CARTESIAN_POINT('',(-76.,22.,6.5));
#264 = DIRECTION('',(0.,0.,1.));
#265 = DIRECTION('',(1.,0.,0.));
#266 = PCURVE('',#123,#267);
#267 = DEFINITIONAL_REPRESENTATION('',(#268),#272);
#268 = LINE('',#269,#270);
#269 = CARTESIAN_POINT('',(0.,0.));
#270 = VECTOR('',#271,1.);
#271 = DIRECTION('',(1.,0.));
#272 = ( GEOMETRIC_REPRESENTATION_CONTEXT(2) 
PARAMETRIC_REPRESENTATION_CONTEXT() REPRESENTATION_CONTEXT('2D SPACE',''
  ) );
#273 = PCURVE('',#274,#279);
#274 = CYLINDRICAL_SURFACE('',#275,142.);
#275 = AXIS2_PLACEMENT_3D('',#276,#277,#278);
#276 = CARTESIAN_POINT('',(-76.,22.,-1.));
#277 = DIRECTION('',(-0.,-0.,-1.));
#278 = DIRECTION('',(1.,0.,0.));
#279 = DEFINITIONAL_REPRESENTATION('',(#280),#284);
#280 = LINE('',#281,#282);
#281 = CARTESIAN_POINT('',(-0.,-7.5));
#282 = VECTOR('',#283,1.);
#283 = DIRECTION('',(-1.,0.));
#284 = ( GEOMETRIC_REPRESENTATION_CONTEXT(2) 
PARAMETRIC_REPRESENTATION_CONTEXT() REPRESENTATION_CONTEXT('2D SPACE',''
  ) );
#285 = ORIENTED_EDGE('',*,*,#286,.T.);
#286 = EDGE_CURVE('',#258,#287,#289,.T.);
#287 = VERTEX_POINT('',#288);
#288 = CARTESIAN_POINT('',(-76.,-182.,23.116139603983));
#289 = SURFACE_CURVE('',#290,(#294,#300),.PCURVE_S1.);
#290 = LINE('',#291,#292);
#291 = CARTESIAN_POINT('',(-76.,22.,-31.55631973815));
#292 = VECTOR('',#293,1.);
#293 = DIRECTION('',(0.,-0.965913012451,0.258866862261));
#294 = PCURVE('',#123,#295);
#295 = DEFINITIONAL_REPRESENTATION('',(#296),#299);
#296 = B_SPLINE_CURVE_WITH_KNOTS('',1,(#297,#298),.UNSPECIFIED.,.F.,.F.,
  (2,2),(147.01116784793,342.09214329173),.PIECEWISE_BEZIER_KNOTS.);
#297 = CARTESIAN_POINT('',(4.712388980385,0.));
#298 = CARTESIAN_POINT('',(4.712388980385,50.5));
#299 = ( GEOMETRIC_REPRESENTATION_CONTEXT(2) 
PARAMETRIC_REPRESENTATION_CONTEXT() REPRESENTATION_CONTEXT('2D SPACE',''
  ) );
#300 = PCURVE('',#301,#306);
#301 = PLANE('',#302);
#302 = AXIS2_PLACEMENT_3D('',#303,#304,#305);
#303 = CARTESIAN_POINT('',(-76.,-400.,-2.));
#304 = DIRECTION('',(1.,0.,0.));
#305 = DIRECTION('',(0.,0.,1.));
#306 = DEFINITIONAL_REPRESENTATION('',(#307),#310);
#307 = B_SPLINE_CURVE_WITH_KNOTS('',1,(#308,#309),.UNSPECIFIED.,.F.,.F.,
  (2,2),(147.01116784793,342.09214329173),.PIECEWISE_BEZIER_KNOTS.);
#308 = CARTESIAN_POINT('',(8.5,-280.));
#309 = CARTESIAN_POINT('',(59.,-91.56874733711));
#310 = ( GEOMETRIC_REPRESENTATION_CONTEXT(2) 
PARAMETRIC_REPRESENTATION_CONTEXT() REPRESENTATION_CONTEXT('2D SPACE',''
  ) );
#311 = ORIENTED_EDGE('',*,*,#312,.F.);
#312 = EDGE_CURVE('',#313,#287,#315,.T.);
#313 = VERTEX_POINT('',#314);
#314 = CARTESIAN_POINT('',(-211.8,-182.,34.122081728136));
#315 = SURFACE_CURVE('',#316,(#321,#341),.PCURVE_S1.);
#316 = HYPERBOLA('',#317,54.672459342138,204.);
#317 = AXIS2_PLACEMENT_3D('',#318,#319,#320);
#318 = CARTESIAN_POINT('',(-76.,-182.,-31.55631973815));
#319 = DIRECTION('',(0.,1.,0.));
#320 = DIRECTION('',(0.,-0.,1.));
#321 = PCURVE('',#123,#322);
#322 = DEFINITIONAL_REPRESENTATION('',(#323),#340);
#323 = B_SPLINE_CURVE_WITH_KNOTS('',8,(#324,#325,#326,#327,#328,#329,
    #330,#331,#332,#333,#334,#335,#336,#337,#338,#339),.UNSPECIFIED.,.F.
  ,.F.,(9,7,9),(-0.875816762925,9.347919291466E-02,1.062775148754),
  .UNSPECIFIED.);
#324 = CARTESIAN_POINT('',(3.93092780452,38.959600684172));
#325 = CARTESIAN_POINT('',(4.016938906909,32.387331166897));
#326 = CARTESIAN_POINT('',(4.111338023217,27.107188876844));
#327 = CARTESIAN_POINT('',(4.214114023351,22.972153166689));
#328 = CARTESIAN_POINT('',(4.324702010934,19.875668988117));
#329 = CARTESIAN_POINT('',(4.441808280919,17.744744689302));
#330 = CARTESIAN_POINT('',(4.56290652684,16.536201254448));
#331 = CARTESIAN_POINT('',(4.685097790916,16.235058038391));
#332 = CARTESIAN_POINT('',(4.926366864076,17.475316770036));
#333 = CARTESIAN_POINT('',(5.045443868982,19.016718727161));
#334 = CARTESIAN_POINT('',(5.160316636553,21.493265257194));
#335 = CARTESIAN_POINT('',(5.268553633599,24.947681800606));
#336 = CARTESIAN_POINT('',(5.368645843122,29.452194111813));
#337 = CARTESIAN_POINT('',(5.460137137355,35.111450710233));
#338 = CARTESIAN_POINT('',(5.543078490364,42.067768885862));
#339 = CARTESIAN_POINT('',(5.617872432763,50.51));
#340 = ( GEOMETRIC_REPRESENTATION_CONTEXT(2) 
PARAMETRIC_REPRESENTATION_CONTEXT() REPRESENTATION_CONTEXT('2D SPACE',''
  ) );
#341 = PCURVE('',#342,#347);
#342 = PLANE('',#343);
#343 = AXIS2_PLACEMENT_3D('',#344,#345,#346);
#344 = CARTESIAN_POINT('',(-232.,-182.,0.));
#345 = DIRECTION('',(0.,1.,0.));
#346 = DIRECTION('',(0.,0.,1.));
#347 = DEFINITIONAL_REPRESENTATION('',(#348),#352);
#348 = ( BOUNDED_CURVE() B_SPLINE_CURVE(2,(#349,#350,#351),
.UNSPECIFIED.,.F.,.F.) B_SPLINE_CURVE_WITH_KNOTS((3,3),(-0.875816762925,
1.062775148754),.PIECEWISE_BEZIER_KNOTS.) CURVE() 
GEOMETRIC_REPRESENTATION_ITEM() RATIONAL_B_SPLINE_CURVE((1.,
1.507718953435,1.)) REPRESENTATION_ITEM('') );
#349 = CARTESIAN_POINT('',(45.459600684172,-46.4));
#350 = CARTESIAN_POINT('',(4.863934193957,168.66651222441));
#351 = CARTESIAN_POINT('',(57.01,415.98744771654));
#352 = ( GEOMETRIC_REPRESENTATION_CONTEXT(2) 
PARAMETRIC_REPRESENTATION_CONTEXT() REPRESENTATION_CONTEXT('2D SPACE',''
  ) );
#353 = ORIENTED_EDGE('',*,*,#354,.F.);
#354 = EDGE_CURVE('',#161,#313,#355,.T.);
#355 = SURFACE_CURVE('',#356,(#361,#371),.PCURVE_S1.);
#356 = HYPERBOLA('',#357,36.394705777757,135.8);
#357 = AXIS2_PLACEMENT_3D('',#358,#359,#360);
#358 = CARTESIAN_POINT('',(-211.8,22.,-31.55631973815));
#359 = DIRECTION('',(1.,0.,0.));
#360 = DIRECTION('',(-0.,0.,1.));
#361 = PCURVE('',#123,#362);
#362 = DEFINITIONAL_REPRESENTATION('',(#363),#370);
#363 = B_SPLINE_CURVE_WITH_KNOTS('',5,(#364,#365,#366,#367,#368,#369),
  .UNSPECIFIED.,.F.,.F.,(6,6),(1.097345078195,1.247968165614),
  .PIECEWISE_BEZIER_KNOTS.);
#364 = CARTESIAN_POINT('',(4.068127159853,22.540078908087));
#365 = CARTESIAN_POINT('',(4.086220258032,23.999599968015));
#366 = CARTESIAN_POINT('',(4.103768618708,25.527859482795));
#367 = CARTESIAN_POINT('',(4.120781776182,27.127616985582));
#368 = CARTESIAN_POINT('',(4.137271635101,28.801891262659));
#369 = CARTESIAN_POINT('',(4.153251398477,30.553994705658));
#370 = ( GEOMETRIC_REPRESENTATION_CONTEXT(2) 
PARAMETRIC_REPRESENTATION_CONTEXT() REPRESENTATION_CONTEXT('2D SPACE',''
  ) );
#371 = PCURVE('',#176,#372);
#372 = DEFINITIONAL_REPRESENTATION('',(#373),#377);
#373 = ( BOUNDED_CURVE() B_SPLINE_CURVE(2,(#374,#375,#376),
.UNSPECIFIED.,.F.,.F.) B_SPLINE_CURVE_WITH_KNOTS((3,3),(1.097345078195,
1.247968165614),.PIECEWISE_BEZIER_KNOTS.) CURVE() 
GEOMETRIC_REPRESENTATION_ITEM() RATIONAL_B_SPLINE_CURVE((1.,
1.002837254963,1.)) REPRESENTATION_ITEM('') );
#374 = CARTESIAN_POINT('',(30.040078908087,-33.22));
#375 = CARTESIAN_POINT('',(33.68199871172,-16.22387468715));
#376 = CARTESIAN_POINT('',(38.053994705658,3.02));
#377 = ( GEOMETRIC_REPRESENTATION_CONTEXT(2) 
PARAMETRIC_REPRESENTATION_CONTEXT() REPRESENTATION_CONTEXT('2D SPACE',''
  ) );
#378 = ORIENTED_EDGE('',*,*,#208,.F.);
#379 = ORIENTED_EDGE('',*,*,#108,.F.);
#380 = ADVANCED_FACE('',(#381),#97,.T.);
#381 = FACE_BOUND('',#382,.T.);
#382 = EDGE_LOOP('',(#383,#404,#405,#406));
#383 = ORIENTED_EDGE('',*,*,#384,.T.);
#384 = EDGE_CURVE('',#385,#55,#387,.T.);
#385 = VERTEX_POINT('',#386);
#386 = CARTESIAN_POINT('',(-218.,22.,0.));
#387 = SURFACE_CURVE('',#388,(#392,#398),.PCURVE_S1.);
#388 = LINE('',#389,#390);
#389 = CARTESIAN_POINT('',(-316.,22.,0.));
#390 = VECTOR('',#391,1.);
#391 = DIRECTION('',(-1.,0.,0.));
#392 = PCURVE('',#97,#393);
#393 = DEFINITIONAL_REPRESENTATION('',(#394),#397);
#394 = B_SPLINE_CURVE_WITH_KNOTS('',1,(#395,#396),.UNSPECIFIED.,.F.,.F.,
  (2,2),(-240.,-84.),.PIECEWISE_BEZIER_KNOTS.);
#395 = CARTESIAN_POINT('',(2.,324.));
#396 = CARTESIAN_POINT('',(2.,168.));
#397 = ( GEOMETRIC_REPRESENTATION_CONTEXT(2) 
PARAMETRIC_REPRESENTATION_CONTEXT() REPRESENTATION_CONTEXT('2D SPACE',''
  ) );
#398 = PCURVE('',#70,#399);
#399 = DEFINITIONAL_REPRESENTATION('',(#400),#403);
#400 = B_SPLINE_CURVE_WITH_KNOTS('',1,(#401,#402),.UNSPECIFIED.,.F.,.F.,
  (2,2),(-240.,-84.),.PIECEWISE_BEZIER_KNOTS.);
#401 = CARTESIAN_POINT('',(156.,204.));
#402 = CARTESIAN_POINT('',(0.,204.));
#403 = ( GEOMETRIC_REPRESENTATION_CONTEXT(2) 
PARAMETRIC_REPRESENTATION_CONTEXT() REPRESENTATION_CONTEXT('2D SPACE',''
  ) );
#404 = ORIENTED_EDGE('',*,*,#82,.T.);
#405 = ORIENTED_EDGE('',*,*,#236,.F.);
#406 = ORIENTED_EDGE('',*,*,#407,.T.);
#407 = EDGE_CURVE('',#237,#385,#408,.T.);
#408 = SURFACE_CURVE('',#409,(#413,#419),.PCURVE_S1.);
#409 = LINE('',#410,#411);
#410 = CARTESIAN_POINT('',(-218.,22.,-1.));
#411 = VECTOR('',#412,1.);
#412 = DIRECTION('',(-0.,-0.,-1.));
#413 = PCURVE('',#97,#414);
#414 = DEFINITIONAL_REPRESENTATION('',(#415),#418);
#415 = B_SPLINE_CURVE_WITH_KNOTS('',1,(#416,#417),.UNSPECIFIED.,.F.,.F.,
  (2,2),(-7.5000006,-0.9999994),.PIECEWISE_BEZIER_KNOTS.);
#416 = CARTESIAN_POINT('',(8.5000006,182.));
#417 = CARTESIAN_POINT('',(1.9999994,182.));
#418 = ( GEOMETRIC_REPRESENTATION_CONTEXT(2) 
PARAMETRIC_REPRESENTATION_CONTEXT() REPRESENTATION_CONTEXT('2D SPACE',''
  ) );
#419 = PCURVE('',#274,#420);
#420 = DEFINITIONAL_REPRESENTATION('',(#421),#424);
#421 = B_SPLINE_CURVE_WITH_KNOTS('',1,(#422,#423),.UNSPECIFIED.,.F.,.F.,
  (2,2),(-7.5000006,-0.9999994),.PIECEWISE_BEZIER_KNOTS.);
#422 = CARTESIAN_POINT('',(-3.14159265359,-7.5000006));
#423 = CARTESIAN_POINT('',(-3.14159265359,-0.9999994));
#424 = ( GEOMETRIC_REPRESENTATION_CONTEXT(2) 
PARAMETRIC_REPRESENTATION_CONTEXT() REPRESENTATION_CONTEXT('2D SPACE',''
  ) );
#425 = ADVANCED_FACE('',(#426),#70,.F.);
#426 = FACE_BOUND('',#427,.F.);
#427 = EDGE_LOOP('',(#428,#429,#430,#451,#474,#495,#521));
#428 = ORIENTED_EDGE('',*,*,#54,.F.);
#429 = ORIENTED_EDGE('',*,*,#188,.F.);
#430 = ORIENTED_EDGE('',*,*,#431,.F.);
#431 = EDGE_CURVE('',#432,#159,#434,.T.);
#432 = VERTEX_POINT('',#433);
#433 = CARTESIAN_POINT('',(-211.8,-182.,0.));
#434 = SURFACE_CURVE('',#435,(#439,#445),.PCURVE_S1.);
#435 = LINE('',#436,#437);
#436 = CARTESIAN_POINT('',(-211.8,-187.,0.));
#437 = VECTOR('',#438,1.);
#438 = DIRECTION('',(0.,1.,0.));
#439 = PCURVE('',#70,#440);
#440 = DEFINITIONAL_REPRESENTATION('',(#441),#444);
#441 = B_SPLINE_CURVE_WITH_KNOTS('',1,(#442,#443),.UNSPECIFIED.,.F.,.F.,
  (2,2),(5.,25.2),.PIECEWISE_BEZIER_KNOTS.);
#442 = CARTESIAN_POINT('',(20.2,0.));
#443 = CARTESIAN_POINT('',(20.2,20.2));
#444 = ( GEOMETRIC_REPRESENTATION_CONTEXT(2) 
PARAMETRIC_REPRESENTATION_CONTEXT() REPRESENTATION_CONTEXT('2D SPACE',''
  ) );
#445 = PCURVE('',#176,#446);
#446 = DEFINITIONAL_REPRESENTATION('',(#447),#450);
#447 = B_SPLINE_CURVE_WITH_KNOTS('',1,(#448,#449),.UNSPECIFIED.,.F.,.F.,
  (2,2),(5.,25.2),.PIECEWISE_BEZIER_KNOTS.);
#448 = CARTESIAN_POINT('',(1.,-10.));
#449 = CARTESIAN_POINT('',(1.,-30.2));
#450 = ( GEOMETRIC_REPRESENTATION_CONTEXT(2) 
PARAMETRIC_REPRESENTATION_CONTEXT() REPRESENTATION_CONTEXT('2D SPACE',''
  ) );
#451 = ORIENTED_EDGE('',*,*,#452,.T.);
#452 = EDGE_CURVE('',#432,#453,#455,.T.);
#453 = VERTEX_POINT('',#454);
#454 = CARTESIAN_POINT('',(-76.,-182.,0.));
#455 = SURFACE_CURVE('',#456,(#460,#467),.PCURVE_S1.);
#456 = LINE('',#457,#458);
#457 = CARTESIAN_POINT('',(-232.,-182.,0.));
#458 = VECTOR('',#459,1.);
#459 = DIRECTION('',(1.,0.,0.));
#460 = PCURVE('',#70,#461);
#461 = DEFINITIONAL_REPRESENTATION('',(#462),#466);
#462 = LINE('',#463,#464);
#463 = CARTESIAN_POINT('',(0.,0.));
#464 = VECTOR('',#465,1.);
#465 = DIRECTION('',(1.,0.));
#466 = ( GEOMETRIC_REPRESENTATION_CONTEXT(2) 
PARAMETRIC_REPRESENTATION_CONTEXT() REPRESENTATION_CONTEXT('2D SPACE',''
  ) );
#467 = PCURVE('',#342,#468);
#468 = DEFINITIONAL_REPRESENTATION('',(#469),#473);
#469 = LINE('',#470,#471);
#470 = CARTESIAN_POINT('',(0.,0.));
#471 = VECTOR('',#472,1.);
#472 = DIRECTION('',(0.,1.));
#473 = ( GEOMETRIC_REPRESENTATION_CONTEXT(2) 
PARAMETRIC_REPRESENTATION_CONTEXT() REPRESENTATION_CONTEXT('2D SPACE',''
  ) );
#474 = ORIENTED_EDGE('',*,*,#475,.T.);
#475 = EDGE_CURVE('',#453,#476,#478,.T.);
#476 = VERTEX_POINT('',#477);
#477 = CARTESIAN_POINT('',(-76.,-120.,0.));
#478 = SURFACE_CURVE('',#479,(#483,#489),.PCURVE_S1.);
#479 = LINE('',#480,#481);
#480 = CARTESIAN_POINT('',(-76.,-291.,0.));
#481 = VECTOR('',#482,1.);
#482 = DIRECTION('',(0.,1.,0.));
#483 = PCURVE('',#70,#484);
#484 = DEFINITIONAL_REPRESENTATION('',(#485),#488);
#485 = B_SPLINE_CURVE_WITH_KNOTS('',1,(#486,#487),.UNSPECIFIED.,.F.,.F.,
  (2,2),(109.,313.),.PIECEWISE_BEZIER_KNOTS.);
#486 = CARTESIAN_POINT('',(156.,0.));
#487 = CARTESIAN_POINT('',(156.,204.));
#488 = ( GEOMETRIC_REPRESENTATION_CONTEXT(2) 
PARAMETRIC_REPRESENTATION_CONTEXT() REPRESENTATION_CONTEXT('2D SPACE',''
  ) );
#489 = PCURVE('',#301,#490);
#490 = DEFINITIONAL_REPRESENTATION('',(#491),#494);
#491 = B_SPLINE_CURVE_WITH_KNOTS('',1,(#492,#493),.UNSPECIFIED.,.F.,.F.,
  (2,2),(109.,313.),.PIECEWISE_BEZIER_KNOTS.);
#492 = CARTESIAN_POINT('',(2.,-218.));
#493 = CARTESIAN_POINT('',(2.,-422.));
#494 = ( GEOMETRIC_REPRESENTATION_CONTEXT(2) 
PARAMETRIC_REPRESENTATION_CONTEXT() REPRESENTATION_CONTEXT('2D SPACE',''
  ) );
#495 = ORIENTED_EDGE('',*,*,#496,.T.);
#496 = EDGE_CURVE('',#476,#385,#497,.T.);
#497 = SURFACE_CURVE('',#498,(#503,#514),.PCURVE_S1.);
#498 = CIRCLE('',#499,142.);
#499 = AXIS2_PLACEMENT_3D('',#500,#501,#502);
#500 = CARTESIAN_POINT('',(-76.,22.,0.));
#501 = DIRECTION('',(0.,0.,-1.));
#502 = DIRECTION('',(1.,0.,0.));
#503 = PCURVE('',#70,#504);
#504 = DEFINITIONAL_REPRESENTATION('',(#505),#513);
#505 = ( BOUNDED_CURVE() B_SPLINE_CURVE(2,(#506,#507,#508,#509,#510,#511
,#512),.UNSPECIFIED.,.T.,.F.) B_SPLINE_CURVE_WITH_KNOTS((1,2,2,2,2,1),(
    -2.094395102393,0.,2.094395102393,4.188790204786,6.28318530718,
8.377580409573),.UNSPECIFIED.) CURVE() GEOMETRIC_REPRESENTATION_ITEM() 
RATIONAL_B_SPLINE_CURVE((1.,0.5,1.,0.5,1.,0.5,1.)) REPRESENTATION_ITEM(
  '') );
#506 = CARTESIAN_POINT('',(298.,204.));
#507 = CARTESIAN_POINT('',(298.,-41.95121467478));
#508 = CARTESIAN_POINT('',(85.,81.02439266261));
#509 = CARTESIAN_POINT('',(-128.,204.));
#510 = CARTESIAN_POINT('',(85.,326.97560733739));
#511 = CARTESIAN_POINT('',(298.,449.95121467478));
#512 = CARTESIAN_POINT('',(298.,204.));
#513 = ( GEOMETRIC_REPRESENTATION_CONTEXT(2) 
PARAMETRIC_REPRESENTATION_CONTEXT() REPRESENTATION_CONTEXT('2D SPACE',''
  ) );
#514 = PCURVE('',#274,#515);
#515 = DEFINITIONAL_REPRESENTATION('',(#516),#520);
#516 = LINE('',#517,#518);
#517 = CARTESIAN_POINT('',(-6.28318530718,-1.));
#518 = VECTOR('',#519,1.);
#519 = DIRECTION('',(1.,-0.));
#520 = ( GEOMETRIC_REPRESENTATION_CONTEXT(2) 
PARAMETRIC_REPRESENTATION_CONTEXT() REPRESENTATION_CONTEXT('2D SPACE',''
  ) );
#521 = ORIENTED_EDGE('',*,*,#384,.T.);
#522 = ADVANCED_FACE('',(#523),#176,.F.);
#523 = FACE_BOUND('',#524,.F.);
#524 = EDGE_LOOP('',(#525,#526,#527,#546));
#525 = ORIENTED_EDGE('',*,*,#158,.T.);
#526 = ORIENTED_EDGE('',*,*,#354,.T.);
#527 = ORIENTED_EDGE('',*,*,#528,.T.);
#528 = EDGE_CURVE('',#313,#432,#529,.T.);
#529 = SURFACE_CURVE('',#530,(#534,#540),.PCURVE_S1.);
#530 = LINE('',#531,#532);
#531 = CARTESIAN_POINT('',(-211.8,-182.,-0.5));
#532 = VECTOR('',#533,1.);
#533 = DIRECTION('',(0.,0.,-1.));
#534 = PCURVE('',#176,#535);
#535 = DEFINITIONAL_REPRESENTATION('',(#536),#539);
#536 = B_SPLINE_CURVE_WITH_KNOTS('',1,(#537,#538),.UNSPECIFIED.,.F.,.F.,
  (2,2),(-57.5,-0.5),.PIECEWISE_BEZIER_KNOTS.);
#537 = CARTESIAN_POINT('',(58.,-10.));
#538 = CARTESIAN_POINT('',(1.,-10.));
#539 = ( GEOMETRIC_REPRESENTATION_CONTEXT(2) 
PARAMETRIC_REPRESENTATION_CONTEXT() REPRESENTATION_CONTEXT('2D SPACE',''
  ) );
#540 = PCURVE('',#342,#541);
#541 = DEFINITIONAL_REPRESENTATION('',(#542),#545);
#542 = B_SPLINE_CURVE_WITH_KNOTS('',1,(#543,#544),.UNSPECIFIED.,.F.,.F.,
  (2,2),(-57.5,-0.5),.PIECEWISE_BEZIER_KNOTS.);
#543 = CARTESIAN_POINT('',(57.,20.2));
#544 = CARTESIAN_POINT('',(0.,20.2));
#545 = ( GEOMETRIC_REPRESENTATION_CONTEXT(2) 
PARAMETRIC_REPRESENTATION_CONTEXT() REPRESENTATION_CONTEXT('2D SPACE',''
  ) );
#546 = ORIENTED_EDGE('',*,*,#431,.T.);
#547 = ADVANCED_FACE('',(#548),#342,.F.);
#548 = FACE_BOUND('',#549,.F.);
#549 = EDGE_LOOP('',(#550,#551,#552,#571));
#550 = ORIENTED_EDGE('',*,*,#528,.F.);
#551 = ORIENTED_EDGE('',*,*,#312,.T.);
#552 = ORIENTED_EDGE('',*,*,#553,.T.);
#553 = EDGE_CURVE('',#287,#453,#554,.T.);
#554 = SURFACE_CURVE('',#555,(#559,#565),.PCURVE_S1.);
#555 = LINE('',#556,#557);
#556 = CARTESIAN_POINT('',(-76.,-182.,-1.));
#557 = VECTOR('',#558,1.);
#558 = DIRECTION('',(0.,0.,-1.));
#559 = PCURVE('',#342,#560);
#560 = DEFINITIONAL_REPRESENTATION('',(#561),#564);
#561 = B_SPLINE_CURVE_WITH_KNOTS('',1,(#562,#563),.UNSPECIFIED.,.F.,.F.,
  (2,2),(-58.,-1.),.PIECEWISE_BEZIER_KNOTS.);
#562 = CARTESIAN_POINT('',(57.,156.));
#563 = CARTESIAN_POINT('',(0.,156.));
#564 = ( GEOMETRIC_REPRESENTATION_CONTEXT(2) 
PARAMETRIC_REPRESENTATION_CONTEXT() REPRESENTATION_CONTEXT('2D SPACE',''
  ) );
#565 = PCURVE('',#301,#566);
#566 = DEFINITIONAL_REPRESENTATION('',(#567),#570);
#567 = B_SPLINE_CURVE_WITH_KNOTS('',1,(#568,#569),.UNSPECIFIED.,.F.,.F.,
  (2,2),(-58.,-1.),.PIECEWISE_BEZIER_KNOTS.);
#568 = CARTESIAN_POINT('',(59.,-218.));
#569 = CARTESIAN_POINT('',(2.,-218.));
#570 = ( GEOMETRIC_REPRESENTATION_CONTEXT(2) 
PARAMETRIC_REPRESENTATION_CONTEXT() REPRESENTATION_CONTEXT('2D SPACE',''
  ) );
#571 = ORIENTED_EDGE('',*,*,#452,.F.);
#572 = ADVANCED_FACE('',(#573),#301,.T.);
#573 = FACE_BOUND('',#574,.T.);
#574 = EDGE_LOOP('',(#575,#594,#595,#596));
#575 = ORIENTED_EDGE('',*,*,#576,.F.);
#576 = EDGE_CURVE('',#258,#476,#577,.T.);
#577 = SURFACE_CURVE('',#578,(#582,#588),.PCURVE_S1.);
#578 = LINE('',#579,#580);
#579 = CARTESIAN_POINT('',(-76.,-120.,-1.));
#580 = VECTOR('',#581,1.);
#581 = DIRECTION('',(-0.,-0.,-1.));
#582 = PCURVE('',#301,#583);
#583 = DEFINITIONAL_REPRESENTATION('',(#584),#587);
#584 = B_SPLINE_CURVE_WITH_KNOTS('',1,(#585,#586),.UNSPECIFIED.,.F.,.F.,
  (2,2),(-7.5000006,-0.9999994),.PIECEWISE_BEZIER_KNOTS.);
#585 = CARTESIAN_POINT('',(8.5000006,-280.));
#586 = CARTESIAN_POINT('',(1.9999994,-280.));
#587 = ( GEOMETRIC_REPRESENTATION_CONTEXT(2) 
PARAMETRIC_REPRESENTATION_CONTEXT() REPRESENTATION_CONTEXT('2D SPACE',''
  ) );
#588 = PCURVE('',#274,#589);
#589 = DEFINITIONAL_REPRESENTATION('',(#590),#593);
#590 = B_SPLINE_CURVE_WITH_KNOTS('',1,(#591,#592),.UNSPECIFIED.,.F.,.F.,
  (2,2),(-7.5000006,-0.9999994),.PIECEWISE_BEZIER_KNOTS.);
#591 = CARTESIAN_POINT('',(-4.712388980385,-7.5000006));
#592 = CARTESIAN_POINT('',(-4.712388980385,-0.9999994));
#593 = ( GEOMETRIC_REPRESENTATION_CONTEXT(2) 
PARAMETRIC_REPRESENTATION_CONTEXT() REPRESENTATION_CONTEXT('2D SPACE',''
  ) );
#594 = ORIENTED_EDGE('',*,*,#286,.T.);
#595 = ORIENTED_EDGE('',*,*,#553,.T.);
#596 = ORIENTED_EDGE('',*,*,#475,.T.);
#597 = ADVANCED_FACE('',(#598),#274,.F.);
#598 = FACE_BOUND('',#599,.T.);
#599 = EDGE_LOOP('',(#600,#601,#602,#603));
#600 = ORIENTED_EDGE('',*,*,#407,.F.);
#601 = ORIENTED_EDGE('',*,*,#257,.T.);
#602 = ORIENTED_EDGE('',*,*,#576,.T.);
#603 = ORIENTED_EDGE('',*,*,#496,.T.);
#604 = ( GEOMETRIC_REPRESENTATION_CONTEXT(3) 
GLOBAL_UNCERTAINTY_ASSIGNED_CONTEXT((#608)) GLOBAL_UNIT_ASSIGNED_CONTEXT
((#605,#606,#607)) REPRESENTATION_CONTEXT('Context #1',
  '3D Context with UNIT and UNCERTAINTY') );
#605 = ( LENGTH_UNIT() NAMED_UNIT(*) SI_UNIT(.MILLI.,.METRE.) );
#606 = ( NAMED_UNIT(*) PLANE_ANGLE_UNIT() SI_UNIT($,.RADIAN.) );
#607 = ( NAMED_UNIT(*) SI_UNIT($,.STERADIAN.) SOLID_ANGLE_UNIT() );
#608 = UNCERTAINTY_MEASURE_WITH_UNIT(LENGTH_MEASURE(1.E-06),#605,
  'distance_accuracy_value','confusion accuracy');
#609 = PRODUCT_RELATED_PRODUCT_CATEGORY('part',$,(#7));
ENDSEC;
END-ISO-10303-21;
