ISO-10303-21;
HEADER;
FILE_DESCRIPTION(('Open CASCADE Model'),'2;1');
FILE_NAME('Open CASCADE Shape Model','2026-10-06T13:00:53',('Author'),(
    'Open CASCADE'),'Open CASCADE STEP processor 7.9','Open CASCADE 7.9'
  ,'Unknown');
FILE_SCHEMA(('AUTOMOTIVE_DESIGN { 1 0 10303 214 1 1 1 1 }'));
ENDSEC;
DATA;
#1 = APPLICATION_PROTOCOL_DEFINITION('international standard',
  'automotive_design',2000,#2);
#2 = APPLICATION_CONTEXT(
  'core data for automotive mechanical design processes');
#3 = SHAPE_DEFINITION_REPRESENTATION(#4,#10);
#4 = PRODUCT_DEFINITION_SHAPE('','',#5);
#5 = PRODUCT_DEFINITION('design','',#6,#9);
#6 = PRODUCT_DEFINITION_FORMATION('','',#7);
#7 = PRODUCT('Open CASCADE STEP translator 7.9 26',
  'Open CASCADE STEP translator 7.9 26','',(#8));
#8 = PRODUCT_CONTEXT('',#2,'mechanical');
#9 = PRODUCT_DEFINITION_CONTEXT('part definition',#2,'design');
#10 = ADVANCED_BREP_SHAPE_REPRESENTATION('',(#11,#15),#611);
#11 = AXIS2_PLACEMENT_3D('',#12,#13,#14);
#12 = CARTESIAN_POINT('',(0.,0.,0.));
#13 = DIRECTION('',(0.,0.,1.));
#14 = DIRECTION('',(1.,0.,-0.));
#15 = MANIFOLD_SOLID_BREP('',#16);
#16 = CLOSED_SHELL('',(#17,#154,#224,#385,#432,#529,#554,#579,#604));
#17 = ADVANCED_FACE('',(#18),#32,.F.);
#18 = FACE_BOUND('',#19,.F.);
#19 = EDGE_LOOP('',(#20,#53,#81,#107));
#20 = ORIENTED_EDGE('',*,*,#21,.F.);
#21 = EDGE_CURVE('',#22,#24,#26,.T.);
#22 = VERTEX_POINT('',#23);
#23 = CARTESIAN_POINT('',(-232.,22.,0.));
#24 = VERTEX_POINT('',#25);
#25 = CARTESIAN_POINT('',(-232.,22.,10.25203152348));
#26 = SURFACE_CURVE('',#27,(#31,#42),.PCURVE_S1.);
#27 = LINE('',#28,#29);
#28 = CARTESIAN_POINT('',(-232.,22.,-1.));
#29 = VECTOR('',#30,1.);
#30 = DIRECTION('',(0.,0.,1.));
#31 = PCURVE('',#32,#37);
#32 = PLANE('',#33);
#33 = AXIS2_PLACEMENT_3D('',#34,#35,#36);
#34 = CARTESIAN_POINT('',(-232.,-182.,0.));
#35 = DIRECTION('',(1.,0.,0.));
#36 = DIRECTION('',(0.,0.,1.));
#37 = DEFINITIONAL_REPRESENTATION('',(#38),#41);
#38 = B_SPLINE_CURVE_WITH_KNOTS('',1,(#39,#40),.UNSPECIFIED.,.F.,.F.,(2,
    2),(1.,34.053036998613),.PIECEWISE_BEZIER_KNOTS.);
#39 = CARTESIAN_POINT('',(0.,-204.));
#40 = CARTESIAN_POINT('',(33.053036998613,-204.));
#41 = ( GEOMETRIC_REPRESENTATION_CONTEXT(2) 
PARAMETRIC_REPRESENTATION_CONTEXT() REPRESENTATION_CONTEXT('2D SPACE',''
  ) );
#42 = PCURVE('',#43,#48);
#43 = PLANE('',#44);
#44 = AXIS2_PLACEMENT_3D('',#45,#46,#47);
#45 = CARTESIAN_POINT('',(-400.,22.,-2.));
#46 = DIRECTION('',(0.,1.,0.));
#47 = DIRECTION('',(0.,0.,1.));
#48 = DEFINITIONAL_REPRESENTATION('',(#49),#52);
#49 = B_SPLINE_CURVE_WITH_KNOTS('',1,(#50,#51),.UNSPECIFIED.,.F.,.F.,(2,
    2),(1.,34.053036998613),.PIECEWISE_BEZIER_KNOTS.);
#50 = CARTESIAN_POINT('',(2.,168.));
#51 = CARTESIAN_POINT('',(35.053036998613,168.));
#52 = ( GEOMETRIC_REPRESENTATION_CONTEXT(2) 
PARAMETRIC_REPRESENTATION_CONTEXT() REPRESENTATION_CONTEXT('2D SPACE',''
  ) );
#53 = ORIENTED_EDGE('',*,*,#54,.T.);
#54 = EDGE_CURVE('',#22,#55,#57,.T.);
#55 = VERTEX_POINT('',#56);
#56 = CARTESIAN_POINT('',(-232.,161.8,0.));
#57 = SURFACE_CURVE('',#58,(#62,#69),.PCURVE_S1.);
#58 = LINE('',#59,#60);
#59 = CARTESIAN_POINT('',(-232.,-182.,0.));
#60 = VECTOR('',#61,1.);
#61 = DIRECTION('',(0.,1.,0.));
#62 = PCURVE('',#32,#63);
#63 = DEFINITIONAL_REPRESENTATION('',(#64),#68);
#64 = LINE('',#65,#66);
#65 = CARTESIAN_POINT('',(0.,0.));
#66 = VECTOR('',#67,1.);
#67 = DIRECTION('',(0.,-1.));
#68 = ( GEOMETRIC_REPRESENTATION_CONTEXT(2) 
PARAMETRIC_REPRESENTATION_CONTEXT() REPRESENTATION_CONTEXT('2D SPACE',''
  ) );
#69 = PCURVE('',#70,#75);
#70 = PLANE('',#71);
#71 = AXIS2_PLACEMENT_3D('',#72,#73,#74);
#72 = CARTESIAN_POINT('',(-232.,-182.,0.));
#73 = DIRECTION('',(0.,0.,1.));
#74 = DIRECTION('',(1.,0.,0.));
#75 = DEFINITIONAL_REPRESENTATION('',(#76),#80);
#76 = LINE('',#77,#78);
#77 = CARTESIAN_POINT('',(0.,0.));
#78 = VECTOR('',#79,1.);
#79 = DIRECTION('',(0.,1.));
#80 = ( GEOMETRIC_REPRESENTATION_CONTEXT(2) 
PARAMETRIC_REPRESENTATION_CONTEXT() REPRESENTATION_CONTEXT('2D SPACE',''
  ) );
#81 = ORIENTED_EDGE('',*,*,#82,.T.);
#82 = EDGE_CURVE('',#55,#83,#85,.T.);
#83 = VERTEX_POINT('',#84);
#84 = CARTESIAN_POINT('',(-232.,161.8,24.583621052308));
#85 = SURFACE_CURVE('',#86,(#90,#96),.PCURVE_S1.);
#86 = LINE('',#87,#88);
#87 = CARTESIAN_POINT('',(-232.,161.8,-0.5));
#88 = VECTOR('',#89,1.);
#89 = DIRECTION('',(0.,0.,1.));
#90 = PCURVE('',#32,#91);
#91 = DEFINITIONAL_REPRESENTATION('',(#92),#95);
#92 = B_SPLINE_CURVE_WITH_KNOTS('',1,(#93,#94),.UNSPECIFIED.,.F.,.F.,(2,
    2),(0.5,33.553036998613),.PIECEWISE_BEZIER_KNOTS.);
#93 = CARTESIAN_POINT('',(0.,-343.8));
#94 = CARTESIAN_POINT('',(33.053036998613,-343.8));
#95 = ( GEOMETRIC_REPRESENTATION_CONTEXT(2) 
PARAMETRIC_REPRESENTATION_CONTEXT() REPRESENTATION_CONTEXT('2D SPACE',''
  ) );
#96 = PCURVE('',#97,#102);
#97 = PLANE('',#98);
#98 = AXIS2_PLACEMENT_3D('',#99,#100,#101);
#99 = CARTESIAN_POINT('',(-242.,161.8,-1.));
#100 = DIRECTION('',(0.,1.,0.));
#101 = DIRECTION('',(0.,0.,1.));
#102 = DEFINITIONAL_REPRESENTATION('',(#103),#106);
#103 = B_SPLINE_CURVE_WITH_KNOTS('',1,(#104,#105),.UNSPECIFIED.,.F.,.F.,
  (2,2),(0.5,33.553036998613),.PIECEWISE_BEZIER_KNOTS.);
#104 = CARTESIAN_POINT('',(1.,10.));
#105 = CARTESIAN_POINT('',(34.053036998613,10.));
#106 = ( GEOMETRIC_REPRESENTATION_CONTEXT(2) 
PARAMETRIC_REPRESENTATION_CONTEXT() REPRESENTATION_CONTEXT('2D SPACE',''
  ) );
#107 = ORIENTED_EDGE('',*,*,#108,.T.);
#108 = EDGE_CURVE('',#83,#24,#109,.T.);
#109 = SURFACE_CURVE('',#110,(#115,#122),.PCURVE_S1.);
#110 = HYPERBOLA('',#111,41.808351261635,156.);
#111 = AXIS2_PLACEMENT_3D('',#112,#113,#114);
#112 = CARTESIAN_POINT('',(-232.,22.,-31.55631973815));
#113 = DIRECTION('',(1.,0.,0.));
#114 = DIRECTION('',(-0.,0.,1.));
#115 = PCURVE('',#32,#116);
#116 = DEFINITIONAL_REPRESENTATION('',(#117),#121);
#117 = ( BOUNDED_CURVE() B_SPLINE_CURVE(2,(#118,#119,#120),
.UNSPECIFIED.,.F.,.F.) B_SPLINE_CURVE_WITH_KNOTS((3,3),(-1.053187003289,
1.217306800473),.PIECEWISE_BEZIER_KNOTS.) CURVE() 
GEOMETRIC_REPRESENTATION_ITEM() RATIONAL_B_SPLINE_CURVE((1.,
1.716642281874,1.)) REPRESENTATION_ITEM('') );
#118 = CARTESIAN_POINT('',(35.663090167889,-400.4));
#119 = CARTESIAN_POINT('',(-7.119548132127,-196.5344283082));
#120 = CARTESIAN_POINT('',(45.247795286019,36.4));
#121 = ( GEOMETRIC_REPRESENTATION_CONTEXT(2) 
PARAMETRIC_REPRESENTATION_CONTEXT() REPRESENTATION_CONTEXT('2D SPACE',''
  ) );
#122 = PCURVE('',#123,#128);
#123 = CONICAL_SURFACE('',#124,142.,1.308947434702);
#124 = AXIS2_PLACEMENT_3D('',#125,#126,#127);
#125 = CARTESIAN_POINT('',(-76.,22.,6.5));
#126 = DIRECTION('',(0.,0.,1.));
#127 = DIRECTION('',(1.,0.,0.));
#128 = DEFINITIONAL_REPRESENTATION('',(#129),#153);
#129 = B_SPLINE_CURVE_WITH_KNOTS('',8,(#130,#131,#132,#133,#134,#135,
    #136,#137,#138,#139,#140,#141,#142,#143,#144,#145,#146,#147,#148,
    #149,#150,#151,#152),.UNSPECIFIED.,.F.,.F.,(9,7,7,9),(
    -1.053187003289,-0.485563552349,0.365871624062,1.217306800473),
  .UNSPECIFIED.);
#130 = CARTESIAN_POINT('',(2.242050359116,29.163090167889));
#131 = CARTESIAN_POINT('',(2.286180842882,25.428437057299));
#132 = CARTESIAN_POINT('',(2.333113426687,22.080531263144));
#133 = CARTESIAN_POINT('',(2.382924841849,19.090723099081));
#134 = CARTESIAN_POINT('',(2.435651589202,16.434516035979));
#135 = CARTESIAN_POINT('',(2.49127425434,14.091106550803));
#136 = CARTESIAN_POINT('',(2.549694550481,12.04303196793));
#137 = CARTESIAN_POINT('',(2.610718171319,10.275909556237));
#138 = CARTESIAN_POINT('',(2.769064083592,6.53176102891));
#139 = CARTESIAN_POINT('',(2.869280089789,4.891563700601));
#140 = CARTESIAN_POINT('',(2.973728610605,3.818882598454));
#141 = CARTESIAN_POINT('',(3.080969179355,3.289592981075));
#142 = CARTESIAN_POINT('',(3.189071446539,3.292815690703));
#143 = CARTESIAN_POINT('',(3.295950485579,3.830395853546));
#144 = CARTESIAN_POINT('',(3.39988176544,4.917100921501));
#145 = CARTESIAN_POINT('',(3.599247302785,8.246223256528));
#146 = CARTESIAN_POINT('',(3.694681762686,10.488640532368));
#147 = CARTESIAN_POINT('',(3.784570611308,13.337645026995));
#148 = CARTESIAN_POINT('',(3.868049503857,16.835932013358));
#149 = CARTESIAN_POINT('',(3.944828269458,21.041200628521));
#150 = CARTESIAN_POINT('',(4.014993433279,26.028043205032));
#151 = CARTESIAN_POINT('',(4.07883955282,31.89078962574));
#152 = CARTESIAN_POINT('',(4.136774438406,38.747795286019));
#153 = ( GEOMETRIC_REPRESENTATION_CONTEXT(2) 
PARAMETRIC_REPRESENTATION_CONTEXT() REPRESENTATION_CONTEXT('2D SPACE',''
  ) );
#154 = ADVANCED_FACE('',(#155),#43,.F.);
#155 = FACE_BOUND('',#156,.F.);
#156 = EDGE_LOOP('',(#157,#178,#179,#200));
#157 = ORIENTED_EDGE('',*,*,#158,.T.);
#158 = EDGE_CURVE('',#159,#22,#161,.T.);
#159 = VERTEX_POINT('',#160);
#160 = CARTESIAN_POINT('',(-218.,22.,0.));
#161 = SURFACE_CURVE('',#162,(#166,#172),.PCURVE_S1.);
#162 = LINE('',#163,#164);
#163 = CARTESIAN_POINT('',(-316.,22.,0.));
#164 = VECTOR('',#165,1.);
#165 = DIRECTION('',(-1.,0.,0.));
#166 = PCURVE('',#43,#167);
#167 = DEFINITIONAL_REPRESENTATION('',(#168),#171);
#168 = B_SPLINE_CURVE_WITH_KNOTS('',1,(#169,#170),.UNSPECIFIED.,.F.,.F.,
  (2,2),(-240.,-84.),.PIECEWISE_BEZIER_KNOTS.);
#169 = CARTESIAN_POINT('',(2.,324.));
#170 = CARTESIAN_POINT('',(2.,168.));
#171 = ( GEOMETRIC_REPRESENTATION_CONTEXT(2) 
PARAMETRIC_REPRESENTATION_CONTEXT() REPRESENTATION_CONTEXT('2D SPACE',''
  ) );
#172 = PCURVE('',#70,#173);
#173 = DEFINITIONAL_REPRESENTATION('',(#174),#177);
#174 = B_SPLINE_CURVE_WITH_KNOTS('',1,(#175,#176),.UNSPECIFIED.,.F.,.F.,
  (2,2),(-240.,-84.),.PIECEWISE_BEZIER_KNOTS.);
#175 = CARTESIAN_POINT('',(156.,204.));
#176 = CARTESIAN_POINT('',(0.,204.));
#177 = ( GEOMETRIC_REPRESENTATION_CONTEXT(2) 
PARAMETRIC_REPRESENTATION_CONTEXT() REPRESENTATION_CONTEXT('2D SPACE',''
  ) );
#178 = ORIENTED_EDGE('',*,*,#21,.T.);
#179 = ORIENTED_EDGE('',*,*,#180,.F.);
#180 = EDGE_CURVE('',#181,#24,#183,.T.);
#181 = VERTEX_POINT('',#182);
#182 = CARTESIAN_POINT('',(-218.,22.,6.5));
#183 = SURFACE_CURVE('',#184,(#188,#194),.PCURVE_S1.);
#184 = LINE('',#185,#186);
#185 = CARTESIAN_POINT('',(-76.,22.,-31.55631973815));
#186 = VECTOR('',#187,1.);
#187 = DIRECTION('',(-0.965913012451,0.,0.258866862261));
#188 = PCURVE('',#43,#189);
#189 = DEFINITIONAL_REPRESENTATION('',(#190),#193);
#190 = B_SPLINE_CURVE_WITH_KNOTS('',1,(#191,#192),.UNSPECIFIED.,.F.,.F.,
  (2,2),(147.01116784793,342.09214329173),.PIECEWISE_BEZIER_KNOTS.);
#191 = CARTESIAN_POINT('',(8.5,182.));
#192 = CARTESIAN_POINT('',(59.,-6.43125266289));
#193 = ( GEOMETRIC_REPRESENTATION_CONTEXT(2) 
PARAMETRIC_REPRESENTATION_CONTEXT() REPRESENTATION_CONTEXT('2D SPACE',''
  ) );
#194 = PCURVE('',#123,#195);
#195 = DEFINITIONAL_REPRESENTATION('',(#196),#199);
#196 = B_SPLINE_CURVE_WITH_KNOTS('',1,(#197,#198),.UNSPECIFIED.,.F.,.F.,
  (2,2),(147.01116784793,342.09214329173),.PIECEWISE_BEZIER_KNOTS.);
#197 = CARTESIAN_POINT('',(3.14159265359,0.));
#198 = CARTESIAN_POINT('',(3.14159265359,50.5));
#199 = ( GEOMETRIC_REPRESENTATION_CONTEXT(2) 
PARAMETRIC_REPRESENTATION_CONTEXT() REPRESENTATION_CONTEXT('2D SPACE',''
  ) );
#200 = ORIENTED_EDGE('',*,*,#201,.T.);
#201 = EDGE_CURVE('',#181,#159,#202,.T.);
#202 = SURFACE_CURVE('',#203,(#207,#213),.PCURVE_S1.);
#203 = LINE('',#204,#205);
#204 = CARTESIAN_POINT('',(-218.,22.,-1.));
#205 = VECTOR('',#206,1.);
#206 = DIRECTION('',(-0.,-0.,-1.));
#207 = PCURVE('',#43,#208);
#208 = DEFINITIONAL_REPRESENTATION('',(#209),#212);
#209 = B_SPLINE_CURVE_WITH_KNOTS('',1,(#210,#211),.UNSPECIFIED.,.F.,.F.,
  (2,2),(-7.5000006,-0.9999994),.PIECEWISE_BEZIER_KNOTS.);
#210 = CARTESIAN_POINT('',(8.5000006,182.));
#211 = CARTESIAN_POINT('',(1.9999994,182.));
#212 = ( GEOMETRIC_REPRESENTATION_CONTEXT(2) 
PARAMETRIC_REPRESENTATION_CONTEXT() REPRESENTATION_CONTEXT('2D SPACE',''
  ) );
#213 = PCURVE('',#214,#219);
#214 = CYLINDRICAL_SURFACE('',#215,142.);
#215 = AXIS2_PLACEMENT_3D('',#216,#217,#218);
#216 = CARTESIAN_POINT('',(-76.,22.,-1.));
#217 = DIRECTION('',(-0.,-0.,-1.));
#218 = DIRECTION('',(1.,0.,0.));
#219 = DEFINITIONAL_REPRESENTATION('',(#220),#223);
#220 = B_SPLINE_CURVE_WITH_KNOTS('',1,(#221,#222),.UNSPECIFIED.,.F.,.F.,
  (2,2),(-7.5000006,-0.9999994),.PIECEWISE_BEZIER_KNOTS.);
#221 = CARTESIAN_POINT('',(-3.14159265359,-7.5000006));
#222 = CARTESIAN_POINT('',(-3.14159265359,-0.9999994));
#223 = ( GEOMETRIC_REPRESENTATION_CONTEXT(2) 
PARAMETRIC_REPRESENTATION_CONTEXT() REPRESENTATION_CONTEXT('2D SPACE',''
  ) );
#224 = ADVANCED_FACE('',(#225),#123,.F.);
#225 = FACE_BOUND('',#226,.F.);
#226 = EDGE_LOOP('',(#227,#255,#277,#278,#279,#306,#338));
#227 = ORIENTED_EDGE('',*,*,#228,.F.);
#228 = EDGE_CURVE('',#229,#231,#233,.T.);
#229 = VERTEX_POINT('',#230);
#230 = CARTESIAN_POINT('',(-76.,164.,6.5));
#231 = VERTEX_POINT('',#232);
#232 = CARTESIAN_POINT('',(-76.,182.,11.324040530189));
#233 = SURFACE_CURVE('',#234,(#238,#244),.PCURVE_S1.);
#234 = LINE('',#235,#236);
#235 = CARTESIAN_POINT('',(-76.,22.,-31.55631973815));
#236 = VECTOR('',#237,1.);
#237 = DIRECTION('',(-0.,0.965913012451,0.258866862261));
#238 = PCURVE('',#123,#239);
#239 = DEFINITIONAL_REPRESENTATION('',(#240),#243);
#240 = B_SPLINE_CURVE_WITH_KNOTS('',1,(#241,#242),.UNSPECIFIED.,.F.,.F.,
  (2,2),(147.01116784793,342.09214329173),.PIECEWISE_BEZIER_KNOTS.);
#241 = CARTESIAN_POINT('',(1.570796326795,0.));
#242 = CARTESIAN_POINT('',(1.570796326795,50.5));
#243 = ( GEOMETRIC_REPRESENTATION_CONTEXT(2) 
PARAMETRIC_REPRESENTATION_CONTEXT() REPRESENTATION_CONTEXT('2D SPACE',''
  ) );
#244 = PCURVE('',#245,#250);
#245 = PLANE('',#246);
#246 = AXIS2_PLACEMENT_3D('',#247,#248,#249);
#247 = CARTESIAN_POINT('',(-76.,22.,-2.));
#248 = DIRECTION('',(1.,0.,0.));
#249 = DIRECTION('',(0.,0.,1.));
#250 = DEFINITIONAL_REPRESENTATION('',(#251),#254);
#251 = B_SPLINE_CURVE_WITH_KNOTS('',1,(#252,#253),.UNSPECIFIED.,.F.,.F.,
  (2,2),(147.01116784793,342.09214329173),.PIECEWISE_BEZIER_KNOTS.);
#252 = CARTESIAN_POINT('',(8.5,-142.));
#253 = CARTESIAN_POINT('',(59.,-330.4312526628));
#254 = ( GEOMETRIC_REPRESENTATION_CONTEXT(2) 
PARAMETRIC_REPRESENTATION_CONTEXT() REPRESENTATION_CONTEXT('2D SPACE',''
  ) );
#255 = ORIENTED_EDGE('',*,*,#256,.T.);
#256 = EDGE_CURVE('',#229,#181,#257,.T.);
#257 = SURFACE_CURVE('',#258,(#263,#270),.PCURVE_S1.);
#258 = CIRCLE('',#259,142.);
#259 = AXIS2_PLACEMENT_3D('',#260,#261,#262);
#260 = CARTESIAN_POINT('',(-76.,22.,6.5));
#261 = DIRECTION('',(0.,0.,1.));
#262 = DIRECTION('',(1.,0.,0.));
#263 = PCURVE('',#123,#264);
#264 = DEFINITIONAL_REPRESENTATION('',(#265),#269);
#265 = LINE('',#266,#267);
#266 = CARTESIAN_POINT('',(0.,0.));
#267 = VECTOR('',#268,1.);
#268 = DIRECTION('',(1.,0.));
#269 = ( GEOMETRIC_REPRESENTATION_CONTEXT(2) 
PARAMETRIC_REPRESENTATION_CONTEXT() REPRESENTATION_CONTEXT('2D SPACE',''
  ) );
#270 = PCURVE('',#214,#271);
#271 = DEFINITIONAL_REPRESENTATION('',(#272),#276);
#272 = LINE('',#273,#274);
#273 = CARTESIAN_POINT('',(-0.,-7.5));
#274 = VECTOR('',#275,1.);
#275 = DIRECTION('',(-1.,0.));
#276 = ( GEOMETRIC_REPRESENTATION_CONTEXT(2) 
PARAMETRIC_REPRESENTATION_CONTEXT() REPRESENTATION_CONTEXT('2D SPACE',''
  ) );
#277 = ORIENTED_EDGE('',*,*,#180,.T.);
#278 = ORIENTED_EDGE('',*,*,#108,.F.);
#279 = ORIENTED_EDGE('',*,*,#280,.T.);
#280 = EDGE_CURVE('',#83,#281,#283,.T.);
#281 = VERTEX_POINT('',#282);
#282 = CARTESIAN_POINT('',(-211.8,161.8,20.67709222574));
#283 = SURFACE_CURVE('',#284,(#289,#299),.PCURVE_S1.);
#284 = HYPERBOLA('',#285,37.466714784465,139.8);
#285 = AXIS2_PLACEMENT_3D('',#286,#287,#288);
#286 = CARTESIAN_POINT('',(-76.,161.8,-31.55631973815));
#287 = DIRECTION('',(0.,1.,0.));
#288 = DIRECTION('',(0.,-0.,1.));
#289 = PCURVE('',#123,#290);
#290 = DEFINITIONAL_REPRESENTATION('',(#291),#298);
#291 = B_SPLINE_CURVE_WITH_KNOTS('',5,(#292,#293,#294,#295,#296,#297),
  .UNSPECIFIED.,.F.,.F.,(6,6),(-1.021730273442,-0.845417109426),
  .PIECEWISE_BEZIER_KNOTS.);
#292 = CARTESIAN_POINT('',(2.450531861516,20.728372301993));
#293 = CARTESIAN_POINT('',(2.428057047751,19.131054709159));
#294 = CARTESIAN_POINT('',(2.404818866818,17.625107087783));
#295 = CARTESIAN_POINT('',(2.380806403169,16.206391876256));
#296 = CARTESIAN_POINT('',(2.356014403098,14.871243402489));
#297 = CARTESIAN_POINT('',(2.330446274695,13.616410660941));
#298 = ( GEOMETRIC_REPRESENTATION_CONTEXT(2) 
PARAMETRIC_REPRESENTATION_CONTEXT() REPRESENTATION_CONTEXT('2D SPACE',''
  ) );
#299 = PCURVE('',#97,#300);
#300 = DEFINITIONAL_REPRESENTATION('',(#301),#305);
#301 = ( BOUNDED_CURVE() B_SPLINE_CURVE(2,(#302,#303,#304),
.UNSPECIFIED.,.F.,.F.) B_SPLINE_CURVE_WITH_KNOTS((3,3),(-1.021730273442,
-0.845417109426),.PIECEWISE_BEZIER_KNOTS.) CURVE() 
GEOMETRIC_REPRESENTATION_ITEM() RATIONAL_B_SPLINE_CURVE((1.,
1.00388830869,1.)) REPRESENTATION_ITEM('') );
#302 = CARTESIAN_POINT('',(28.228372301993,-3.02));
#303 = CARTESIAN_POINT('',(24.245391001229,16.266682528797));
#304 = CARTESIAN_POINT('',(21.116410660941,33.22));
#305 = ( GEOMETRIC_REPRESENTATION_CONTEXT(2) 
PARAMETRIC_REPRESENTATION_CONTEXT() REPRESENTATION_CONTEXT('2D SPACE',''
  ) );
#306 = ORIENTED_EDGE('',*,*,#307,.F.);
#307 = EDGE_CURVE('',#308,#281,#310,.T.);
#308 = VERTEX_POINT('',#309);
#309 = CARTESIAN_POINT('',(-211.8,182.,24.68690123462));
#310 = SURFACE_CURVE('',#311,(#316,#326),.PCURVE_S1.);
#311 = HYPERBOLA('',#312,36.394705777757,135.8);
#312 = AXIS2_PLACEMENT_3D('',#313,#314,#315);
#313 = CARTESIAN_POINT('',(-211.8,22.,-31.55631973815));
#314 = DIRECTION('',(1.,0.,0.));
#315 = DIRECTION('',(-0.,0.,1.));
#316 = PCURVE('',#123,#317);
#317 = DEFINITIONAL_REPRESENTATION('',(#318),#325);
#318 = B_SPLINE_CURVE_WITH_KNOTS('',5,(#319,#320,#321,#322,#323,#324),
  .UNSPECIFIED.,.F.,.F.,(6,6),(-1.062547500494,-0.886467224422),
  .PIECEWISE_BEZIER_KNOTS.);
#319 = CARTESIAN_POINT('',(2.236249742275,20.890506175051));
#320 = CARTESIAN_POINT('',(2.257992693627,19.257546513386));
#321 = CARTESIAN_POINT('',(2.280488556947,17.715966947924));
#322 = CARTESIAN_POINT('',(2.303750671715,16.261548751015));
#323 = CARTESIAN_POINT('',(2.327787407587,14.890543896399));
#324 = CARTESIAN_POINT('',(2.352599230901,13.599616705771));
#325 = ( GEOMETRIC_REPRESENTATION_CONTEXT(2) 
PARAMETRIC_REPRESENTATION_CONTEXT() REPRESENTATION_CONTEXT('2D SPACE',''
  ) );
#326 = PCURVE('',#327,#332);
#327 = PLANE('',#328);
#328 = AXIS2_PLACEMENT_3D('',#329,#330,#331);
#329 = CARTESIAN_POINT('',(-211.8,161.8,-1.));
#330 = DIRECTION('',(1.,0.,0.));
#331 = DIRECTION('',(0.,0.,1.));
#332 = DEFINITIONAL_REPRESENTATION('',(#333),#337);
#333 = ( BOUNDED_CURVE() B_SPLINE_CURVE(2,(#334,#335,#336),
.UNSPECIFIED.,.F.,.F.) B_SPLINE_CURVE_WITH_KNOTS((3,3),(-1.062547500494,
-0.886467224422),.PIECEWISE_BEZIER_KNOTS.) CURVE() 
GEOMETRIC_REPRESENTATION_ITEM() RATIONAL_B_SPLINE_CURVE((1.,
1.003878036892,1.)) REPRESENTATION_ITEM('') );
#334 = CARTESIAN_POINT('',(28.390506175051,-33.22));
#335 = CARTESIAN_POINT('',(24.318622069257,-13.90553691094));
#336 = CARTESIAN_POINT('',(21.099616705771,3.02));
#337 = ( GEOMETRIC_REPRESENTATION_CONTEXT(2) 
PARAMETRIC_REPRESENTATION_CONTEXT() REPRESENTATION_CONTEXT('2D SPACE',''
  ) );
#338 = ORIENTED_EDGE('',*,*,#339,.T.);
#339 = EDGE_CURVE('',#308,#231,#340,.T.);
#340 = SURFACE_CURVE('',#341,(#346,#373),.PCURVE_S1.);
#341 = HYPERBOLA('',#342,42.880360268344,160.);
#342 = AXIS2_PLACEMENT_3D('',#343,#344,#345);
#343 = CARTESIAN_POINT('',(-76.,182.,-31.55631973815));
#344 = DIRECTION('',(0.,1.,0.));
#345 = DIRECTION('',(0.,-0.,1.));
#346 = PCURVE('',#123,#347);
#347 = DEFINITIONAL_REPRESENTATION('',(#348),#372);
#348 = B_SPLINE_CURVE_WITH_KNOTS('',8,(#349,#350,#351,#352,#353,#354,
    #355,#356,#357,#358,#359,#360,#361,#362,#363,#364,#365,#366,#367,
    #368,#369,#370,#371),.UNSPECIFIED.,.F.,.F.,(9,7,7,9),(
    -1.056929269993,-0.454213166968,0.449860987569,1.353935142105),
  .UNSPECIFIED.);
#349 = CARTESIAN_POINT('',(2.472662783969,31.089175304714));
#350 = CARTESIAN_POINT('',(2.425941223112,27.002484704579));
#351 = CARTESIAN_POINT('',(2.376063831078,23.364334359648));
#352 = CARTESIAN_POINT('',(2.322937151901,20.139377827984));
#353 = CARTESIAN_POINT('',(2.266518411724,17.29769923153));
#354 = CARTESIAN_POINT('',(2.206836327987,14.814173535337));
#355 = CARTESIAN_POINT('',(2.144022887522,12.667985425446));
#356 = CARTESIAN_POINT('',(2.078335834631,10.842281207287));
#357 = CARTESIAN_POINT('',(1.907875273591,7.046398555133));
#358 = CARTESIAN_POINT('',(1.799979780259,5.460409128441));
#359 = CARTESIAN_POINT('',(1.687739574976,4.521637516602));
#360 = CARTESIAN_POINT('',(1.573006120342,4.204602335113));
#361 = CARTESIAN_POINT('',(1.458236589175,4.500852081963));
#362 = CARTESIAN_POINT('',(1.345895886771,5.418436072113));
#363 = CARTESIAN_POINT('',(1.237848569903,6.982417306093));
#364 = CARTESIAN_POINT('',(1.032918464376,11.490912799992));
#365 = CARTESIAN_POINT('',(0.936035239238,14.435427079325));
#366 = CARTESIAN_POINT('',(0.846017883323,18.114076997422));
#367 = CARTESIAN_POINT('',(0.763555618274,22.589538857398));
#368 = CARTESIAN_POINT('',(0.688663048523,27.945085420229));
#369 = CARTESIAN_POINT('',(0.621016542069,34.287668679567));
#370 = CARTESIAN_POINT('',(0.560118746768,41.752497847828));
#371 = CARTESIAN_POINT('',(0.505404062944,50.51));
#372 = ( GEOMETRIC_REPRESENTATION_CONTEXT(2) 
PARAMETRIC_REPRESENTATION_CONTEXT() REPRESENTATION_CONTEXT('2D SPACE',''
  ) );
#373 = PCURVE('',#374,#379);
#374 = PLANE('',#375);
#375 = AXIS2_PLACEMENT_3D('',#376,#377,#378);
#376 = CARTESIAN_POINT('',(-232.,182.,0.));
#377 = DIRECTION('',(0.,1.,0.));
#378 = DIRECTION('',(0.,0.,1.));
#379 = DEFINITIONAL_REPRESENTATION('',(#380),#384);
#380 = ( BOUNDED_CURVE() B_SPLINE_CURVE(2,(#381,#382,#383),
.UNSPECIFIED.,.F.,.F.) B_SPLINE_CURVE_WITH_KNOTS((3,3),(-1.056929269993,
1.353935142105),.PIECEWISE_BEZIER_KNOTS.) CURVE() 
GEOMETRIC_REPRESENTATION_ITEM() RATIONAL_B_SPLINE_CURVE((1.,
1.818882028016,1.)) REPRESENTATION_ITEM('') );
#381 = CARTESIAN_POINT('',(37.589175304714,-46.4));
#382 = CARTESIAN_POINT('',(-7.720770162505,169.11129465207));
#383 = CARTESIAN_POINT('',(57.01,445.15302690818));
#384 = ( GEOMETRIC_REPRESENTATION_CONTEXT(2) 
PARAMETRIC_REPRESENTATION_CONTEXT() REPRESENTATION_CONTEXT('2D SPACE',''
  ) );
#385 = ADVANCED_FACE('',(#386),#97,.T.);
#386 = FACE_BOUND('',#387,.T.);
#387 = EDGE_LOOP('',(#388,#411,#430,#431));
#388 = ORIENTED_EDGE('',*,*,#389,.F.);
#389 = EDGE_CURVE('',#390,#281,#392,.T.);
#390 = VERTEX_POINT('',#391);
#391 = CARTESIAN_POINT('',(-211.8,161.8,0.));
#392 = SURFACE_CURVE('',#393,(#397,#404),.PCURVE_S1.);
#393 = LINE('',#394,#395);
#394 = CARTESIAN_POINT('',(-211.8,161.8,-1.));
#395 = VECTOR('',#396,1.);
#396 = DIRECTION('',(0.,0.,1.));
#397 = PCURVE('',#97,#398);
#398 = DEFINITIONAL_REPRESENTATION('',(#399),#403);
#399 = LINE('',#400,#401);
#400 = CARTESIAN_POINT('',(0.,30.2));
#401 = VECTOR('',#402,1.);
#402 = DIRECTION('',(1.,0.));
#403 = ( GEOMETRIC_REPRESENTATION_CONTEXT(2) 
PARAMETRIC_REPRESENTATION_CONTEXT() REPRESENTATION_CONTEXT('2D SPACE',''
  ) );
#404 = PCURVE('',#327,#405);
#405 = DEFINITIONAL_REPRESENTATION('',(#406),#410);
#406 = LINE('',#407,#408);
#407 = CARTESIAN_POINT('',(0.,0.));
#408 = VECTOR('',#409,1.);
#409 = DIRECTION('',(1.,0.));
#410 = ( GEOMETRIC_REPRESENTATION_CONTEXT(2) 
PARAMETRIC_REPRESENTATION_CONTEXT() REPRESENTATION_CONTEXT('2D SPACE',''
  ) );
#411 = ORIENTED_EDGE('',*,*,#412,.T.);
#412 = EDGE_CURVE('',#390,#55,#413,.T.);
#413 = SURFACE_CURVE('',#414,(#418,#424),.PCURVE_S1.);
#414 = LINE('',#415,#416);
#415 = CARTESIAN_POINT('',(-237.,161.8,0.));
#416 = VECTOR('',#417,1.);
#417 = DIRECTION('',(-1.,0.,0.));
#418 = PCURVE('',#97,#419);
#419 = DEFINITIONAL_REPRESENTATION('',(#420),#423);
#420 = B_SPLINE_CURVE_WITH_KNOTS('',1,(#421,#422),.UNSPECIFIED.,.F.,.F.,
  (2,2),(-25.2,-5.),.PIECEWISE_BEZIER_KNOTS.);
#421 = CARTESIAN_POINT('',(1.,30.2));
#422 = CARTESIAN_POINT('',(1.,10.));
#423 = ( GEOMETRIC_REPRESENTATION_CONTEXT(2) 
PARAMETRIC_REPRESENTATION_CONTEXT() REPRESENTATION_CONTEXT('2D SPACE',''
  ) );
#424 = PCURVE('',#70,#425);
#425 = DEFINITIONAL_REPRESENTATION('',(#426),#429);
#426 = B_SPLINE_CURVE_WITH_KNOTS('',1,(#427,#428),.UNSPECIFIED.,.F.,.F.,
  (2,2),(-25.2,-5.),.PIECEWISE_BEZIER_KNOTS.);
#427 = CARTESIAN_POINT('',(20.2,343.8));
#428 = CARTESIAN_POINT('',(0.,343.8));
#429 = ( GEOMETRIC_REPRESENTATION_CONTEXT(2) 
PARAMETRIC_REPRESENTATION_CONTEXT() REPRESENTATION_CONTEXT('2D SPACE',''
  ) );
#430 = ORIENTED_EDGE('',*,*,#82,.T.);
#431 = ORIENTED_EDGE('',*,*,#280,.T.);
#432 = ADVANCED_FACE('',(#433),#70,.F.);
#433 = FACE_BOUND('',#434,.F.);
#434 = EDGE_LOOP('',(#435,#436,#437,#465,#486,#509,#528));
#435 = ORIENTED_EDGE('',*,*,#54,.F.);
#436 = ORIENTED_EDGE('',*,*,#158,.F.);
#437 = ORIENTED_EDGE('',*,*,#438,.T.);
#438 = EDGE_CURVE('',#159,#439,#441,.T.);
#439 = VERTEX_POINT('',#440);
#440 = CARTESIAN_POINT('',(-76.,164.,0.));
#441 = SURFACE_CURVE('',#442,(#447,#458),.PCURVE_S1.);
#442 = CIRCLE('',#443,142.);
#443 = AXIS2_PLACEMENT_3D('',#444,#445,#446);
#444 = CARTESIAN_POINT('',(-76.,22.,0.));
#445 = DIRECTION('',(0.,0.,-1.));
#446 = DIRECTION('',(1.,0.,0.));
#447 = PCURVE('',#70,#448);
#448 = DEFINITIONAL_REPRESENTATION('',(#449),#457);
#449 = ( BOUNDED_CURVE() B_SPLINE_CURVE(2,(#450,#451,#452,#453,#454,#455
,#456),.UNSPECIFIED.,.T.,.F.) B_SPLINE_CURVE_WITH_KNOTS((1,2,2,2,2,1),(
    -2.094395102393,0.,2.094395102393,4.188790204786,6.28318530718,
8.377580409573),.UNSPECIFIED.) CURVE() GEOMETRIC_REPRESENTATION_ITEM() 
RATIONAL_B_SPLINE_CURVE((1.,0.5,1.,0.5,1.,0.5,1.)) REPRESENTATION_ITEM(
  '') );
#450 = CARTESIAN_POINT('',(298.,204.));
#451 = CARTESIAN_POINT('',(298.,-41.95121467478));
#452 = CARTESIAN_POINT('',(85.,81.02439266261));
#453 = CARTESIAN_POINT('',(-128.,204.));
#454 = CARTESIAN_POINT('',(85.,326.97560733739));
#455 = CARTESIAN_POINT('',(298.,449.95121467478));
#456 = CARTESIAN_POINT('',(298.,204.));
#457 = ( GEOMETRIC_REPRESENTATION_CONTEXT(2) 
PARAMETRIC_REPRESENTATION_CONTEXT() REPRESENTATION_CONTEXT('2D SPACE',''
  ) );
#458 = PCURVE('',#214,#459);
#459 = DEFINITIONAL_REPRESENTATION('',(#460),#464);
#460 = LINE('',#461,#462);
#461 = CARTESIAN_POINT('',(-6.28318530718,-1.));
#462 = VECTOR('',#463,1.);
#463 = DIRECTION('',(1.,-0.));
#464 = ( GEOMETRIC_REPRESENTATION_CONTEXT(2) 
PARAMETRIC_REPRESENTATION_CONTEXT() REPRESENTATION_CONTEXT('2D SPACE',''
  ) );
#465 = ORIENTED_EDGE('',*,*,#466,.T.);
#466 = EDGE_CURVE('',#439,#467,#469,.T.);
#467 = VERTEX_POINT('',#468);
#468 = CARTESIAN_POINT('',(-76.,182.,0.));
#469 = SURFACE_CURVE('',#470,(#474,#480),.PCURVE_S1.);
#470 = LINE('',#471,#472);
#471 = CARTESIAN_POINT('',(-76.,-80.,0.));
#472 = VECTOR('',#473,1.);
#473 = DIRECTION('',(0.,1.,0.));
#474 = PCURVE('',#70,#475);
#475 = DEFINITIONAL_REPRESENTATION('',(#476),#479);
#476 = B_SPLINE_CURVE_WITH_KNOTS('',1,(#477,#478),.UNSPECIFIED.,.F.,.F.,
  (2,2),(102.,262.),.PIECEWISE_BEZIER_KNOTS.);
#477 = CARTESIAN_POINT('',(156.,204.));
#478 = CARTESIAN_POINT('',(156.,364.));
#479 = ( GEOMETRIC_REPRESENTATION_CONTEXT(2) 
PARAMETRIC_REPRESENTATION_CONTEXT() REPRESENTATION_CONTEXT('2D SPACE',''
  ) );
#480 = PCURVE('',#245,#481);
#481 = DEFINITIONAL_REPRESENTATION('',(#482),#485);
#482 = B_SPLINE_CURVE_WITH_KNOTS('',1,(#483,#484),.UNSPECIFIED.,.F.,.F.,
  (2,2),(102.,262.),.PIECEWISE_BEZIER_KNOTS.);
#483 = CARTESIAN_POINT('',(2.,0.));
#484 = CARTESIAN_POINT('',(2.,-160.));
#485 = ( GEOMETRIC_REPRESENTATION_CONTEXT(2) 
PARAMETRIC_REPRESENTATION_CONTEXT() REPRESENTATION_CONTEXT('2D SPACE',''
  ) );
#486 = ORIENTED_EDGE('',*,*,#487,.F.);
#487 = EDGE_CURVE('',#488,#467,#490,.T.);
#488 = VERTEX_POINT('',#489);
#489 = CARTESIAN_POINT('',(-211.8,182.,0.));
#490 = SURFACE_CURVE('',#491,(#495,#502),.PCURVE_S1.);
#491 = LINE('',#492,#493);
#492 = CARTESIAN_POINT('',(-232.,182.,0.));
#493 = VECTOR('',#494,1.);
#494 = DIRECTION('',(1.,0.,0.));
#495 = PCURVE('',#70,#496);
#496 = DEFINITIONAL_REPRESENTATION('',(#497),#501);
#497 = LINE('',#498,#499);
#498 = CARTESIAN_POINT('',(0.,364.));
#499 = VECTOR('',#500,1.);
#500 = DIRECTION('',(1.,0.));
#501 = ( GEOMETRIC_REPRESENTATION_CONTEXT(2) 
PARAMETRIC_REPRESENTATION_CONTEXT() REPRESENTATION_CONTEXT('2D SPACE',''
  ) );
#502 = PCURVE('',#374,#503);
#503 = DEFINITIONAL_REPRESENTATION('',(#504),#508);
#504 = LINE('',#505,#506);
#505 = CARTESIAN_POINT('',(0.,0.));
#506 = VECTOR('',#507,1.);
#507 = DIRECTION('',(0.,1.));
#508 = ( GEOMETRIC_REPRESENTATION_CONTEXT(2) 
PARAMETRIC_REPRESENTATION_CONTEXT() REPRESENTATION_CONTEXT('2D SPACE',''
  ) );
#509 = ORIENTED_EDGE('',*,*,#510,.F.);
#510 = EDGE_CURVE('',#390,#488,#511,.T.);
#511 = SURFACE_CURVE('',#512,(#516,#522),.PCURVE_S1.);
#512 = LINE('',#513,#514);
#513 = CARTESIAN_POINT('',(-211.8,-10.1,0.));
#514 = VECTOR('',#515,1.);
#515 = DIRECTION('',(0.,1.,0.));
#516 = PCURVE('',#70,#517);
#517 = DEFINITIONAL_REPRESENTATION('',(#518),#521);
#518 = B_SPLINE_CURVE_WITH_KNOTS('',1,(#519,#520),.UNSPECIFIED.,.F.,.F.,
  (2,2),(171.9,192.1),.PIECEWISE_BEZIER_KNOTS.);
#519 = CARTESIAN_POINT('',(20.2,343.8));
#520 = CARTESIAN_POINT('',(20.2,364.));
#521 = ( GEOMETRIC_REPRESENTATION_CONTEXT(2) 
PARAMETRIC_REPRESENTATION_CONTEXT() REPRESENTATION_CONTEXT('2D SPACE',''
  ) );
#522 = PCURVE('',#327,#523);
#523 = DEFINITIONAL_REPRESENTATION('',(#524),#527);
#524 = B_SPLINE_CURVE_WITH_KNOTS('',1,(#525,#526),.UNSPECIFIED.,.F.,.F.,
  (2,2),(171.9,192.1),.PIECEWISE_BEZIER_KNOTS.);
#525 = CARTESIAN_POINT('',(1.,0.));
#526 = CARTESIAN_POINT('',(1.,-20.2));
#527 = ( GEOMETRIC_REPRESENTATION_CONTEXT(2) 
PARAMETRIC_REPRESENTATION_CONTEXT() REPRESENTATION_CONTEXT('2D SPACE',''
  ) );
#528 = ORIENTED_EDGE('',*,*,#412,.T.);
#529 = ADVANCED_FACE('',(#530),#214,.F.);
#530 = FACE_BOUND('',#531,.T.);
#531 = EDGE_LOOP('',(#532,#551,#552,#553));
#532 = ORIENTED_EDGE('',*,*,#533,.F.);
#533 = EDGE_CURVE('',#229,#439,#534,.T.);
#534 = SURFACE_CURVE('',#535,(#539,#545),.PCURVE_S1.);
#535 = LINE('',#536,#537);
#536 = CARTESIAN_POINT('',(-76.,164.,-1.));
#537 = VECTOR('',#538,1.);
#538 = DIRECTION('',(-0.,-0.,-1.));
#539 = PCURVE('',#214,#540);
#540 = DEFINITIONAL_REPRESENTATION('',(#541),#544);
#541 = B_SPLINE_CURVE_WITH_KNOTS('',1,(#542,#543),.UNSPECIFIED.,.F.,.F.,
  (2,2),(-7.5000006,-0.9999994),.PIECEWISE_BEZIER_KNOTS.);
#542 = CARTESIAN_POINT('',(-1.570796326795,-7.5000006));
#543 = CARTESIAN_POINT('',(-1.570796326795,-0.9999994));
#544 = ( GEOMETRIC_REPRESENTATION_CONTEXT(2) 
PARAMETRIC_REPRESENTATION_CONTEXT() REPRESENTATION_CONTEXT('2D SPACE',''
  ) );
#545 = PCURVE('',#245,#546);
#546 = DEFINITIONAL_REPRESENTATION('',(#547),#550);
#547 = B_SPLINE_CURVE_WITH_KNOTS('',1,(#548,#549),.UNSPECIFIED.,.F.,.F.,
  (2,2),(-7.5000006,-0.9999994),.PIECEWISE_BEZIER_KNOTS.);
#548 = CARTESIAN_POINT('',(8.5000006,-142.));
#549 = CARTESIAN_POINT('',(1.9999994,-142.));
#550 = ( GEOMETRIC_REPRESENTATION_CONTEXT(2) 
PARAMETRIC_REPRESENTATION_CONTEXT() REPRESENTATION_CONTEXT('2D SPACE',''
  ) );
#551 = ORIENTED_EDGE('',*,*,#256,.T.);
#552 = ORIENTED_EDGE('',*,*,#201,.T.);
#553 = ORIENTED_EDGE('',*,*,#438,.T.);
#554 = ADVANCED_FACE('',(#555),#245,.T.);
#555 = FACE_BOUND('',#556,.T.);
#556 = EDGE_LOOP('',(#557,#558,#559,#560));
#557 = ORIENTED_EDGE('',*,*,#228,.F.);
#558 = ORIENTED_EDGE('',*,*,#533,.T.);
#559 = ORIENTED_EDGE('',*,*,#466,.T.);
#560 = ORIENTED_EDGE('',*,*,#561,.F.);
#561 = EDGE_CURVE('',#231,#467,#562,.T.);
#562 = SURFACE_CURVE('',#563,(#567,#573),.PCURVE_S1.);
#563 = LINE('',#564,#565);
#564 = CARTESIAN_POINT('',(-76.,182.,-1.));
#565 = VECTOR('',#566,1.);
#566 = DIRECTION('',(0.,0.,-1.));
#567 = PCURVE('',#245,#568);
#568 = DEFINITIONAL_REPRESENTATION('',(#569),#572);
#569 = B_SPLINE_CURVE_WITH_KNOTS('',1,(#570,#571),.UNSPECIFIED.,.F.,.F.,
  (2,2),(-57.69289480431,-1.),.PIECEWISE_BEZIER_KNOTS.);
#570 = CARTESIAN_POINT('',(58.692894804316,-160.));
#571 = CARTESIAN_POINT('',(2.,-160.));
#572 = ( GEOMETRIC_REPRESENTATION_CONTEXT(2) 
PARAMETRIC_REPRESENTATION_CONTEXT() REPRESENTATION_CONTEXT('2D SPACE',''
  ) );
#573 = PCURVE('',#374,#574);
#574 = DEFINITIONAL_REPRESENTATION('',(#575),#578);
#575 = B_SPLINE_CURVE_WITH_KNOTS('',1,(#576,#577),.UNSPECIFIED.,.F.,.F.,
  (2,2),(-57.69289480431,-1.),.PIECEWISE_BEZIER_KNOTS.);
#576 = CARTESIAN_POINT('',(56.692894804316,156.));
#577 = CARTESIAN_POINT('',(0.,156.));
#578 = ( GEOMETRIC_REPRESENTATION_CONTEXT(2) 
PARAMETRIC_REPRESENTATION_CONTEXT() REPRESENTATION_CONTEXT('2D SPACE',''
  ) );
#579 = ADVANCED_FACE('',(#580),#374,.T.);
#580 = FACE_BOUND('',#581,.T.);
#581 = EDGE_LOOP('',(#582,#601,#602,#603));
#582 = ORIENTED_EDGE('',*,*,#583,.F.);
#583 = EDGE_CURVE('',#308,#488,#584,.T.);
#584 = SURFACE_CURVE('',#585,(#589,#595),.PCURVE_S1.);
#585 = LINE('',#586,#587);
#586 = CARTESIAN_POINT('',(-211.8,182.,-0.5));
#587 = VECTOR('',#588,1.);
#588 = DIRECTION('',(0.,0.,-1.));
#589 = PCURVE('',#374,#590);
#590 = DEFINITIONAL_REPRESENTATION('',(#591),#594);
#591 = B_SPLINE_CURVE_WITH_KNOTS('',1,(#592,#593),.UNSPECIFIED.,.F.,.F.,
  (2,2),(-57.5,-0.5),.PIECEWISE_BEZIER_KNOTS.);
#592 = CARTESIAN_POINT('',(57.,20.2));
#593 = CARTESIAN_POINT('',(0.,20.2));
#594 = ( GEOMETRIC_REPRESENTATION_CONTEXT(2) 
PARAMETRIC_REPRESENTATION_CONTEXT() REPRESENTATION_CONTEXT('2D SPACE',''
  ) );
#595 = PCURVE('',#327,#596);
#596 = DEFINITIONAL_REPRESENTATION('',(#597),#600);
#597 = B_SPLINE_CURVE_WITH_KNOTS('',1,(#598,#599),.UNSPECIFIED.,.F.,.F.,
  (2,2),(-57.5,-0.5),.PIECEWISE_BEZIER_KNOTS.);
#598 = CARTESIAN_POINT('',(58.,-20.2));
#599 = CARTESIAN_POINT('',(1.,-20.2));
#600 = ( GEOMETRIC_REPRESENTATION_CONTEXT(2) 
PARAMETRIC_REPRESENTATION_CONTEXT() REPRESENTATION_CONTEXT('2D SPACE',''
  ) );
#601 = ORIENTED_EDGE('',*,*,#339,.T.);
#602 = ORIENTED_EDGE('',*,*,#561,.T.);
#603 = ORIENTED_EDGE('',*,*,#487,.F.);
#604 = ADVANCED_FACE('',(#605),#327,.F.);
#605 = FACE_BOUND('',#606,.F.);
#606 = EDGE_LOOP('',(#607,#608,#609,#610));
#607 = ORIENTED_EDGE('',*,*,#389,.F.);
#608 = ORIENTED_EDGE('',*,*,#510,.T.);
#609 = ORIENTED_EDGE('',*,*,#583,.F.);
#610 = ORIENTED_EDGE('',*,*,#307,.T.);
#611 = ( GEOMETRIC_REPRESENTATION_CONTEXT(3) 
GLOBAL_UNCERTAINTY_ASSIGNED_CONTEXT((#615)) GLOBAL_UNIT_ASSIGNED_CONTEXT
((#612,#613,#614)) REPRESENTATION_CONTEXT('Context #1',
  '3D Context with UNIT and UNCERTAINTY') );
#612 = ( LENGTH_UNIT() NAMED_UNIT(*) SI_UNIT(.MILLI.,.METRE.) );
#613 = ( NAMED_UNIT(*) PLANE_ANGLE_UNIT() SI_UNIT($,.RADIAN.) );
#614 = ( NAMED_UNIT(*) SI_UNIT($,.STERADIAN.) SOLID_ANGLE_UNIT() );
#615 = UNCERTAINTY_MEASURE_WITH_UNIT(LENGTH_MEASURE(1.E-06),#612,
  'distance_accuracy_value','confusion accuracy');
#616 = PRODUCT_RELATED_PRODUCT_CATEGORY('part',$,(#7));
ENDSEC;
END-ISO-10303-21;
