ISO-10303-21;
HEADER;
FILE_DESCRIPTION(('Open CASCADE Model'),'2;1');
FILE_NAME('Open CASCADE Shape Model','2026-10-06T13:00:53',('Author'),(
    'Open CASCADE'),'Open CASCADE STEP processor 7.9','Open CASCADE 7.9'
  ,'Unknown');
FILE_SCHEMA(('AUTOMOTIVE_DESIGN { 1 0 10303 214 1 1 1 1 }'));
ENDSEC;
DATA;
#1 = APPLICATION_PROTOCOL_DEFINITION('international standard',
  'automotive_design',2000,#2);
#2 = APPLICATION_CONTEXT(
  'core data for automotive mechanical design processes');
#3 = SHAPE_DEFINITION_REPRESENTATION(#4,#10);
#4 = PRODUCT_DEFINITION_SHAPE('','',#5);
#5 = PRODUCT_DEFINITION('design','',#6,#9);
#6 = PRODUCT_DEFINITION_FORMATION('','',#7);
#7 = PRODUCT('Open CASCADE STEP translator 7.9 29',
  'Open CASCADE STEP translator 7.9 29','',(#8));
#8 = PRODUCT_CONTEXT('',#2,'mechanical');
#9 = PRODUCT_DEFINITION_CONTEXT('part definition',#2,'design');
#10 = ADVANCED_BREP_SHAPE_REPRESENTATION('',(#11,#15),#1532);
#11 = AXIS2_PLACEMENT_3D('',#12,#13,#14);
#12 = CARTESIAN_POINT('',(0.,0.,0.));
#13 = DIRECTION('',(0.,0.,1.));
#14 = DIRECTION('',(1.,0.,-0.));
#15 = MANIFOLD_SOLID_BREP('',#16);
#16 = CLOSED_SHELL('',(#17,#105,#268,#407,#434,#461,#488,#930,#957,#1493
    ,#1524,#1528));
#17 = ADVANCED_FACE('',(#18),#32,.T.);
#18 = FACE_BOUND('',#19,.F.);
#19 = EDGE_LOOP('',(#20,#50,#77,#78));
#20 = ORIENTED_EDGE('',*,*,#21,.T.);
#21 = EDGE_CURVE('',#22,#24,#26,.T.);
#22 = VERTEX_POINT('',#23);
#23 = CARTESIAN_POINT('',(140.,0.,0.));
#24 = VERTEX_POINT('',#25);
#25 = CARTESIAN_POINT('',(140.,0.,6.));
#26 = SEAM_CURVE('',#27,(#31,#43),.PCURVE_S1.);
#27 = LINE('',#28,#29);
#28 = CARTESIAN_POINT('',(140.,0.,0.));
#29 = VECTOR('',#30,1.);
#30 = DIRECTION('',(0.,0.,1.));
#31 = PCURVE('',#32,#37);
#32 = CYLINDRICAL_SURFACE('',#33,140.);
#33 = AXIS2_PLACEMENT_3D('',#34,#35,#36);
#34 = CARTESIAN_POINT('',(0.,0.,0.));
#35 = DIRECTION('',(-0.,-0.,-1.));
#36 = DIRECTION('',(1.,0.,0.));
#37 = DEFINITIONAL_REPRESENTATION('',(#38),#42);
#38 = LINE('',#39,#40);
#39 = CARTESIAN_POINT('',(-0.,0.));
#40 = VECTOR('',#41,1.);
#41 = DIRECTION('',(-0.,-1.));
#42 = ( GEOMETRIC_REPRESENTATION_CONTEXT(2) 
PARAMETRIC_REPRESENTATION_CONTEXT() REPRESENTATION_CONTEXT('2D SPACE',''
  ) );
#43 = PCURVE('',#32,#44);
#44 = DEFINITIONAL_REPRESENTATION('',(#45),#49);
#45 = LINE('',#46,#47);
#46 = CARTESIAN_POINT('',(-6.28318530718,0.));
#47 = VECTOR('',#48,1.);
#48 = DIRECTION('',(-0.,-1.));
#49 = ( GEOMETRIC_REPRESENTATION_CONTEXT(2) 
PARAMETRIC_REPRESENTATION_CONTEXT() REPRESENTATION_CONTEXT('2D SPACE',''
  ) );
#50 = ORIENTED_EDGE('',*,*,#51,.T.);
#51 = EDGE_CURVE('',#24,#24,#52,.T.);
#52 = SURFACE_CURVE('',#53,(#58,#65),.PCURVE_S1.);
#53 = CIRCLE('',#54,140.);
#54 = AXIS2_PLACEMENT_3D('',#55,#56,#57);
#55 = CARTESIAN_POINT('',(0.,0.,6.));
#56 = DIRECTION('',(0.,0.,1.));
#57 = DIRECTION('',(1.,0.,0.));
#58 = PCURVE('',#32,#59);
#59 = DEFINITIONAL_REPRESENTATION('',(#60),#64);
#60 = LINE('',#61,#62);
#61 = CARTESIAN_POINT('',(-0.,-6.));
#62 = VECTOR('',#63,1.);
#63 = DIRECTION('',(-1.,0.));
#64 = ( GEOMETRIC_REPRESENTATION_CONTEXT(2) 
PARAMETRIC_REPRESENTATION_CONTEXT() REPRESENTATION_CONTEXT('2D SPACE',''
  ) );
#65 = PCURVE('',#66,#71);
#66 = PLANE('',#67);
#67 = AXIS2_PLACEMENT_3D('',#68,#69,#70);
#68 = CARTESIAN_POINT('',(-5.000923913287E-15,9.28775334384E-15,6.));
#69 = DIRECTION('',(0.,0.,1.));
#70 = DIRECTION('',(1.,0.,-0.));
#71 = DEFINITIONAL_REPRESENTATION('',(#72),#76);
#72 = CIRCLE('',#73,140.);
#73 = AXIS2_PLACEMENT_2D('',#74,#75);
#74 = CARTESIAN_POINT('',(5.000923913287E-15,-9.28775334384E-15));
#75 = DIRECTION('',(1.,0.));
#76 = ( GEOMETRIC_REPRESENTATION_CONTEXT(2) 
PARAMETRIC_REPRESENTATION_CONTEXT() REPRESENTATION_CONTEXT('2D SPACE',''
  ) );
#77 = ORIENTED_EDGE('',*,*,#21,.F.);
#78 = ORIENTED_EDGE('',*,*,#79,.F.);
#79 = EDGE_CURVE('',#22,#22,#80,.T.);
#80 = SURFACE_CURVE('',#81,(#86,#93),.PCURVE_S1.);
#81 = CIRCLE('',#82,140.);
#82 = AXIS2_PLACEMENT_3D('',#83,#84,#85);
#83 = CARTESIAN_POINT('',(0.,0.,0.));
#84 = DIRECTION('',(0.,0.,1.));
#85 = DIRECTION('',(1.,0.,0.));
#86 = PCURVE('',#32,#87);
#87 = DEFINITIONAL_REPRESENTATION('',(#88),#92);
#88 = LINE('',#89,#90);
#89 = CARTESIAN_POINT('',(-0.,0.));
#90 = VECTOR('',#91,1.);
#91 = DIRECTION('',(-1.,0.));
#92 = ( GEOMETRIC_REPRESENTATION_CONTEXT(2) 
PARAMETRIC_REPRESENTATION_CONTEXT() REPRESENTATION_CONTEXT('2D SPACE',''
  ) );
#93 = PCURVE('',#94,#99);
#94 = PLANE('',#95);
#95 = AXIS2_PLACEMENT_3D('',#96,#97,#98);
#96 = CARTESIAN_POINT('',(-5.000923913287E-15,9.28775334384E-15,0.));
#97 = DIRECTION('',(0.,0.,1.));
#98 = DIRECTION('',(1.,0.,-0.));
#99 = DEFINITIONAL_REPRESENTATION('',(#100),#104);
#100 = CIRCLE('',#101,140.);
#101 = AXIS2_PLACEMENT_2D('',#102,#103);
#102 = CARTESIAN_POINT('',(5.000923913287E-15,-9.28775334384E-15));
#103 = DIRECTION('',(1.,0.));
#104 = ( GEOMETRIC_REPRESENTATION_CONTEXT(2) 
PARAMETRIC_REPRESENTATION_CONTEXT() REPRESENTATION_CONTEXT('2D SPACE',''
  ) );
#105 = ADVANCED_FACE('',(#106,#109,#140,#171,#202,#237),#94,.F.);
#106 = FACE_BOUND('',#107,.F.);
#107 = EDGE_LOOP('',(#108));
#108 = ORIENTED_EDGE('',*,*,#79,.T.);
#109 = FACE_BOUND('',#110,.F.);
#110 = EDGE_LOOP('',(#111));
#111 = ORIENTED_EDGE('',*,*,#112,.F.);
#112 = EDGE_CURVE('',#113,#113,#115,.T.);
#113 = VERTEX_POINT('',#114);
#114 = CARTESIAN_POINT('',(-20.,-76.,0.));
#115 = SURFACE_CURVE('',#116,(#121,#128),.PCURVE_S1.);
#116 = CIRCLE('',#117,37.);
#117 = AXIS2_PLACEMENT_3D('',#118,#119,#120);
#118 = CARTESIAN_POINT('',(-57.,-76.,0.));
#119 = DIRECTION('',(0.,0.,1.));
#120 = DIRECTION('',(1.,0.,0.));
#121 = PCURVE('',#94,#122);
#122 = DEFINITIONAL_REPRESENTATION('',(#123),#127);
#123 = CIRCLE('',#124,37.);
#124 = AXIS2_PLACEMENT_2D('',#125,#126);
#125 = CARTESIAN_POINT('',(-57.,-76.));
#126 = DIRECTION('',(1.,0.));
#127 = ( GEOMETRIC_REPRESENTATION_CONTEXT(2) 
PARAMETRIC_REPRESENTATION_CONTEXT() REPRESENTATION_CONTEXT('2D SPACE',''
  ) );
#128 = PCURVE('',#129,#134);
#129 = CYLINDRICAL_SURFACE('',#130,37.);
#130 = AXIS2_PLACEMENT_3D('',#131,#132,#133);
#131 = CARTESIAN_POINT('',(-57.,-76.,0.));
#132 = DIRECTION('',(-0.,-0.,-1.));
#133 = DIRECTION('',(1.,0.,0.));
#134 = DEFINITIONAL_REPRESENTATION('',(#135),#139);
#135 = LINE('',#136,#137);
#136 = CARTESIAN_POINT('',(-0.,0.));
#137 = VECTOR('',#138,1.);
#138 = DIRECTION('',(-1.,0.));
#139 = ( GEOMETRIC_REPRESENTATION_CONTEXT(2) 
PARAMETRIC_REPRESENTATION_CONTEXT() REPRESENTATION_CONTEXT('2D SPACE',''
  ) );
#140 = FACE_BOUND('',#141,.F.);
#141 = EDGE_LOOP('',(#142));
#142 = ORIENTED_EDGE('',*,*,#143,.F.);
#143 = EDGE_CURVE('',#144,#144,#146,.T.);
#144 = VERTEX_POINT('',#145);
#145 = CARTESIAN_POINT('',(113.,-57.,0.));
#146 = SURFACE_CURVE('',#147,(#152,#159),.PCURVE_S1.);
#147 = CIRCLE('',#148,37.);
#148 = AXIS2_PLACEMENT_3D('',#149,#150,#151);
#149 = CARTESIAN_POINT('',(76.,-57.,0.));
#150 = DIRECTION('',(0.,0.,1.));
#151 = DIRECTION('',(1.,0.,0.));
#152 = PCURVE('',#94,#153);
#153 = DEFINITIONAL_REPRESENTATION('',(#154),#158);
#154 = CIRCLE('',#155,37.);
#155 = AXIS2_PLACEMENT_2D('',#156,#157);
#156 = CARTESIAN_POINT('',(76.,-57.));
#157 = DIRECTION('',(1.,0.));
#158 = ( GEOMETRIC_REPRESENTATION_CONTEXT(2) 
PARAMETRIC_REPRESENTATION_CONTEXT() REPRESENTATION_CONTEXT('2D SPACE',''
  ) );
#159 = PCURVE('',#160,#165);
#160 = CYLINDRICAL_SURFACE('',#161,37.);
#161 = AXIS2_PLACEMENT_3D('',#162,#163,#164);
#162 = CARTESIAN_POINT('',(76.,-57.,0.));
#163 = DIRECTION('',(-0.,-0.,-1.));
#164 = DIRECTION('',(1.,0.,0.));
#165 = DEFINITIONAL_REPRESENTATION('',(#166),#170);
#166 = LINE('',#167,#168);
#167 = CARTESIAN_POINT('',(-0.,0.));
#168 = VECTOR('',#169,1.);
#169 = DIRECTION('',(-1.,0.));
#170 = ( GEOMETRIC_REPRESENTATION_CONTEXT(2) 
PARAMETRIC_REPRESENTATION_CONTEXT() REPRESENTATION_CONTEXT('2D SPACE',''
  ) );
#171 = FACE_BOUND('',#172,.F.);
#172 = EDGE_LOOP('',(#173));
#173 = ORIENTED_EDGE('',*,*,#174,.F.);
#174 = EDGE_CURVE('',#175,#175,#177,.T.);
#175 = VERTEX_POINT('',#176);
#176 = CARTESIAN_POINT('',(-39.,57.,0.));
#177 = SURFACE_CURVE('',#178,(#183,#190),.PCURVE_S1.);
#178 = CIRCLE('',#179,37.);
#179 = AXIS2_PLACEMENT_3D('',#180,#181,#182);
#180 = CARTESIAN_POINT('',(-76.,57.,0.));
#181 = DIRECTION('',(0.,0.,1.));
#182 = DIRECTION('',(1.,0.,0.));
#183 = PCURVE('',#94,#184);
#184 = DEFINITIONAL_REPRESENTATION('',(#185),#189);
#185 = CIRCLE('',#186,37.);
#186 = AXIS2_PLACEMENT_2D('',#187,#188);
#187 = CARTESIAN_POINT('',(-76.,57.));
#188 = DIRECTION('',(1.,0.));
#189 = ( GEOMETRIC_REPRESENTATION_CONTEXT(2) 
PARAMETRIC_REPRESENTATION_CONTEXT() REPRESENTATION_CONTEXT('2D SPACE',''
  ) );
#190 = PCURVE('',#191,#196);
#191 = CYLINDRICAL_SURFACE('',#192,37.);
#192 = AXIS2_PLACEMENT_3D('',#193,#194,#195);
#193 = CARTESIAN_POINT('',(-76.,57.,0.));
#194 = DIRECTION('',(-0.,-0.,-1.));
#195 = DIRECTION('',(1.,0.,0.));
#196 = DEFINITIONAL_REPRESENTATION('',(#197),#201);
#197 = LINE('',#198,#199);
#198 = CARTESIAN_POINT('',(-0.,0.));
#199 = VECTOR('',#200,1.);
#200 = DIRECTION('',(-1.,0.));
#201 = ( GEOMETRIC_REPRESENTATION_CONTEXT(2) 
PARAMETRIC_REPRESENTATION_CONTEXT() REPRESENTATION_CONTEXT('2D SPACE',''
  ) );
#202 = FACE_BOUND('',#203,.F.);
#203 = EDGE_LOOP('',(#204));
#204 = ORIENTED_EDGE('',*,*,#205,.T.);
#205 = EDGE_CURVE('',#206,#206,#208,.T.);
#206 = VERTEX_POINT('',#207);
#207 = CARTESIAN_POINT('',(2.55,0.,0.));
#208 = SURFACE_CURVE('',#209,(#214,#225),.PCURVE_S1.);
#209 = CIRCLE('',#210,2.55);
#210 = AXIS2_PLACEMENT_3D('',#211,#212,#213);
#211 = CARTESIAN_POINT('',(0.,0.,0.));
#212 = DIRECTION('',(0.,0.,-1.));
#213 = DIRECTION('',(1.,0.,0.));
#214 = PCURVE('',#94,#215);
#215 = DEFINITIONAL_REPRESENTATION('',(#216),#224);
#216 = ( BOUNDED_CURVE() B_SPLINE_CURVE(2,(#217,#218,#219,#220,#221,#222
,#223),.UNSPECIFIED.,.T.,.F.) B_SPLINE_CURVE_WITH_KNOTS((1,2,2,2,2,1),(
    -2.094395102393,0.,2.094395102393,4.188790204786,6.28318530718,
8.377580409573),.UNSPECIFIED.) CURVE() GEOMETRIC_REPRESENTATION_ITEM() 
RATIONAL_B_SPLINE_CURVE((1.,0.5,1.,0.5,1.,0.5,1.)) REPRESENTATION_ITEM(
  '') );
#217 = CARTESIAN_POINT('',(2.55,-9.28775334384E-15));
#218 = CARTESIAN_POINT('',(2.55,-4.416729559301));
#219 = CARTESIAN_POINT('',(-1.275,-2.20836477965));
#220 = CARTESIAN_POINT('',(-5.1,-9.912323211405E-15));
#221 = CARTESIAN_POINT('',(-1.275,2.20836477965));
#222 = CARTESIAN_POINT('',(2.55,4.416729559301));
#223 = CARTESIAN_POINT('',(2.55,-9.28775334384E-15));
#224 = ( GEOMETRIC_REPRESENTATION_CONTEXT(2) 
PARAMETRIC_REPRESENTATION_CONTEXT() REPRESENTATION_CONTEXT('2D SPACE',''
  ) );
#225 = PCURVE('',#226,#231);
#226 = CYLINDRICAL_SURFACE('',#227,2.55);
#227 = AXIS2_PLACEMENT_3D('',#228,#229,#230);
#228 = CARTESIAN_POINT('',(0.,0.,-1.));
#229 = DIRECTION('',(-0.,-0.,-1.));
#230 = DIRECTION('',(1.,0.,0.));
#231 = DEFINITIONAL_REPRESENTATION('',(#232),#236);
#232 = LINE('',#233,#234);
#233 = CARTESIAN_POINT('',(-6.28318530718,-1.));
#234 = VECTOR('',#235,1.);
#235 = DIRECTION('',(1.,-0.));
#236 = ( GEOMETRIC_REPRESENTATION_CONTEXT(2) 
PARAMETRIC_REPRESENTATION_CONTEXT() REPRESENTATION_CONTEXT('2D SPACE',''
  ) );
#237 = FACE_BOUND('',#238,.F.);
#238 = EDGE_LOOP('',(#239));
#239 = ORIENTED_EDGE('',*,*,#240,.F.);
#240 = EDGE_CURVE('',#241,#241,#243,.T.);
#241 = VERTEX_POINT('',#242);
#242 = CARTESIAN_POINT('',(94.,76.,0.));
#243 = SURFACE_CURVE('',#244,(#249,#256),.PCURVE_S1.);
#244 = CIRCLE('',#245,37.);
#245 = AXIS2_PLACEMENT_3D('',#246,#247,#248);
#246 = CARTESIAN_POINT('',(57.,76.,0.));
#247 = DIRECTION('',(0.,0.,1.));
#248 = DIRECTION('',(1.,0.,0.));
#249 = PCURVE('',#94,#250);
#250 = DEFINITIONAL_REPRESENTATION('',(#251),#255);
#251 = CIRCLE('',#252,37.);
#252 = AXIS2_PLACEMENT_2D('',#253,#254);
#253 = CARTESIAN_POINT('',(57.,76.));
#254 = DIRECTION('',(1.,0.));
#255 = ( GEOMETRIC_REPRESENTATION_CONTEXT(2) 
PARAMETRIC_REPRESENTATION_CONTEXT() REPRESENTATION_CONTEXT('2D SPACE',''
  ) );
#256 = PCURVE('',#257,#262);
#257 = CYLINDRICAL_SURFACE('',#258,37.);
#258 = AXIS2_PLACEMENT_3D('',#259,#260,#261);
#259 = CARTESIAN_POINT('',(57.,76.,0.));
#260 = DIRECTION('',(-0.,-0.,-1.));
#261 = DIRECTION('',(1.,0.,0.));
#262 = DEFINITIONAL_REPRESENTATION('',(#263),#267);
#263 = LINE('',#264,#265);
#264 = CARTESIAN_POINT('',(-0.,0.));
#265 = VECTOR('',#266,1.);
#266 = DIRECTION('',(-1.,0.));
#267 = ( GEOMETRIC_REPRESENTATION_CONTEXT(2) 
PARAMETRIC_REPRESENTATION_CONTEXT() REPRESENTATION_CONTEXT('2D SPACE',''
  ) );
#268 = ADVANCED_FACE('',(#269,#272,#298,#324,#350,#381),#66,.T.);
#269 = FACE_BOUND('',#270,.T.);
#270 = EDGE_LOOP('',(#271));
#271 = ORIENTED_EDGE('',*,*,#51,.T.);
#272 = FACE_BOUND('',#273,.T.);
#273 = EDGE_LOOP('',(#274));
#274 = ORIENTED_EDGE('',*,*,#275,.F.);
#275 = EDGE_CURVE('',#276,#276,#278,.T.);
#276 = VERTEX_POINT('',#277);
#277 = CARTESIAN_POINT('',(-20.,-76.,6.));
#278 = SURFACE_CURVE('',#279,(#284,#291),.PCURVE_S1.);
#279 = CIRCLE('',#280,37.);
#280 = AXIS2_PLACEMENT_3D('',#281,#282,#283);
#281 = CARTESIAN_POINT('',(-57.,-76.,6.));
#282 = DIRECTION('',(0.,0.,1.));
#283 = DIRECTION('',(1.,0.,0.));
#284 = PCURVE('',#66,#285);
#285 = DEFINITIONAL_REPRESENTATION('',(#286),#290);
#286 = CIRCLE('',#287,37.);
#287 = AXIS2_PLACEMENT_2D('',#288,#289);
#288 = CARTESIAN_POINT('',(-57.,-76.));
#289 = DIRECTION('',(1.,0.));
#290 = ( GEOMETRIC_REPRESENTATION_CONTEXT(2) 
PARAMETRIC_REPRESENTATION_CONTEXT() REPRESENTATION_CONTEXT('2D SPACE',''
  ) );
#291 = PCURVE('',#129,#292);
#292 = DEFINITIONAL_REPRESENTATION('',(#293),#297);
#293 = LINE('',#294,#295);
#294 = CARTESIAN_POINT('',(-0.,-6.));
#295 = VECTOR('',#296,1.);
#296 = DIRECTION('',(-1.,0.));
#297 = ( GEOMETRIC_REPRESENTATION_CONTEXT(2) 
PARAMETRIC_REPRESENTATION_CONTEXT() REPRESENTATION_CONTEXT('2D SPACE',''
  ) );
#298 = FACE_BOUND('',#299,.T.);
#299 = EDGE_LOOP('',(#300));
#300 = ORIENTED_EDGE('',*,*,#301,.F.);
#301 = EDGE_CURVE('',#302,#302,#304,.T.);
#302 = VERTEX_POINT('',#303);
#303 = CARTESIAN_POINT('',(113.,-57.,6.));
#304 = SURFACE_CURVE('',#305,(#310,#317),.PCURVE_S1.);
#305 = CIRCLE('',#306,37.);
#306 = AXIS2_PLACEMENT_3D('',#307,#308,#309);
#307 = CARTESIAN_POINT('',(76.,-57.,6.));
#308 = DIRECTION('',(0.,0.,1.));
#309 = DIRECTION('',(1.,0.,0.));
#310 = PCURVE('',#66,#311);
#311 = DEFINITIONAL_REPRESENTATION('',(#312),#316);
#312 = CIRCLE('',#313,37.);
#313 = AXIS2_PLACEMENT_2D('',#314,#315);
#314 = CARTESIAN_POINT('',(76.,-57.));
#315 = DIRECTION('',(1.,0.));
#316 = ( GEOMETRIC_REPRESENTATION_CONTEXT(2) 
PARAMETRIC_REPRESENTATION_CONTEXT() REPRESENTATION_CONTEXT('2D SPACE',''
  ) );
#317 = PCURVE('',#160,#318);
#318 = DEFINITIONAL_REPRESENTATION('',(#319),#323);
#319 = LINE('',#320,#321);
#320 = CARTESIAN_POINT('',(-0.,-6.));
#321 = VECTOR('',#322,1.);
#322 = DIRECTION('',(-1.,0.));
#323 = ( GEOMETRIC_REPRESENTATION_CONTEXT(2) 
PARAMETRIC_REPRESENTATION_CONTEXT() REPRESENTATION_CONTEXT('2D SPACE',''
  ) );
#324 = FACE_BOUND('',#325,.T.);
#325 = EDGE_LOOP('',(#326));
#326 = ORIENTED_EDGE('',*,*,#327,.F.);
#327 = EDGE_CURVE('',#328,#328,#330,.T.);
#328 = VERTEX_POINT('',#329);
#329 = CARTESIAN_POINT('',(-39.,57.,6.));
#330 = SURFACE_CURVE('',#331,(#336,#343),.PCURVE_S1.);
#331 = CIRCLE('',#332,37.);
#332 = AXIS2_PLACEMENT_3D('',#333,#334,#335);
#333 = CARTESIAN_POINT('',(-76.,57.,6.));
#334 = DIRECTION('',(0.,0.,1.));
#335 = DIRECTION('',(1.,0.,0.));
#336 = PCURVE('',#66,#337);
#337 = DEFINITIONAL_REPRESENTATION('',(#338),#342);
#338 = CIRCLE('',#339,37.);
#339 = AXIS2_PLACEMENT_2D('',#340,#341);
#340 = CARTESIAN_POINT('',(-76.,57.));
#341 = DIRECTION('',(1.,0.));
#342 = ( GEOMETRIC_REPRESENTATION_CONTEXT(2) 
PARAMETRIC_REPRESENTATION_CONTEXT() REPRESENTATION_CONTEXT('2D SPACE',''
  ) );
#343 = PCURVE('',#191,#344);
#344 = DEFINITIONAL_REPRESENTATION('',(#345),#349);
#345 = LINE('',#346,#347);
#346 = CARTESIAN_POINT('',(-0.,-6.));
#347 = VECTOR('',#348,1.);
#348 = DIRECTION('',(-1.,0.));
#349 = ( GEOMETRIC_REPRESENTATION_CONTEXT(2) 
PARAMETRIC_REPRESENTATION_CONTEXT() REPRESENTATION_CONTEXT('2D SPACE',''
  ) );
#350 = FACE_BOUND('',#351,.T.);
#351 = EDGE_LOOP('',(#352));
#352 = ORIENTED_EDGE('',*,*,#353,.F.);
#353 = EDGE_CURVE('',#354,#354,#356,.T.);
#354 = VERTEX_POINT('',#355);
#355 = CARTESIAN_POINT('',(56.,0.,6.));
#356 = SURFACE_CURVE('',#357,(#362,#369),.PCURVE_S1.);
#357 = CIRCLE('',#358,56.);
#358 = AXIS2_PLACEMENT_3D('',#359,#360,#361);
#359 = CARTESIAN_POINT('',(0.,0.,6.));
#360 = DIRECTION('',(0.,0.,1.));
#361 = DIRECTION('',(1.,0.,0.));
#362 = PCURVE('',#66,#363);
#363 = DEFINITIONAL_REPRESENTATION('',(#364),#368);
#364 = CIRCLE('',#365,56.);
#365 = AXIS2_PLACEMENT_2D('',#366,#367);
#366 = CARTESIAN_POINT('',(5.000923913287E-15,-9.28775334384E-15));
#367 = DIRECTION('',(1.,0.));
#368 = ( GEOMETRIC_REPRESENTATION_CONTEXT(2) 
PARAMETRIC_REPRESENTATION_CONTEXT() REPRESENTATION_CONTEXT('2D SPACE',''
  ) );
#369 = PCURVE('',#370,#375);
#370 = CONICAL_SURFACE('',#371,56.,0.674740942224);
#371 = AXIS2_PLACEMENT_3D('',#372,#373,#374);
#372 = CARTESIAN_POINT('',(0.,0.,6.));
#373 = DIRECTION('',(-0.,-0.,-1.));
#374 = DIRECTION('',(1.,0.,0.));
#375 = DEFINITIONAL_REPRESENTATION('',(#376),#380);
#376 = LINE('',#377,#378);
#377 = CARTESIAN_POINT('',(-0.,-0.));
#378 = VECTOR('',#379,1.);
#379 = DIRECTION('',(-1.,-0.));
#380 = ( GEOMETRIC_REPRESENTATION_CONTEXT(2) 
PARAMETRIC_REPRESENTATION_CONTEXT() REPRESENTATION_CONTEXT('2D SPACE',''
  ) );
#381 = FACE_BOUND('',#382,.T.);
#382 = EDGE_LOOP('',(#383));
#383 = ORIENTED_EDGE('',*,*,#384,.F.);
#384 = EDGE_CURVE('',#385,#385,#387,.T.);
#385 = VERTEX_POINT('',#386);
#386 = CARTESIAN_POINT('',(94.,76.,6.));
#387 = SURFACE_CURVE('',#388,(#393,#400),.PCURVE_S1.);
#388 = CIRCLE('',#389,37.);
#389 = AXIS2_PLACEMENT_3D('',#390,#391,#392);
#390 = CARTESIAN_POINT('',(57.,76.,6.));
#391 = DIRECTION('',(0.,0.,1.));
#392 = DIRECTION('',(1.,0.,0.));
#393 = PCURVE('',#66,#394);
#394 = DEFINITIONAL_REPRESENTATION('',(#395),#399);
#395 = CIRCLE('',#396,37.);
#396 = AXIS2_PLACEMENT_2D('',#397,#398);
#397 = CARTESIAN_POINT('',(57.,76.));
#398 = DIRECTION('',(1.,0.));
#399 = ( GEOMETRIC_REPRESENTATION_CONTEXT(2) 
PARAMETRIC_REPRESENTATION_CONTEXT() REPRESENTATION_CONTEXT('2D SPACE',''
  ) );
#400 = PCURVE('',#257,#401);
#401 = DEFINITIONAL_REPRESENTATION('',(#402),#406);
#402 = LINE('',#403,#404);
#403 = CARTESIAN_POINT('',(-0.,-6.));
#404 = VECTOR('',#405,1.);
#405 = DIRECTION('',(-1.,0.));
#406 = ( GEOMETRIC_REPRESENTATION_CONTEXT(2) 
PARAMETRIC_REPRESENTATION_CONTEXT() REPRESENTATION_CONTEXT('2D SPACE',''
  ) );
#407 = ADVANCED_FACE('',(#408),#129,.F.);
#408 = FACE_BOUND('',#409,.T.);
#409 = EDGE_LOOP('',(#410,#431,#432,#433));
#410 = ORIENTED_EDGE('',*,*,#411,.T.);
#411 = EDGE_CURVE('',#113,#276,#412,.T.);
#412 = SEAM_CURVE('',#413,(#417,#424),.PCURVE_S1.);
#413 = LINE('',#414,#415);
#414 = CARTESIAN_POINT('',(-20.,-76.,0.));
#415 = VECTOR('',#416,1.);
#416 = DIRECTION('',(0.,0.,1.));
#417 = PCURVE('',#129,#418);
#418 = DEFINITIONAL_REPRESENTATION('',(#419),#423);
#419 = LINE('',#420,#421);
#420 = CARTESIAN_POINT('',(-0.,0.));
#421 = VECTOR('',#422,1.);
#422 = DIRECTION('',(-0.,-1.));
#423 = ( GEOMETRIC_REPRESENTATION_CONTEXT(2) 
PARAMETRIC_REPRESENTATION_CONTEXT() REPRESENTATION_CONTEXT('2D SPACE',''
  ) );
#424 = PCURVE('',#129,#425);
#425 = DEFINITIONAL_REPRESENTATION('',(#426),#430);
#426 = LINE('',#427,#428);
#427 = CARTESIAN_POINT('',(-6.28318530718,0.));
#428 = VECTOR('',#429,1.);
#429 = DIRECTION('',(-0.,-1.));
#430 = ( GEOMETRIC_REPRESENTATION_CONTEXT(2) 
PARAMETRIC_REPRESENTATION_CONTEXT() REPRESENTATION_CONTEXT('2D SPACE',''
  ) );
#431 = ORIENTED_EDGE('',*,*,#275,.T.);
#432 = ORIENTED_EDGE('',*,*,#411,.F.);
#433 = ORIENTED_EDGE('',*,*,#112,.F.);
#434 = ADVANCED_FACE('',(#435),#160,.F.);
#435 = FACE_BOUND('',#436,.T.);
#436 = EDGE_LOOP('',(#437,#458,#459,#460));
#437 = ORIENTED_EDGE('',*,*,#438,.T.);
#438 = EDGE_CURVE('',#144,#302,#439,.T.);
#439 = SEAM_CURVE('',#440,(#444,#451),.PCURVE_S1.);
#440 = LINE('',#441,#442);
#441 = CARTESIAN_POINT('',(113.,-57.,0.));
#442 = VECTOR('',#443,1.);
#443 = DIRECTION('',(0.,0.,1.));
#444 = PCURVE('',#160,#445);
#445 = DEFINITIONAL_REPRESENTATION('',(#446),#450);
#446 = LINE('',#447,#448);
#447 = CARTESIAN_POINT('',(-0.,0.));
#448 = VECTOR('',#449,1.);
#449 = DIRECTION('',(-0.,-1.));
#450 = ( GEOMETRIC_REPRESENTATION_CONTEXT(2) 
PARAMETRIC_REPRESENTATION_CONTEXT() REPRESENTATION_CONTEXT('2D SPACE',''
  ) );
#451 = PCURVE('',#160,#452);
#452 = DEFINITIONAL_REPRESENTATION('',(#453),#457);
#453 = LINE('',#454,#455);
#454 = CARTESIAN_POINT('',(-6.28318530718,0.));
#455 = VECTOR('',#456,1.);
#456 = DIRECTION('',(-0.,-1.));
#457 = ( GEOMETRIC_REPRESENTATION_CONTEXT(2) 
PARAMETRIC_REPRESENTATION_CONTEXT() REPRESENTATION_CONTEXT('2D SPACE',''
  ) );
#458 = ORIENTED_EDGE('',*,*,#301,.T.);
#459 = ORIENTED_EDGE('',*,*,#438,.F.);
#460 = ORIENTED_EDGE('',*,*,#143,.F.);
#461 = ADVANCED_FACE('',(#462),#191,.F.);
#462 = FACE_BOUND('',#463,.T.);
#463 = EDGE_LOOP('',(#464,#485,#486,#487));
#464 = ORIENTED_EDGE('',*,*,#465,.T.);
#465 = EDGE_CURVE('',#175,#328,#466,.T.);
#466 = SEAM_CURVE('',#467,(#471,#478),.PCURVE_S1.);
#467 = LINE('',#468,#469);
#468 = CARTESIAN_POINT('',(-39.,57.,0.));
#469 = VECTOR('',#470,1.);
#470 = DIRECTION('',(0.,0.,1.));
#471 = PCURVE('',#191,#472);
#472 = DEFINITIONAL_REPRESENTATION('',(#473),#477);
#473 = LINE('',#474,#475);
#474 = CARTESIAN_POINT('',(-0.,0.));
#475 = VECTOR('',#476,1.);
#476 = DIRECTION('',(-0.,-1.));
#477 = ( GEOMETRIC_REPRESENTATION_CONTEXT(2) 
PARAMETRIC_REPRESENTATION_CONTEXT() REPRESENTATION_CONTEXT('2D SPACE',''
  ) );
#478 = PCURVE('',#191,#479);
#479 = DEFINITIONAL_REPRESENTATION('',(#480),#484);
#480 = LINE('',#481,#482);
#481 = CARTESIAN_POINT('',(-6.28318530718,0.));
#482 = VECTOR('',#483,1.);
#483 = DIRECTION('',(-0.,-1.));
#484 = ( GEOMETRIC_REPRESENTATION_CONTEXT(2) 
PARAMETRIC_REPRESENTATION_CONTEXT() REPRESENTATION_CONTEXT('2D SPACE',''
  ) );
#485 = ORIENTED_EDGE('',*,*,#327,.T.);
#486 = ORIENTED_EDGE('',*,*,#465,.F.);
#487 = ORIENTED_EDGE('',*,*,#174,.F.);
#488 = ADVANCED_FACE('',(#489),#226,.F.);
#489 = FACE_BOUND('',#490,.T.);
#490 = EDGE_LOOP('',(#491,#514,#515,#516,#616,#711,#734,#761,#762));
#491 = ORIENTED_EDGE('',*,*,#492,.F.);
#492 = EDGE_CURVE('',#206,#493,#495,.T.);
#493 = VERTEX_POINT('',#494);
#494 = CARTESIAN_POINT('',(2.55,0.,12.6));
#495 = SEAM_CURVE('',#496,(#500,#507),.PCURVE_S1.);
#496 = LINE('',#497,#498);
#497 = CARTESIAN_POINT('',(2.55,0.,-1.));
#498 = VECTOR('',#499,1.);
#499 = DIRECTION('',(0.,0.,1.));
#500 = PCURVE('',#226,#501);
#501 = DEFINITIONAL_REPRESENTATION('',(#502),#506);
#502 = LINE('',#503,#504);
#503 = CARTESIAN_POINT('',(-6.28318530718,0.));
#504 = VECTOR('',#505,1.);
#505 = DIRECTION('',(-0.,-1.));
#506 = ( GEOMETRIC_REPRESENTATION_CONTEXT(2) 
PARAMETRIC_REPRESENTATION_CONTEXT() REPRESENTATION_CONTEXT('2D SPACE',''
  ) );
#507 = PCURVE('',#226,#508);
#508 = DEFINITIONAL_REPRESENTATION('',(#509),#513);
#509 = LINE('',#510,#511);
#510 = CARTESIAN_POINT('',(-0.,0.));
#511 = VECTOR('',#512,1.);
#512 = DIRECTION('',(-0.,-1.));
#513 = ( GEOMETRIC_REPRESENTATION_CONTEXT(2) 
PARAMETRIC_REPRESENTATION_CONTEXT() REPRESENTATION_CONTEXT('2D SPACE',''
  ) );
#514 = ORIENTED_EDGE('',*,*,#205,.T.);
#515 = ORIENTED_EDGE('',*,*,#492,.T.);
#516 = ORIENTED_EDGE('',*,*,#517,.T.);
#517 = EDGE_CURVE('',#493,#518,#520,.T.);
#518 = VERTEX_POINT('',#519);
#519 = CARTESIAN_POINT('',(2.131314148595,1.4,14.));
#520 = SURFACE_CURVE('',#521,(#549,#580),.PCURVE_S1.);
#521 = B_SPLINE_CURVE_WITH_KNOTS('',6,(#522,#523,#524,#525,#526,#527,
    #528,#529,#530,#531,#532,#533,#534,#535,#536,#537,#538,#539,#540,
    #541,#542,#543,#544,#545,#546,#547,#548),.UNSPECIFIED.,.F.,.F.,(7,5,
    5,5,5,7),(0.,0.25792623285,0.431377885803,0.61111292571,
    0.803209472248,1.),.UNSPECIFIED.);
#522 = CARTESIAN_POINT('',(2.55,-1.285879139105E-16,12.6));
#523 = CARTESIAN_POINT('',(2.55,0.108562983101,12.6));
#524 = CARTESIAN_POINT('',(2.544453540129,0.216523062215,12.610102213289
    ));
#525 = CARTESIAN_POINT('',(2.533477100499,0.322250539105,12.630096284296
    ));
#526 = CARTESIAN_POINT('',(2.517646437356,0.424155544988,12.659309456463
    ));
#527 = CARTESIAN_POINT('',(2.497980078322,0.520783834194,12.696611757549
    ));
#528 = CARTESIAN_POINT('',(2.460777688745,0.671544169175,12.76972872945)
  );
#529 = CARTESIAN_POINT('',(2.444590765175,0.729483301231,12.802152396279
    ));
#530 = CARTESIAN_POINT('',(2.427453740819,0.784676377513,12.837305873604
    ));
#531 = CARTESIAN_POINT('',(2.409639860379,0.837077940211,12.874920223069
    ));
#532 = CARTESIAN_POINT('',(2.391413291654,0.886660057596,12.914749668941
    ));
#533 = CARTESIAN_POINT('',(2.353970604454,0.981851379417,12.999903795647
    ));
#534 = CARTESIAN_POINT('',(2.334731558804,1.027279683255,13.045400301822
    ));
#535 = CARTESIAN_POINT('',(2.315571599453,1.06970966912,13.092848149302)
  );
#536 = CARTESIAN_POINT('',(2.296741216738,1.109156082099,13.142067851259
    ));
#537 = CARTESIAN_POINT('',(2.278477843864,1.145629258038,13.192909219621
    ));
#538 = CARTESIAN_POINT('',(2.24233257961,1.214938442366,13.301189588603)
  );
#539 = CARTESIAN_POINT('',(2.224555445802,1.247366750646,13.358865510816
    ));
#540 = CARTESIAN_POINT('',(2.207968993586,1.276377690061,13.418074112659
    ));
#541 = CARTESIAN_POINT('',(2.192847572673,1.30193998725,13.478632400593)
  );
#542 = CARTESIAN_POINT('',(2.179436726349,1.324021150018,13.540376208276
    ));
#543 = CARTESIAN_POINT('',(2.156171243732,1.361589360509,13.667475608037
    ));
#544 = CARTESIAN_POINT('',(2.146410765849,1.376902588235,13.732884713969
    ));
#545 = CARTESIAN_POINT('',(2.138911076447,1.388435927006,13.799105517124
    ));
#546 = CARTESIAN_POINT('',(2.133847590061,1.39614249027,13.865868482602)
  );
#547 = CARTESIAN_POINT('',(2.131314148595,1.4,13.932915467076));
#548 = CARTESIAN_POINT('',(2.131314148595,1.4,14.));
#549 = PCURVE('',#226,#550);
#550 = DEFINITIONAL_REPRESENTATION('',(#551),#579);
#551 = B_SPLINE_CURVE_WITH_KNOTS('',6,(#552,#553,#554,#555,#556,#557,
    #558,#559,#560,#561,#562,#563,#564,#565,#566,#567,#568,#569,#570,
    #571,#572,#573,#574,#575,#576,#577,#578),.UNSPECIFIED.,.F.,.F.,(7,5,
    5,5,5,7),(0.,0.25792623285,0.431377885803,0.61111292571,
    0.803209472248,1.),.UNSPECIFIED.);
#552 = CARTESIAN_POINT('',(0.,-13.6));
#553 = CARTESIAN_POINT('',(-4.257371886295E-02,-13.6));
#554 = CARTESIAN_POINT('',(-8.491108615716E-02,-13.61010221328));
#555 = CARTESIAN_POINT('',(-0.126511344697,-13.63009628429));
#556 = CARTESIAN_POINT('',(-0.166884126704,-13.65930945646));
#557 = CARTESIAN_POINT('',(-0.205521772272,-13.69661175754));
#558 = CARTESIAN_POINT('',(-0.266416922824,-13.76972872945));
#559 = CARTESIAN_POINT('',(-0.289997230857,-13.80215239627));
#560 = CARTESIAN_POINT('',(-0.312647739159,-13.8373058736));
#561 = CARTESIAN_POINT('',(-0.334342038636,-13.87492022306));
#562 = CARTESIAN_POINT('',(-0.355052919873,-13.91474966894));
#563 = CARTESIAN_POINT('',(-0.395166834128,-13.99990379564));
#564 = CARTESIAN_POINT('',(-0.414507152741,-14.04540030182));
#565 = CARTESIAN_POINT('',(-0.432757209118,-14.0928481493));
#566 = CARTESIAN_POINT('',(-0.449893730774,-14.14206785125));
#567 = CARTESIAN_POINT('',(-0.465887727761,-14.19290921962));
#568 = CARTESIAN_POINT('',(-0.496541862807,-14.3011895886));
#569 = CARTESIAN_POINT('',(-0.511041232242,-14.35886551081));
#570 = CARTESIAN_POINT('',(-0.524143596845,-14.41807411265));
#571 = CARTESIAN_POINT('',(-0.535789374195,-14.47863240059));
#572 = CARTESIAN_POINT('',(-0.545920225157,-14.54037620827));
#573 = CARTESIAN_POINT('',(-0.56324917998,-14.66747560803));
#574 = CARTESIAN_POINT('',(-0.570369927118,-14.73288471396));
#575 = CARTESIAN_POINT('',(-0.575764756992,-14.79910551712));
#576 = CARTESIAN_POINT('',(-0.579381012923,-14.8658684826));
#577 = CARTESIAN_POINT('',(-0.581190800136,-14.93291546707));
#578 = CARTESIAN_POINT('',(-0.581190800136,-15.));
#579 = ( GEOMETRIC_REPRESENTATION_CONTEXT(2) 
PARAMETRIC_REPRESENTATION_CONTEXT() REPRESENTATION_CONTEXT('2D SPACE',''
  ) );
#580 = PCURVE('',#581,#586);
#581 = CYLINDRICAL_SURFACE('',#582,1.4);
#582 = AXIS2_PLACEMENT_3D('',#583,#584,#585);
#583 = CARTESIAN_POINT('',(0.,0.,14.));
#584 = DIRECTION('',(-1.,-0.,-0.));
#585 = DIRECTION('',(0.,1.,0.));
#586 = DEFINITIONAL_REPRESENTATION('',(#587),#615);
#587 = B_SPLINE_CURVE_WITH_KNOTS('',6,(#588,#589,#590,#591,#592,#593,
    #594,#595,#596,#597,#598,#599,#600,#601,#602,#603,#604,#605,#606,
    #607,#608,#609,#610,#611,#612,#613,#614),.UNSPECIFIED.,.F.,.F.,(7,5,
    5,5,5,7),(0.,0.25792623285,0.431377885803,0.61111292571,
    0.803209472248,1.),.UNSPECIFIED.);
#588 = CARTESIAN_POINT('',(-4.712388980385,-2.55));
#589 = CARTESIAN_POINT('',(-4.789933968314,-2.55));
#590 = CARTESIAN_POINT('',(-4.867048190718,-2.544453540129));
#591 = CARTESIAN_POINT('',(-4.943407751706,-2.533477100499));
#592 = CARTESIAN_POINT('',(-5.018666709835,-2.517646437356));
#593 = CARTESIAN_POINT('',(-5.092395558564,-2.497980078322));
#594 = CARTESIAN_POINT('',(-5.212077897856,-2.460777688745));
#595 = CARTESIAN_POINT('',(-5.259421158501,-2.444590765175));
#596 = CARTESIAN_POINT('',(-5.306050773926,-2.427453740819));
#597 = CARTESIAN_POINT('',(-5.352022499391,-2.409639860379));
#598 = CARTESIAN_POINT('',(-5.397386041161,-2.391413291654));
#599 = CARTESIAN_POINT('',(-5.488615212799,-2.353970604454));
#600 = CARTESIAN_POINT('',(-5.534466329148,-2.334731558804));
#601 = CARTESIAN_POINT('',(-5.579830535895,-2.315571599453));
#602 = CARTESIAN_POINT('',(-5.62478840774,-2.296741216738));
#603 = CARTESIAN_POINT('',(-5.66941940472,-2.278477843864));
#604 = CARTESIAN_POINT('',(-5.761249997805,-2.24233257961));
#605 = CARTESIAN_POINT('',(-5.808435041836,-2.224555445802));
#606 = CARTESIAN_POINT('',(-5.855418593855,-2.207968993586));
#607 = CARTESIAN_POINT('',(-5.902259855847,-2.192847572673));
#608 = CARTESIAN_POINT('',(-5.949024516446,-2.179436726349));
#609 = CARTESIAN_POINT('',(-6.043692647463,-2.156171243732));
#610 = CARTESIAN_POINT('',(-6.091597542384,-2.146410765849));
#611 = CARTESIAN_POINT('',(-6.139491386971,-2.138911076447));
#612 = CARTESIAN_POINT('',(-6.187376975824,-2.133847590061));
#613 = CARTESIAN_POINT('',(-6.235267783662,-2.131314148595));
#614 = CARTESIAN_POINT('',(-6.28318530718,-2.131314148595));
#615 = ( GEOMETRIC_REPRESENTATION_CONTEXT(2) 
PARAMETRIC_REPRESENTATION_CONTEXT() REPRESENTATION_CONTEXT('2D SPACE',''
  ) );
#616 = ORIENTED_EDGE('',*,*,#617,.T.);
#617 = EDGE_CURVE('',#518,#618,#620,.T.);
#618 = VERTEX_POINT('',#619);
#619 = CARTESIAN_POINT('',(2.55,0.,15.4));
#620 = SURFACE_CURVE('',#621,(#649,#680),.PCURVE_S1.);
#621 = B_SPLINE_CURVE_WITH_KNOTS('',6,(#622,#623,#624,#625,#626,#627,
    #628,#629,#630,#631,#632,#633,#634,#635,#636,#637,#638,#639,#640,
    #641,#642,#643,#644,#645,#646,#647,#648),.UNSPECIFIED.,.F.,.F.,(7,5,
    5,5,5,7),(0.,0.197735725572,0.38890121113,0.57117346546,
    0.749079840846,1.),.UNSPECIFIED.);
#622 = CARTESIAN_POINT('',(2.131314148595,1.4,14.));
#623 = CARTESIAN_POINT('',(2.131314148595,1.4,14.06741022744));
#624 = CARTESIAN_POINT('',(2.133872242608,1.396104941477,14.134782026417
    ));
#625 = CARTESIAN_POINT('',(2.138984935,1.388323520823,14.201865666504));
#626 = CARTESIAN_POINT('',(2.146556559347,1.376678385578,14.268399481772
    ));
#627 = CARTESIAN_POINT('',(2.156408400161,1.361217219442,14.33411015272)
  );
#628 = CARTESIAN_POINT('',(2.17977250724,1.323468181274,14.461169240775)
  );
#629 = CARTESIAN_POINT('',(2.193153171379,1.301423440116,14.522593085775
    ));
#630 = CARTESIAN_POINT('',(2.208224263902,1.275931544509,14.582839963885
    ));
#631 = CARTESIAN_POINT('',(2.224743513792,1.247024470716,14.641748147861
    ));
#632 = CARTESIAN_POINT('',(2.242440485924,1.214732938118,14.699137416335
    ));
#633 = CARTESIAN_POINT('',(2.278745224756,1.145115206511,14.807888194017
    ));
#634 = CARTESIAN_POINT('',(2.297279236804,1.108079954515,14.859426713778
    ));
#635 = CARTESIAN_POINT('',(2.316392988196,1.067986583812,14.909295412103
    ));
#636 = CARTESIAN_POINT('',(2.335838644309,1.024824143553,14.957337275284
    ));
#637 = CARTESIAN_POINT('',(2.355354520525,0.978577130147,15.003364166636
    ));
#638 = CARTESIAN_POINT('',(2.393512696045,0.881063095937,15.089896621431
    ));
#639 = CARTESIAN_POINT('',(2.412176404641,0.829912868536,15.130534521353
    ));
#640 = CARTESIAN_POINT('',(2.430383256779,0.775796047862,15.168821281129
    ));
#641 = CARTESIAN_POINT('',(2.447846152338,0.718746667892,15.204487794363
    ));
#642 = CARTESIAN_POINT('',(2.464268622145,0.658818938362,15.23724035008)
  );
#643 = CARTESIAN_POINT('',(2.500620417133,0.507619180312,15.308389555546
    ));
#644 = CARTESIAN_POINT('',(2.519342614339,0.413079612733,15.343819878798
    ));
#645 = CARTESIAN_POINT('',(2.534362190213,0.31362593127,15.371516045765)
  );
#646 = CARTESIAN_POINT('',(2.544754298242,0.210628774653,15.390445540163
    ));
#647 = CARTESIAN_POINT('',(2.55,0.105578733979,15.4));
#648 = CARTESIAN_POINT('',(2.55,2.143131898508E-16,15.4));
#649 = PCURVE('',#226,#650);
#650 = DEFINITIONAL_REPRESENTATION('',(#651),#679);
#651 = B_SPLINE_CURVE_WITH_KNOTS('',6,(#652,#653,#654,#655,#656,#657,
    #658,#659,#660,#661,#662,#663,#664,#665,#666,#667,#668,#669,#670,
    #671,#672,#673,#674,#675,#676,#677,#678),.UNSPECIFIED.,.F.,.F.,(7,5,
    5,5,5,7),(0.,0.197735725572,0.38890121113,0.57117346546,
    0.749079840846,1.),.UNSPECIFIED.);
#652 = CARTESIAN_POINT('',(-0.581190800136,-15.));
#653 = CARTESIAN_POINT('',(-0.581190800136,-15.06741022744));
#654 = CARTESIAN_POINT('',(-0.579363398868,-15.13478202641));
#655 = CARTESIAN_POINT('',(-0.575712009921,-15.2018656665));
#656 = CARTESIAN_POINT('',(-0.570265052726,-15.26839948177));
#657 = CARTESIAN_POINT('',(-0.563076141856,-15.33411015272));
#658 = CARTESIAN_POINT('',(-0.545666535108,-15.46116924077));
#659 = CARTESIAN_POINT('',(-0.535554036125,-15.52259308577));
#660 = CARTESIAN_POINT('',(-0.523942062413,-15.58283996388));
#661 = CARTESIAN_POINT('',(-0.510888108918,-15.64174814786));
#662 = CARTESIAN_POINT('',(-0.496450839033,-15.69913741633));
#663 = CARTESIAN_POINT('',(-0.46566049963,-15.80788819401));
#664 = CARTESIAN_POINT('',(-0.449421980932,-15.85942671377));
#665 = CARTESIAN_POINT('',(-0.432008853778,-15.9092954121));
#666 = CARTESIAN_POINT('',(-0.413451258902,-15.95733727528));
#667 = CARTESIAN_POINT('',(-0.393773303714,-16.00336416663));
#668 = CARTESIAN_POINT('',(-0.352708968584,-16.08989662143));
#669 = CARTESIAN_POINT('',(-0.331362166455,-16.13053452135));
#670 = CARTESIAN_POINT('',(-0.308982294507,-16.16882128112));
#671 = CARTESIAN_POINT('',(-0.285599808296,-16.20448779436));
#672 = CARTESIAN_POINT('',(-0.261244404679,-16.23724035008));
#673 = CARTESIAN_POINT('',(-0.200260772166,-16.30838955554));
#674 = CARTESIAN_POINT('',(-0.162497265362,-16.34381987879));
#675 = CARTESIAN_POINT('',(-0.123118051414,-16.37151604576));
#676 = CARTESIAN_POINT('',(-8.259958750234E-02,-16.39044554016));
#677 = CARTESIAN_POINT('',(-4.140342508967E-02,-16.4));
#678 = CARTESIAN_POINT('',(0.,-16.4));
#679 = ( GEOMETRIC_REPRESENTATION_CONTEXT(2) 
PARAMETRIC_REPRESENTATION_CONTEXT() REPRESENTATION_CONTEXT('2D SPACE',''
  ) );
#680 = PCURVE('',#581,#681);
#681 = DEFINITIONAL_REPRESENTATION('',(#682),#710);
#682 = B_SPLINE_CURVE_WITH_KNOTS('',6,(#683,#684,#685,#686,#687,#688,
    #689,#690,#691,#692,#693,#694,#695,#696,#697,#698,#699,#700,#701,
    #702,#703,#704,#705,#706,#707,#708,#709),.UNSPECIFIED.,.F.,.F.,(7,5,
    5,5,5,7),(0.,0.197735725572,0.38890121113,0.57117346546,
    0.749079840846,1.),.UNSPECIFIED.);
#683 = CARTESIAN_POINT('',(0.,-2.131314148595));
#684 = CARTESIAN_POINT('',(-4.815016245681E-02,-2.131314148595));
#685 = CARTESIAN_POINT('',(-9.627298408145E-02,-2.133872242608));
#686 = CARTESIAN_POINT('',(-0.144390515437,-2.138984935));
#687 = CARTESIAN_POINT('',(-0.192516606853,-2.146556559347));
#688 = CARTESIAN_POINT('',(-0.240654189502,-2.156408400161));
#689 = CARTESIAN_POINT('',(-0.335331411672,-2.17977250724));
#690 = CARTESIAN_POINT('',(-0.381873194721,-2.193153171379));
#691 = CARTESIAN_POINT('',(-0.428491559534,-2.208224263902));
#692 = CARTESIAN_POINT('',(-0.475251373041,-2.224743513792));
#693 = CARTESIAN_POINT('',(-0.522211169697,-2.242440485924));
#694 = CARTESIAN_POINT('',(-0.614443574137,-2.278745224756));
#695 = CARTESIAN_POINT('',(-0.659710533124,-2.297279236804));
#696 = CARTESIAN_POINT('',(-0.705315003411,-2.316392988196));
#697 = CARTESIAN_POINT('',(-0.75133984485,-2.335838644309));
#698 = CARTESIAN_POINT('',(-0.797869114812,-2.355354520525));
#699 = CARTESIAN_POINT('',(-0.890991956112,-2.393512696045));
#700 = CARTESIAN_POINT('',(-0.937585826862,-2.412176404641));
#701 = CARTESIAN_POINT('',(-0.984825407859,-2.430383256779));
#702 = CARTESIAN_POINT('',(-1.032762228922,-2.447846152338));
#703 = CARTESIAN_POINT('',(-1.081454870754,-2.464268622145));
#704 = CARTESIAN_POINT('',(-1.20081450626,-2.500620417133));
#705 = CARTESIAN_POINT('',(-1.27269116745,-2.519342614339));
#706 = CARTESIAN_POINT('',(-1.346005397007,-2.534362190213));
#707 = CARTESIAN_POINT('',(-1.420347301652,-2.544754298242));
#708 = CARTESIAN_POINT('',(-1.495382945382,-2.55));
#709 = CARTESIAN_POINT('',(-1.570796326795,-2.55));
#710 = ( GEOMETRIC_REPRESENTATION_CONTEXT(2) 
PARAMETRIC_REPRESENTATION_CONTEXT() REPRESENTATION_CONTEXT('2D SPACE',''
  ) );
#711 = ORIENTED_EDGE('',*,*,#712,.T.);
#712 = EDGE_CURVE('',#618,#713,#715,.T.);
#713 = VERTEX_POINT('',#714);
#714 = CARTESIAN_POINT('',(2.55,0.,24.));
#715 = SEAM_CURVE('',#716,(#720,#727),.PCURVE_S1.);
#716 = LINE('',#717,#718);
#717 = CARTESIAN_POINT('',(2.55,0.,-1.));
#718 = VECTOR('',#719,1.);
#719 = DIRECTION('',(0.,0.,1.));
#720 = PCURVE('',#226,#721);
#721 = DEFINITIONAL_REPRESENTATION('',(#722),#726);
#722 = LINE('',#723,#724);
#723 = CARTESIAN_POINT('',(-6.28318530718,0.));
#724 = VECTOR('',#725,1.);
#725 = DIRECTION('',(-0.,-1.));
#726 = ( GEOMETRIC_REPRESENTATION_CONTEXT(2) 
PARAMETRIC_REPRESENTATION_CONTEXT() REPRESENTATION_CONTEXT('2D SPACE',''
  ) );
#727 = PCURVE('',#226,#728);
#728 = DEFINITIONAL_REPRESENTATION('',(#729),#733);
#729 = LINE('',#730,#731);
#730 = CARTESIAN_POINT('',(-0.,0.));
#731 = VECTOR('',#732,1.);
#732 = DIRECTION('',(-0.,-1.));
#733 = ( GEOMETRIC_REPRESENTATION_CONTEXT(2) 
PARAMETRIC_REPRESENTATION_CONTEXT() REPRESENTATION_CONTEXT('2D SPACE',''
  ) );
#734 = ORIENTED_EDGE('',*,*,#735,.T.);
#735 = EDGE_CURVE('',#713,#713,#736,.T.);
#736 = SURFACE_CURVE('',#737,(#742,#749),.PCURVE_S1.);
#737 = CIRCLE('',#738,2.55);
#738 = AXIS2_PLACEMENT_3D('',#739,#740,#741);
#739 = CARTESIAN_POINT('',(0.,0.,24.));
#740 = DIRECTION('',(0.,0.,1.));
#741 = DIRECTION('',(1.,0.,0.));
#742 = PCURVE('',#226,#743);
#743 = DEFINITIONAL_REPRESENTATION('',(#744),#748);
#744 = LINE('',#745,#746);
#745 = CARTESIAN_POINT('',(-0.,-25.));
#746 = VECTOR('',#747,1.);
#747 = DIRECTION('',(-1.,0.));
#748 = ( GEOMETRIC_REPRESENTATION_CONTEXT(2) 
PARAMETRIC_REPRESENTATION_CONTEXT() REPRESENTATION_CONTEXT('2D SPACE',''
  ) );
#749 = PCURVE('',#750,#755);
#750 = PLANE('',#751);
#751 = AXIS2_PLACEMENT_3D('',#752,#753,#754);
#752 = CARTESIAN_POINT('',(-6.703137904605E-17,2.980932963488E-16,24.));
#753 = DIRECTION('',(0.,0.,1.));
#754 = DIRECTION('',(1.,0.,-0.));
#755 = DEFINITIONAL_REPRESENTATION('',(#756),#760);
#756 = CIRCLE('',#757,2.55);
#757 = AXIS2_PLACEMENT_2D('',#758,#759);
#758 = CARTESIAN_POINT('',(6.703137904605E-17,-2.980932963488E-16));
#759 = DIRECTION('',(1.,0.));
#760 = ( GEOMETRIC_REPRESENTATION_CONTEXT(2) 
PARAMETRIC_REPRESENTATION_CONTEXT() REPRESENTATION_CONTEXT('2D SPACE',''
  ) );
#761 = ORIENTED_EDGE('',*,*,#712,.F.);
#762 = ORIENTED_EDGE('',*,*,#763,.T.);
#763 = EDGE_CURVE('',#618,#493,#764,.T.);
#764 = SURFACE_CURVE('',#765,(#818,#874),.PCURVE_S1.);
#765 = B_SPLINE_CURVE_WITH_KNOTS('',6,(#766,#767,#768,#769,#770,#771,
    #772,#773,#774,#775,#776,#777,#778,#779,#780,#781,#782,#783,#784,
    #785,#786,#787,#788,#789,#790,#791,#792,#793,#794,#795,#796,#797,
    #798,#799,#800,#801,#802,#803,#804,#805,#806,#807,#808,#809,#810,
    #811,#812,#813,#814,#815,#816,#817),.UNSPECIFIED.,.F.,.F.,(7,5,5,5,5
    ,5,5,5,5,5,7),(0.,0.128953498134,0.215672856449,0.305533673928,
    0.401574783751,0.499962709138,0.598828306596,0.694408859316,
    0.821060283896,0.874502382494,1.),.UNSPECIFIED.);
#766 = CARTESIAN_POINT('',(2.55,0.,15.4));
#767 = CARTESIAN_POINT('',(2.55,-0.108562983101,15.4));
#768 = CARTESIAN_POINT('',(2.544453540129,-0.216523062215,
    15.389897786711));
#769 = CARTESIAN_POINT('',(2.533477100499,-0.322250539105,
    15.369903715704));
#770 = CARTESIAN_POINT('',(2.517646437356,-0.424155544988,
    15.340690543537));
#771 = CARTESIAN_POINT('',(2.497980078322,-0.520783834194,
    15.303388242451));
#772 = CARTESIAN_POINT('',(2.460777688745,-0.671544169175,15.23027127055
    ));
#773 = CARTESIAN_POINT('',(2.444590765175,-0.729483301231,
    15.197847603721));
#774 = CARTESIAN_POINT('',(2.427453740819,-0.784676377513,
    15.162694126396));
#775 = CARTESIAN_POINT('',(2.409639860379,-0.837077940211,
    15.125079776931));
#776 = CARTESIAN_POINT('',(2.391413291654,-0.886660057596,
    15.085250331059));
#777 = CARTESIAN_POINT('',(2.353970604454,-0.981851379417,
    15.000096204353));
#778 = CARTESIAN_POINT('',(2.334731558804,-1.027279683255,
    14.954599698178));
#779 = CARTESIAN_POINT('',(2.315571599453,-1.06970966912,14.907151850698
    ));
#780 = CARTESIAN_POINT('',(2.296741216738,-1.109156082099,
    14.857932148741));
#781 = CARTESIAN_POINT('',(2.278477843864,-1.145629258038,
    14.807090780379));
#782 = CARTESIAN_POINT('',(2.24233257961,-1.214938442366,14.698810411397
    ));
#783 = CARTESIAN_POINT('',(2.224555445802,-1.247366750646,
    14.641134489184));
#784 = CARTESIAN_POINT('',(2.207968993586,-1.276377690061,
    14.581925887341));
#785 = CARTESIAN_POINT('',(2.192847572673,-1.30193998725,14.521367599407
    ));
#786 = CARTESIAN_POINT('',(2.179436726349,-1.324021150018,
    14.459623791724));
#787 = CARTESIAN_POINT('',(2.156171243732,-1.361589360509,
    14.332524391963));
#788 = CARTESIAN_POINT('',(2.146410765849,-1.376902588235,
    14.267115286031));
#789 = CARTESIAN_POINT('',(2.138911076447,-1.388435927006,
    14.200894482876));
#790 = CARTESIAN_POINT('',(2.133847590061,-1.39614249027,14.134131517398
    ));
#791 = CARTESIAN_POINT('',(2.131314148595,-1.4,14.067084532924));
#792 = CARTESIAN_POINT('',(2.131314148595,-1.4,13.93258977256));
#793 = CARTESIAN_POINT('',(2.133872242608,-1.396104941477,
    13.865217973583));
#794 = CARTESIAN_POINT('',(2.138984935,-1.388323520823,13.798134333496)
  );
#795 = CARTESIAN_POINT('',(2.146556559347,-1.376678385578,
    13.731600518228));
#796 = CARTESIAN_POINT('',(2.156408400161,-1.361217219442,13.66588984728
    ));
#797 = CARTESIAN_POINT('',(2.17977250724,-1.323468181274,13.538830759225
    ));
#798 = CARTESIAN_POINT('',(2.193153171379,-1.301423440116,
    13.477406914225));
#799 = CARTESIAN_POINT('',(2.208224263902,-1.275931544509,
    13.417160036115));
#800 = CARTESIAN_POINT('',(2.224743513792,-1.247024470716,
    13.358251852139));
#801 = CARTESIAN_POINT('',(2.242440485924,-1.214732938118,
    13.300862583665));
#802 = CARTESIAN_POINT('',(2.285651216388,-1.131872321771,13.17142492089
    ));
#803 = CARTESIAN_POINT('',(2.311850675681,-1.078745695915,
    13.100631645894));
#804 = CARTESIAN_POINT('',(2.338992308372,-1.019713561951,
    13.033163287354));
#805 = CARTESIAN_POINT('',(2.366399535548,-0.954729999416,12.96946479501
    ));
#806 = CARTESIAN_POINT('',(2.39334027908,-0.883747138645,12.910107666825
    ));
#807 = CARTESIAN_POINT('',(2.429851356523,-0.774270727636,
    12.832916057991));
#808 = CARTESIAN_POINT('',(2.440461274086,-0.740713463998,
    12.810912094446));
#809 = CARTESIAN_POINT('',(2.450781647183,-0.70609872753,12.789875142145
    ));
#810 = CARTESIAN_POINT('',(2.460747119412,-0.670442961248,12.76987180113
    ));
#811 = CARTESIAN_POINT('',(2.470291910433,-0.633765987546,
    12.750970626128));
#812 = CARTESIAN_POINT('',(2.500620417133,-0.507619180312,
    12.691610444454));
#813 = CARTESIAN_POINT('',(2.519342614339,-0.413079612733,
    12.656180121202));
#814 = CARTESIAN_POINT('',(2.534362190213,-0.31362593127,12.628483954235
    ));
#815 = CARTESIAN_POINT('',(2.544754298242,-0.210628774653,
    12.609554459837));
#816 = CARTESIAN_POINT('',(2.55,-0.105578733979,12.6));
#817 = CARTESIAN_POINT('',(2.55,-4.440892098501E-16,12.6));
#818 = PCURVE('',#226,#819);
#819 = DEFINITIONAL_REPRESENTATION('',(#820),#873);
#820 = B_SPLINE_CURVE_WITH_KNOTS('',6,(#821,#822,#823,#824,#825,#826,
    #827,#828,#829,#830,#831,#832,#833,#834,#835,#836,#837,#838,#839,
    #840,#841,#842,#843,#844,#845,#846,#847,#848,#849,#850,#851,#852,
    #853,#854,#855,#856,#857,#858,#859,#860,#861,#862,#863,#864,#865,
    #866,#867,#868,#869,#870,#871,#872),.UNSPECIFIED.,.F.,.F.,(7,5,5,5,5
    ,5,5,5,5,5,7),(0.,0.128953498134,0.215672856449,0.305533673928,
    0.401574783751,0.499962709138,0.598828306596,0.694408859316,
    0.821060283896,0.874502382494,1.),.UNSPECIFIED.);
#821 = CARTESIAN_POINT('',(-6.28318530718,-16.4));
#822 = CARTESIAN_POINT('',(-6.240611588317,-16.4));
#823 = CARTESIAN_POINT('',(-6.198274221022,-16.38989778671));
#824 = CARTESIAN_POINT('',(-6.156673962482,-16.3699037157));
#825 = CARTESIAN_POINT('',(-6.116301180475,-16.34069054353));
#826 = CARTESIAN_POINT('',(-6.077663534908,-16.30338824245));
#827 = CARTESIAN_POINT('',(-6.016768384355,-16.23027127055));
#828 = CARTESIAN_POINT('',(-5.993188076322,-16.19784760372));
#829 = CARTESIAN_POINT('',(-5.97053756802,-16.16269412639));
#830 = CARTESIAN_POINT('',(-5.948843268544,-16.12507977693));
#831 = CARTESIAN_POINT('',(-5.928132387307,-16.08525033105));
#832 = CARTESIAN_POINT('',(-5.888018473052,-16.00009620435));
#833 = CARTESIAN_POINT('',(-5.868678154439,-15.95459969817));
#834 = CARTESIAN_POINT('',(-5.850428098062,-15.90715185069));
#835 = CARTESIAN_POINT('',(-5.833291576406,-15.85793214874));
#836 = CARTESIAN_POINT('',(-5.817297579419,-15.80709078037));
#837 = CARTESIAN_POINT('',(-5.786643444372,-15.69881041139));
#838 = CARTESIAN_POINT('',(-5.772144074937,-15.64113448918));
#839 = CARTESIAN_POINT('',(-5.759041710334,-15.58192588734));
#840 = CARTESIAN_POINT('',(-5.747395932984,-15.5213675994));
#841 = CARTESIAN_POINT('',(-5.737265082022,-15.45962379172));
#842 = CARTESIAN_POINT('',(-5.719936127199,-15.33252439196));
#843 = CARTESIAN_POINT('',(-5.712815380061,-15.26711528603));
#844 = CARTESIAN_POINT('',(-5.707420550188,-15.20089448287));
#845 = CARTESIAN_POINT('',(-5.703804294257,-15.13413151739));
#846 = CARTESIAN_POINT('',(-5.701994507044,-15.06708453292));
#847 = CARTESIAN_POINT('',(-5.701994507044,-14.93258977256));
#848 = CARTESIAN_POINT('',(-5.703821908312,-14.86521797358));
#849 = CARTESIAN_POINT('',(-5.707473297258,-14.79813433349));
#850 = CARTESIAN_POINT('',(-5.712920254453,-14.73160051822));
#851 = CARTESIAN_POINT('',(-5.720109165324,-14.66588984728));
#852 = CARTESIAN_POINT('',(-5.737518772071,-14.53883075922));
#853 = CARTESIAN_POINT('',(-5.747631271055,-14.47740691422));
#854 = CARTESIAN_POINT('',(-5.759243244766,-14.41716003611));
#855 = CARTESIAN_POINT('',(-5.772297198262,-14.35825185213));
#856 = CARTESIAN_POINT('',(-5.786734468147,-14.30086258366));
#857 = CARTESIAN_POINT('',(-5.823381834292,-14.17142492089));
#858 = CARTESIAN_POINT('',(-5.846605534267,-14.10063164589));
#859 = CARTESIAN_POINT('',(-5.872070023803,-14.03316328735));
#860 = CARTESIAN_POINT('',(-5.899703091247,-13.96946479501));
#861 = CARTESIAN_POINT('',(-5.929452203235,-13.91010766682));
#862 = CARTESIAN_POINT('',(-5.974708775984,-13.83291605799));
#863 = CARTESIAN_POINT('',(-5.988508902504,-13.81091209444));
#864 = CARTESIAN_POINT('',(-6.002670824677,-13.78987514214));
#865 = CARTESIAN_POINT('',(-6.017185919425,-13.76987180113));
#866 = CARTESIAN_POINT('',(-6.032045547941,-13.75097062612));
#867 = CARTESIAN_POINT('',(-6.082924535014,-13.69161044445));
#868 = CARTESIAN_POINT('',(-6.120688041817,-13.6561801212));
#869 = CARTESIAN_POINT('',(-6.160067255765,-13.62848395423));
#870 = CARTESIAN_POINT('',(-6.200585719677,-13.60955445983));
#871 = CARTESIAN_POINT('',(-6.24178188209,-13.6));
#872 = CARTESIAN_POINT('',(-6.28318530718,-13.6));
#873 = ( GEOMETRIC_REPRESENTATION_CONTEXT(2) 
PARAMETRIC_REPRESENTATION_CONTEXT() REPRESENTATION_CONTEXT('2D SPACE',''
  ) );
#874 = PCURVE('',#581,#875);
#875 = DEFINITIONAL_REPRESENTATION('',(#876),#929);
#876 = B_SPLINE_CURVE_WITH_KNOTS('',6,(#877,#878,#879,#880,#881,#882,
    #883,#884,#885,#886,#887,#888,#889,#890,#891,#892,#893,#894,#895,
    #896,#897,#898,#899,#900,#901,#902,#903,#904,#905,#906,#907,#908,
    #909,#910,#911,#912,#913,#914,#915,#916,#917,#918,#919,#920,#921,
    #922,#923,#924,#925,#926,#927,#928),.UNSPECIFIED.,.F.,.F.,(7,5,5,5,5
    ,5,5,5,5,5,7),(0.,0.128953498134,0.215672856449,0.305533673928,
    0.401574783751,0.499962709138,0.598828306596,0.694408859316,
    0.821060283896,0.874502382494,1.),.UNSPECIFIED.);
#877 = CARTESIAN_POINT('',(-1.570796326795,-2.55));
#878 = CARTESIAN_POINT('',(-1.648341314724,-2.55));
#879 = CARTESIAN_POINT('',(-1.725455537128,-2.544453540129));
#880 = CARTESIAN_POINT('',(-1.801815098117,-2.533477100499));
#881 = CARTESIAN_POINT('',(-1.877074056245,-2.517646437356));
#882 = CARTESIAN_POINT('',(-1.950802904974,-2.497980078322));
#883 = CARTESIAN_POINT('',(-2.070485244266,-2.460777688745));
#884 = CARTESIAN_POINT('',(-2.117828504911,-2.444590765175));
#885 = CARTESIAN_POINT('',(-2.164458120336,-2.427453740819));
#886 = CARTESIAN_POINT('',(-2.210429845802,-2.409639860379));
#887 = CARTESIAN_POINT('',(-2.255793387571,-2.391413291654));
#888 = CARTESIAN_POINT('',(-2.347022559209,-2.353970604454));
#889 = CARTESIAN_POINT('',(-2.392873675558,-2.334731558804));
#890 = CARTESIAN_POINT('',(-2.438237882306,-2.315571599453));
#891 = CARTESIAN_POINT('',(-2.48319575415,-2.296741216738));
#892 = CARTESIAN_POINT('',(-2.527826751131,-2.278477843864));
#893 = CARTESIAN_POINT('',(-2.619657344215,-2.24233257961));
#894 = CARTESIAN_POINT('',(-2.666842388246,-2.224555445802));
#895 = CARTESIAN_POINT('',(-2.713825940266,-2.207968993586));
#896 = CARTESIAN_POINT('',(-2.760667202257,-2.192847572673));
#897 = CARTESIAN_POINT('',(-2.807431862856,-2.179436726349));
#898 = CARTESIAN_POINT('',(-2.902099993873,-2.156171243732));
#899 = CARTESIAN_POINT('',(-2.950004888794,-2.146410765849));
#900 = CARTESIAN_POINT('',(-2.997898733381,-2.138911076447));
#901 = CARTESIAN_POINT('',(-3.045784322234,-2.133847590061));
#902 = CARTESIAN_POINT('',(-3.093675130073,-2.131314148595));
#903 = CARTESIAN_POINT('',(-3.189742816047,-2.131314148595));
#904 = CARTESIAN_POINT('',(-3.237865637671,-2.133872242608));
#905 = CARTESIAN_POINT('',(-3.285983169027,-2.138984935));
#906 = CARTESIAN_POINT('',(-3.334109260442,-2.146556559347));
#907 = CARTESIAN_POINT('',(-3.382246843091,-2.156408400161));
#908 = CARTESIAN_POINT('',(-3.476924065262,-2.17977250724));
#909 = CARTESIAN_POINT('',(-3.52346584831,-2.193153171379));
#910 = CARTESIAN_POINT('',(-3.570084213124,-2.208224263902));
#911 = CARTESIAN_POINT('',(-3.616844026631,-2.224743513792));
#912 = CARTESIAN_POINT('',(-3.663803823286,-2.242440485924));
#913 = CARTESIAN_POINT('',(-3.773580940447,-2.285651216388));
#914 = CARTESIAN_POINT('',(-3.836627836413,-2.311850675681));
#915 = CARTESIAN_POINT('',(-3.90039040798,-2.338992308372));
#916 = CARTESIAN_POINT('',(-3.965091796764,-2.366399535548));
#917 = CARTESIAN_POINT('',(-4.030961436553,-2.39334027908));
#918 = CARTESIAN_POINT('',(-4.12664274495,-2.429851356523));
#919 = CARTESIAN_POINT('',(-4.155289430164,-2.440461274086));
#920 = CARTESIAN_POINT('',(-4.184196430473,-2.450781647183));
#921 = CARTESIAN_POINT('',(-4.213371761827,-2.460747119412));
#922 = CARTESIAN_POINT('',(-4.242824745658,-2.470291910433));
#923 = CARTESIAN_POINT('',(-4.34240715985,-2.500620417133));
#924 = CARTESIAN_POINT('',(-4.414283821039,-2.519342614339));
#925 = CARTESIAN_POINT('',(-4.487598050597,-2.534362190213));
#926 = CARTESIAN_POINT('',(-4.561939955242,-2.544754298242));
#927 = CARTESIAN_POINT('',(-4.636975598971,-2.55));
#928 = CARTESIAN_POINT('',(-4.712388980385,-2.55));
#929 = ( GEOMETRIC_REPRESENTATION_CONTEXT(2) 
PARAMETRIC_REPRESENTATION_CONTEXT() REPRESENTATION_CONTEXT('2D SPACE',''
  ) );
#930 = ADVANCED_FACE('',(#931),#257,.F.);
#931 = FACE_BOUND('',#932,.T.);
#932 = EDGE_LOOP('',(#933,#954,#955,#956));
#933 = ORIENTED_EDGE('',*,*,#934,.T.);
#934 = EDGE_CURVE('',#241,#385,#935,.T.);
#935 = SEAM_CURVE('',#936,(#940,#947),.PCURVE_S1.);
#936 = LINE('',#937,#938);
#937 = CARTESIAN_POINT('',(94.,76.,0.));
#938 = VECTOR('',#939,1.);
#939 = DIRECTION('',(0.,0.,1.));
#940 = PCURVE('',#257,#941);
#941 = DEFINITIONAL_REPRESENTATION('',(#942),#946);
#942 = LINE('',#943,#944);
#943 = CARTESIAN_POINT('',(-0.,0.));
#944 = VECTOR('',#945,1.);
#945 = DIRECTION('',(-0.,-1.));
#946 = ( GEOMETRIC_REPRESENTATION_CONTEXT(2) 
PARAMETRIC_REPRESENTATION_CONTEXT() REPRESENTATION_CONTEXT('2D SPACE',''
  ) );
#947 = PCURVE('',#257,#948);
#948 = DEFINITIONAL_REPRESENTATION('',(#949),#953);
#949 = LINE('',#950,#951);
#950 = CARTESIAN_POINT('',(-6.28318530718,0.));
#951 = VECTOR('',#952,1.);
#952 = DIRECTION('',(-0.,-1.));
#953 = ( GEOMETRIC_REPRESENTATION_CONTEXT(2) 
PARAMETRIC_REPRESENTATION_CONTEXT() REPRESENTATION_CONTEXT('2D SPACE',''
  ) );
#954 = ORIENTED_EDGE('',*,*,#384,.T.);
#955 = ORIENTED_EDGE('',*,*,#934,.F.);
#956 = ORIENTED_EDGE('',*,*,#240,.F.);
#957 = ADVANCED_FACE('',(#958),#370,.T.);
#958 = FACE_BOUND('',#959,.T.);
#959 = EDGE_LOOP('',(#960,#980,#981,#982,#1212,#1232,#1259,#1260,#1355)
  );
#960 = ORIENTED_EDGE('',*,*,#961,.F.);
#961 = EDGE_CURVE('',#354,#962,#964,.T.);
#962 = VERTEX_POINT('',#963);
#963 = CARTESIAN_POINT('',(50.72,0.,12.6));
#964 = SEAM_CURVE('',#965,(#968,#974),.PCURVE_S1.);
#965 = B_SPLINE_CURVE_WITH_KNOTS('',1,(#966,#967),.UNSPECIFIED.,.F.,.F.,
  (2,2),(0.,1.),.PIECEWISE_BEZIER_KNOTS.);
#966 = CARTESIAN_POINT('',(56.,0.,6.));
#967 = CARTESIAN_POINT('',(8.,0.,66.));
#968 = PCURVE('',#370,#969);
#969 = DEFINITIONAL_REPRESENTATION('',(#970),#973);
#970 = B_SPLINE_CURVE_WITH_KNOTS('',1,(#971,#972),.UNSPECIFIED.,.F.,.F.,
  (2,2),(0.,1.),.PIECEWISE_BEZIER_KNOTS.);
#971 = CARTESIAN_POINT('',(0.,0.));
#972 = CARTESIAN_POINT('',(0.,-60.));
#973 = ( GEOMETRIC_REPRESENTATION_CONTEXT(2) 
PARAMETRIC_REPRESENTATION_CONTEXT() REPRESENTATION_CONTEXT('2D SPACE',''
  ) );
#974 = PCURVE('',#370,#975);
#975 = DEFINITIONAL_REPRESENTATION('',(#976),#979);
#976 = B_SPLINE_CURVE_WITH_KNOTS('',1,(#977,#978),.UNSPECIFIED.,.F.,.F.,
  (2,2),(0.,1.),.PIECEWISE_BEZIER_KNOTS.);
#977 = CARTESIAN_POINT('',(-6.28318530718,0.));
#978 = CARTESIAN_POINT('',(-6.28318530718,-60.));
#979 = ( GEOMETRIC_REPRESENTATION_CONTEXT(2) 
PARAMETRIC_REPRESENTATION_CONTEXT() REPRESENTATION_CONTEXT('2D SPACE',''
  ) );
#980 = ORIENTED_EDGE('',*,*,#353,.T.);
#981 = ORIENTED_EDGE('',*,*,#961,.T.);
#982 = ORIENTED_EDGE('',*,*,#983,.F.);
#983 = EDGE_CURVE('',#984,#962,#986,.T.);
#984 = VERTEX_POINT('',#985);
#985 = CARTESIAN_POINT('',(48.48,0.,15.4));
#986 = SURFACE_CURVE('',#987,(#1060,#1136),.PCURVE_S1.);
#987 = B_SPLINE_CURVE_WITH_KNOTS('',8,(#988,#989,#990,#991,#992,#993,
    #994,#995,#996,#997,#998,#999,#1000,#1001,#1002,#1003,#1004,#1005,
    #1006,#1007,#1008,#1009,#1010,#1011,#1012,#1013,#1014,#1015,#1016,
    #1017,#1018,#1019,#1020,#1021,#1022,#1023,#1024,#1025,#1026,#1027,
    #1028,#1029,#1030,#1031,#1032,#1033,#1034,#1035,#1036,#1037,#1038,
    #1039,#1040,#1041,#1042,#1043,#1044,#1045,#1046,#1047,#1048,#1049,
    #1050,#1051,#1052,#1053,#1054,#1055,#1056,#1057,#1058,#1059),
  .UNSPECIFIED.,.F.,.F.,(9,7,7,7,7,7,7,7,7,7,9),(0.,7.00502553096E-02,
    0.118754300616,0.191643218592,0.25948400576,0.504670776095,
    0.731523940811,0.796168865204,0.865152039417,0.924714785198,1.),
  .UNSPECIFIED.);
#988 = CARTESIAN_POINT('',(48.48,0.,15.4));
#989 = CARTESIAN_POINT('',(48.48,-5.31615235576E-02,15.4));
#990 = CARTESIAN_POINT('',(48.481779059255,-0.106340187131,
    15.397692901597));
#991 = CARTESIAN_POINT('',(48.485339027656,-0.159157821676,
    15.393076277586));
#992 = CARTESIAN_POINT('',(48.490628358793,-0.211293593045,
    15.386217857088));
#993 = CARTESIAN_POINT('',(48.497558139271,-0.262479972444,
    15.377234584457));
#994 = CARTESIAN_POINT('',(48.506015035312,-0.312498652641,
    15.366275605381));
#995 = CARTESIAN_POINT('',(48.515871156649,-0.361176409911,
    15.353509180177));
#996 = CARTESIAN_POINT('',(48.534722050791,-0.441200923382,
    15.329104614635));
#997 = CARTESIAN_POINT('',(48.543067549295,-0.473323143058,
    15.318303628413));
#998 = CARTESIAN_POINT('',(48.551985920814,-0.504716507992,
    15.306765068681));
#999 = CARTESIAN_POINT('',(48.561436406865,-0.535360209544,
    15.294542574558));
#1000 = CARTESIAN_POINT('',(48.571379712088,-0.565242447495,
    15.281687860835));
#1001 = CARTESIAN_POINT('',(48.581778813457,-0.594359184341,
    15.268249657599));
#1002 = CARTESIAN_POINT('',(48.592599769487,-0.62271289959,
    15.25427264984));
#1003 = CARTESIAN_POINT('',(48.620593187693,-0.691614294197,
    15.218131749675));
#1004 = CARTESIAN_POINT('',(48.638247535845,-0.731216702579,
    15.195353915171));
#1005 = CARTESIAN_POINT('',(48.656676043568,-0.769151842597,
    15.171594086427));
#1006 = CARTESIAN_POINT('',(48.675790116362,-0.805460127648,
    15.146968942736));
#1007 = CARTESIAN_POINT('',(48.695512230819,-0.840187868722,
    15.121580540059));
#1008 = CARTESIAN_POINT('',(48.715776069892,-0.873386031974,
    15.095516181272));
#1009 = CARTESIAN_POINT('',(48.736526658162,-0.905108996311,
    15.068848286409));
#1010 = CARTESIAN_POINT('',(48.777446496021,-0.963618813517,
    15.01630502455));
#1011 = CARTESIAN_POINT('',(48.797552984816,-0.990590440529,
    14.990507172881));
#1012 = CARTESIAN_POINT('',(48.818002697446,-1.016371154604,
    14.964289821039));
#1013 = CARTESIAN_POINT('',(48.838762579064,-1.041000708815,
    14.937696483347));
#1014 = CARTESIAN_POINT('',(48.859803574759,-1.064516070653,
    14.910765373293));
#1015 = CARTESIAN_POINT('',(48.881100418292,-1.086951845963,
    14.883529701515));
#1016 = CARTESIAN_POINT('',(48.902631420834,-1.108340702878,
    14.856017973789));
#1017 = CARTESIAN_POINT('',(49.002974593992,-1.2023452062,14.72791217202
    ));
#1018 = CARTESIAN_POINT('',(49.084295571502,-1.26261929447,
    14.624399787551));
#1019 = CARTESIAN_POINT('',(49.167574457461,-1.311147668505,
    14.518728089839));
#1020 = CARTESIAN_POINT('',(49.252269065481,-1.348756396041,
    14.411605063084));
#1021 = CARTESIAN_POINT('',(49.337936948287,-1.37611246048,
    14.303600766778));
#1022 = CARTESIAN_POINT('',(49.424250344005,-1.393623428759,
    14.195131319356));
#1023 = CARTESIAN_POINT('',(49.510966625914,-1.401540163491,
    14.086500440948));
#1024 = CARTESIAN_POINT('',(49.678391846287,-1.398239136088,
    13.877418630482));
#1025 = CARTESIAN_POINT('',(49.758919995308,-1.388410835777,
    13.777144674485));
#1026 = CARTESIAN_POINT('',(49.839375051967,-1.370366433432,
    13.677248208391));
#1027 = CARTESIAN_POINT('',(49.919555102574,-1.343934584409,
    13.577974651714));
#1028 = CARTESIAN_POINT('',(49.999194035302,-1.308819256604,
    13.479645268633));
#1029 = CARTESIAN_POINT('',(50.077941839967,-1.264542097181,
    13.382679437883));
#1030 = CARTESIAN_POINT('',(50.155366534541,-1.210477872429,
    13.287590956245));
#1031 = CARTESIAN_POINT('',(50.252391491481,-1.126949153578,
    13.168721667193));
#1032 = CARTESIAN_POINT('',(50.273747759307,-1.107541189489,
    13.142576082252));
#1033 = CARTESIAN_POINT('',(50.294927988926,-1.087224479325,
    13.116664458835));
#1034 = CARTESIAN_POINT('',(50.315914369544,-1.065972804182,
    13.09100798056));
#1035 = CARTESIAN_POINT('',(50.336686373896,-1.043758099525,
    13.065631078611));
#1036 = CARTESIAN_POINT('',(50.357220569254,-1.020550056378,
    13.04056164737));
#1037 = CARTESIAN_POINT('',(50.377490428435,-0.996315722512,
    13.015831260056));
#1038 = CARTESIAN_POINT('',(50.418782401285,-0.944024856489,
    12.96548501261));
#1039 = CARTESIAN_POINT('',(50.439760885231,-0.915824570739,
    12.939924547416));
#1040 = CARTESIAN_POINT('',(50.460367159758,-0.886372246955,
    12.914834904095));
#1041 = CARTESIAN_POINT('',(50.480558704119,-0.855622039951,
    12.890266713913));
#1042 = CARTESIAN_POINT('',(50.500284655682,-0.823528359002,
    12.866280602053));
#1043 = CARTESIAN_POINT('',(50.519485555904,-0.790045968042,
    12.842947465587));
#1044 = CARTESIAN_POINT('',(50.538093096307,-0.755130085873,
    12.820348751443));
#1045 = CARTESIAN_POINT('',(50.571517165128,-0.687312842265,
    12.779777931167));
#1046 = CARTESIAN_POINT('',(50.58650128318,-0.654793296983,
    12.761599215677));
#1047 = CARTESIAN_POINT('',(50.600933278672,-0.6211497211,
    12.744098927257));
#1048 = CARTESIAN_POINT('',(50.614754210784,-0.58636166591,
    12.727347395519));
#1049 = CARTESIAN_POINT('',(50.627896711802,-0.550419060956,
    12.71142504732));
#1050 = CARTESIAN_POINT('',(50.640286561103,-0.513324911566,
    12.696420513728));
#1051 = CARTESIAN_POINT('',(50.651844259146,-0.475097996383,
    12.682428737002));
#1052 = CARTESIAN_POINT('',(50.675938147656,-0.386073395181,
    12.653269641221));
#1053 = CARTESIAN_POINT('',(50.687937835615,-0.33458344427,
    12.638754202824));
#1054 = CARTESIAN_POINT('',(50.698297751575,-0.281439002231,
    12.626227579065));
#1055 = CARTESIAN_POINT('',(50.706833974196,-0.226830732834,
    12.615909542166));
#1056 = CARTESIAN_POINT('',(50.713377953827,-0.171014129342,
    12.608001467019));
#1057 = CARTESIAN_POINT('',(50.717793588976,-0.114317032408,
    12.602666035795));
#1058 = CARTESIAN_POINT('',(50.72,-5.714721009373E-02,12.6));
#1059 = CARTESIAN_POINT('',(50.72,-1.24344978758E-14,12.6));
#1060 = PCURVE('',#370,#1061);
#1061 = DEFINITIONAL_REPRESENTATION('',(#1062),#1135);
#1062 = B_SPLINE_CURVE_WITH_KNOTS('',8,(#1063,#1064,#1065,#1066,#1067,
    #1068,#1069,#1070,#1071,#1072,#1073,#1074,#1075,#1076,#1077,#1078,
    #1079,#1080,#1081,#1082,#1083,#1084,#1085,#1086,#1087,#1088,#1089,
    #1090,#1091,#1092,#1093,#1094,#1095,#1096,#1097,#1098,#1099,#1100,
    #1101,#1102,#1103,#1104,#1105,#1106,#1107,#1108,#1109,#1110,#1111,
    #1112,#1113,#1114,#1115,#1116,#1117,#1118,#1119,#1120,#1121,#1122,
    #1123,#1124,#1125,#1126,#1127,#1128,#1129,#1130,#1131,#1132,#1133,
    #1134),.UNSPECIFIED.,.F.,.F.,(9,7,7,7,7,7,7,7,7,7,9),(0.,
    7.00502553096E-02,0.118754300616,0.191643218592,0.25948400576,
    0.504670776095,0.731523940811,0.796168865204,0.865152039417,
    0.924714785198,1.),.UNSPECIFIED.);
#1063 = CARTESIAN_POINT('',(-6.28318530718,-9.4));
#1064 = CARTESIAN_POINT('',(-6.2820887411,-9.4));
#1065 = CARTESIAN_POINT('',(-6.280991821402,-9.397692901597));
#1066 = CARTESIAN_POINT('',(-6.279902513888,-9.393076277586));
#1067 = CARTESIAN_POINT('',(-6.27882760138,-9.386217857088));
#1068 = CARTESIAN_POINT('',(-6.277772747198,-9.377234584457));
#1069 = CARTESIAN_POINT('',(-6.276742567781,-9.36627560538));
#1070 = CARTESIAN_POINT('',(-6.275740714433,-9.353509180177));
#1071 = CARTESIAN_POINT('',(-6.274095027862,-9.329104614635));
#1072 = CARTESIAN_POINT('',(-6.273434830986,-9.318303628413));
#1073 = CARTESIAN_POINT('',(-6.27279003166,-9.306765068681));
#1074 = CARTESIAN_POINT('',(-6.272161069868,-9.294542574558));
#1075 = CARTESIAN_POINT('',(-6.271548194264,-9.281687860835));
#1076 = CARTESIAN_POINT('',(-6.270951488936,-9.268249657599));
#1077 = CARTESIAN_POINT('',(-6.270370900182,-9.25427264984));
#1078 = CARTESIAN_POINT('',(-6.268961245712,-9.218131749675));
#1079 = CARTESIAN_POINT('',(-6.268152139051,-9.195353915171));
#1080 = CARTESIAN_POINT('',(-6.267378240646,-9.171594086427));
#1081 = CARTESIAN_POINT('',(-6.266638687888,-9.146968942736));
#1082 = CARTESIAN_POINT('',(-6.265932487683,-9.121580540059));
#1083 = CARTESIAN_POINT('',(-6.265258545938,-9.095516181272));
#1084 = CARTESIAN_POINT('',(-6.264615697041,-9.068848286409));
#1085 = CARTESIAN_POINT('',(-6.263432222218,-9.01630502455));
#1086 = CARTESIAN_POINT('',(-6.262887699579,-8.990507172881));
#1087 = CARTESIAN_POINT('',(-6.262368243881,-8.964289821039));
#1088 = CARTESIAN_POINT('',(-6.261872998667,-8.937696483347));
#1089 = CARTESIAN_POINT('',(-6.261401164485,-8.910765373293));
#1090 = CARTESIAN_POINT('',(-6.260951990794,-8.883529701515));
#1091 = CARTESIAN_POINT('',(-6.260524767872,-8.856017973789));
#1092 = CARTESIAN_POINT('',(-6.258651657667,-8.72791217202));
#1093 = CARTESIAN_POINT('',(-6.25746415608,-8.624399787551));
#1094 = CARTESIAN_POINT('',(-6.256521494296,-8.518728089839));
#1095 = CARTESIAN_POINT('',(-6.255805059201,-8.411605063084));
#1096 = CARTESIAN_POINT('',(-6.255299574511,-8.303600766778));
#1097 = CARTESIAN_POINT('',(-6.254995189866,-8.195131319356));
#1098 = CARTESIAN_POINT('',(-6.25488534089,-8.086500440948));
#1099 = CARTESIAN_POINT('',(-6.255047040361,-7.877418630482));
#1100 = CARTESIAN_POINT('',(-6.255290541988,-7.777144674485));
#1101 = CARTESIAN_POINT('',(-6.255698163663,-7.677248208392));
#1102 = CARTESIAN_POINT('',(-6.256272192055,-7.577974651714));
#1103 = CARTESIAN_POINT('',(-6.257017371483,-7.479645268634));
#1104 = CARTESIAN_POINT('',(-6.257942029119,-7.382679437883));
#1105 = CARTESIAN_POINT('',(-6.259057385843,-7.287590956245));
#1106 = CARTESIAN_POINT('',(-6.260763442686,-7.168721667193));
#1107 = CARTESIAN_POINT('',(-6.261158944488,-7.142576082252));
#1108 = CARTESIAN_POINT('',(-6.261572061931,-7.116664458835));
#1109 = CARTESIAN_POINT('',(-6.262003285224,-7.09100798056));
#1110 = CARTESIAN_POINT('',(-6.262453140478,-7.065631078611));
#1111 = CARTESIAN_POINT('',(-6.262922197919,-7.04056164737));
#1112 = CARTESIAN_POINT('',(-6.263411080097,-7.015831260056));
#1113 = CARTESIAN_POINT('',(-6.264464044698,-6.96548501261));
#1114 = CARTESIAN_POINT('',(-6.265030899274,-6.939924547416));
#1115 = CARTESIAN_POINT('',(-6.265621910043,-6.914834904095));
#1116 = CARTESIAN_POINT('',(-6.266237948341,-6.890266713913));
#1117 = CARTESIAN_POINT('',(-6.266879880617,-6.866280602053));
#1118 = CARTESIAN_POINT('',(-6.267548568439,-6.842947465587));
#1119 = CARTESIAN_POINT('',(-6.268244868489,-6.820348751443));
#1120 = CARTESIAN_POINT('',(-6.269595421955,-6.779777931167));
#1121 = CARTESIAN_POINT('',(-6.270242317031,-6.761599215677));
#1122 = CARTESIAN_POINT('',(-6.270910860069,-6.744098927257));
#1123 = CARTESIAN_POINT('',(-6.271601443819,-6.727347395519));
#1124 = CARTESIAN_POINT('',(-6.272314260942,-6.71142504732));
#1125 = CARTESIAN_POINT('',(-6.273049253457,-6.696420513728));
#1126 = CARTESIAN_POINT('',(-6.273806062175,-6.682428737002));
#1127 = CARTESIAN_POINT('',(-6.275567232034,-6.653269641221));
#1128 = CARTESIAN_POINT('',(-6.276584949007,-6.638754202824));
#1129 = CARTESIAN_POINT('',(-6.277634540782,-6.626227579065));
#1130 = CARTESIAN_POINT('',(-6.278712324947,-6.615909542166));
#1131 = CARTESIAN_POINT('',(-6.279813385591,-6.608001467019));
#1132 = CARTESIAN_POINT('',(-6.280931422616,-6.602666035795));
#1133 = CARTESIAN_POINT('',(-6.282058587738,-6.6));
#1134 = CARTESIAN_POINT('',(-6.28318530718,-6.6));
#1135 = ( GEOMETRIC_REPRESENTATION_CONTEXT(2) 
PARAMETRIC_REPRESENTATION_CONTEXT() REPRESENTATION_CONTEXT('2D SPACE',''
  ) );
#1136 = PCURVE('',#581,#1137);
#1137 = DEFINITIONAL_REPRESENTATION('',(#1138),#1211);
#1138 = B_SPLINE_CURVE_WITH_KNOTS('',8,(#1139,#1140,#1141,#1142,#1143,
    #1144,#1145,#1146,#1147,#1148,#1149,#1150,#1151,#1152,#1153,#1154,
    #1155,#1156,#1157,#1158,#1159,#1160,#1161,#1162,#1163,#1164,#1165,
    #1166,#1167,#1168,#1169,#1170,#1171,#1172,#1173,#1174,#1175,#1176,
    #1177,#1178,#1179,#1180,#1181,#1182,#1183,#1184,#1185,#1186,#1187,
    #1188,#1189,#1190,#1191,#1192,#1193,#1194,#1195,#1196,#1197,#1198,
    #1199,#1200,#1201,#1202,#1203,#1204,#1205,#1206,#1207,#1208,#1209,
    #1210),.UNSPECIFIED.,.F.,.F.,(9,7,7,7,7,7,7,7,7,7,9),(0.,
    7.00502553096E-02,0.118754300616,0.191643218592,0.25948400576,
    0.504670776095,0.731523940811,0.796168865204,0.865152039417,
    0.924714785198,1.),.UNSPECIFIED.);
#1139 = CARTESIAN_POINT('',(-1.570796326795,-48.48));
#1140 = CARTESIAN_POINT('',(-1.608768843622,-48.48));
#1141 = CARTESIAN_POINT('',(-1.646753559078,-48.48177905925));
#1142 = CARTESIAN_POINT('',(-1.684563990154,-48.48533902765));
#1143 = CARTESIAN_POINT('',(-1.722054278397,-48.49062835879));
#1144 = CARTESIAN_POINT('',(-1.759108409637,-48.49755813927));
#1145 = CARTESIAN_POINT('',(-1.795632493054,-48.50601503531));
#1146 = CARTESIAN_POINT('',(-1.831550099595,-48.51587115664));
#1147 = CARTESIAN_POINT('',(-1.891309419488,-48.53472205079));
#1148 = CARTESIAN_POINT('',(-1.91550643172,-48.54306754929));
#1149 = CARTESIAN_POINT('',(-1.939381672287,-48.55198592081));
#1150 = CARTESIAN_POINT('',(-1.96292967644,-48.56143640686));
#1151 = CARTESIAN_POINT('',(-1.986149106423,-48.57137971208));
#1152 = CARTESIAN_POINT('',(-2.009042319066,-48.58177881345));
#1153 = CARTESIAN_POINT('',(-2.03161493338,-48.59259976948));
#1154 = CARTESIAN_POINT('',(-2.087189698444,-48.62059318769));
#1155 = CARTESIAN_POINT('',(-2.119797690951,-48.63824753584));
#1156 = CARTESIAN_POINT('',(-2.151733141321,-48.65667604356));
#1157 = CARTESIAN_POINT('',(-2.183029305395,-48.67579011636));
#1158 = CARTESIAN_POINT('',(-2.213719833953,-48.69551223081));
#1159 = CARTESIAN_POINT('',(-2.243839677443,-48.71577606989));
#1160 = CARTESIAN_POINT('',(-2.273425990728,-48.73652665816));
#1161 = CARTESIAN_POINT('',(-2.329597162596,-48.77744649602));
#1162 = CARTESIAN_POINT('',(-2.356243229139,-48.79755298481));
#1163 = CARTESIAN_POINT('',(-2.382486771418,-48.81800269744));
#1164 = CARTESIAN_POINT('',(-2.408354453826,-48.83876257906));
#1165 = CARTESIAN_POINT('',(-2.433870760751,-48.85980357475));
#1166 = CARTESIAN_POINT('',(-2.459058686155,-48.88110041829));
#1167 = CARTESIAN_POINT('',(-2.483940423144,-48.90263142083));
#1168 = CARTESIAN_POINT('',(-2.597437575612,-49.00297459399));
#1169 = CARTESIAN_POINT('',(-2.682518481468,-49.0842955715));
#1170 = CARTESIAN_POINT('',(-2.764948278562,-49.16757445745));
#1171 = CARTESIAN_POINT('',(-2.845361188812,-49.25226906548));
#1172 = CARTESIAN_POINT('',(-2.924321852639,-49.33793694828));
#1173 = CARTESIAN_POINT('',(-3.002302760769,-49.424250344));
#1174 = CARTESIAN_POINT('',(-3.079797612561,-49.51096662591));
#1175 = CARTESIAN_POINT('',(-3.22916037506,-49.67839184628));
#1176 = CARTESIAN_POINT('',(-3.300886674632,-49.7589199953));
#1177 = CARTESIAN_POINT('',(-3.372998609579,-49.83937505196));
#1178 = CARTESIAN_POINT('',(-3.445887016461,-49.91955510257));
#1179 = CARTESIAN_POINT('',(-3.519935329987,-49.9991940353));
#1180 = CARTESIAN_POINT('',(-3.595589874177,-50.07794183996));
#1181 = CARTESIAN_POINT('',(-3.673364737724,-50.15536653454));
#1182 = CARTESIAN_POINT('',(-3.777137828965,-50.25239149148));
#1183 = CARTESIAN_POINT('',(-3.800388242695,-50.2737477593));
#1184 = CARTESIAN_POINT('',(-3.823893749231,-50.29492798892));
#1185 = CARTESIAN_POINT('',(-3.847672860103,-50.31591436954));
#1186 = CARTESIAN_POINT('',(-3.871744901261,-50.33668637389));
#1187 = CARTESIAN_POINT('',(-3.89613053746,-50.35722056925));
#1188 = CARTESIAN_POINT('',(-3.920852296637,-50.37749042843));
#1189 = CARTESIAN_POINT('',(-3.972701170935,-50.41878240128));
#1190 = CARTESIAN_POINT('',(-3.999874787085,-50.43976088523));
#1191 = CARTESIAN_POINT('',(-4.027488708386,-50.46036715975));
#1192 = CARTESIAN_POINT('',(-4.055574308236,-50.48055870411));
#1193 = CARTESIAN_POINT('',(-4.084162535461,-50.50028465568));
#1194 = CARTESIAN_POINT('',(-4.113284881977,-50.5194855559));
#1195 = CARTESIAN_POINT('',(-4.142974350457,-50.5380930963));
#1196 = CARTESIAN_POINT('',(-4.199421770404,-50.57151716512));
#1197 = CARTESIAN_POINT('',(-4.226021576674,-50.58650128318));
#1198 = CARTESIAN_POINT('',(-4.253088680613,-50.60093327867));
#1199 = CARTESIAN_POINT('',(-4.280641163239,-50.61475421078));
#1200 = CARTESIAN_POINT('',(-4.308691663514,-50.6278967118));
#1201 = CARTESIAN_POINT('',(-4.337246695075,-50.6402865611));
#1202 = CARTESIAN_POINT('',(-4.366305962964,-50.65184425914));
#1203 = CARTESIAN_POINT('',(-4.433219067161,-50.67593814765));
#1204 = CARTESIAN_POINT('',(-4.471397706537,-50.68793783561));
#1205 = CARTESIAN_POINT('',(-4.510337026429,-50.69829775157));
#1206 = CARTESIAN_POINT('',(-4.549952125241,-50.70683397419));
#1207 = CARTESIAN_POINT('',(-4.590132250313,-50.71337795382));
#1208 = CARTESIAN_POINT('',(-4.63073404218,-50.71779358897));
#1209 = CARTESIAN_POINT('',(-4.671569544603,-50.72));
#1210 = CARTESIAN_POINT('',(-4.712388980385,-50.72));
#1211 = ( GEOMETRIC_REPRESENTATION_CONTEXT(2) 
PARAMETRIC_REPRESENTATION_CONTEXT() REPRESENTATION_CONTEXT('2D SPACE',''
  ) );
#1212 = ORIENTED_EDGE('',*,*,#1213,.T.);
#1213 = EDGE_CURVE('',#984,#1214,#1216,.T.);
#1214 = VERTEX_POINT('',#1215);
#1215 = CARTESIAN_POINT('',(8.,0.,66.));
#1216 = SEAM_CURVE('',#1217,(#1220,#1226),.PCURVE_S1.);
#1217 = B_SPLINE_CURVE_WITH_KNOTS('',1,(#1218,#1219),.UNSPECIFIED.,.F.,
  .F.,(2,2),(0.,1.),.PIECEWISE_BEZIER_KNOTS.);
#1218 = CARTESIAN_POINT('',(56.,0.,6.));
#1219 = CARTESIAN_POINT('',(8.,0.,66.));
#1220 = PCURVE('',#370,#1221);
#1221 = DEFINITIONAL_REPRESENTATION('',(#1222),#1225);
#1222 = B_SPLINE_CURVE_WITH_KNOTS('',1,(#1223,#1224),.UNSPECIFIED.,.F.,
  .F.,(2,2),(0.,1.),.PIECEWISE_BEZIER_KNOTS.);
#1223 = CARTESIAN_POINT('',(0.,0.));
#1224 = CARTESIAN_POINT('',(0.,-60.));
#1225 = ( GEOMETRIC_REPRESENTATION_CONTEXT(2) 
PARAMETRIC_REPRESENTATION_CONTEXT() REPRESENTATION_CONTEXT('2D SPACE',''
  ) );
#1226 = PCURVE('',#370,#1227);
#1227 = DEFINITIONAL_REPRESENTATION('',(#1228),#1231);
#1228 = B_SPLINE_CURVE_WITH_KNOTS('',1,(#1229,#1230),.UNSPECIFIED.,.F.,
  .F.,(2,2),(0.,1.),.PIECEWISE_BEZIER_KNOTS.);
#1229 = CARTESIAN_POINT('',(-6.28318530718,0.));
#1230 = CARTESIAN_POINT('',(-6.28318530718,-60.));
#1231 = ( GEOMETRIC_REPRESENTATION_CONTEXT(2) 
PARAMETRIC_REPRESENTATION_CONTEXT() REPRESENTATION_CONTEXT('2D SPACE',''
  ) );
#1232 = ORIENTED_EDGE('',*,*,#1233,.F.);
#1233 = EDGE_CURVE('',#1214,#1214,#1234,.T.);
#1234 = SURFACE_CURVE('',#1235,(#1240,#1247),.PCURVE_S1.);
#1235 = CIRCLE('',#1236,8.);
#1236 = AXIS2_PLACEMENT_3D('',#1237,#1238,#1239);
#1237 = CARTESIAN_POINT('',(0.,0.,66.));
#1238 = DIRECTION('',(0.,0.,1.));
#1239 = DIRECTION('',(1.,0.,0.));
#1240 = PCURVE('',#370,#1241);
#1241 = DEFINITIONAL_REPRESENTATION('',(#1242),#1246);
#1242 = LINE('',#1243,#1244);
#1243 = CARTESIAN_POINT('',(-0.,-60.));
#1244 = VECTOR('',#1245,1.);
#1245 = DIRECTION('',(-1.,-0.));
#1246 = ( GEOMETRIC_REPRESENTATION_CONTEXT(2) 
PARAMETRIC_REPRESENTATION_CONTEXT() REPRESENTATION_CONTEXT('2D SPACE',''
  ) );
#1247 = PCURVE('',#1248,#1253);
#1248 = PLANE('',#1249);
#1249 = AXIS2_PLACEMENT_3D('',#1250,#1251,#1252);
#1250 = CARTESIAN_POINT('',(0.,0.,66.));
#1251 = DIRECTION('',(0.,0.,1.));
#1252 = DIRECTION('',(1.,0.,0.));
#1253 = DEFINITIONAL_REPRESENTATION('',(#1254),#1258);
#1254 = CIRCLE('',#1255,8.);
#1255 = AXIS2_PLACEMENT_2D('',#1256,#1257);
#1256 = CARTESIAN_POINT('',(0.,0.));
#1257 = DIRECTION('',(1.,0.));
#1258 = ( GEOMETRIC_REPRESENTATION_CONTEXT(2) 
PARAMETRIC_REPRESENTATION_CONTEXT() REPRESENTATION_CONTEXT('2D SPACE',''
  ) );
#1259 = ORIENTED_EDGE('',*,*,#1213,.F.);
#1260 = ORIENTED_EDGE('',*,*,#1261,.F.);
#1261 = EDGE_CURVE('',#1262,#984,#1264,.T.);
#1262 = VERTEX_POINT('',#1263);
#1263 = CARTESIAN_POINT('',(49.580237998622,1.4,14.));
#1264 = SURFACE_CURVE('',#1265,(#1293,#1324),.PCURVE_S1.);
#1265 = B_SPLINE_CURVE_WITH_KNOTS('',6,(#1266,#1267,#1268,#1269,#1270,
    #1271,#1272,#1273,#1274,#1275,#1276,#1277,#1278,#1279,#1280,#1281,
    #1282,#1283,#1284,#1285,#1286,#1287,#1288,#1289,#1290,#1291,#1292),
  .UNSPECIFIED.,.F.,.F.,(7,5,5,5,5,7),(0.,0.316491503613,0.583830513794,
    0.727361733651,0.845606051396,1.),.UNSPECIFIED.);
#1266 = CARTESIAN_POINT('',(49.580237998622,1.4,14.));
#1267 = CARTESIAN_POINT('',(49.505683873271,1.4,14.093155526177));
#1268 = CARTESIAN_POINT('',(49.431293567105,1.392561509429,
    14.186368661731));
#1269 = CARTESIAN_POINT('',(49.357243013874,1.377668822774,
    14.27942197661));
#1270 = CARTESIAN_POINT('',(49.283747552843,1.355119612518,
    14.372044673221));
#1271 = CARTESIAN_POINT('',(49.211063914173,1.32459128694,
    14.463908366476));
#1272 = CARTESIAN_POINT('',(49.079086640325,1.252424648241,
    14.631182546557));
#1273 = CARTESIAN_POINT('',(49.019502232814,1.213266515983,
    14.706887378388));
#1274 = CARTESIAN_POINT('',(48.960927518177,1.167623733494,
    14.78149023305));
#1275 = CARTESIAN_POINT('',(48.903661787603,1.114981471532,
    14.854601279332));
#1276 = CARTESIAN_POINT('',(48.848128306761,1.054758479121,
    14.925665425736));
#1277 = CARTESIAN_POINT('',(48.766413316298,0.94913775373,
    15.030455712532));
#1278 = CARTESIAN_POINT('',(48.738560228242,0.909804883247,
    15.066217769278));
#1279 = CARTESIAN_POINT('',(48.711498104787,0.867896494325,
    15.101005482744));
#1280 = CARTESIAN_POINT('',(48.685364833757,0.823274608365,
    15.13463739397));
#1281 = CARTESIAN_POINT('',(48.660339585801,0.775805757239,
    15.166877663204));
#1282 = CARTESIAN_POINT('',(48.617123728696,0.683808633306,
    15.222606336311));
#1283 = CARTESIAN_POINT('',(48.598510894242,0.640245743871,
    15.246629297784));
#1284 = CARTESIAN_POINT('',(48.58092871997,0.594607218878,
    15.269340627194));
#1285 = CARTESIAN_POINT('',(48.564538901046,0.546859739133,
    15.290527483018));
#1286 = CARTESIAN_POINT('',(48.549529226571,0.497027676767,
    15.309942726736));
#1287 = CARTESIAN_POINT('',(48.518567082523,0.377564814587,
    15.350013495132));
#1288 = CARTESIAN_POINT('',(48.50370986645,0.306466151901,
    15.369258659393));
#1289 = CARTESIAN_POINT('',(48.492030854522,0.232314833428,
    15.384398164262));
#1290 = CARTESIAN_POINT('',(48.484007778893,0.155778689134,
    15.394802687423));
#1291 = CARTESIAN_POINT('',(48.48,7.786758352067E-02,15.4));
#1292 = CARTESIAN_POINT('',(48.48,0.,15.4));
#1293 = PCURVE('',#370,#1294);
#1294 = DEFINITIONAL_REPRESENTATION('',(#1295),#1323);
#1295 = B_SPLINE_CURVE_WITH_KNOTS('',6,(#1296,#1297,#1298,#1299,#1300,
    #1301,#1302,#1303,#1304,#1305,#1306,#1307,#1308,#1309,#1310,#1311,
    #1312,#1313,#1314,#1315,#1316,#1317,#1318,#1319,#1320,#1321,#1322),
  .UNSPECIFIED.,.F.,.F.,(7,5,5,5,5,7),(0.,0.316491503613,0.583830513794,
    0.727361733651,0.845606051396,1.),.UNSPECIFIED.);
#1296 = CARTESIAN_POINT('',(-2.822955569448E-02,-8.));
#1297 = CARTESIAN_POINT('',(-2.827198211206E-02,-8.093155526177));
#1298 = CARTESIAN_POINT('',(-2.816455827936E-02,-8.186368661731));
#1299 = CARTESIAN_POINT('',(-2.790585594254E-02,-8.27942197661));
#1300 = CARTESIAN_POINT('',(-2.749063664393E-02,-8.372044673221));
#1301 = CARTESIAN_POINT('',(-2.69111531356E-02,-8.463908366476));
#1302 = CARTESIAN_POINT('',(-2.551376105867E-02,-8.631182546557));
#1303 = CARTESIAN_POINT('',(-2.474721330332E-02,-8.706887378388));
#1304 = CARTESIAN_POINT('',(-2.38456713608E-02,-8.78149023305));
#1305 = CARTESIAN_POINT('',(-2.279779614804E-02,-8.854601279332));
#1306 = CARTESIAN_POINT('',(-2.159080104154E-02,-8.925665425736));
#1307 = CARTESIAN_POINT('',(-1.946092912652E-02,-9.030455712532));
#1308 = CARTESIAN_POINT('',(-1.866563191705E-02,-9.066217769278));
#1309 = CARTESIAN_POINT('',(-1.781608304366E-02,-9.101005482744));
#1310 = CARTESIAN_POINT('',(-1.690931209014E-02,-9.13463739397));
#1311 = CARTESIAN_POINT('',(-1.59424538267E-02,-9.166877663204));
#1312 = CARTESIAN_POINT('',(-1.406460448288E-02,-9.222606336311));
#1313 = CARTESIAN_POINT('',(-1.317398665509E-02,-9.246629297784));
#1314 = CARTESIAN_POINT('',(-1.223953513678E-02,-9.269340627194));
#1315 = CARTESIAN_POINT('',(-1.126053244187E-02,-9.290527483018));
#1316 = CARTESIAN_POINT('',(-1.023748623935E-02,-9.309942726736));
#1317 = CARTESIAN_POINT('',(-7.782224674342E-03,-9.350013495132));
#1318 = CARTESIAN_POINT('',(-6.31904571567E-03,-9.369258659393));
#1319 = CARTESIAN_POINT('',(-4.791359142391E-03,-9.384398164262));
#1320 = CARTESIAN_POINT('',(-3.213257081943E-03,-9.394802687423));
#1321 = CARTESIAN_POINT('',(-1.606179528067E-03,-9.4));
#1322 = CARTESIAN_POINT('',(0.,-9.4));
#1323 = ( GEOMETRIC_REPRESENTATION_CONTEXT(2) 
PARAMETRIC_REPRESENTATION_CONTEXT() REPRESENTATION_CONTEXT('2D SPACE',''
  ) );
#1324 = PCURVE('',#581,#1325);
#1325 = DEFINITIONAL_REPRESENTATION('',(#1326),#1354);
#1326 = B_SPLINE_CURVE_WITH_KNOTS('',6,(#1327,#1328,#1329,#1330,#1331,
    #1332,#1333,#1334,#1335,#1336,#1337,#1338,#1339,#1340,#1341,#1342,
    #1343,#1344,#1345,#1346,#1347,#1348,#1349,#1350,#1351,#1352,#1353),
  .UNSPECIFIED.,.F.,.F.,(7,5,5,5,5,7),(0.,0.316491503613,0.583830513794,
    0.727361733651,0.845606051396,1.),.UNSPECIFIED.);
#1327 = CARTESIAN_POINT('',(0.,-49.58023799862));
#1328 = CARTESIAN_POINT('',(-6.653966155491E-02,-49.50568387327));
#1329 = CARTESIAN_POINT('',(-0.133120823665,-49.4312935671));
#1330 = CARTESIAN_POINT('',(-0.200116120863,-49.35724301387));
#1331 = CARTESIAN_POINT('',(-0.267873497499,-49.28374755284));
#1332 = CARTESIAN_POINT('',(-0.336760868573,-49.21106391417));
#1333 = CARTESIAN_POINT('',(-0.466887720072,-49.07908664032));
#1334 = CARTESIAN_POINT('',(-0.527619308154,-49.01950223281));
#1335 = CARTESIAN_POINT('',(-0.589840888447,-48.96092751817));
#1336 = CARTESIAN_POINT('',(-0.653907478448,-48.9036617876));
#1337 = CARTESIAN_POINT('',(-0.720195796909,-48.84812830676));
#1338 = CARTESIAN_POINT('',(-0.826470234288,-48.76641331629));
#1339 = CARTESIAN_POINT('',(-0.864405628002,-48.73856022824));
#1340 = CARTESIAN_POINT('',(-0.903249247521,-48.71149810478));
#1341 = CARTESIAN_POINT('',(-0.943091246802,-48.68536483375));
#1342 = CARTESIAN_POINT('',(-0.984023334657,-48.6603395858));
#1343 = CARTESIAN_POINT('',(-1.060851913451,-48.61712372869));
#1344 = CARTESIAN_POINT('',(-1.096356691516,-48.59851089424));
#1345 = CARTESIAN_POINT('',(-1.13271879875,-48.58092871997));
#1346 = CARTESIAN_POINT('',(-1.169973698383,-48.56453890104));
#1347 = CARTESIAN_POINT('',(-1.208130278293,-48.54952922657));
#1348 = CARTESIAN_POINT('',(-1.298133231533,-48.51856708252));
#1349 = CARTESIAN_POINT('',(-1.350652962927,-48.50370986645));
#1350 = CARTESIAN_POINT('',(-1.404546794631,-48.49203085452));
#1351 = CARTESIAN_POINT('',(-1.459525998995,-48.48400777889));
#1352 = CARTESIAN_POINT('',(-1.51517662428,-48.48));
#1353 = CARTESIAN_POINT('',(-1.570796326795,-48.48));
#1354 = ( GEOMETRIC_REPRESENTATION_CONTEXT(2) 
PARAMETRIC_REPRESENTATION_CONTEXT() REPRESENTATION_CONTEXT('2D SPACE',''
  ) );
#1355 = ORIENTED_EDGE('',*,*,#1356,.F.);
#1356 = EDGE_CURVE('',#962,#1262,#1357,.T.);
#1357 = SURFACE_CURVE('',#1358,(#1401,#1447),.PCURVE_S1.);
#1358 = B_SPLINE_CURVE_WITH_KNOTS('',6,(#1359,#1360,#1361,#1362,#1363,
    #1364,#1365,#1366,#1367,#1368,#1369,#1370,#1371,#1372,#1373,#1374,
    #1375,#1376,#1377,#1378,#1379,#1380,#1381,#1382,#1383,#1384,#1385,
    #1386,#1387,#1388,#1389,#1390,#1391,#1392,#1393,#1394,#1395,#1396,
    #1397,#1398,#1399,#1400),.UNSPECIFIED.,.F.,.F.,(7,5,5,5,5,5,5,5,7),(
    0.,0.135182906587,0.22852443423,0.36898604467,0.508470162363,
    0.66016443374,0.821735213433,0.987563706617,1.),.UNSPECIFIED.);
#1359 = CARTESIAN_POINT('',(50.72,-1.269167370362E-14,12.6));
#1360 = CARTESIAN_POINT('',(50.72,6.860536124751E-02,12.6));
#1361 = CARTESIAN_POINT('',(50.716661157122,0.137243832274,
    12.604034363425));
#1362 = CARTESIAN_POINT('',(50.709977676744,0.204913111367,
    12.612110036993));
#1363 = CARTESIAN_POINT('',(50.700198053743,0.270864122005,
    12.62392973762));
#1364 = CARTESIAN_POINT('',(50.687674611802,0.334567982202,
    12.639072755736));
#1365 = CARTESIAN_POINT('',(50.662516656395,0.437874307472,
    12.669510937729));
#1366 = CARTESIAN_POINT('',(50.65111016908,0.478858145019,
    12.683315686399));
#1367 = CARTESIAN_POINT('',(50.638688978019,0.518550132475,
    12.698354117307));
#1368 = CARTESIAN_POINT('',(50.625365980376,0.556914307651,
    12.714491373742));
#1369 = CARTESIAN_POINT('',(50.611243586733,0.593948097568,
    12.731605163378));
#1370 = CARTESIAN_POINT('',(50.574078883597,0.683429260507,
    12.776665562767));
#1371 = CARTESIAN_POINT('',(50.550139612513,0.734203993166,
    12.805710980112));
#1372 = CARTESIAN_POINT('',(50.524873188714,0.782084656889,
    12.836391351085));
#1373 = CARTESIAN_POINT('',(50.49851185786,0.827190574934,
    12.868429545322));
#1374 = CARTESIAN_POINT('',(50.471234595242,0.869661491781,
    12.901612124303));
#1375 = CARTESIAN_POINT('',(50.415293370427,0.949354946068,
    12.969731178895));
#1376 = CARTESIAN_POINT('',(50.386647980333,0.986601351156,
    13.004644596424));
#1377 = CARTESIAN_POINT('',(50.357359354205,1.021525164185,
    13.040377045257));
#1378 = CARTESIAN_POINT('',(50.327530752677,1.054245753704,
    13.076805531852));
#1379 = CARTESIAN_POINT('',(50.29724255709,1.084868779792,
    13.113834355135));
#1380 = CARTESIAN_POINT('',(50.233181820204,1.144620239764,
    13.192236544061));
#1381 = CARTESIAN_POINT('',(50.199340028006,1.173379682964,
    13.23370198795));
#1382 = CARTESIAN_POINT('',(50.165110325276,1.199891831524,
    13.275692423408));
#1383 = CARTESIAN_POINT('',(50.130558153129,1.224255468584,
    13.318129952627));
#1384 = CARTESIAN_POINT('',(50.095736054061,1.246552146571,
    13.360951994051));
#1385 = CARTESIAN_POINT('',(50.023353282405,1.288473457389,
    13.450075832413));
#1386 = CARTESIAN_POINT('',(49.985763897139,1.307828382992,
    13.496420229246));
#1387 = CARTESIAN_POINT('',(49.947969049535,1.324999760737,
    13.543080837397));
#1388 = CARTESIAN_POINT('',(49.910012761434,1.340051646647,
    13.590005043749));
#1389 = CARTESIAN_POINT('',(49.871932604909,1.353032716951,
    13.637147781323));
#1390 = CARTESIAN_POINT('',(49.794582967426,1.375215470501,
    13.73303997205));
#1391 = CARTESIAN_POINT('',(49.755309686136,1.384308194039,
    13.781797668262));
#1392 = CARTESIAN_POINT('',(49.715976112006,1.391297193407,
    13.830701040499));
#1393 = CARTESIAN_POINT('',(49.676614902987,1.396207295252,
    13.879710473997));
#1394 = CARTESIAN_POINT('',(49.637256681553,1.399050174626,
    13.92878851787));
#1395 = CARTESIAN_POINT('',(49.594981299254,1.399883694183,
    13.981582317092));
#1396 = CARTESIAN_POINT('',(49.592032222919,1.399930214493,
    13.985265554027));
#1397 = CARTESIAN_POINT('',(49.589083342058,1.39996510604,
    13.988948956389));
#1398 = CARTESIAN_POINT('',(49.586134669304,1.399988368212,
    13.992632508578));
#1399 = CARTESIAN_POINT('',(49.583186217285,1.4,13.996316194986));
#1400 = CARTESIAN_POINT('',(49.580237998622,1.4,14.));
#1401 = PCURVE('',#370,#1402);
#1402 = DEFINITIONAL_REPRESENTATION('',(#1403),#1446);
#1403 = B_SPLINE_CURVE_WITH_KNOTS('',6,(#1404,#1405,#1406,#1407,#1408,
    #1409,#1410,#1411,#1412,#1413,#1414,#1415,#1416,#1417,#1418,#1419,
    #1420,#1421,#1422,#1423,#1424,#1425,#1426,#1427,#1428,#1429,#1430,
    #1431,#1432,#1433,#1434,#1435,#1436,#1437,#1438,#1439,#1440,#1441,
    #1442,#1443,#1444,#1445),.UNSPECIFIED.,.F.,.F.,(7,5,5,5,5,5,5,5,7),(
    0.,0.135182906587,0.22852443423,0.36898604467,0.508470162363,
    0.66016443374,0.821735213433,0.987563706617,1.),.UNSPECIFIED.);
#1404 = CARTESIAN_POINT('',(0.,-6.6));
#1405 = CARTESIAN_POINT('',(-1.352629362136E-03,-6.6));
#1406 = CARTESIAN_POINT('',(-2.705911412644E-03,-6.604034363425));
#1407 = CARTESIAN_POINT('',(-4.040477170965E-03,-6.612110036993));
#1408 = CARTESIAN_POINT('',(-5.341949152012E-03,-6.62392973762));
#1409 = CARTESIAN_POINT('',(-6.600138853543E-03,-6.639072755736));
#1410 = CARTESIAN_POINT('',(-8.642585215853E-03,-6.669510937729));
#1411 = CARTESIAN_POINT('',(-9.453480150699E-03,-6.683315686399));
#1412 = CARTESIAN_POINT('',(-1.023949402852E-02,-6.698354117307));
#1413 = CARTESIAN_POINT('',(-1.099993592568E-02,-6.714491373742));
#1414 = CARTESIAN_POINT('',(-1.173475642351E-02,-6.731605163378));
#1415 = CARTESIAN_POINT('',(-1.351215042844E-02,-6.776665562767));
#1416 = CARTESIAN_POINT('',(-1.452250392865E-02,-6.805710980112));
#1417 = CARTESIAN_POINT('',(-1.547713102263E-02,-6.836391351085));
#1418 = CARTESIAN_POINT('',(-1.637830835173E-02,-6.868429545322));
#1419 = CARTESIAN_POINT('',(-1.722869470252E-02,-6.901612124303));
#1420 = CARTESIAN_POINT('',(-1.882803945729E-02,-6.969731178895));
#1421 = CARTESIAN_POINT('',(-1.957744958902E-02,-7.004644596424));
#1422 = CARTESIAN_POINT('',(-2.028203103439E-02,-7.040377045257));
#1423 = CARTESIAN_POINT('',(-2.094403899667E-02,-7.076805531852));
#1424 = CARTESIAN_POINT('',(-2.156545823686E-02,-7.113834355135));
#1425 = CARTESIAN_POINT('',(-2.278178417733E-02,-7.192236544061));
#1426 = CARTESIAN_POINT('',(-2.336953695585E-02,-7.23370198795));
#1427 = CARTESIAN_POINT('',(-2.391365755175E-02,-7.275692423408));
#1428 = CARTESIAN_POINT('',(-2.441597303631E-02,-7.318129952627));
#1429 = CARTESIAN_POINT('',(-2.487797284499E-02,-7.360951994051));
#1430 = CARTESIAN_POINT('',(-2.5751413753E-02,-7.450075832413));
#1431 = CARTESIAN_POINT('',(-2.615757928161E-02,-7.496420229246));
#1432 = CARTESIAN_POINT('',(-2.652091836125E-02,-7.543080837397));
#1433 = CARTESIAN_POINT('',(-2.684255457506E-02,-7.590005043749));
#1434 = CARTESIAN_POINT('',(-2.712330821083E-02,-7.637147781323));
#1435 = CARTESIAN_POINT('',(-2.761056159997E-02,-7.73303997205));
#1436 = CARTESIAN_POINT('',(-2.781490201386E-02,-7.781797668262));
#1437 = CARTESIAN_POINT('',(-2.797740840756E-02,-7.830701040499));
#1438 = CARTESIAN_POINT('',(-2.809841571628E-02,-7.879710473997));
#1439 = CARTESIAN_POINT('',(-2.817799520827E-02,-7.92878851787));
#1440 = CARTESIAN_POINT('',(-2.821882482128E-02,-7.981582317092));
#1441 = CARTESIAN_POINT('',(-2.822143925149E-02,-7.985265554027));
#1442 = CARTESIAN_POINT('',(-2.822381963999E-02,-7.988948956389));
#1443 = CARTESIAN_POINT('',(-2.822596590471E-02,-7.992632508578));
#1444 = CARTESIAN_POINT('',(-2.822787795558E-02,-7.996316194986));
#1445 = CARTESIAN_POINT('',(-2.822955569448E-02,-8.));
#1446 = ( GEOMETRIC_REPRESENTATION_CONTEXT(2) 
PARAMETRIC_REPRESENTATION_CONTEXT() REPRESENTATION_CONTEXT('2D SPACE',''
  ) );
#1447 = PCURVE('',#581,#1448);
#1448 = DEFINITIONAL_REPRESENTATION('',(#1449),#1492);
#1449 = B_SPLINE_CURVE_WITH_KNOTS('',6,(#1450,#1451,#1452,#1453,#1454,
    #1455,#1456,#1457,#1458,#1459,#1460,#1461,#1462,#1463,#1464,#1465,
    #1466,#1467,#1468,#1469,#1470,#1471,#1472,#1473,#1474,#1475,#1476,
    #1477,#1478,#1479,#1480,#1481,#1482,#1483,#1484,#1485,#1486,#1487,
    #1488,#1489,#1490,#1491),.UNSPECIFIED.,.F.,.F.,(7,5,5,5,5,5,5,5,7),(
    0.,0.135182906587,0.22852443423,0.36898604467,0.508470162363,
    0.66016443374,0.821735213433,0.987563706617,1.),.UNSPECIFIED.);
#1450 = CARTESIAN_POINT('',(-4.712388980385,-50.72));
#1451 = CARTESIAN_POINT('',(-4.761392809847,-50.72));
#1452 = CARTESIAN_POINT('',(-4.810420218649,-50.71666115712));
#1453 = CARTESIAN_POINT('',(-4.858967583514,-50.70997767674));
#1454 = CARTESIAN_POINT('',(-4.906710977127,-50.70019805374));
#1455 = CARTESIAN_POINT('',(-4.953415518519,-50.6876746118));
#1456 = CARTESIAN_POINT('',(-5.030342066324,-50.66251665639));
#1457 = CARTESIAN_POINT('',(-5.061209519733,-50.65111016908));
#1458 = CARTESIAN_POINT('',(-5.091496969421,-50.63868897801));
#1459 = CARTESIAN_POINT('',(-5.121197918719,-50.62536598037));
#1460 = CARTESIAN_POINT('',(-5.150322129031,-50.61124358673));
#1461 = CARTESIAN_POINT('',(-5.221883855327,-50.57407888359));
#1462 = CARTESIAN_POINT('',(-5.263607412266,-50.55013961251));
#1463 = CARTESIAN_POINT('',(-5.304152740033,-50.52487318871));
#1464 = CARTESIAN_POINT('',(-5.343608342232,-50.49851185786));
#1465 = CARTESIAN_POINT('',(-5.38206869897,-50.47123459524));
#1466 = CARTESIAN_POINT('',(-5.456953822744,-50.41529337042));
#1467 = CARTESIAN_POINT('',(-5.493380880956,-50.38664798033));
#1468 = CARTESIAN_POINT('',(-5.529020137498,-50.3573593542));
#1469 = CARTESIAN_POINT('',(-5.563951585525,-50.32753075267));
#1470 = CARTESIAN_POINT('',(-5.598246514234,-50.29724255709));
#1471 = CARTESIAN_POINT('',(-5.668657625504,-50.2331818202));
#1472 = CARTESIAN_POINT('',(-5.704666330663,-50.199340028));
#1473 = CARTESIAN_POINT('',(-5.740088867614,-50.16511032527));
#1474 = CARTESIAN_POINT('',(-5.774997030765,-50.13055815312));
#1475 = CARTESIAN_POINT('',(-5.809453882581,-50.09573605406));
#1476 = CARTESIAN_POINT('',(-5.879804516308,-50.0233532824));
#1477 = CARTESIAN_POINT('',(-5.915643797944,-49.98576389713));
#1478 = CARTESIAN_POINT('',(-5.951109437691,-49.94796904953));
#1479 = CARTESIAN_POINT('',(-5.986262779297,-49.91001276143));
#1480 = CARTESIAN_POINT('',(-6.021159498513,-49.8719326049));
#1481 = CARTESIAN_POINT('',(-6.09146272948,-49.79458296742));
#1482 = CARTESIAN_POINT('',(-6.126857403831,-49.75530968613));
#1483 = CARTESIAN_POINT('',(-6.162096010695,-49.715976112));
#1484 = CARTESIAN_POINT('',(-6.197231517076,-49.67661490298));
#1485 = CARTESIAN_POINT('',(-6.232314935289,-49.63725668155));
#1486 = CARTESIAN_POINT('',(-6.270029491506,-49.59498129925));
#1487 = CARTESIAN_POINT('',(-6.272660571754,-49.59203222291));
#1488 = CARTESIAN_POINT('',(-6.275291671807,-49.58908334205));
#1489 = CARTESIAN_POINT('',(-6.277922813305,-49.5861346693));
#1490 = CARTESIAN_POINT('',(-6.280554017884,-49.58318621728));
#1491 = CARTESIAN_POINT('',(-6.28318530718,-49.58023799862));
#1492 = ( GEOMETRIC_REPRESENTATION_CONTEXT(2) 
PARAMETRIC_REPRESENTATION_CONTEXT() REPRESENTATION_CONTEXT('2D SPACE',''
  ) );
#1493 = ADVANCED_FACE('',(#1494),#581,.F.);
#1494 = FACE_BOUND('',#1495,.T.);
#1495 = EDGE_LOOP('',(#1496,#1497,#1518,#1519,#1520,#1521,#1522,#1523));
#1496 = ORIENTED_EDGE('',*,*,#617,.F.);
#1497 = ORIENTED_EDGE('',*,*,#1498,.T.);
#1498 = EDGE_CURVE('',#518,#1262,#1499,.T.);
#1499 = SEAM_CURVE('',#1500,(#1504,#1511),.PCURVE_S1.);
#1500 = LINE('',#1501,#1502);
#1501 = CARTESIAN_POINT('',(0.,1.4,14.));
#1502 = VECTOR('',#1503,1.);
#1503 = DIRECTION('',(1.,0.,0.));
#1504 = PCURVE('',#581,#1505);
#1505 = DEFINITIONAL_REPRESENTATION('',(#1506),#1510);
#1506 = LINE('',#1507,#1508);
#1507 = CARTESIAN_POINT('',(-6.28318530718,0.));
#1508 = VECTOR('',#1509,1.);
#1509 = DIRECTION('',(-0.,-1.));
#1510 = ( GEOMETRIC_REPRESENTATION_CONTEXT(2) 
PARAMETRIC_REPRESENTATION_CONTEXT() REPRESENTATION_CONTEXT('2D SPACE',''
  ) );
#1511 = PCURVE('',#581,#1512);
#1512 = DEFINITIONAL_REPRESENTATION('',(#1513),#1517);
#1513 = LINE('',#1514,#1515);
#1514 = CARTESIAN_POINT('',(-0.,0.));
#1515 = VECTOR('',#1516,1.);
#1516 = DIRECTION('',(-0.,-1.));
#1517 = ( GEOMETRIC_REPRESENTATION_CONTEXT(2) 
PARAMETRIC_REPRESENTATION_CONTEXT() REPRESENTATION_CONTEXT('2D SPACE',''
  ) );
#1518 = ORIENTED_EDGE('',*,*,#1261,.T.);
#1519 = ORIENTED_EDGE('',*,*,#983,.T.);
#1520 = ORIENTED_EDGE('',*,*,#1356,.T.);
#1521 = ORIENTED_EDGE('',*,*,#1498,.F.);
#1522 = ORIENTED_EDGE('',*,*,#517,.F.);
#1523 = ORIENTED_EDGE('',*,*,#763,.F.);
#1524 = ADVANCED_FACE('',(#1525),#750,.F.);
#1525 = FACE_BOUND('',#1526,.F.);
#1526 = EDGE_LOOP('',(#1527));
#1527 = ORIENTED_EDGE('',*,*,#735,.T.);
#1528 = ADVANCED_FACE('',(#1529),#1248,.T.);
#1529 = FACE_BOUND('',#1530,.T.);
#1530 = EDGE_LOOP('',(#1531));
#1531 = ORIENTED_EDGE('',*,*,#1233,.T.);
#1532 = ( GEOMETRIC_REPRESENTATION_CONTEXT(3) 
GLOBAL_UNCERTAINTY_ASSIGNED_CONTEXT((#1536)) 
GLOBAL_UNIT_ASSIGNED_CONTEXT((#1533,#1534,#1535)) REPRESENTATION_CONTEXT
('Context #1','3D Context with UNIT and UNCERTAINTY') );
#1533 = ( LENGTH_UNIT() NAMED_UNIT(*) SI_UNIT(.MILLI.,.METRE.) );
#1534 = ( NAMED_UNIT(*) PLANE_ANGLE_UNIT() SI_UNIT($,.RADIAN.) );
#1535 = ( NAMED_UNIT(*) SI_UNIT($,.STERADIAN.) SOLID_ANGLE_UNIT() );
#1536 = UNCERTAINTY_MEASURE_WITH_UNIT(LENGTH_MEASURE(1.E-07),#1533,
  'distance_accuracy_value','confusion accuracy');
#1537 = PRODUCT_RELATED_PRODUCT_CATEGORY('part',$,(#7));
ENDSEC;
END-ISO-10303-21;
